<svg width="1269" height="474" viewBox="0 0 1269 474" fill="none" xmlns="http://www.w3.org/2000/svg">
<g clip-path="url(#clip0_205_1677)">
<rect width="1269" height="474" rx="12" fill="#50D6CB"/>
<path d="M87.54 305.48L0 393.02V217.95L87.54 305.48Z" fill="#FFB703"/>
<circle cx="1269" cy="18.3317" r="277.111" stroke="black"/>
<g clip-path="url(#clip1_205_1677)">
<path d="M169.265 -4.19642L174.004 0.512085L178.712 -4.22637L173.974 -8.93487L169.265 -4.19642Z" fill="#023047"/>
<path d="M196.708 22.7225L201.099 27.0856L205.462 22.6947L201.071 18.3316L196.708 22.7225Z" fill="#023047"/>
<path d="M224.144 49.6394L228.188 53.6571L232.205 49.6138L228.162 45.5961L224.144 49.6394Z" fill="#023047"/>
<path d="M251.572 76.5612L255.268 80.2335L258.94 76.5378L255.244 72.8655L251.572 76.5612Z" fill="#023047"/>
<path d="M279.007 103.474L282.355 106.801L285.682 103.453L282.334 100.126L279.007 103.474Z" fill="#023047"/>
<path d="M306.462 130.407L309.463 133.388L312.444 130.388L309.444 127.406L306.462 130.407Z" fill="#023047"/>
<path d="M218.535 0.778914L222.925 5.14258L227.289 0.752405L222.899 -3.61126L218.535 0.778914Z" fill="#023047"/>
<path d="M245.945 27.6827L249.988 31.7004L254.006 27.6571L249.963 23.6394L245.945 27.6827Z" fill="#023047"/>
<path d="M273.405 54.6288L277.101 58.3016L280.773 54.6065L277.078 50.9337L273.405 54.6288Z" fill="#023047"/>
<path d="M300.82 81.5263L304.168 84.8533L307.495 81.5051L304.147 78.1782L300.82 81.5263Z" fill="#023047"/>
<path d="M328.256 108.441L331.256 111.423L334.238 108.422L331.237 105.441L328.256 108.441Z" fill="#023047"/>
<path d="M267.759 5.73642L271.802 9.75415L275.82 5.71086L271.777 1.69312L267.759 5.73642Z" fill="#023047"/>
<path d="M295.222 32.6819L298.917 36.3547L302.59 32.6596L298.895 28.9868L295.222 32.6819Z" fill="#023047"/>
<path d="M322.636 59.5809L325.984 62.9078L329.311 59.5597L325.963 56.2327L322.636 59.5809Z" fill="#023047"/>
<path d="M350.093 86.5201L353.093 89.5021L356.075 86.502L353.075 83.52L350.093 86.5201Z" fill="#023047"/>
<path d="M316.996 10.7063L320.691 14.3787L324.364 10.683L320.668 7.01062L316.996 10.7063Z" fill="#023047"/>
<path d="M344.44 37.6259L347.788 40.9529L351.115 37.6048L347.767 34.2778L344.44 37.6259Z" fill="#023047"/>
<path d="M371.9 64.5648L374.9 67.5468L377.882 64.5467L374.882 61.5647L371.9 64.5648Z" fill="#023047"/>
<path d="M366.254 15.68L369.603 19.007L372.93 15.6588L369.581 12.3319L366.254 15.68Z" fill="#023047"/>
<path d="M393.701 42.6016L396.701 45.5831L399.683 42.5826L396.682 39.601L393.701 42.6016Z" fill="#023047"/>
<path d="M415.522 20.6588L418.522 23.6404L421.504 20.6398L418.504 17.6582L415.522 20.6588Z" fill="#023047"/>
<path d="M437.322 -1.29896L440.322 1.68262L443.304 -1.31791L440.303 -4.29949L437.322 -1.29896Z" fill="#023047"/>
</g>
<path d="M1158.77 379.65C1158.77 378.06 1160.06 376.76 1161.66 376.76C1163.25 376.76 1164.55 378.05 1164.55 379.65C1164.55 381.24 1163.26 382.54 1161.66 382.54C1160.06 382.54 1158.77 381.24 1158.77 379.65Z" fill="#E0E0E6"/>
<path d="M1146.14 379.65C1146.14 378.06 1147.43 376.76 1149.03 376.76C1150.62 376.76 1151.92 378.05 1151.92 379.65C1151.92 381.24 1150.63 382.54 1149.03 382.54C1147.43 382.54 1146.14 381.24 1146.14 379.65Z" fill="#E0E0E6"/>
<path d="M1133.51 379.65C1133.51 378.06 1134.8 376.76 1136.4 376.76C1137.99 376.76 1139.29 378.05 1139.29 379.65C1139.29 381.24 1138 382.54 1136.4 382.54C1134.8 382.54 1133.51 381.24 1133.51 379.65Z" fill="#E0E0E6"/>
<path d="M1120.88 379.65C1120.88 378.06 1122.17 376.76 1123.77 376.76C1125.36 376.76 1126.66 378.05 1126.66 379.65C1126.66 381.24 1125.37 382.54 1123.77 382.54C1122.17 382.54 1120.88 381.24 1120.88 379.65Z" fill="#E0E0E6"/>
<path d="M1108.25 379.65C1108.25 378.06 1109.54 376.76 1111.14 376.76C1112.73 376.76 1114.03 378.05 1114.03 379.65C1114.03 381.24 1112.74 382.54 1111.14 382.54C1109.54 382.54 1108.25 381.24 1108.25 379.65Z" fill="#E0E0E6"/>
<path d="M1095.62 379.65C1095.62 378.06 1096.91 376.76 1098.51 376.76C1100.1 376.76 1101.4 378.05 1101.4 379.65C1101.4 381.24 1100.11 382.54 1098.51 382.54C1096.91 382.54 1095.62 381.24 1095.62 379.65Z" fill="#E0E0E6"/>
<path d="M1158.77 367.02C1158.77 365.42 1160.06 364.13 1161.66 364.13C1163.25 364.13 1164.55 365.42 1164.55 367.02C1164.55 368.61 1163.26 369.91 1161.66 369.91C1160.06 369.91 1158.77 368.62 1158.77 367.02Z" fill="#E0E0E6"/>
<path d="M1146.14 367.02C1146.14 365.42 1147.43 364.13 1149.03 364.13C1150.62 364.13 1151.92 365.42 1151.92 367.02C1151.92 368.61 1150.63 369.91 1149.03 369.91C1147.43 369.91 1146.14 368.62 1146.14 367.02Z" fill="#E0E0E6"/>
<path d="M1133.51 367.02C1133.51 365.42 1134.8 364.13 1136.4 364.13C1137.99 364.13 1139.29 365.42 1139.29 367.02C1139.29 368.61 1138 369.91 1136.4 369.91C1134.8 369.91 1133.51 368.62 1133.51 367.02Z" fill="#E0E0E6"/>
<path d="M1120.88 367.02C1120.88 365.42 1122.17 364.13 1123.77 364.13C1125.36 364.13 1126.66 365.42 1126.66 367.02C1126.66 368.61 1125.37 369.91 1123.77 369.91C1122.17 369.91 1120.88 368.62 1120.88 367.02Z" fill="#E0E0E6"/>
<path d="M1108.25 367.02C1108.25 365.42 1109.54 364.13 1111.14 364.13C1112.73 364.13 1114.03 365.42 1114.03 367.02C1114.03 368.61 1112.74 369.91 1111.14 369.91C1109.54 369.91 1108.25 368.62 1108.25 367.02Z" fill="#E0E0E6"/>
<path d="M1095.62 367.02C1095.62 365.42 1096.91 364.13 1098.51 364.13C1100.1 364.13 1101.4 365.42 1101.4 367.02C1101.4 368.61 1100.11 369.91 1098.51 369.91C1096.91 369.91 1095.62 368.62 1095.62 367.02Z" fill="#E0E0E6"/>
<path d="M1158.77 354.39C1158.77 352.8 1160.06 351.5 1161.66 351.5C1163.25 351.5 1164.55 352.79 1164.55 354.39C1164.55 355.98 1163.26 357.28 1161.66 357.28C1160.06 357.28 1158.77 355.99 1158.77 354.39Z" fill="#E0E0E6"/>
<path d="M1146.14 354.39C1146.14 352.8 1147.43 351.5 1149.03 351.5C1150.62 351.5 1151.92 352.79 1151.92 354.39C1151.92 355.98 1150.63 357.28 1149.03 357.28C1147.43 357.28 1146.14 355.99 1146.14 354.39Z" fill="#E0E0E6"/>
<path d="M1133.51 354.39C1133.51 352.8 1134.8 351.5 1136.4 351.5C1137.99 351.5 1139.29 352.79 1139.29 354.39C1139.29 355.98 1138 357.28 1136.4 357.28C1134.8 357.28 1133.51 355.99 1133.51 354.39Z" fill="#E0E0E6"/>
<path d="M1120.88 354.39C1120.88 352.8 1122.17 351.5 1123.77 351.5C1125.36 351.5 1126.66 352.79 1126.66 354.39C1126.66 355.98 1125.37 357.28 1123.77 357.28C1122.17 357.28 1120.88 355.99 1120.88 354.39Z" fill="#E0E0E6"/>
<path d="M1108.25 354.39C1108.25 352.8 1109.54 351.5 1111.14 351.5C1112.73 351.5 1114.03 352.79 1114.03 354.39C1114.03 355.98 1112.74 357.28 1111.14 357.28C1109.54 357.28 1108.25 355.99 1108.25 354.39Z" fill="#E0E0E6"/>
<path d="M1095.62 354.39C1095.62 352.8 1096.91 351.5 1098.51 351.5C1100.1 351.5 1101.4 352.79 1101.4 354.39C1101.4 355.98 1100.11 357.28 1098.51 357.28C1096.91 357.28 1095.62 355.99 1095.62 354.39Z" fill="#E0E0E6"/>
<path d="M1127.19 29.9349C1125.6 29.9349 1124.3 28.6449 1124.3 27.0449C1124.3 25.4549 1125.59 24.1549 1127.19 24.1549C1128.78 24.1549 1130.08 25.4449 1130.08 27.0449C1130.07 28.6449 1128.78 29.9349 1127.19 29.9349Z" fill="#E0E0E6"/>
<path d="M1127.19 42.5649C1125.6 42.5649 1124.3 41.2749 1124.3 39.6749C1124.3 38.0849 1125.59 36.7849 1127.19 36.7849C1128.78 36.7849 1130.08 38.0749 1130.08 39.6749C1130.07 41.2749 1128.78 42.5649 1127.19 42.5649Z" fill="#E0E0E6"/>
<path d="M1127.19 55.1949C1125.6 55.1949 1124.3 53.9049 1124.3 52.3049C1124.3 50.7149 1125.59 49.4149 1127.19 49.4149C1128.78 49.4149 1130.08 50.7049 1130.08 52.3049C1130.07 53.9049 1128.78 55.1949 1127.19 55.1949Z" fill="#E0E0E6"/>
<path d="M1127.19 67.8249C1125.6 67.8249 1124.3 66.5349 1124.3 64.9349C1124.3 63.3449 1125.59 62.0449 1127.19 62.0449C1128.78 62.0449 1130.08 63.3349 1130.08 64.9349C1130.07 66.5349 1128.78 67.8249 1127.19 67.8249Z" fill="#E0E0E6"/>
<path d="M1127.19 80.4549C1125.6 80.4549 1124.3 79.1649 1124.3 77.5649C1124.3 75.9749 1125.59 74.6749 1127.19 74.6749C1128.78 74.6749 1130.08 75.9649 1130.08 77.5649C1130.07 79.1649 1128.78 80.4549 1127.19 80.4549Z" fill="#E0E0E6"/>
<path d="M1127.19 93.0849C1125.6 93.0849 1124.3 91.7949 1124.3 90.1949C1124.3 88.6049 1125.59 87.3049 1127.19 87.3049C1128.78 87.3049 1130.08 88.5949 1130.08 90.1949C1130.07 91.7949 1128.78 93.0849 1127.19 93.0849Z" fill="#E0E0E6"/>
<path d="M1114.56 29.9349C1112.96 29.9349 1111.67 28.6449 1111.67 27.0449C1111.67 25.4549 1112.96 24.1549 1114.56 24.1549C1116.15 24.1549 1117.45 25.4449 1117.45 27.0449C1117.45 28.6449 1116.15 29.9349 1114.56 29.9349Z" fill="#E0E0E6"/>
<path d="M1114.56 42.5649C1112.96 42.5649 1111.67 41.2749 1111.67 39.6749C1111.67 38.0849 1112.96 36.7849 1114.56 36.7849C1116.15 36.7849 1117.45 38.0749 1117.45 39.6749C1117.45 41.2749 1116.15 42.5649 1114.56 42.5649Z" fill="#E0E0E6"/>
<path d="M1114.56 55.1949C1112.96 55.1949 1111.67 53.9049 1111.67 52.3049C1111.67 50.7149 1112.96 49.4149 1114.56 49.4149C1116.15 49.4149 1117.45 50.7049 1117.45 52.3049C1117.45 53.9049 1116.15 55.1949 1114.56 55.1949Z" fill="#E0E0E6"/>
<path d="M1114.56 67.8249C1112.96 67.8249 1111.67 66.5349 1111.67 64.9349C1111.67 63.3449 1112.96 62.0449 1114.56 62.0449C1116.15 62.0449 1117.45 63.3349 1117.45 64.9349C1117.45 66.5349 1116.15 67.8249 1114.56 67.8249Z" fill="#E0E0E6"/>
<path d="M1114.56 80.4549C1112.96 80.4549 1111.67 79.1649 1111.67 77.5649C1111.67 75.9749 1112.96 74.6749 1114.56 74.6749C1116.15 74.6749 1117.45 75.9649 1117.45 77.5649C1117.45 79.1649 1116.15 80.4549 1114.56 80.4549Z" fill="#E0E0E6"/>
<path d="M1114.56 93.0849C1112.96 93.0849 1111.67 91.7949 1111.67 90.1949C1111.67 88.6049 1112.96 87.3049 1114.56 87.3049C1116.15 87.3049 1117.45 88.5949 1117.45 90.1949C1117.45 91.7949 1116.15 93.0849 1114.56 93.0849Z" fill="#E0E0E6"/>
<path d="M1101.93 29.9349C1100.33 29.9349 1099.04 28.6449 1099.04 27.0449C1099.04 25.4549 1100.33 24.1549 1101.93 24.1549C1103.52 24.1549 1104.82 25.4449 1104.82 27.0449C1104.82 28.6449 1103.52 29.9349 1101.93 29.9349Z" fill="#E0E0E6"/>
<path d="M1101.93 42.5649C1100.33 42.5649 1099.04 41.2749 1099.04 39.6749C1099.04 38.0849 1100.33 36.7849 1101.93 36.7849C1103.52 36.7849 1104.82 38.0749 1104.82 39.6749C1104.82 41.2749 1103.52 42.5649 1101.93 42.5649Z" fill="#E0E0E6"/>
<path d="M1101.93 55.1949C1100.33 55.1949 1099.04 53.9049 1099.04 52.3049C1099.04 50.7149 1100.33 49.4149 1101.93 49.4149C1103.52 49.4149 1104.82 50.7049 1104.82 52.3049C1104.82 53.9049 1103.52 55.1949 1101.93 55.1949Z" fill="#E0E0E6"/>
<path d="M1101.93 67.8249C1100.33 67.8249 1099.04 66.5349 1099.04 64.9349C1099.04 63.3449 1100.33 62.0449 1101.93 62.0449C1103.52 62.0449 1104.82 63.3349 1104.82 64.9349C1104.82 66.5349 1103.52 67.8249 1101.93 67.8249Z" fill="#E0E0E6"/>
<path d="M1101.93 80.4549C1100.33 80.4549 1099.04 79.1649 1099.04 77.5649C1099.04 75.9749 1100.33 74.6749 1101.93 74.6749C1103.52 74.6749 1104.82 75.9649 1104.82 77.5649C1104.82 79.1649 1103.52 80.4549 1101.93 80.4549Z" fill="#E0E0E6"/>
<path d="M1101.93 93.0849C1100.33 93.0849 1099.04 91.7949 1099.04 90.1949C1099.04 88.6049 1100.33 87.3049 1101.93 87.3049C1103.52 87.3049 1104.82 88.5949 1104.82 90.1949C1104.82 91.7949 1103.52 93.0849 1101.93 93.0849Z" fill="#E0E0E6"/>
<g clip-path="url(#clip2_205_1677)">
<path d="M104.69 80.2849L87.54 70.3849V90.1949L104.69 80.2849Z" fill="#FEFEFE"/>
<path d="M133.42 80.2849L116.27 70.3849V90.1949L133.42 80.2849Z" fill="#FEFEFE"/>
<path d="M162.15 80.2849L145 70.3849V90.1949L162.15 80.2849Z" fill="#F59D1B"/>
</g>
<g clip-path="url(#clip3_205_1677)">
<path d="M312.091 356.225C312.091 359.575 309.381 362.285 306.031 362.285C302.681 362.285 299.971 359.575 299.971 356.225C299.971 352.875 302.681 350.165 306.031 350.165C309.381 350.165 312.091 352.875 312.091 356.225Z" fill="#023047" stroke="#D9DADB" stroke-miterlimit="10"/>
<path d="M356.541 356.225C356.541 359.575 353.831 362.285 350.481 362.285C347.131 362.285 344.421 359.575 344.421 356.225C344.421 352.875 347.131 350.165 350.481 350.165C353.831 350.165 356.541 352.875 356.541 356.225Z" stroke="#D9DADB" stroke-width="0.7797" stroke-miterlimit="10"/>
<path d="M400.991 356.225C400.991 359.575 398.281 362.285 394.931 362.285C391.581 362.285 388.871 359.575 388.871 356.225C388.871 352.875 391.581 350.165 394.931 350.165C398.281 350.165 400.991 352.875 400.991 356.225Z" stroke="#D9DADB" stroke-width="0.7797" stroke-miterlimit="10"/>
<path d="M267.641 394.615C267.641 397.965 264.931 400.675 261.581 400.675C258.231 400.675 255.521 397.965 255.521 394.615C255.521 391.265 258.231 388.555 261.581 388.555C264.931 388.555 267.641 391.265 267.641 394.615Z" stroke="#D9DADB" stroke-width="0.7797" stroke-miterlimit="10"/>
<path d="M312.091 394.615C312.091 397.965 309.381 400.675 306.031 400.675C302.681 400.675 299.971 397.965 299.971 394.615C299.971 391.265 302.681 388.555 306.031 388.555C309.381 388.555 312.091 391.265 312.091 394.615Z" stroke="#D9DADB" stroke-width="0.7797" stroke-miterlimit="10"/>
<path d="M356.541 394.615C356.541 397.965 353.831 400.675 350.481 400.675C347.131 400.675 344.421 397.965 344.421 394.615C344.421 391.265 347.131 388.555 350.481 388.555C353.831 388.555 356.541 391.265 356.541 394.615Z" stroke="#D9DADB" stroke-width="0.7797" stroke-miterlimit="10"/>
<path d="M356.541 430.315C356.541 433.665 353.831 436.375 350.481 436.375C347.131 436.375 344.421 433.665 344.421 430.315C344.421 426.965 347.131 424.255 350.481 424.255C353.831 424.245 356.541 426.965 356.541 430.315Z" fill="#F59D1B"/>
</g>
<path d="M105.65 174.665V206.255H97.955V193.25H85.985V206.255H78.29V174.665H85.985V187.04H97.955V174.665H105.65ZM132.67 200.675H120.88L118.99 206.255H110.935L122.365 174.665H131.275L142.705 206.255H134.56L132.67 200.675ZM130.69 194.735L126.775 183.17L122.905 194.735H130.69ZM177.639 174.665L166.434 206.255H156.804L145.599 174.665H153.789L161.619 198.515L169.494 174.665H177.639ZM190.35 180.83V187.22H200.655V193.16H190.35V200.09H202.005V206.255H182.655V174.665H202.005V180.83H190.35ZM231.567 206.57C229.257 206.57 227.187 206.195 225.357 205.445C223.527 204.695 222.057 203.585 220.947 202.115C219.867 200.645 219.297 198.875 219.237 196.805H227.427C227.547 197.975 227.952 198.875 228.642 199.505C229.332 200.105 230.232 200.405 231.342 200.405C232.482 200.405 233.382 200.15 234.042 199.64C234.702 199.1 235.032 198.365 235.032 197.435C235.032 196.655 234.762 196.01 234.222 195.5C233.712 194.99 233.067 194.57 232.287 194.24C231.537 193.91 230.457 193.535 229.047 193.115C227.007 192.485 225.342 191.855 224.052 191.225C222.762 190.595 221.652 189.665 220.722 188.435C219.792 187.205 219.327 185.6 219.327 183.62C219.327 180.68 220.392 178.385 222.522 176.735C224.652 175.055 227.427 174.215 230.847 174.215C234.327 174.215 237.132 175.055 239.262 176.735C241.392 178.385 242.532 180.695 242.682 183.665H234.357C234.297 182.645 233.922 181.85 233.232 181.28C232.542 180.68 231.657 180.38 230.577 180.38C229.647 180.38 228.897 180.635 228.327 181.145C227.757 181.625 227.472 182.33 227.472 183.26C227.472 184.28 227.952 185.075 228.912 185.645C229.872 186.215 231.372 186.83 233.412 187.49C235.452 188.18 237.102 188.84 238.362 189.47C239.652 190.1 240.762 191.015 241.692 192.215C242.622 193.415 243.087 194.96 243.087 196.85C243.087 198.65 242.622 200.285 241.692 201.755C240.792 203.225 239.472 204.395 237.732 205.265C235.992 206.135 233.937 206.57 231.567 206.57ZM264.562 206.57C261.592 206.57 258.862 205.88 256.372 204.5C253.912 203.12 251.947 201.2 250.477 198.74C249.037 196.25 248.317 193.46 248.317 190.37C248.317 187.28 249.037 184.505 250.477 182.045C251.947 179.585 253.912 177.665 256.372 176.285C258.862 174.905 261.592 174.215 264.562 174.215C267.532 174.215 270.247 174.905 272.707 176.285C275.197 177.665 277.147 179.585 278.557 182.045C279.997 184.505 280.717 187.28 280.717 190.37C280.717 193.46 279.997 196.25 278.557 198.74C277.117 201.2 275.167 203.12 272.707 204.5C270.247 205.88 267.532 206.57 264.562 206.57ZM264.562 199.55C267.082 199.55 269.092 198.71 270.592 197.03C272.122 195.35 272.887 193.13 272.887 190.37C272.887 187.58 272.122 185.36 270.592 183.71C269.092 182.03 267.082 181.19 264.562 181.19C262.012 181.19 259.972 182.015 258.442 183.665C256.942 185.315 256.192 187.55 256.192 190.37C256.192 193.16 256.942 195.395 258.442 197.075C259.972 198.725 262.012 199.55 264.562 199.55ZM322.573 174.665V206.255H314.878V187.31L307.813 206.255H301.603L294.493 187.265V206.255H286.798V174.665H295.888L304.753 196.535L313.528 174.665H322.573ZM337.602 180.83V187.22H347.907V193.16H337.602V200.09H349.257V206.255H329.907V174.665H349.257V180.83H337.602ZM370.993 206.57C368.023 206.57 365.293 205.88 362.803 204.5C360.343 203.12 358.378 201.2 356.908 198.74C355.468 196.25 354.748 193.46 354.748 190.37C354.748 187.28 355.468 184.505 356.908 182.045C358.378 179.585 360.343 177.665 362.803 176.285C365.293 174.905 368.023 174.215 370.993 174.215C373.963 174.215 376.678 174.905 379.138 176.285C381.628 177.665 383.578 179.585 384.988 182.045C386.428 184.505 387.148 187.28 387.148 190.37C387.148 193.46 386.428 196.25 384.988 198.74C383.548 201.2 381.598 203.12 379.138 204.5C376.678 205.88 373.963 206.57 370.993 206.57ZM370.993 199.55C373.513 199.55 375.523 198.71 377.023 197.03C378.553 195.35 379.318 193.13 379.318 190.37C379.318 187.58 378.553 185.36 377.023 183.71C375.523 182.03 373.513 181.19 370.993 181.19C368.443 181.19 366.403 182.015 364.873 183.665C363.373 185.315 362.623 187.55 362.623 190.37C362.623 193.16 363.373 195.395 364.873 197.075C366.403 198.725 368.443 199.55 370.993 199.55ZM421.488 206.255H413.793L400.923 186.77V206.255H393.228V174.665H400.923L413.793 194.24V174.665H421.488V206.255ZM436.561 180.83V187.22H446.866V193.16H436.561V200.09H448.216V206.255H428.866V174.665H448.216V180.83H436.561ZM481.288 206.57C478.318 206.57 475.588 205.88 473.098 204.5C470.638 203.12 468.673 201.2 467.203 198.74C465.763 196.25 465.043 193.46 465.043 190.37C465.043 187.28 465.763 184.505 467.203 182.045C468.673 179.585 470.638 177.665 473.098 176.285C475.588 174.905 478.318 174.215 481.288 174.215C484.258 174.215 486.973 174.905 489.433 176.285C491.923 177.665 493.873 179.585 495.283 182.045C496.723 184.505 497.443 187.28 497.443 190.37C497.443 193.46 496.723 196.25 495.283 198.74C493.843 201.2 491.893 203.12 489.433 204.5C486.973 205.88 484.258 206.57 481.288 206.57ZM481.288 199.55C483.808 199.55 485.818 198.71 487.318 197.03C488.848 195.35 489.613 193.13 489.613 190.37C489.613 187.58 488.848 185.36 487.318 183.71C485.818 182.03 483.808 181.19 481.288 181.19C478.738 181.19 476.698 182.015 475.168 183.665C473.668 185.315 472.918 187.55 472.918 190.37C472.918 193.16 473.668 195.395 475.168 197.075C476.698 198.725 478.738 199.55 481.288 199.55ZM531.784 206.255H524.089L511.219 186.77V206.255H503.524V174.665H511.219L524.089 194.24V174.665H531.784V206.255ZM577.588 174.665L566.653 195.815V206.255H558.958V195.815L548.023 174.665H556.753L562.873 187.895L568.948 174.665H577.588ZM597.429 206.57C594.459 206.57 591.729 205.88 589.239 204.5C586.779 203.12 584.814 201.2 583.344 198.74C581.904 196.25 581.184 193.46 581.184 190.37C581.184 187.28 581.904 184.505 583.344 182.045C584.814 179.585 586.779 177.665 589.239 176.285C591.729 174.905 594.459 174.215 597.429 174.215C600.399 174.215 603.114 174.905 605.574 176.285C608.064 177.665 610.014 179.585 611.424 182.045C612.864 184.505 613.584 187.28 613.584 190.37C613.584 193.46 612.864 196.25 611.424 198.74C609.984 201.2 608.034 203.12 605.574 204.5C603.114 205.88 600.399 206.57 597.429 206.57ZM597.429 199.55C599.949 199.55 601.959 198.71 603.459 197.03C604.989 195.35 605.754 193.13 605.754 190.37C605.754 187.58 604.989 185.36 603.459 183.71C601.959 182.03 599.949 181.19 597.429 181.19C594.879 181.19 592.839 182.015 591.309 183.665C589.809 185.315 589.059 187.55 589.059 190.37C589.059 193.16 589.809 195.395 591.309 197.075C592.839 198.725 594.879 199.55 597.429 199.55ZM627.225 174.665V193.565C627.225 195.455 627.69 196.91 628.62 197.93C629.55 198.95 630.915 199.46 632.715 199.46C634.515 199.46 635.895 198.95 636.855 197.93C637.815 196.91 638.295 195.455 638.295 193.565V174.665H645.99V193.52C645.99 196.34 645.39 198.725 644.19 200.675C642.99 202.625 641.37 204.095 639.33 205.085C637.32 206.075 635.07 206.57 632.58 206.57C630.09 206.57 627.855 206.09 625.875 205.13C623.925 204.14 622.38 202.67 621.24 200.72C620.1 198.74 619.53 196.34 619.53 193.52V174.665H627.225ZM669.303 206.255L662.733 194.33H660.888V206.255H653.193V174.665H666.108C668.598 174.665 670.713 175.1 672.453 175.97C674.223 176.84 675.543 178.04 676.413 179.57C677.283 181.07 677.718 182.75 677.718 184.61C677.718 186.71 677.118 188.585 675.918 190.235C674.748 191.885 673.008 193.055 670.698 193.745L677.988 206.255H669.303ZM660.888 188.885H665.658C667.068 188.885 668.118 188.54 668.808 187.85C669.528 187.16 669.888 186.185 669.888 184.925C669.888 183.725 669.528 182.78 668.808 182.09C668.118 181.4 667.068 181.055 665.658 181.055H660.888V188.885ZM731.46 174.665V206.255H723.765V187.31L716.7 206.255H710.49L703.38 187.265V206.255H695.685V174.665H704.775L713.64 196.535L722.415 174.665H731.46ZM746.488 174.665V206.255H738.793V174.665H746.488ZM782.125 206.255H774.43L761.56 186.77V206.255H753.865V174.665H761.56L774.43 194.24V174.665H782.125V206.255ZM801.338 174.665C804.668 174.665 807.578 175.325 810.068 176.645C812.558 177.965 814.478 179.825 815.828 182.225C817.208 184.595 817.898 187.34 817.898 190.46C817.898 193.55 817.208 196.295 815.828 198.695C814.478 201.095 812.543 202.955 810.023 204.275C807.533 205.595 804.638 206.255 801.338 206.255H789.503V174.665H801.338ZM800.843 199.595C803.753 199.595 806.018 198.8 807.638 197.21C809.258 195.62 810.068 193.37 810.068 190.46C810.068 187.55 809.258 185.285 807.638 183.665C806.018 182.045 803.753 181.235 800.843 181.235H797.198V199.595H800.843ZM858.059 174.665V180.83H849.689V206.255H841.994V180.83H833.624V174.665H858.059ZM878.661 206.57C875.691 206.57 872.961 205.88 870.471 204.5C868.011 203.12 866.046 201.2 864.576 198.74C863.136 196.25 862.416 193.46 862.416 190.37C862.416 187.28 863.136 184.505 864.576 182.045C866.046 179.585 868.011 177.665 870.471 176.285C872.961 174.905 875.691 174.215 878.661 174.215C881.631 174.215 884.346 174.905 886.806 176.285C889.296 177.665 891.246 179.585 892.656 182.045C894.096 184.505 894.816 187.28 894.816 190.37C894.816 193.46 894.096 196.25 892.656 198.74C891.216 201.2 889.266 203.12 886.806 204.5C884.346 205.88 881.631 206.57 878.661 206.57ZM878.661 199.55C881.181 199.55 883.191 198.71 884.691 197.03C886.221 195.35 886.986 193.13 886.986 190.37C886.986 187.58 886.221 185.36 884.691 183.71C883.191 182.03 881.181 181.19 878.661 181.19C876.111 181.19 874.071 182.015 872.541 183.665C871.041 185.315 870.291 187.55 870.291 190.37C870.291 193.16 871.041 195.395 872.541 197.075C874.071 198.725 876.111 199.55 878.661 199.55ZM933.203 184.655C932.633 183.605 931.808 182.81 930.728 182.27C929.678 181.7 928.433 181.415 926.993 181.415C924.503 181.415 922.508 182.24 921.008 183.89C919.508 185.51 918.758 187.685 918.758 190.415C918.758 193.325 919.538 195.605 921.098 197.255C922.688 198.875 924.863 199.685 927.623 199.685C929.513 199.685 931.103 199.205 932.393 198.245C933.713 197.285 934.673 195.905 935.273 194.105H925.508V188.435H942.248V195.59C941.678 197.51 940.703 199.295 939.323 200.945C937.973 202.595 936.248 203.93 934.148 204.95C932.048 205.97 929.678 206.48 927.038 206.48C923.918 206.48 921.128 205.805 918.668 204.455C916.238 203.075 914.333 201.17 912.953 198.74C911.603 196.31 910.928 193.535 910.928 190.415C910.928 187.295 911.603 184.52 912.953 182.09C914.333 179.63 916.238 177.725 918.668 176.375C921.098 174.995 923.873 174.305 926.993 174.305C930.773 174.305 933.953 175.22 936.533 177.05C939.143 178.88 940.868 181.415 941.708 184.655H933.203ZM955.871 174.665V193.565C955.871 195.455 956.336 196.91 957.266 197.93C958.196 198.95 959.561 199.46 961.361 199.46C963.161 199.46 964.541 198.95 965.501 197.93C966.461 196.91 966.941 195.455 966.941 193.565V174.665H974.636V193.52C974.636 196.34 974.036 198.725 972.836 200.675C971.636 202.625 970.016 204.095 967.976 205.085C965.966 206.075 963.716 206.57 961.226 206.57C958.736 206.57 956.501 206.09 954.521 205.13C952.571 204.14 951.026 202.67 949.886 200.72C948.746 198.74 948.176 196.34 948.176 193.52V174.665H955.871ZM989.534 174.665V206.255H981.839V174.665H989.534ZM1008.75 174.665C1012.08 174.665 1014.99 175.325 1017.48 176.645C1019.97 177.965 1021.89 179.825 1023.24 182.225C1024.62 184.595 1025.31 187.34 1025.31 190.46C1025.31 193.55 1024.62 196.295 1023.24 198.695C1021.89 201.095 1019.95 202.955 1017.43 204.275C1014.94 205.595 1012.05 206.255 1008.75 206.255H996.91V174.665H1008.75ZM1008.25 199.595C1011.16 199.595 1013.43 198.8 1015.05 197.21C1016.67 195.62 1017.48 193.37 1017.48 190.46C1017.48 187.55 1016.67 185.285 1015.05 183.665C1013.43 182.045 1011.16 181.235 1008.25 181.235H1004.61V199.595H1008.25ZM1039.1 180.83V187.22H1049.41V193.16H1039.1V200.09H1050.76V206.255H1031.41V174.665H1050.76V180.83H1039.1ZM1095.98 174.665L1085.04 195.815V206.255H1077.35V195.815L1066.41 174.665H1075.14L1081.26 187.895L1087.34 174.665H1095.98ZM1115.82 206.57C1112.85 206.57 1110.12 205.88 1107.63 204.5C1105.17 203.12 1103.2 201.2 1101.73 198.74C1100.29 196.25 1099.57 193.46 1099.57 190.37C1099.57 187.28 1100.29 184.505 1101.73 182.045C1103.2 179.585 1105.17 177.665 1107.63 176.285C1110.12 174.905 1112.85 174.215 1115.82 174.215C1118.79 174.215 1121.5 174.905 1123.96 176.285C1126.45 177.665 1128.4 179.585 1129.81 182.045C1131.25 184.505 1131.97 187.28 1131.97 190.37C1131.97 193.46 1131.25 196.25 1129.81 198.74C1128.37 201.2 1126.42 203.12 1123.96 204.5C1121.5 205.88 1118.79 206.57 1115.82 206.57ZM1115.82 199.55C1118.34 199.55 1120.35 198.71 1121.85 197.03C1123.38 195.35 1124.14 193.13 1124.14 190.37C1124.14 187.58 1123.38 185.36 1121.85 183.71C1120.35 182.03 1118.34 181.19 1115.82 181.19C1113.27 181.19 1111.23 182.015 1109.7 183.665C1108.2 185.315 1107.45 187.55 1107.45 190.37C1107.45 193.16 1108.2 195.395 1109.7 197.075C1111.23 198.725 1113.27 199.55 1115.82 199.55ZM1145.61 174.665V193.565C1145.61 195.455 1146.08 196.91 1147.01 197.93C1147.94 198.95 1149.3 199.46 1151.1 199.46C1152.9 199.46 1154.28 198.95 1155.24 197.93C1156.2 196.91 1156.68 195.455 1156.68 193.565V174.665H1164.38V193.52C1164.38 196.34 1163.78 198.725 1162.58 200.675C1161.38 202.625 1159.76 204.095 1157.72 205.085C1155.71 206.075 1153.46 206.57 1150.97 206.57C1148.48 206.57 1146.24 206.09 1144.26 205.13C1142.31 204.14 1140.77 202.67 1139.63 200.72C1138.49 198.74 1137.92 196.34 1137.92 193.52V174.665H1145.61ZM1180.81 172.91C1184.02 172.91 1186.58 173.75 1188.5 175.43C1190.45 177.11 1191.43 179.48 1191.43 182.54C1191.43 185.36 1190.5 187.565 1188.64 189.155C1186.81 190.715 1184.38 191.51 1181.35 191.54L1181.12 194.915H1174.37L1174.15 186.545H1176.85C1179.16 186.545 1180.91 186.26 1182.11 185.69C1183.34 185.12 1183.96 184.085 1183.96 182.585C1183.96 181.535 1183.67 180.71 1183.1 180.11C1182.53 179.51 1181.74 179.21 1180.72 179.21C1179.64 179.21 1178.8 179.525 1178.2 180.155C1177.6 180.755 1177.3 181.58 1177.3 182.63H1170.05C1169.99 180.8 1170.37 179.15 1171.18 177.68C1172.02 176.21 1173.25 175.055 1174.87 174.215C1176.52 173.345 1178.5 172.91 1180.81 172.91ZM1177.84 206.615C1176.49 206.615 1175.38 206.225 1174.51 205.445C1173.67 204.635 1173.25 203.645 1173.25 202.475C1173.25 201.275 1173.67 200.27 1174.51 199.46C1175.38 198.65 1176.49 198.245 1177.84 198.245C1179.16 198.245 1180.24 198.65 1181.08 199.46C1181.95 200.27 1182.38 201.275 1182.38 202.475C1182.38 203.645 1181.95 204.635 1181.08 205.445C1180.24 206.225 1179.16 206.615 1177.84 206.615Z" fill="#023047"/>
<rect x="410.8" y="233.255" width="447.4" height="50" rx="25" fill="#FFB703"/>
<path d="M465.316 247.485L458.93 269.03H454.931L450.405 252.724L445.6 269.03L441.632 269.061L435.525 247.485H439.276L443.74 265.031L448.576 247.485H452.544L457.039 264.938L461.534 247.485H465.316ZM485.126 260.071C485.126 260.712 485.085 261.29 485.002 261.807H471.951C472.054 263.171 472.561 264.266 473.47 265.093C474.379 265.92 475.495 266.333 476.818 266.333C478.719 266.333 480.063 265.537 480.848 263.946H484.661C484.144 265.517 483.204 266.808 481.84 267.821C480.497 268.813 478.823 269.309 476.818 269.309C475.185 269.309 473.718 268.947 472.416 268.224C471.135 267.48 470.122 266.447 469.378 265.124C468.655 263.781 468.293 262.231 468.293 260.474C468.293 258.717 468.644 257.178 469.347 255.855C470.07 254.512 471.073 253.478 472.354 252.755C473.656 252.032 475.144 251.67 476.818 251.67C478.43 251.67 479.866 252.021 481.127 252.724C482.388 253.427 483.369 254.419 484.072 255.7C484.775 256.961 485.126 258.418 485.126 260.071ZM481.437 258.955C481.416 257.653 480.951 256.609 480.042 255.824C479.133 255.039 478.006 254.646 476.663 254.646C475.444 254.646 474.4 255.039 473.532 255.824C472.664 256.589 472.147 257.632 471.982 258.955H481.437ZM490.402 247.485H494.246L490.991 254.863H488.511L490.402 247.485ZM502.126 246.09V269.03H498.592V246.09H502.126ZM511.539 246.09V269.03H508.005V246.09H511.539ZM530.246 254.491C530.845 253.664 531.662 252.993 532.695 252.476C533.749 251.939 534.917 251.67 536.198 251.67C537.707 251.67 539.071 252.032 540.29 252.755C541.509 253.478 542.47 254.512 543.173 255.855C543.876 257.178 544.227 258.697 544.227 260.412C544.227 262.127 543.876 263.667 543.173 265.031C542.47 266.374 541.499 267.428 540.259 268.193C539.04 268.937 537.686 269.309 536.198 269.309C534.875 269.309 533.697 269.051 532.664 268.534C531.651 268.017 530.845 267.356 530.246 266.55V269.03H526.712V246.09H530.246V254.491ZM540.631 260.412C540.631 259.234 540.383 258.221 539.887 257.374C539.412 256.506 538.771 255.855 537.965 255.421C537.18 254.966 536.332 254.739 535.423 254.739C534.534 254.739 533.687 254.966 532.881 255.421C532.096 255.876 531.455 256.537 530.959 257.405C530.484 258.273 530.246 259.296 530.246 260.474C530.246 261.652 530.484 262.685 530.959 263.574C531.455 264.442 532.096 265.103 532.881 265.558C533.687 266.013 534.534 266.24 535.423 266.24C536.332 266.24 537.18 266.013 537.965 265.558C538.771 265.083 539.412 264.401 539.887 263.512C540.383 262.623 540.631 261.59 540.631 260.412ZM552.496 254.429C553.012 253.561 553.694 252.889 554.542 252.414C555.41 251.918 556.433 251.67 557.611 251.67V255.328H556.712C555.327 255.328 554.273 255.679 553.55 256.382C552.847 257.085 552.496 258.304 552.496 260.04V269.03H548.962V251.949H552.496V254.429ZM563.897 249.686C563.257 249.686 562.719 249.469 562.285 249.035C561.851 248.601 561.634 248.064 561.634 247.423C561.634 246.782 561.851 246.245 562.285 245.811C562.719 245.377 563.257 245.16 563.897 245.16C564.517 245.16 565.044 245.377 565.478 245.811C565.912 246.245 566.129 246.782 566.129 247.423C566.129 248.064 565.912 248.601 565.478 249.035C565.044 249.469 564.517 249.686 563.897 249.686ZM565.633 251.949V269.03H562.099V251.949H565.633ZM580.131 251.67C581.474 251.67 582.673 251.949 583.727 252.507C584.802 253.065 585.639 253.892 586.238 254.987C586.837 256.082 587.137 257.405 587.137 258.955V269.03H583.634V259.482C583.634 257.953 583.252 256.785 582.487 255.979C581.722 255.152 580.679 254.739 579.356 254.739C578.033 254.739 576.979 255.152 576.194 255.979C575.429 256.785 575.047 257.953 575.047 259.482V269.03H571.513V251.949H575.047V253.902C575.626 253.199 576.359 252.652 577.248 252.259C578.157 251.866 579.118 251.67 580.131 251.67ZM599.767 251.67C601.09 251.67 602.257 251.939 603.27 252.476C604.303 252.993 605.109 253.644 605.688 254.429V251.949H609.253V269.309C609.253 270.88 608.922 272.275 608.261 273.494C607.6 274.734 606.639 275.705 605.378 276.408C604.138 277.111 602.65 277.462 600.914 277.462C598.599 277.462 596.677 276.914 595.148 275.819C593.619 274.744 592.751 273.277 592.544 271.417H596.047C596.316 272.306 596.884 273.019 597.752 273.556C598.641 274.114 599.695 274.393 600.914 274.393C602.34 274.393 603.487 273.959 604.355 273.091C605.244 272.223 605.688 270.962 605.688 269.309V266.457C605.089 267.263 604.272 267.945 603.239 268.503C602.226 269.04 601.069 269.309 599.767 269.309C598.279 269.309 596.915 268.937 595.675 268.193C594.456 267.428 593.484 266.374 592.761 265.031C592.058 263.667 591.707 262.127 591.707 260.412C591.707 258.697 592.058 257.178 592.761 255.855C593.484 254.532 594.456 253.509 595.675 252.786C596.915 252.042 598.279 251.67 599.767 251.67ZM605.688 260.474C605.688 259.296 605.44 258.273 604.944 257.405C604.469 256.537 603.838 255.876 603.053 255.421C602.268 254.966 601.42 254.739 600.511 254.739C599.602 254.739 598.754 254.966 597.969 255.421C597.184 255.855 596.543 256.506 596.047 257.374C595.572 258.221 595.334 259.234 595.334 260.412C595.334 261.59 595.572 262.623 596.047 263.512C596.543 264.401 597.184 265.083 597.969 265.558C598.775 266.013 599.622 266.24 600.511 266.24C601.42 266.24 602.268 266.013 603.053 265.558C603.838 265.103 604.469 264.442 604.944 263.574C605.44 262.685 605.688 261.652 605.688 260.474ZM628.55 254.832V264.287C628.55 264.928 628.695 265.393 628.984 265.682C629.294 265.951 629.811 266.085 630.534 266.085H632.704V269.03H629.914C628.323 269.03 627.104 268.658 626.256 267.914C625.409 267.17 624.985 265.961 624.985 264.287V254.832H622.97V251.949H624.985V247.702H628.55V251.949H632.704V254.832H628.55ZM646.037 251.67C647.339 251.67 648.496 251.949 649.509 252.507C650.542 253.065 651.348 253.892 651.927 254.987C652.526 256.082 652.826 257.405 652.826 258.955V269.03H649.323V259.482C649.323 257.953 648.94 256.785 648.176 255.979C647.411 255.152 646.367 254.739 645.045 254.739C643.722 254.739 642.668 255.152 641.883 255.979C641.118 256.785 640.736 257.953 640.736 259.482V269.03H637.202V246.09H640.736V253.933C641.335 253.21 642.089 252.652 642.999 252.259C643.929 251.866 644.941 251.67 646.037 251.67ZM674.228 260.071C674.228 260.712 674.187 261.29 674.104 261.807H661.053C661.157 263.171 661.663 264.266 662.572 265.093C663.482 265.92 664.598 266.333 665.92 266.333C667.822 266.333 669.165 265.537 669.95 263.946H673.763C673.247 265.517 672.306 266.808 670.942 267.821C669.599 268.813 667.925 269.309 665.92 269.309C664.288 269.309 662.82 268.947 661.518 268.224C660.237 267.48 659.224 266.447 658.48 265.124C657.757 263.781 657.395 262.231 657.395 260.474C657.395 258.717 657.747 257.178 658.449 255.855C659.173 254.512 660.175 253.478 661.456 252.755C662.758 252.032 664.246 251.67 665.92 251.67C667.532 251.67 668.969 252.021 670.229 252.724C671.49 253.427 672.472 254.419 673.174 255.7C673.877 256.961 674.228 258.418 674.228 260.071ZM670.539 258.955C670.519 257.653 670.054 256.609 669.144 255.824C668.235 255.039 667.109 254.646 665.765 254.646C664.546 254.646 663.502 255.039 662.634 255.824C661.766 256.589 661.25 257.632 661.084 258.955H670.539ZM699.623 251.67C700.967 251.67 702.165 251.949 703.219 252.507C704.294 253.065 705.131 253.892 705.73 254.987C706.35 256.082 706.66 257.405 706.66 258.955V269.03H703.157V259.482C703.157 257.953 702.775 256.785 702.01 255.979C701.246 255.152 700.202 254.739 698.879 254.739C697.557 254.739 696.503 255.152 695.717 255.979C694.953 256.785 694.57 257.953 694.57 259.482V269.03H691.067V259.482C691.067 257.953 690.685 256.785 689.92 255.979C689.156 255.152 688.112 254.739 686.789 254.739C685.467 254.739 684.413 255.152 683.627 255.979C682.863 256.785 682.48 257.953 682.48 259.482V269.03H678.946V251.949H682.48V253.902C683.059 253.199 683.793 252.652 684.681 252.259C685.57 251.866 686.521 251.67 687.533 251.67C688.897 251.67 690.117 251.959 691.191 252.538C692.266 253.117 693.093 253.954 693.671 255.049C694.188 254.016 694.994 253.199 696.089 252.6C697.185 251.98 698.363 251.67 699.623 251.67ZM725.813 254.832V264.287C725.813 264.928 725.958 265.393 726.247 265.682C726.557 265.951 727.074 266.085 727.797 266.085H729.967V269.03H727.177C725.586 269.03 724.366 268.658 723.519 267.914C722.672 267.17 722.248 265.961 722.248 264.287V254.832H720.233V251.949H722.248V247.702H725.813V251.949H729.967V254.832H725.813ZM741.873 269.309C740.261 269.309 738.804 268.947 737.502 268.224C736.2 267.48 735.177 266.447 734.433 265.124C733.689 263.781 733.317 262.231 733.317 260.474C733.317 258.738 733.699 257.198 734.464 255.855C735.229 254.512 736.272 253.478 737.595 252.755C738.918 252.032 740.395 251.67 742.028 251.67C743.661 251.67 745.138 252.032 746.461 252.755C747.784 253.478 748.827 254.512 749.592 255.855C750.357 257.198 750.739 258.738 750.739 260.474C750.739 262.21 750.346 263.75 749.561 265.093C748.776 266.436 747.701 267.48 746.337 268.224C744.994 268.947 743.506 269.309 741.873 269.309ZM741.873 266.24C742.782 266.24 743.63 266.023 744.415 265.589C745.221 265.155 745.872 264.504 746.368 263.636C746.864 262.768 747.112 261.714 747.112 260.474C747.112 259.234 746.874 258.19 746.399 257.343C745.924 256.475 745.293 255.824 744.508 255.39C743.723 254.956 742.875 254.739 741.966 254.739C741.057 254.739 740.209 254.956 739.424 255.39C738.659 255.824 738.05 256.475 737.595 257.343C737.14 258.19 736.913 259.234 736.913 260.474C736.913 262.313 737.378 263.739 738.308 264.752C739.259 265.744 740.447 266.24 741.873 266.24ZM780.141 251.949L769.663 277.059H766.005L769.477 268.751L762.75 251.949H766.687L771.492 264.969L776.483 251.949H780.141ZM791.457 269.309C789.845 269.309 788.388 268.947 787.086 268.224C785.784 267.48 784.761 266.447 784.017 265.124C783.273 263.781 782.901 262.231 782.901 260.474C782.901 258.738 783.284 257.198 784.048 255.855C784.813 254.512 785.857 253.478 787.179 252.755C788.502 252.032 789.98 251.67 791.612 251.67C793.245 251.67 794.723 252.032 796.045 252.755C797.368 253.478 798.412 254.512 799.176 255.855C799.941 257.198 800.323 258.738 800.323 260.474C800.323 262.21 799.931 263.75 799.145 265.093C798.36 266.436 797.285 267.48 795.921 268.224C794.578 268.947 793.09 269.309 791.457 269.309ZM791.457 266.24C792.367 266.24 793.214 266.023 793.999 265.589C794.805 265.155 795.456 264.504 795.952 263.636C796.448 262.768 796.696 261.714 796.696 260.474C796.696 259.234 796.459 258.19 795.983 257.343C795.508 256.475 794.878 255.824 794.092 255.39C793.307 254.956 792.46 254.739 791.55 254.739C790.641 254.739 789.794 254.956 789.008 255.39C788.244 255.824 787.634 256.475 787.179 257.343C786.725 258.19 786.497 259.234 786.497 260.474C786.497 262.313 786.962 263.739 787.892 264.752C788.843 265.744 790.031 266.24 791.457 266.24ZM820.526 251.949V269.03H816.992V267.015C816.434 267.718 815.7 268.276 814.791 268.689C813.902 269.082 812.952 269.278 811.939 269.278C810.596 269.278 809.387 268.999 808.312 268.441C807.258 267.883 806.421 267.056 805.801 265.961C805.202 264.866 804.902 263.543 804.902 261.993V251.949H808.405V261.466C808.405 262.995 808.787 264.173 809.552 265C810.317 265.806 811.36 266.209 812.683 266.209C814.006 266.209 815.049 265.806 815.814 265C816.599 264.173 816.992 262.995 816.992 261.466V251.949H820.526ZM830.862 247.485L830.459 262.52H827.514L827.111 247.485H830.862ZM829.095 269.247C828.454 269.247 827.917 269.03 827.483 268.596C827.049 268.162 826.832 267.625 826.832 266.984C826.832 266.343 827.049 265.806 827.483 265.372C827.917 264.938 828.454 264.721 829.095 264.721C829.715 264.721 830.242 264.938 830.676 265.372C831.11 265.806 831.327 266.343 831.327 266.984C831.327 267.625 831.11 268.162 830.676 268.596C830.242 269.03 829.715 269.247 829.095 269.247Z" fill="#023047"/>
<rect x="503" y="324.255" width="263" height="70" rx="35" fill="#023047"/>
<path d="M536.777 367.255L532.937 360.583H530.849V367.255H528.113V350.575H533.873C535.153 350.575 536.233 350.799 537.113 351.247C538.009 351.695 538.673 352.295 539.105 353.047C539.553 353.799 539.777 354.639 539.777 355.567C539.777 356.655 539.457 357.647 538.817 358.543C538.193 359.423 537.225 360.023 535.913 360.343L540.041 367.255H536.777ZM530.849 358.399H533.873C534.897 358.399 535.665 358.143 536.177 357.631C536.705 357.119 536.969 356.431 536.969 355.567C536.969 354.703 536.713 354.031 536.201 353.551C535.689 353.055 534.913 352.807 533.873 352.807H530.849V358.399ZM555.397 360.319C555.397 360.815 555.365 361.263 555.301 361.663H545.197C545.277 362.719 545.669 363.567 546.373 364.207C547.077 364.847 547.941 365.167 548.965 365.167C550.437 365.167 551.477 364.551 552.085 363.319H555.037C554.637 364.535 553.909 365.535 552.853 366.319C551.813 367.087 550.517 367.471 548.965 367.471C547.701 367.471 546.565 367.191 545.557 366.631C544.565 366.055 543.781 365.255 543.205 364.231C542.645 363.191 542.365 361.991 542.365 360.631C542.365 359.271 542.637 358.079 543.181 357.055C543.741 356.015 544.517 355.215 545.509 354.655C546.517 354.095 547.669 353.815 548.965 353.815C550.213 353.815 551.325 354.087 552.301 354.631C553.277 355.175 554.037 355.943 554.581 356.935C555.125 357.911 555.397 359.039 555.397 360.319ZM552.541 359.455C552.525 358.447 552.165 357.639 551.461 357.031C550.757 356.423 549.885 356.119 548.845 356.119C547.901 356.119 547.093 356.423 546.421 357.031C545.749 357.623 545.349 358.431 545.221 359.455H552.541ZM557.177 360.583C557.177 359.255 557.449 358.079 557.993 357.055C558.553 356.031 559.305 355.239 560.249 354.679C561.209 354.103 562.273 353.815 563.441 353.815C564.465 353.815 565.369 354.023 566.153 354.439C566.953 354.855 567.569 355.359 568.001 355.951V354.031H570.761V373.543H568.001V365.335C567.569 365.927 566.945 366.431 566.129 366.847C565.313 367.263 564.385 367.471 563.345 367.471C562.209 367.471 561.169 367.183 560.225 366.607C559.297 366.015 558.553 365.199 557.993 364.159C557.449 363.103 557.177 361.911 557.177 360.583ZM568.001 360.631C568.001 359.719 567.809 358.927 567.425 358.255C567.057 357.583 566.569 357.071 565.961 356.719C565.353 356.367 564.697 356.191 563.993 356.191C563.289 356.191 562.633 356.367 562.025 356.719C561.417 357.055 560.921 357.559 560.537 358.231C560.169 358.887 559.985 359.671 559.985 360.583C559.985 361.495 560.169 362.295 560.537 362.983C560.921 363.671 561.417 364.199 562.025 364.567C562.649 364.919 563.305 365.095 563.993 365.095C564.697 365.095 565.353 364.919 565.961 364.567C566.569 364.215 567.057 363.703 567.425 363.031C567.809 362.343 568.001 361.543 568.001 360.631ZM586.331 354.031V367.255H583.595V365.695C583.163 366.239 582.595 366.671 581.891 366.991C581.203 367.295 580.467 367.447 579.683 367.447C578.643 367.447 577.707 367.231 576.875 366.799C576.059 366.367 575.411 365.727 574.931 364.879C574.467 364.031 574.235 363.007 574.235 361.807V354.031H576.947V361.399C576.947 362.583 577.243 363.495 577.835 364.135C578.427 364.759 579.235 365.071 580.259 365.071C581.283 365.071 582.091 364.759 582.683 364.135C583.291 363.495 583.595 362.583 583.595 361.399V354.031H586.331ZM602.061 360.319C602.061 360.815 602.029 361.263 601.965 361.663H591.861C591.941 362.719 592.333 363.567 593.037 364.207C593.741 364.847 594.605 365.167 595.629 365.167C597.101 365.167 598.141 364.551 598.749 363.319H601.701C601.301 364.535 600.573 365.535 599.517 366.319C598.477 367.087 597.181 367.471 595.629 367.471C594.365 367.471 593.229 367.191 592.221 366.631C591.229 366.055 590.445 365.255 589.869 364.231C589.309 363.191 589.029 361.991 589.029 360.631C589.029 359.271 589.301 358.079 589.845 357.055C590.405 356.015 591.181 355.215 592.173 354.655C593.181 354.095 594.333 353.815 595.629 353.815C596.877 353.815 597.989 354.087 598.965 354.631C599.941 355.175 600.701 355.943 601.245 356.935C601.789 357.911 602.061 359.039 602.061 360.319ZM599.205 359.455C599.189 358.447 598.829 357.639 598.125 357.031C597.421 356.423 596.549 356.119 595.509 356.119C594.565 356.119 593.757 356.423 593.085 357.031C592.413 357.623 592.013 358.431 591.885 359.455H599.205ZM609.553 367.471C608.513 367.471 607.577 367.287 606.745 366.919C605.929 366.535 605.281 366.023 604.801 365.383C604.321 364.727 604.065 363.999 604.033 363.199H606.865C606.913 363.759 607.177 364.231 607.657 364.615C608.153 364.983 608.769 365.167 609.505 365.167C610.273 365.167 610.865 365.023 611.281 364.735C611.713 364.431 611.929 364.047 611.929 363.583C611.929 363.087 611.689 362.719 611.209 362.479C610.745 362.239 610.001 361.975 608.977 361.687C607.985 361.415 607.177 361.151 606.553 360.895C605.929 360.639 605.385 360.247 604.921 359.719C604.473 359.191 604.249 358.495 604.249 357.631C604.249 356.927 604.457 356.287 604.873 355.711C605.289 355.119 605.881 354.655 606.649 354.319C607.433 353.983 608.329 353.815 609.337 353.815C610.841 353.815 612.049 354.199 612.961 354.967C613.889 355.719 614.385 356.751 614.449 358.063H611.713C611.665 357.471 611.425 356.999 610.993 356.647C610.561 356.295 609.977 356.119 609.241 356.119C608.521 356.119 607.969 356.255 607.585 356.527C607.201 356.799 607.009 357.159 607.009 357.607C607.009 357.959 607.137 358.255 607.393 358.495C607.649 358.735 607.961 358.927 608.329 359.071C608.697 359.199 609.241 359.367 609.961 359.575C610.921 359.831 611.705 360.095 612.313 360.367C612.937 360.623 613.473 361.007 613.921 361.519C614.369 362.031 614.601 362.711 614.617 363.559C614.617 364.311 614.409 364.983 613.993 365.575C613.577 366.167 612.985 366.631 612.217 366.967C611.465 367.303 610.577 367.471 609.553 367.471ZM620.765 356.263V363.583C620.765 364.079 620.877 364.439 621.101 364.663C621.341 364.871 621.741 364.975 622.301 364.975H623.981V367.255H621.821C620.589 367.255 619.645 366.967 618.989 366.391C618.333 365.815 618.005 364.879 618.005 363.583V356.263H616.445V354.031H618.005V350.743H620.765V354.031H623.981V356.263H620.765ZM642.794 363.847H635.81L634.61 367.255H631.754L637.73 350.551H640.898L646.874 367.255H643.994L642.794 363.847ZM642.026 361.615L639.314 353.863L636.578 361.615H642.026ZM671.714 353.815C672.754 353.815 673.682 354.031 674.498 354.463C675.33 354.895 675.978 355.535 676.442 356.383C676.922 357.231 677.162 358.255 677.162 359.455V367.255H674.45V359.863C674.45 358.679 674.154 357.775 673.562 357.151C672.97 356.511 672.162 356.191 671.138 356.191C670.114 356.191 669.298 356.511 668.69 357.151C668.098 357.775 667.802 358.679 667.802 359.863V367.255H665.09V359.863C665.09 358.679 664.794 357.775 664.202 357.151C663.61 356.511 662.802 356.191 661.778 356.191C660.754 356.191 659.938 356.511 659.33 357.151C658.738 357.775 658.442 358.679 658.442 359.863V367.255H655.706V354.031H658.442V355.543C658.89 354.999 659.458 354.575 660.146 354.271C660.834 353.967 661.57 353.815 662.354 353.815C663.41 353.815 664.354 354.039 665.186 354.487C666.018 354.935 666.658 355.583 667.106 356.431C667.506 355.631 668.13 354.999 668.978 354.535C669.826 354.055 670.738 353.815 671.714 353.815ZM692.764 360.319C692.764 360.815 692.732 361.263 692.668 361.663H682.564C682.644 362.719 683.036 363.567 683.74 364.207C684.444 364.847 685.308 365.167 686.332 365.167C687.804 365.167 688.844 364.551 689.452 363.319H692.404C692.004 364.535 691.276 365.535 690.22 366.319C689.18 367.087 687.884 367.471 686.332 367.471C685.068 367.471 683.932 367.191 682.924 366.631C681.932 366.055 681.148 365.255 680.572 364.231C680.012 363.191 679.732 361.991 679.732 360.631C679.732 359.271 680.004 358.079 680.548 357.055C681.108 356.015 681.884 355.215 682.876 354.655C683.884 354.095 685.036 353.815 686.332 353.815C687.58 353.815 688.692 354.087 689.668 354.631C690.644 355.175 691.404 355.943 691.948 356.935C692.492 357.911 692.764 359.039 692.764 360.319ZM689.908 359.455C689.892 358.447 689.532 357.639 688.828 357.031C688.124 356.423 687.252 356.119 686.212 356.119C685.268 356.119 684.46 356.423 683.788 357.031C683.116 357.623 682.716 358.431 682.588 359.455H689.908ZM702.128 353.815C703.168 353.815 704.096 354.031 704.912 354.463C705.744 354.895 706.392 355.535 706.856 356.383C707.32 357.231 707.552 358.255 707.552 359.455V367.255H704.84V359.863C704.84 358.679 704.544 357.775 703.952 357.151C703.36 356.511 702.552 356.191 701.528 356.191C700.504 356.191 699.688 356.511 699.08 357.151C698.488 357.775 698.192 358.679 698.192 359.863V367.255H695.456V354.031H698.192V355.543C698.64 354.999 699.208 354.575 699.896 354.271C700.6 353.967 701.344 353.815 702.128 353.815ZM714.234 356.263V363.583C714.234 364.079 714.346 364.439 714.57 364.663C714.81 364.871 715.21 364.975 715.77 364.975H717.45V367.255H715.29C714.058 367.255 713.114 366.967 712.458 366.391C711.802 365.815 711.474 364.879 711.474 363.583V356.263H709.914V354.031H711.474V350.743H714.234V354.031H717.45V356.263H714.234ZM725.708 367.471C724.46 367.471 723.332 367.191 722.324 366.631C721.316 366.055 720.524 365.255 719.948 364.231C719.372 363.191 719.084 361.991 719.084 360.631C719.084 359.287 719.38 358.095 719.972 357.055C720.564 356.015 721.372 355.215 722.396 354.655C723.42 354.095 724.564 353.815 725.828 353.815C727.092 353.815 728.236 354.095 729.26 354.655C730.284 355.215 731.092 356.015 731.684 357.055C732.276 358.095 732.572 359.287 732.572 360.631C732.572 361.975 732.268 363.167 731.66 364.207C731.052 365.247 730.22 366.055 729.164 366.631C728.124 367.191 726.972 367.471 725.708 367.471ZM725.708 365.095C726.412 365.095 727.068 364.927 727.676 364.591C728.3 364.255 728.804 363.751 729.188 363.079C729.572 362.407 729.764 361.591 729.764 360.631C729.764 359.671 729.58 358.863 729.212 358.207C728.844 357.535 728.356 357.031 727.748 356.695C727.14 356.359 726.484 356.191 725.78 356.191C725.076 356.191 724.42 356.359 723.812 356.695C723.22 357.031 722.748 357.535 722.396 358.207C722.044 358.863 721.868 359.671 721.868 360.631C721.868 362.055 722.228 363.159 722.948 363.943C723.684 364.711 724.604 365.095 725.708 365.095ZM738.013 355.951C738.413 355.279 738.941 354.759 739.597 354.391C740.269 354.007 741.061 353.815 741.973 353.815V356.647H741.277C740.205 356.647 739.389 356.919 738.829 357.463C738.285 358.007 738.013 358.951 738.013 360.295V367.255H735.277V354.031H738.013V355.951Z" fill="white"/>
</g>
<defs>
<clipPath id="clip0_205_1677">
<rect width="1269" height="474" rx="12" fill="white"/>
</clipPath>
<clipPath id="clip1_205_1677">
<rect width="537" height="143" fill="white" transform="translate(10 -8.00012)"/>
</clipPath>
<clipPath id="clip2_205_1677">
<rect width="74.61" height="19.81" fill="white" transform="translate(87.54 70.3849)"/>
</clipPath>
<clipPath id="clip3_205_1677">
<rect width="146.25" height="86.71" fill="white" transform="translate(255.131 349.665)"/>
</clipPath>
</defs>
</svg>
