<svg width="1269" height="474" viewBox="0 0 1269 474" fill="none" xmlns="http://www.w3.org/2000/svg">
<rect width="1269" height="474" rx="12" fill="#2C016B"/>
<path d="M1269 4.51001V474H362.44L1269 4.51001Z" fill="url(#paint0_linear_190_4543)" fill-opacity="0.2"/>
<path d="M0 29.55V474H858.2L0 29.55Z" fill="url(#paint1_linear_190_4543)" fill-opacity="0.2"/>
<path d="M1181.46 256.04L1269 343.58V168.51L1181.46 256.04Z" fill="#FFB703"/>
<path d="M1000.92 91.9001L1020.58 57.8401L1040.25 91.9001H1000.92Z" fill="#FFB703"/>
<path d="M987.72 98.1501L1007.38 64.0901L1027.05 98.1501H987.72Z" stroke="#262626" stroke-width="1.3076" stroke-miterlimit="10" stroke-linecap="round" stroke-linejoin="round"/>
<path d="M1190.34 93.5099C1190.34 91.9199 1191.63 90.6199 1193.23 90.6199C1194.82 90.6199 1196.12 91.9099 1196.12 93.5099C1196.12 95.0999 1194.83 96.3999 1193.23 96.3999C1191.63 96.3999 1190.34 95.0999 1190.34 93.5099Z" fill="#E0E0E6"/>
<path d="M1177.71 93.5099C1177.71 91.9199 1179 90.6199 1180.6 90.6199C1182.19 90.6199 1183.49 91.9099 1183.49 93.5099C1183.49 95.0999 1182.2 96.3999 1180.6 96.3999C1179 96.3999 1177.71 95.0999 1177.71 93.5099Z" fill="#E0E0E6"/>
<path d="M1165.08 93.5099C1165.08 91.9199 1166.37 90.6199 1167.97 90.6199C1169.56 90.6199 1170.86 91.9099 1170.86 93.5099C1170.86 95.0999 1169.57 96.3999 1167.97 96.3999C1166.37 96.3999 1165.08 95.0999 1165.08 93.5099Z" fill="#E0E0E6"/>
<path d="M1152.45 93.5099C1152.45 91.9199 1153.74 90.6199 1155.34 90.6199C1156.93 90.6199 1158.23 91.9099 1158.23 93.5099C1158.23 95.0999 1156.94 96.3999 1155.34 96.3999C1153.74 96.3999 1152.45 95.0999 1152.45 93.5099Z" fill="#E0E0E6"/>
<path d="M1139.82 93.5099C1139.82 91.9199 1141.11 90.6199 1142.71 90.6199C1144.3 90.6199 1145.6 91.9099 1145.6 93.5099C1145.6 95.0999 1144.31 96.3999 1142.71 96.3999C1141.11 96.3999 1139.82 95.0999 1139.82 93.5099Z" fill="#E0E0E6"/>
<path d="M1127.19 93.5099C1127.19 91.9199 1128.48 90.6199 1130.08 90.6199C1131.67 90.6199 1132.97 91.9099 1132.97 93.5099C1132.97 95.0999 1131.68 96.3999 1130.08 96.3999C1128.48 96.3999 1127.19 95.0999 1127.19 93.5099Z" fill="#E0E0E6"/>
<path d="M1190.34 80.8797C1190.34 79.2797 1191.63 77.9897 1193.23 77.9897C1194.82 77.9897 1196.12 79.2797 1196.12 80.8797C1196.12 82.4697 1194.83 83.7697 1193.23 83.7697C1191.63 83.7697 1190.34 82.4797 1190.34 80.8797Z" fill="#E0E0E6"/>
<path d="M1177.71 80.8797C1177.71 79.2797 1179 77.9897 1180.6 77.9897C1182.19 77.9897 1183.49 79.2797 1183.49 80.8797C1183.49 82.4697 1182.2 83.7697 1180.6 83.7697C1179 83.7697 1177.71 82.4797 1177.71 80.8797Z" fill="#E0E0E6"/>
<path d="M1165.08 80.8797C1165.08 79.2797 1166.37 77.9897 1167.97 77.9897C1169.56 77.9897 1170.86 79.2797 1170.86 80.8797C1170.86 82.4697 1169.57 83.7697 1167.97 83.7697C1166.37 83.7697 1165.08 82.4797 1165.08 80.8797Z" fill="#E0E0E6"/>
<path d="M1152.45 80.8797C1152.45 79.2797 1153.74 77.9897 1155.34 77.9897C1156.93 77.9897 1158.23 79.2797 1158.23 80.8797C1158.23 82.4697 1156.94 83.7697 1155.34 83.7697C1153.74 83.7697 1152.45 82.4797 1152.45 80.8797Z" fill="#E0E0E6"/>
<path d="M1139.82 80.8797C1139.82 79.2797 1141.11 77.9897 1142.71 77.9897C1144.3 77.9897 1145.6 79.2797 1145.6 80.8797C1145.6 82.4697 1144.31 83.7697 1142.71 83.7697C1141.11 83.7697 1139.82 82.4797 1139.82 80.8797Z" fill="#E0E0E6"/>
<path d="M1127.19 80.8797C1127.19 79.2797 1128.48 77.9897 1130.08 77.9897C1131.67 77.9897 1132.97 79.2797 1132.97 80.8797C1132.97 82.4697 1131.68 83.7697 1130.08 83.7697C1128.48 83.7697 1127.19 82.4797 1127.19 80.8797Z" fill="#E0E0E6"/>
<path d="M1190.34 68.2499C1190.34 66.6599 1191.63 65.3599 1193.23 65.3599C1194.82 65.3599 1196.12 66.6499 1196.12 68.2499C1196.12 69.8399 1194.83 71.1399 1193.23 71.1399C1191.63 71.1399 1190.34 69.8499 1190.34 68.2499Z" fill="#E0E0E6"/>
<path d="M1177.71 68.2499C1177.71 66.6599 1179 65.3599 1180.6 65.3599C1182.19 65.3599 1183.49 66.6499 1183.49 68.2499C1183.49 69.8399 1182.2 71.1399 1180.6 71.1399C1179 71.1399 1177.71 69.8499 1177.71 68.2499Z" fill="#E0E0E6"/>
<path d="M1165.08 68.2499C1165.08 66.6599 1166.37 65.3599 1167.97 65.3599C1169.56 65.3599 1170.86 66.6499 1170.86 68.2499C1170.86 69.8399 1169.57 71.1399 1167.97 71.1399C1166.37 71.1399 1165.08 69.8499 1165.08 68.2499Z" fill="#E0E0E6"/>
<path d="M1152.45 68.2499C1152.45 66.6599 1153.74 65.3599 1155.34 65.3599C1156.93 65.3599 1158.23 66.6499 1158.23 68.2499C1158.23 69.8399 1156.94 71.1399 1155.34 71.1399C1153.74 71.1399 1152.45 69.8499 1152.45 68.2499Z" fill="#E0E0E6"/>
<path d="M1139.82 68.2499C1139.82 66.6599 1141.11 65.3599 1142.71 65.3599C1144.3 65.3599 1145.6 66.6499 1145.6 68.2499C1145.6 69.8399 1144.31 71.1399 1142.71 71.1399C1141.11 71.1399 1139.82 69.8499 1139.82 68.2499Z" fill="#E0E0E6"/>
<path d="M1127.19 68.2499C1127.19 66.6599 1128.48 65.3599 1130.08 65.3599C1131.67 65.3599 1132.97 66.6499 1132.97 68.2499C1132.97 69.8399 1131.68 71.1399 1130.08 71.1399C1128.48 71.1399 1127.19 69.8499 1127.19 68.2499Z" fill="#E0E0E6"/>
<path d="M464.56 417.42C475.169 417.42 483.77 408.819 483.77 398.21C483.77 387.601 475.169 379 464.56 379C453.951 379 445.35 387.601 445.35 398.21C445.35 408.819 453.951 417.42 464.56 417.42Z" fill="#FFB703"/>
<path d="M448.31 428.02C458.919 428.02 467.52 419.42 467.52 408.81C467.52 398.201 458.919 389.6 448.31 389.6C437.701 389.6 429.1 398.201 429.1 408.81C429.1 419.42 437.701 428.02 448.31 428.02Z" stroke="#262626" stroke-width="1.3076" stroke-miterlimit="10" stroke-linecap="round" stroke-linejoin="round"/>
<path d="M96.0089 61.935C94.4189 61.935 93.1189 60.645 93.1189 59.045C93.1189 57.455 94.4089 56.155 96.0089 56.155C97.5989 56.155 98.8989 57.445 98.8989 59.045C98.8889 60.645 97.5989 61.935 96.0089 61.935Z" fill="#E0E0E6"/>
<path d="M96.0089 74.5652C94.4189 74.5652 93.1189 73.2752 93.1189 71.6752C93.1189 70.0852 94.4089 68.7852 96.0089 68.7852C97.5989 68.7852 98.8989 70.0752 98.8989 71.6752C98.8889 73.2752 97.5989 74.5652 96.0089 74.5652Z" fill="#E0E0E6"/>
<path d="M96.0089 87.1951C94.4189 87.1951 93.1189 85.905 93.1189 84.305C93.1189 82.715 94.4089 81.415 96.0089 81.415C97.5989 81.415 98.8989 82.705 98.8989 84.305C98.8889 85.905 97.5989 87.1951 96.0089 87.1951Z" fill="#E0E0E6"/>
<path d="M96.0089 99.8249C94.4189 99.8249 93.1189 98.5349 93.1189 96.9349C93.1189 95.3449 94.4089 94.0449 96.0089 94.0449C97.5989 94.0449 98.8989 95.3349 98.8989 96.9349C98.8889 98.5349 97.5989 99.8249 96.0089 99.8249Z" fill="#E0E0E6"/>
<path d="M96.0089 112.455C94.4189 112.455 93.1189 111.165 93.1189 109.565C93.1189 107.975 94.4089 106.675 96.0089 106.675C97.5989 106.675 98.8989 107.965 98.8989 109.565C98.8889 111.165 97.5989 112.455 96.0089 112.455Z" fill="#E0E0E6"/>
<path d="M96.0089 125.085C94.4189 125.085 93.1189 123.795 93.1189 122.195C93.1189 120.605 94.4089 119.305 96.0089 119.305C97.5989 119.305 98.8989 120.595 98.8989 122.195C98.8889 123.795 97.5989 125.085 96.0089 125.085Z" fill="#E0E0E6"/>
<path d="M83.3788 61.935C81.7788 61.935 80.4888 60.645 80.4888 59.045C80.4888 57.455 81.7788 56.155 83.3788 56.155C84.9688 56.155 86.2688 57.445 86.2688 59.045C86.2688 60.645 84.9688 61.935 83.3788 61.935Z" fill="#E0E0E6"/>
<path d="M83.3788 74.5652C81.7788 74.5652 80.4888 73.2752 80.4888 71.6752C80.4888 70.0852 81.7788 68.7852 83.3788 68.7852C84.9688 68.7852 86.2688 70.0752 86.2688 71.6752C86.2688 73.2752 84.9688 74.5652 83.3788 74.5652Z" fill="#E0E0E6"/>
<path d="M83.3788 87.1951C81.7788 87.1951 80.4888 85.905 80.4888 84.305C80.4888 82.715 81.7788 81.415 83.3788 81.415C84.9688 81.415 86.2688 82.705 86.2688 84.305C86.2688 85.905 84.9688 87.1951 83.3788 87.1951Z" fill="#E0E0E6"/>
<path d="M83.3788 99.8249C81.7788 99.8249 80.4888 98.5349 80.4888 96.9349C80.4888 95.3449 81.7788 94.0449 83.3788 94.0449C84.9688 94.0449 86.2688 95.3349 86.2688 96.9349C86.2688 98.5349 84.9688 99.8249 83.3788 99.8249Z" fill="#E0E0E6"/>
<path d="M83.3788 112.455C81.7788 112.455 80.4888 111.165 80.4888 109.565C80.4888 107.975 81.7788 106.675 83.3788 106.675C84.9688 106.675 86.2688 107.965 86.2688 109.565C86.2688 111.165 84.9688 112.455 83.3788 112.455Z" fill="#E0E0E6"/>
<path d="M83.3788 125.085C81.7788 125.085 80.4888 123.795 80.4888 122.195C80.4888 120.605 81.7788 119.305 83.3788 119.305C84.9688 119.305 86.2688 120.595 86.2688 122.195C86.2688 123.795 84.9688 125.085 83.3788 125.085Z" fill="#E0E0E6"/>
<path d="M70.7489 61.935C69.1489 61.935 67.8589 60.645 67.8589 59.045C67.8589 57.455 69.1489 56.155 70.7489 56.155C72.3389 56.155 73.6389 57.445 73.6389 59.045C73.6389 60.645 72.3389 61.935 70.7489 61.935Z" fill="#E0E0E6"/>
<path d="M70.7489 74.5652C69.1489 74.5652 67.8589 73.2752 67.8589 71.6752C67.8589 70.0852 69.1489 68.7852 70.7489 68.7852C72.3389 68.7852 73.6389 70.0752 73.6389 71.6752C73.6389 73.2752 72.3389 74.5652 70.7489 74.5652Z" fill="#E0E0E6"/>
<path d="M70.7489 87.1951C69.1489 87.1951 67.8589 85.905 67.8589 84.305C67.8589 82.715 69.1489 81.415 70.7489 81.415C72.3389 81.415 73.6389 82.705 73.6389 84.305C73.6389 85.905 72.3389 87.1951 70.7489 87.1951Z" fill="#E0E0E6"/>
<path d="M70.7489 99.8249C69.1489 99.8249 67.8589 98.5349 67.8589 96.9349C67.8589 95.3449 69.1489 94.0449 70.7489 94.0449C72.3389 94.0449 73.6389 95.3349 73.6389 96.9349C73.6389 98.5349 72.3389 99.8249 70.7489 99.8249Z" fill="#E0E0E6"/>
<path d="M70.7489 112.455C69.1489 112.455 67.8589 111.165 67.8589 109.565C67.8589 107.975 69.1489 106.675 70.7489 106.675C72.3389 106.675 73.6389 107.965 73.6389 109.565C73.6389 111.165 72.3389 112.455 70.7489 112.455Z" fill="#E0E0E6"/>
<path d="M70.7489 125.085C69.1489 125.085 67.8589 123.795 67.8589 122.195C67.8589 120.605 69.1489 119.305 70.7489 119.305C72.3389 119.305 73.6389 120.595 73.6389 122.195C73.6389 123.795 72.3389 125.085 70.7489 125.085Z" fill="#E0E0E6"/>
<g clip-path="url(#clip0_190_4543)">
<path d="M1141.08 428.015L1158.23 418.115V437.925L1141.08 428.015Z" fill="#FEFEFE"/>
<path d="M1112.35 428.015L1129.5 418.115V437.925L1112.35 428.015Z" fill="#FEFEFE"/>
<path d="M1083.62 428.015L1100.77 418.115V437.925L1083.62 428.015Z" fill="#F59D1B"/>
</g>
<path d="M87.1909 184.535C86.3803 183.042 85.2069 181.911 83.6709 181.143C82.1776 180.332 80.4069 179.927 78.3589 179.927C74.8176 179.927 71.9803 181.1 69.8469 183.447C67.7136 185.751 66.6469 188.844 66.6469 192.727C66.6469 196.866 67.7563 200.108 69.9749 202.455C72.2363 204.759 75.3296 205.911 79.2549 205.911C81.9429 205.911 84.2043 205.228 86.0389 203.863C87.9163 202.498 89.2816 200.535 90.1349 197.975H76.2469V189.911H100.055V200.087C99.2443 202.818 97.8576 205.356 95.8949 207.703C93.9749 210.05 91.5216 211.948 88.5349 213.399C85.5483 214.85 82.1776 215.575 78.4229 215.575C73.9856 215.575 70.0176 214.615 66.5189 212.695C63.0629 210.732 60.3536 208.023 58.3909 204.567C56.4709 201.111 55.5109 197.164 55.5109 192.727C55.5109 188.29 56.4709 184.343 58.3909 180.887C60.3536 177.388 63.0629 174.679 66.5189 172.759C69.9749 170.796 73.9216 169.815 78.3589 169.815C83.7349 169.815 88.2576 171.116 91.9269 173.719C95.6389 176.322 98.0923 179.927 99.2869 184.535H87.1909ZM136.645 207.319H119.877L117.189 215.255H105.733L121.989 170.327H134.661L150.917 215.255H139.333L136.645 207.319ZM133.829 198.871L128.261 182.423L122.757 198.871H133.829ZM169.368 170.327V215.255H158.424V170.327H169.368ZM220.051 215.255H209.107L190.803 187.543V215.255H179.859V170.327H190.803L209.107 198.167V170.327H220.051V215.255ZM257.611 170.327V215.255H246.667V170.327H257.611ZM308.294 215.255H297.35L279.046 187.543V215.255H268.102V170.327H279.046L297.35 198.167V170.327H308.294V215.255ZM335.043 215.703C331.758 215.703 328.814 215.17 326.211 214.103C323.608 213.036 321.518 211.458 319.939 209.367C318.403 207.276 317.592 204.759 317.507 201.815H329.155C329.326 203.479 329.902 204.759 330.883 205.655C331.864 206.508 333.144 206.935 334.723 206.935C336.344 206.935 337.624 206.572 338.563 205.847C339.502 205.079 339.971 204.034 339.971 202.711C339.971 201.602 339.587 200.684 338.819 199.959C338.094 199.234 337.176 198.636 336.067 198.167C335 197.698 333.464 197.164 331.459 196.567C328.558 195.671 326.19 194.775 324.355 193.879C322.52 192.983 320.942 191.66 319.619 189.911C318.296 188.162 317.635 185.879 317.635 183.063C317.635 178.882 319.15 175.618 322.179 173.271C325.208 170.882 329.155 169.687 334.019 169.687C338.968 169.687 342.958 170.882 345.987 173.271C349.016 175.618 350.638 178.903 350.851 183.127H339.011C338.926 181.676 338.392 180.546 337.411 179.735C336.43 178.882 335.171 178.455 333.635 178.455C332.312 178.455 331.246 178.818 330.435 179.543C329.624 180.226 329.219 181.228 329.219 182.551C329.219 184.002 329.902 185.132 331.267 185.943C332.632 186.754 334.766 187.628 337.667 188.567C340.568 189.548 342.915 190.487 344.707 191.383C346.542 192.279 348.12 193.58 349.443 195.287C350.766 196.994 351.427 199.191 351.427 201.879C351.427 204.439 350.766 206.764 349.443 208.855C348.163 210.946 346.286 212.61 343.811 213.847C341.336 215.084 338.414 215.703 335.043 215.703ZM393.042 170.327V179.095H381.138V215.255H370.194V179.095H358.29V170.327H393.042ZM429.062 207.319H412.294L409.606 215.255H398.15L414.406 170.327H427.078L443.334 215.255H431.75L429.062 207.319ZM426.246 198.871L420.678 182.423L415.174 198.871H426.246ZM491.034 215.255H480.09L461.786 187.543V215.255H450.842V170.327H461.786L480.09 198.167V170.327H491.034V215.255ZM533.847 170.327V179.095H521.943V215.255H510.999V179.095H499.095V170.327H533.847Z" fill="white"/>
<path d="M77.2789 240.215C77.2789 241.842 76.9056 243.335 76.1589 244.695C75.4123 246.028 74.2656 247.108 72.7189 247.935C71.1723 248.762 69.2523 249.175 66.9589 249.175H62.7189V259.255H55.8789V231.175H66.9589C69.1989 231.175 71.0923 231.562 72.6389 232.335C74.1856 233.108 75.3456 234.175 76.1189 235.535C76.8923 236.895 77.2789 238.455 77.2789 240.215ZM66.4389 243.735C67.7456 243.735 68.7189 243.428 69.3589 242.815C69.9989 242.202 70.3189 241.335 70.3189 240.215C70.3189 239.095 69.9989 238.228 69.3589 237.615C68.7189 237.002 67.7456 236.695 66.4389 236.695H62.7189V243.735H66.4389ZM89.2799 236.655V242.335H98.4399V247.615H89.2799V253.775H99.6399V259.255H82.4399V231.175H99.6399V236.655H89.2799ZM120 259.255L114.16 248.655H112.52V259.255H105.68V231.175H117.16C119.374 231.175 121.254 231.562 122.8 232.335C124.374 233.108 125.547 234.175 126.32 235.535C127.094 236.868 127.48 238.362 127.48 240.015C127.48 241.882 126.947 243.548 125.88 245.015C124.84 246.482 123.294 247.522 121.24 248.135L127.72 259.255H120ZM112.52 243.815H116.76C118.014 243.815 118.947 243.508 119.56 242.895C120.2 242.282 120.52 241.415 120.52 240.295C120.52 239.228 120.2 238.388 119.56 237.775C118.947 237.162 118.014 236.855 116.76 236.855H112.52V243.815ZM143.534 259.535C141.481 259.535 139.641 259.202 138.014 258.535C136.388 257.868 135.081 256.882 134.094 255.575C133.134 254.268 132.628 252.695 132.574 250.855H139.854C139.961 251.895 140.321 252.695 140.934 253.255C141.548 253.788 142.348 254.055 143.334 254.055C144.348 254.055 145.148 253.828 145.734 253.375C146.321 252.895 146.614 252.242 146.614 251.415C146.614 250.722 146.374 250.148 145.894 249.695C145.441 249.242 144.868 248.868 144.174 248.575C143.508 248.282 142.548 247.948 141.294 247.575C139.481 247.015 138.001 246.455 136.854 245.895C135.708 245.335 134.721 244.508 133.894 243.415C133.068 242.322 132.654 240.895 132.654 239.135C132.654 236.522 133.601 234.482 135.494 233.015C137.388 231.522 139.854 230.775 142.894 230.775C145.988 230.775 148.481 231.522 150.374 233.015C152.268 234.482 153.281 236.535 153.414 239.175H146.014C145.961 238.268 145.628 237.562 145.014 237.055C144.401 236.522 143.614 236.255 142.654 236.255C141.828 236.255 141.161 236.482 140.654 236.935C140.148 237.362 139.894 237.988 139.894 238.815C139.894 239.722 140.321 240.428 141.174 240.935C142.028 241.442 143.361 241.988 145.174 242.575C146.988 243.188 148.454 243.775 149.574 244.335C150.721 244.895 151.708 245.708 152.534 246.775C153.361 247.842 153.774 249.215 153.774 250.895C153.774 252.495 153.361 253.948 152.534 255.255C151.734 256.562 150.561 257.602 149.014 258.375C147.468 259.148 145.641 259.535 143.534 259.535ZM172.864 259.535C170.224 259.535 167.797 258.922 165.584 257.695C163.397 256.468 161.65 254.762 160.344 252.575C159.064 250.362 158.424 247.882 158.424 245.135C158.424 242.388 159.064 239.922 160.344 237.735C161.65 235.548 163.397 233.842 165.584 232.615C167.797 231.388 170.224 230.775 172.864 230.775C175.504 230.775 177.917 231.388 180.104 232.615C182.317 233.842 184.05 235.548 185.304 237.735C186.584 239.922 187.224 242.388 187.224 245.135C187.224 247.882 186.584 250.362 185.304 252.575C184.024 254.762 182.29 256.468 180.104 257.695C177.917 258.922 175.504 259.535 172.864 259.535ZM172.864 253.295C175.104 253.295 176.89 252.548 178.224 251.055C179.584 249.562 180.264 247.588 180.264 245.135C180.264 242.655 179.584 240.682 178.224 239.215C176.89 237.722 175.104 236.975 172.864 236.975C170.597 236.975 168.784 237.708 167.424 239.175C166.09 240.642 165.424 242.628 165.424 245.135C165.424 247.615 166.09 249.602 167.424 251.095C168.784 252.562 170.597 253.295 172.864 253.295ZM217.749 259.255H210.909L199.469 241.935V259.255H192.629V231.175H199.469L210.909 248.575V231.175H217.749V259.255ZM241.787 254.295H231.307L229.627 259.255H222.467L232.627 231.175H240.547L250.707 259.255H243.467L241.787 254.295ZM240.027 249.015L236.547 238.735L233.107 249.015H240.027ZM262.239 253.975H271.199V259.255H255.399V231.175H262.239V253.975ZM282.902 231.175V259.255H276.062V231.175H282.902ZM296.739 253.655H308.819V259.255H288.979V254.055L300.979 236.775H288.979V231.175H308.819V236.375L296.739 253.655ZM321.727 236.655V242.335H330.887V247.615H321.727V253.775H332.087V259.255H314.887V231.175H332.087V236.655H321.727ZM348.647 231.175C351.607 231.175 354.194 231.762 356.407 232.935C358.621 234.108 360.327 235.762 361.527 237.895C362.754 240.002 363.367 242.442 363.367 245.215C363.367 247.962 362.754 250.402 361.527 252.535C360.327 254.668 358.607 256.322 356.367 257.495C354.154 258.668 351.581 259.255 348.647 259.255H338.127V231.175H348.647ZM348.207 253.335C350.794 253.335 352.807 252.628 354.247 251.215C355.687 249.802 356.407 247.802 356.407 245.215C356.407 242.628 355.687 240.615 354.247 239.175C352.807 237.735 350.794 237.015 348.207 237.015H344.967V253.335H348.207ZM396.346 254.295H385.866L384.186 259.255H377.026L387.186 231.175H395.106L405.266 259.255H398.026L396.346 254.295ZM394.586 249.015L391.106 238.735L387.666 249.015H394.586ZM420.119 259.535C418.065 259.535 416.225 259.202 414.599 258.535C412.972 257.868 411.665 256.882 410.679 255.575C409.719 254.268 409.212 252.695 409.159 250.855H416.439C416.545 251.895 416.905 252.695 417.519 253.255C418.132 253.788 418.932 254.055 419.919 254.055C420.932 254.055 421.732 253.828 422.319 253.375C422.905 252.895 423.199 252.242 423.199 251.415C423.199 250.722 422.959 250.148 422.479 249.695C422.025 249.242 421.452 248.868 420.759 248.575C420.092 248.282 419.132 247.948 417.879 247.575C416.065 247.015 414.585 246.455 413.439 245.895C412.292 245.335 411.305 244.508 410.479 243.415C409.652 242.322 409.239 240.895 409.239 239.135C409.239 236.522 410.185 234.482 412.079 233.015C413.972 231.522 416.439 230.775 419.479 230.775C422.572 230.775 425.065 231.522 426.959 233.015C428.852 234.482 429.865 236.535 429.999 239.175H422.599C422.545 238.268 422.212 237.562 421.599 237.055C420.985 236.522 420.199 236.255 419.239 236.255C418.412 236.255 417.745 236.482 417.239 236.935C416.732 237.362 416.479 237.988 416.479 238.815C416.479 239.722 416.905 240.428 417.759 240.935C418.612 241.442 419.945 241.988 421.759 242.575C423.572 243.188 425.039 243.775 426.159 244.335C427.305 244.895 428.292 245.708 429.119 246.775C429.945 247.842 430.359 249.215 430.359 250.895C430.359 252.495 429.945 253.948 429.119 255.255C428.319 256.562 427.145 257.602 425.599 258.375C424.052 259.148 422.225 259.535 420.119 259.535ZM446.328 259.535C444.275 259.535 442.435 259.202 440.808 258.535C439.181 257.868 437.875 256.882 436.888 255.575C435.928 254.268 435.421 252.695 435.368 250.855H442.648C442.755 251.895 443.115 252.695 443.728 253.255C444.341 253.788 445.141 254.055 446.128 254.055C447.141 254.055 447.941 253.828 448.528 253.375C449.115 252.895 449.408 252.242 449.408 251.415C449.408 250.722 449.168 250.148 448.688 249.695C448.235 249.242 447.661 248.868 446.968 248.575C446.301 248.282 445.341 247.948 444.088 247.575C442.275 247.015 440.795 246.455 439.648 245.895C438.501 245.335 437.515 244.508 436.688 243.415C435.861 242.322 435.448 240.895 435.448 239.135C435.448 236.522 436.395 234.482 438.288 233.015C440.181 231.522 442.648 230.775 445.688 230.775C448.781 230.775 451.275 231.522 453.168 233.015C455.061 234.482 456.075 236.535 456.208 239.175H448.808C448.755 238.268 448.421 237.562 447.808 237.055C447.195 236.522 446.408 236.255 445.448 236.255C444.621 236.255 443.955 236.482 443.448 236.935C442.941 237.362 442.688 237.988 442.688 238.815C442.688 239.722 443.115 240.428 443.968 240.935C444.821 241.442 446.155 241.988 447.968 242.575C449.781 243.188 451.248 243.775 452.368 244.335C453.515 244.895 454.501 245.708 455.328 246.775C456.155 247.842 456.568 249.215 456.568 250.895C456.568 252.495 456.155 253.948 455.328 255.255C454.528 256.562 453.355 257.602 451.808 258.375C450.261 259.148 448.435 259.535 446.328 259.535ZM469.217 231.175V259.255H462.377V231.175H469.217ZM485.934 259.535C483.881 259.535 482.041 259.202 480.414 258.535C478.788 257.868 477.481 256.882 476.494 255.575C475.534 254.268 475.028 252.695 474.974 250.855H482.254C482.361 251.895 482.721 252.695 483.334 253.255C483.948 253.788 484.748 254.055 485.734 254.055C486.748 254.055 487.548 253.828 488.134 253.375C488.721 252.895 489.014 252.242 489.014 251.415C489.014 250.722 488.774 250.148 488.294 249.695C487.841 249.242 487.268 248.868 486.574 248.575C485.908 248.282 484.948 247.948 483.694 247.575C481.881 247.015 480.401 246.455 479.254 245.895C478.108 245.335 477.121 244.508 476.294 243.415C475.468 242.322 475.054 240.895 475.054 239.135C475.054 236.522 476.001 234.482 477.894 233.015C479.788 231.522 482.254 230.775 485.294 230.775C488.388 230.775 490.881 231.522 492.774 233.015C494.668 234.482 495.681 236.535 495.814 239.175H488.414C488.361 238.268 488.028 237.562 487.414 237.055C486.801 236.522 486.014 236.255 485.054 236.255C484.228 236.255 483.561 236.482 483.054 236.935C482.548 237.362 482.294 237.988 482.294 238.815C482.294 239.722 482.721 240.428 483.574 240.935C484.428 241.442 485.761 241.988 487.574 242.575C489.388 243.188 490.854 243.775 491.974 244.335C493.121 244.895 494.108 245.708 494.934 246.775C495.761 247.842 496.174 249.215 496.174 250.895C496.174 252.495 495.761 253.948 494.934 255.255C494.134 256.562 492.961 257.602 491.414 258.375C489.868 259.148 488.041 259.535 485.934 259.535ZM522.184 231.175V236.655H514.744V259.255H507.904V236.655H500.464V231.175H522.184ZM554.773 254.295H544.293L542.613 259.255H535.453L545.613 231.175H553.533L563.693 259.255H556.453L554.773 254.295ZM553.013 249.015L549.533 238.735L546.093 249.015H553.013ZM567.225 245.175C567.225 242.402 567.825 239.935 569.025 237.775C570.225 235.588 571.892 233.895 574.025 232.695C576.185 231.468 578.625 230.855 581.345 230.855C584.678 230.855 587.532 231.735 589.905 233.495C592.278 235.255 593.865 237.655 594.665 240.695H587.145C586.585 239.522 585.785 238.628 584.745 238.015C583.732 237.402 582.572 237.095 581.265 237.095C579.158 237.095 577.452 237.828 576.145 239.295C574.838 240.762 574.185 242.722 574.185 245.175C574.185 247.628 574.838 249.588 576.145 251.055C577.452 252.522 579.158 253.255 581.265 253.255C582.572 253.255 583.732 252.948 584.745 252.335C585.785 251.722 586.585 250.828 587.145 249.655H594.665C593.865 252.695 592.278 255.095 589.905 256.855C587.532 258.588 584.678 259.455 581.345 259.455C578.625 259.455 576.185 258.855 574.025 257.655C571.892 256.428 570.225 254.735 569.025 252.575C567.825 250.415 567.225 247.948 567.225 245.175ZM614.774 259.255L608.934 248.655H607.294V259.255H600.454V231.175H611.934C614.147 231.175 616.027 231.562 617.574 232.335C619.147 233.108 620.321 234.175 621.094 235.535C621.867 236.868 622.254 238.362 622.254 240.015C622.254 241.882 621.721 243.548 620.654 245.015C619.614 246.482 618.067 247.522 616.014 248.135L622.494 259.255H614.774ZM607.294 243.815H611.534C612.787 243.815 613.721 243.508 614.334 242.895C614.974 242.282 615.294 241.415 615.294 240.295C615.294 239.228 614.974 238.388 614.334 237.775C613.721 237.162 612.787 236.855 611.534 236.855H607.294V243.815ZM641.428 259.535C638.788 259.535 636.361 258.922 634.148 257.695C631.961 256.468 630.214 254.762 628.908 252.575C627.628 250.362 626.988 247.882 626.988 245.135C626.988 242.388 627.628 239.922 628.908 237.735C630.214 235.548 631.961 233.842 634.148 232.615C636.361 231.388 638.788 230.775 641.428 230.775C644.068 230.775 646.481 231.388 648.668 232.615C650.881 233.842 652.614 235.548 653.868 237.735C655.148 239.922 655.788 242.388 655.788 245.135C655.788 247.882 655.148 250.362 653.868 252.575C652.588 254.762 650.854 256.468 648.668 257.695C646.481 258.922 644.068 259.535 641.428 259.535ZM641.428 253.295C643.668 253.295 645.454 252.548 646.788 251.055C648.148 249.562 648.828 247.588 648.828 245.135C648.828 242.655 648.148 240.682 646.788 239.215C645.454 237.722 643.668 236.975 641.428 236.975C639.161 236.975 637.348 237.708 635.988 239.175C634.654 240.642 633.988 242.628 633.988 245.135C633.988 247.615 634.654 249.602 635.988 251.095C637.348 252.562 639.161 253.295 641.428 253.295ZM671.353 259.535C669.3 259.535 667.46 259.202 665.833 258.535C664.206 257.868 662.9 256.882 661.913 255.575C660.953 254.268 660.446 252.695 660.393 250.855H667.673C667.78 251.895 668.14 252.695 668.753 253.255C669.366 253.788 670.166 254.055 671.153 254.055C672.166 254.055 672.966 253.828 673.553 253.375C674.14 252.895 674.433 252.242 674.433 251.415C674.433 250.722 674.193 250.148 673.713 249.695C673.26 249.242 672.686 248.868 671.993 248.575C671.326 248.282 670.366 247.948 669.113 247.575C667.3 247.015 665.82 246.455 664.673 245.895C663.526 245.335 662.54 244.508 661.713 243.415C660.886 242.322 660.473 240.895 660.473 239.135C660.473 236.522 661.42 234.482 663.313 233.015C665.206 231.522 667.673 230.775 670.713 230.775C673.806 230.775 676.3 231.522 678.193 233.015C680.086 234.482 681.1 236.535 681.233 239.175H673.833C673.78 238.268 673.446 237.562 672.833 237.055C672.22 236.522 671.433 236.255 670.473 236.255C669.646 236.255 668.98 236.482 668.473 236.935C667.966 237.362 667.713 237.988 667.713 238.815C667.713 239.722 668.14 240.428 668.993 240.935C669.846 241.442 671.18 241.988 672.993 242.575C674.806 243.188 676.273 243.775 677.393 244.335C678.54 244.895 679.526 245.708 680.353 246.775C681.18 247.842 681.593 249.215 681.593 250.895C681.593 252.495 681.18 253.948 680.353 255.255C679.553 256.562 678.38 257.602 676.833 258.375C675.286 259.148 673.46 259.535 671.353 259.535ZM697.562 259.535C695.509 259.535 693.669 259.202 692.042 258.535C690.416 257.868 689.109 256.882 688.122 255.575C687.162 254.268 686.656 252.695 686.602 250.855H693.882C693.989 251.895 694.349 252.695 694.962 253.255C695.576 253.788 696.376 254.055 697.362 254.055C698.376 254.055 699.176 253.828 699.762 253.375C700.349 252.895 700.642 252.242 700.642 251.415C700.642 250.722 700.402 250.148 699.922 249.695C699.469 249.242 698.896 248.868 698.202 248.575C697.536 248.282 696.576 247.948 695.322 247.575C693.509 247.015 692.029 246.455 690.882 245.895C689.736 245.335 688.749 244.508 687.922 243.415C687.096 242.322 686.682 240.895 686.682 239.135C686.682 236.522 687.629 234.482 689.522 233.015C691.416 231.522 693.882 230.775 696.922 230.775C700.016 230.775 702.509 231.522 704.402 233.015C706.296 234.482 707.309 236.535 707.442 239.175H700.042C699.989 238.268 699.656 237.562 699.042 237.055C698.429 236.522 697.642 236.255 696.682 236.255C695.856 236.255 695.189 236.482 694.682 236.935C694.176 237.362 693.922 237.988 693.922 238.815C693.922 239.722 694.349 240.428 695.202 240.935C696.056 241.442 697.389 241.988 699.202 242.575C701.016 243.188 702.482 243.775 703.602 244.335C704.749 244.895 705.736 245.708 706.562 246.775C707.389 247.842 707.802 249.215 707.802 250.895C707.802 252.495 707.389 253.948 706.562 255.255C705.762 256.562 704.589 257.602 703.042 258.375C701.496 259.148 699.669 259.535 697.562 259.535ZM750.048 231.175L740.088 259.255H731.528L721.568 231.175H728.848L735.808 252.375L742.808 231.175H750.048ZM771.987 254.295H761.507L759.827 259.255H752.667L762.827 231.175H770.747L780.907 259.255H773.667L771.987 254.295ZM770.227 249.015L766.747 238.735L763.307 249.015H770.227ZM799.919 259.255L794.079 248.655H792.439V259.255H785.599V231.175H797.079C799.293 231.175 801.173 231.562 802.719 232.335C804.293 233.108 805.466 234.175 806.239 235.535C807.013 236.868 807.399 238.362 807.399 240.015C807.399 241.882 806.866 243.548 805.799 245.015C804.759 246.482 803.213 247.522 801.159 248.135L807.639 259.255H799.919ZM792.439 243.815H796.679C797.933 243.815 798.866 243.508 799.479 242.895C800.119 242.282 800.439 241.415 800.439 240.295C800.439 239.228 800.119 238.388 799.479 237.775C798.866 237.162 797.933 236.855 796.679 236.855H792.439V243.815ZM820.133 231.175V259.255H813.293V231.175H820.133ZM839.97 259.535C837.33 259.535 834.903 258.922 832.69 257.695C830.503 256.468 828.757 254.762 827.45 252.575C826.17 250.362 825.53 247.882 825.53 245.135C825.53 242.388 826.17 239.922 827.45 237.735C828.757 235.548 830.503 233.842 832.69 232.615C834.903 231.388 837.33 230.775 839.97 230.775C842.61 230.775 845.023 231.388 847.21 232.615C849.423 233.842 851.157 235.548 852.41 237.735C853.69 239.922 854.33 242.388 854.33 245.135C854.33 247.882 853.69 250.362 852.41 252.575C851.13 254.762 849.397 256.468 847.21 257.695C845.023 258.922 842.61 259.535 839.97 259.535ZM839.97 253.295C842.21 253.295 843.997 252.548 845.33 251.055C846.69 249.562 847.37 247.588 847.37 245.135C847.37 242.655 846.69 240.682 845.33 239.215C843.997 237.722 842.21 236.975 839.97 236.975C837.703 236.975 835.89 237.708 834.53 239.175C833.197 240.642 832.53 242.628 832.53 245.135C832.53 247.615 833.197 249.602 834.53 251.095C835.89 252.562 837.703 253.295 839.97 253.295ZM866.455 231.175V247.975C866.455 249.655 866.869 250.948 867.695 251.855C868.522 252.762 869.735 253.215 871.335 253.215C872.935 253.215 874.162 252.762 875.015 251.855C875.869 250.948 876.295 249.655 876.295 247.975V231.175H883.135V247.935C883.135 250.442 882.602 252.562 881.535 254.295C880.469 256.028 879.029 257.335 877.215 258.215C875.429 259.095 873.429 259.535 871.215 259.535C869.002 259.535 867.015 259.108 865.255 258.255C863.522 257.375 862.149 256.068 861.135 254.335C860.122 252.575 859.615 250.442 859.615 247.935V231.175H866.455ZM899.698 259.535C897.645 259.535 895.805 259.202 894.178 258.535C892.552 257.868 891.245 256.882 890.258 255.575C889.298 254.268 888.792 252.695 888.738 250.855H896.018C896.125 251.895 896.485 252.695 897.098 253.255C897.712 253.788 898.512 254.055 899.498 254.055C900.512 254.055 901.312 253.828 901.898 253.375C902.485 252.895 902.778 252.242 902.778 251.415C902.778 250.722 902.538 250.148 902.058 249.695C901.605 249.242 901.032 248.868 900.338 248.575C899.672 248.282 898.712 247.948 897.458 247.575C895.645 247.015 894.165 246.455 893.018 245.895C891.872 245.335 890.885 244.508 890.058 243.415C889.232 242.322 888.818 240.895 888.818 239.135C888.818 236.522 889.765 234.482 891.658 233.015C893.552 231.522 896.018 230.775 899.058 230.775C902.152 230.775 904.645 231.522 906.538 233.015C908.432 234.482 909.445 236.535 909.578 239.175H902.178C902.125 238.268 901.792 237.562 901.178 237.055C900.565 236.522 899.778 236.255 898.818 236.255C897.992 236.255 897.325 236.482 896.818 236.935C896.312 237.362 896.058 237.988 896.058 238.815C896.058 239.722 896.485 240.428 897.338 240.935C898.192 241.442 899.525 241.988 901.338 242.575C903.152 243.188 904.618 243.775 905.738 244.335C906.885 244.895 907.872 245.708 908.698 246.775C909.525 247.842 909.938 249.215 909.938 250.895C909.938 252.495 909.525 253.948 908.698 255.255C907.898 256.562 906.725 257.602 905.178 258.375C903.632 259.148 901.805 259.535 899.698 259.535ZM944.104 231.175V236.655H932.664V242.575H941.224V247.895H932.664V259.255H925.824V231.175H944.104ZM956.139 231.175V259.255H949.299V231.175H956.139ZM969.536 236.655V242.335H978.696V247.615H969.536V253.775H979.896V259.255H962.696V231.175H979.896V236.655H969.536ZM992.777 253.975H1001.74V259.255H985.937V231.175H992.777V253.975ZM1017.12 231.175C1020.08 231.175 1022.67 231.762 1024.88 232.935C1027.09 234.108 1028.8 235.762 1030 237.895C1031.23 240.002 1031.84 242.442 1031.84 245.215C1031.84 247.962 1031.23 250.402 1030 252.535C1028.8 254.668 1027.08 256.322 1024.84 257.495C1022.63 258.668 1020.05 259.255 1017.12 259.255H1006.6V231.175H1017.12ZM1016.68 253.335C1019.27 253.335 1021.28 252.628 1022.72 251.215C1024.16 249.802 1024.88 247.802 1024.88 245.215C1024.88 242.628 1024.16 240.615 1022.72 239.175C1021.28 237.735 1019.27 237.015 1016.68 237.015H1013.44V253.335H1016.68ZM1047.42 259.535C1045.37 259.535 1043.53 259.202 1041.9 258.535C1040.28 257.868 1038.97 256.882 1037.98 255.575C1037.02 254.268 1036.52 252.695 1036.46 250.855H1043.74C1043.85 251.895 1044.21 252.695 1044.82 253.255C1045.44 253.788 1046.24 254.055 1047.22 254.055C1048.24 254.055 1049.04 253.828 1049.62 253.375C1050.21 252.895 1050.5 252.242 1050.5 251.415C1050.5 250.722 1050.26 250.148 1049.78 249.695C1049.33 249.242 1048.76 248.868 1048.06 248.575C1047.4 248.282 1046.44 247.948 1045.18 247.575C1043.37 247.015 1041.89 246.455 1040.74 245.895C1039.6 245.335 1038.61 244.508 1037.78 243.415C1036.96 242.322 1036.54 240.895 1036.54 239.135C1036.54 236.522 1037.49 234.482 1039.38 233.015C1041.28 231.522 1043.74 230.775 1046.78 230.775C1049.88 230.775 1052.37 231.522 1054.26 233.015C1056.16 234.482 1057.17 236.535 1057.3 239.175H1049.9C1049.85 238.268 1049.52 237.562 1048.9 237.055C1048.29 236.522 1047.5 236.255 1046.54 236.255C1045.72 236.255 1045.05 236.482 1044.54 236.935C1044.04 237.362 1043.78 237.988 1043.78 238.815C1043.78 239.722 1044.21 240.428 1045.06 240.935C1045.92 241.442 1047.25 241.988 1049.06 242.575C1050.88 243.188 1052.34 243.775 1053.46 244.335C1054.61 244.895 1055.6 245.708 1056.42 246.775C1057.25 247.842 1057.66 249.215 1057.66 250.895C1057.66 252.495 1057.25 253.948 1056.42 255.255C1055.62 256.562 1054.45 257.602 1052.9 258.375C1051.36 259.148 1049.53 259.535 1047.42 259.535Z" fill="white"/>
<rect x="53.3989" y="309.255" width="263" height="70" rx="35" fill="#FFB703"/>
<path d="M106.302 337.783V342.679H112.062V344.911H106.302V350.023H112.782V352.255H103.566V335.551H112.782V337.783H106.302ZM123.808 343.927L128.992 352.255H125.92L122.152 346.207L118.624 352.255H115.576L120.76 343.927L115.552 335.575H118.624L122.416 341.671L125.968 335.575H129.016L123.808 343.927ZM143.66 340.543C143.66 341.391 143.46 342.191 143.06 342.943C142.66 343.695 142.02 344.311 141.14 344.791C140.26 345.255 139.132 345.487 137.756 345.487H134.732V352.255H131.996V335.575H137.756C139.036 335.575 140.116 335.799 140.996 336.247C141.892 336.679 142.556 337.271 142.988 338.023C143.436 338.775 143.66 339.615 143.66 340.543ZM137.756 343.255C138.796 343.255 139.572 343.023 140.084 342.559C140.596 342.079 140.852 341.407 140.852 340.543C140.852 338.719 139.82 337.807 137.756 337.807H134.732V343.255H137.756ZM149.005 350.047H154.645V352.255H146.269V335.575H149.005V350.047ZM164.541 352.423C162.989 352.423 161.557 352.063 160.245 351.343C158.949 350.607 157.917 349.591 157.149 348.295C156.397 346.983 156.021 345.511 156.021 343.879C156.021 342.247 156.397 340.783 157.149 339.487C157.917 338.191 158.949 337.183 160.245 336.463C161.557 335.727 162.989 335.359 164.541 335.359C166.109 335.359 167.541 335.727 168.837 336.463C170.149 337.183 171.181 338.191 171.933 339.487C172.685 340.783 173.061 342.247 173.061 343.879C173.061 345.511 172.685 346.983 171.933 348.295C171.181 349.591 170.149 350.607 168.837 351.343C167.541 352.063 166.109 352.423 164.541 352.423ZM164.541 350.047C165.645 350.047 166.629 349.799 167.493 349.303C168.357 348.791 169.029 348.071 169.509 347.143C170.005 346.199 170.253 345.111 170.253 343.879C170.253 342.647 170.005 341.567 169.509 340.639C169.029 339.711 168.357 338.999 167.493 338.503C166.629 338.007 165.645 337.759 164.541 337.759C163.437 337.759 162.453 338.007 161.589 338.503C160.725 338.999 160.045 339.711 159.549 340.639C159.069 341.567 158.829 342.647 158.829 343.879C158.829 345.111 159.069 346.199 159.549 347.143C160.045 348.071 160.725 348.791 161.589 349.303C162.453 349.799 163.437 350.047 164.541 350.047ZM184.418 352.255L180.578 345.583H178.49V352.255H175.754V335.575H181.514C182.794 335.575 183.874 335.799 184.754 336.247C185.65 336.695 186.314 337.295 186.746 338.047C187.194 338.799 187.418 339.639 187.418 340.567C187.418 341.655 187.098 342.647 186.458 343.543C185.834 344.423 184.866 345.023 183.554 345.343L187.682 352.255H184.418ZM178.49 343.399H181.514C182.538 343.399 183.306 343.143 183.818 342.631C184.346 342.119 184.61 341.431 184.61 340.567C184.61 339.703 184.354 339.031 183.842 338.551C183.33 338.055 182.554 337.807 181.514 337.807H178.49V343.399ZM193.654 337.783V342.679H199.414V344.911H193.654V350.023H200.134V352.255H190.918V335.551H200.134V337.783H193.654ZM223.442 352.255H220.706L212.474 339.799V352.255H209.738V335.551H212.474L220.706 347.983V335.551H223.442V352.255ZM234.643 352.423C233.091 352.423 231.659 352.063 230.347 351.343C229.051 350.607 228.019 349.591 227.251 348.295C226.499 346.983 226.123 345.511 226.123 343.879C226.123 342.247 226.499 340.783 227.251 339.487C228.019 338.191 229.051 337.183 230.347 336.463C231.659 335.727 233.091 335.359 234.643 335.359C236.211 335.359 237.643 335.727 238.939 336.463C240.251 337.183 241.283 338.191 242.035 339.487C242.787 340.783 243.163 342.247 243.163 343.879C243.163 345.511 242.787 346.983 242.035 348.295C241.283 349.591 240.251 350.607 238.939 351.343C237.643 352.063 236.211 352.423 234.643 352.423ZM234.643 350.047C235.747 350.047 236.731 349.799 237.595 349.303C238.459 348.791 239.131 348.071 239.611 347.143C240.107 346.199 240.355 345.111 240.355 343.879C240.355 342.647 240.107 341.567 239.611 340.639C239.131 339.711 238.459 338.999 237.595 338.503C236.731 338.007 235.747 337.759 234.643 337.759C233.539 337.759 232.555 338.007 231.691 338.503C230.827 338.999 230.147 339.711 229.651 340.639C229.171 341.567 228.931 342.647 228.931 343.879C228.931 345.111 229.171 346.199 229.651 347.143C230.147 348.071 230.827 348.791 231.691 349.303C232.555 349.799 233.539 350.047 234.643 350.047ZM267.575 335.575L262.631 352.255H259.535L256.031 339.631L252.311 352.255L249.239 352.279L244.511 335.575H247.415L250.871 349.159L254.615 335.575H257.687L261.167 349.087L264.647 335.575H267.575Z" fill="#253344"/>
<defs>
<linearGradient id="paint0_linear_190_4543" x1="78.6579" y1="-502.987" x2="1224.69" y2="651.096" gradientUnits="userSpaceOnUse">
<stop stop-color="white" stop-opacity="0"/>
<stop offset="0.2747" stop-color="#FBFBFC" stop-opacity="0.2747"/>
<stop offset="0.5914" stop-color="#EFEFF2" stop-opacity="0.5914"/>
<stop offset="0.9278" stop-color="#DCDBE1" stop-opacity="0.9278"/>
<stop offset="1" stop-color="#D7D6DD"/>
</linearGradient>
<linearGradient id="paint1_linear_190_4543" x1="-369.482" y1="357.086" x2="860.276" y2="194.92" gradientUnits="userSpaceOnUse">
<stop stop-color="white" stop-opacity="0"/>
<stop offset="1" stop-color="#D7D6DD"/>
</linearGradient>
<clipPath id="clip0_190_4543">
<rect width="74.61" height="19.81" fill="white" transform="matrix(-1 0 0 1 1158.23 418.115)"/>
</clipPath>
</defs>
</svg>
