<svg width="1269" height="474" viewBox="0 0 1269 474" fill="none" xmlns="http://www.w3.org/2000/svg">
<g clip-path="url(#clip0_205_1995)">
<rect x="0.75" width="1269" height="474" rx="12" fill="#AD72FE"/>
<path d="M1127.4 87.54L1214.94 -7.65255e-06L1039.87 0L1127.4 87.54Z" fill="#FFB703"/>
<circle cx="1250.82" cy="508.366" r="277.111" stroke="black"/>
<path d="M109.726 416.74C109.726 415.15 111.016 413.85 112.616 413.85C114.206 413.85 115.506 415.14 115.506 416.74C115.506 418.33 114.216 419.63 112.616 419.63C111.016 419.63 109.726 418.33 109.726 416.74Z" fill="#E0E0E6"/>
<path d="M97.0957 416.74C97.0957 415.15 98.3857 413.85 99.9857 413.85C101.576 413.85 102.876 415.14 102.876 416.74C102.876 418.33 101.586 419.63 99.9857 419.63C98.3857 419.63 97.0957 418.33 97.0957 416.74Z" fill="#E0E0E6"/>
<path d="M84.4658 416.74C84.4658 415.15 85.7558 413.85 87.3558 413.85C88.9458 413.85 90.2458 415.14 90.2458 416.74C90.2458 418.33 88.9558 419.63 87.3558 419.63C85.7558 419.63 84.4658 418.33 84.4658 416.74Z" fill="#E0E0E6"/>
<path d="M71.8359 416.74C71.8359 415.15 73.126 413.85 74.726 413.85C76.316 413.85 77.616 415.14 77.616 416.74C77.616 418.33 76.326 419.63 74.726 419.63C73.126 419.63 71.8359 418.33 71.8359 416.74Z" fill="#E0E0E6"/>
<path d="M59.2056 416.74C59.2056 415.15 60.4956 413.85 62.0956 413.85C63.6856 413.85 64.9856 415.14 64.9856 416.74C64.9856 418.33 63.6956 419.63 62.0956 419.63C60.4956 419.63 59.2056 418.33 59.2056 416.74Z" fill="#E0E0E6"/>
<path d="M46.5757 416.74C46.5757 415.15 47.8657 413.85 49.4657 413.85C51.0557 413.85 52.3557 415.14 52.3557 416.74C52.3557 418.33 51.0657 419.63 49.4657 419.63C47.8657 419.63 46.5757 418.33 46.5757 416.74Z" fill="#E0E0E6"/>
<path d="M109.726 404.11C109.726 402.51 111.016 401.22 112.616 401.22C114.206 401.22 115.506 402.51 115.506 404.11C115.506 405.7 114.216 407 112.616 407C111.016 407 109.726 405.71 109.726 404.11Z" fill="#E0E0E6"/>
<path d="M97.0957 404.11C97.0957 402.51 98.3857 401.22 99.9857 401.22C101.576 401.22 102.876 402.51 102.876 404.11C102.876 405.7 101.586 407 99.9857 407C98.3857 407 97.0957 405.71 97.0957 404.11Z" fill="#E0E0E6"/>
<path d="M84.4658 404.11C84.4658 402.51 85.7558 401.22 87.3558 401.22C88.9458 401.22 90.2458 402.51 90.2458 404.11C90.2458 405.7 88.9558 407 87.3558 407C85.7558 407 84.4658 405.71 84.4658 404.11Z" fill="#E0E0E6"/>
<path d="M71.8359 404.11C71.8359 402.51 73.126 401.22 74.726 401.22C76.316 401.22 77.616 402.51 77.616 404.11C77.616 405.7 76.326 407 74.726 407C73.126 407 71.8359 405.71 71.8359 404.11Z" fill="#E0E0E6"/>
<path d="M59.2056 404.11C59.2056 402.51 60.4956 401.22 62.0956 401.22C63.6856 401.22 64.9856 402.51 64.9856 404.11C64.9856 405.7 63.6956 407 62.0956 407C60.4956 407 59.2056 405.71 59.2056 404.11Z" fill="#E0E0E6"/>
<path d="M46.5757 404.11C46.5757 402.51 47.8657 401.22 49.4657 401.22C51.0557 401.22 52.3557 402.51 52.3557 404.11C52.3557 405.7 51.0657 407 49.4657 407C47.8657 407 46.5757 405.71 46.5757 404.11Z" fill="#E0E0E6"/>
<path d="M109.726 391.48C109.726 389.89 111.016 388.59 112.616 388.59C114.206 388.59 115.506 389.88 115.506 391.48C115.506 393.07 114.216 394.37 112.616 394.37C111.016 394.37 109.726 393.08 109.726 391.48Z" fill="#E0E0E6"/>
<path d="M97.0957 391.48C97.0957 389.89 98.3857 388.59 99.9857 388.59C101.576 388.59 102.876 389.88 102.876 391.48C102.876 393.07 101.586 394.37 99.9857 394.37C98.3857 394.37 97.0957 393.08 97.0957 391.48Z" fill="#E0E0E6"/>
<path d="M84.4658 391.48C84.4658 389.89 85.7558 388.59 87.3558 388.59C88.9458 388.59 90.2458 389.88 90.2458 391.48C90.2458 393.07 88.9558 394.37 87.3558 394.37C85.7558 394.37 84.4658 393.08 84.4658 391.48Z" fill="#E0E0E6"/>
<path d="M71.8359 391.48C71.8359 389.89 73.126 388.59 74.726 388.59C76.316 388.59 77.616 389.88 77.616 391.48C77.616 393.07 76.326 394.37 74.726 394.37C73.126 394.37 71.8359 393.08 71.8359 391.48Z" fill="#E0E0E6"/>
<path d="M59.2056 391.48C59.2056 389.89 60.4956 388.59 62.0956 388.59C63.6856 388.59 64.9856 389.88 64.9856 391.48C64.9856 393.07 63.6956 394.37 62.0956 394.37C60.4956 394.37 59.2056 393.08 59.2056 391.48Z" fill="#E0E0E6"/>
<path d="M46.5757 391.48C46.5757 389.89 47.8657 388.59 49.4657 388.59C51.0557 388.59 52.3557 389.88 52.3557 391.48C52.3557 393.07 51.0657 394.37 49.4657 394.37C47.8657 394.37 46.5757 393.08 46.5757 391.48Z" fill="#E0E0E6"/>
<path d="M1170.36 313.87C1168.77 313.87 1167.47 312.58 1167.47 310.98C1167.47 309.39 1168.76 308.09 1170.36 308.09C1171.95 308.09 1173.25 309.38 1173.25 310.98C1173.24 312.58 1171.95 313.87 1170.36 313.87Z" fill="#E0E0E6"/>
<path d="M1170.36 326.5C1168.77 326.5 1167.47 325.21 1167.47 323.61C1167.47 322.02 1168.76 320.72 1170.36 320.72C1171.95 320.72 1173.25 322.01 1173.25 323.61C1173.24 325.21 1171.95 326.5 1170.36 326.5Z" fill="#E0E0E6"/>
<path d="M1170.36 339.13C1168.77 339.13 1167.47 337.84 1167.47 336.24C1167.47 334.65 1168.76 333.35 1170.36 333.35C1171.95 333.35 1173.25 334.64 1173.25 336.24C1173.24 337.84 1171.95 339.13 1170.36 339.13Z" fill="#E0E0E6"/>
<path d="M1170.36 351.76C1168.77 351.76 1167.47 350.47 1167.47 348.87C1167.47 347.28 1168.76 345.98 1170.36 345.98C1171.95 345.98 1173.25 347.27 1173.25 348.87C1173.24 350.47 1171.95 351.76 1170.36 351.76Z" fill="#E0E0E6"/>
<path d="M1170.36 364.39C1168.77 364.39 1167.47 363.1 1167.47 361.5C1167.47 359.91 1168.76 358.61 1170.36 358.61C1171.95 358.61 1173.25 359.9 1173.25 361.5C1173.24 363.1 1171.95 364.39 1170.36 364.39Z" fill="#E0E0E6"/>
<path d="M1170.36 377.02C1168.77 377.02 1167.47 375.73 1167.47 374.13C1167.47 372.54 1168.76 371.24 1170.36 371.24C1171.95 371.24 1173.25 372.53 1173.25 374.13C1173.24 375.73 1171.95 377.02 1170.36 377.02Z" fill="#E0E0E6"/>
<path d="M1157.73 313.87C1156.13 313.87 1154.84 312.58 1154.84 310.98C1154.84 309.39 1156.13 308.09 1157.73 308.09C1159.32 308.09 1160.62 309.38 1160.62 310.98C1160.62 312.58 1159.32 313.87 1157.73 313.87Z" fill="#E0E0E6"/>
<path d="M1157.73 326.5C1156.13 326.5 1154.84 325.21 1154.84 323.61C1154.84 322.02 1156.13 320.72 1157.73 320.72C1159.32 320.72 1160.62 322.01 1160.62 323.61C1160.62 325.21 1159.32 326.5 1157.73 326.5Z" fill="#E0E0E6"/>
<path d="M1157.73 339.13C1156.13 339.13 1154.84 337.84 1154.84 336.24C1154.84 334.65 1156.13 333.35 1157.73 333.35C1159.32 333.35 1160.62 334.64 1160.62 336.24C1160.62 337.84 1159.32 339.13 1157.73 339.13Z" fill="#E0E0E6"/>
<path d="M1157.73 351.76C1156.13 351.76 1154.84 350.47 1154.84 348.87C1154.84 347.28 1156.13 345.98 1157.73 345.98C1159.32 345.98 1160.62 347.27 1160.62 348.87C1160.62 350.47 1159.32 351.76 1157.73 351.76Z" fill="#E0E0E6"/>
<path d="M1157.73 364.39C1156.13 364.39 1154.84 363.1 1154.84 361.5C1154.84 359.91 1156.13 358.61 1157.73 358.61C1159.32 358.61 1160.62 359.9 1160.62 361.5C1160.62 363.1 1159.32 364.39 1157.73 364.39Z" fill="#E0E0E6"/>
<path d="M1157.73 377.02C1156.13 377.02 1154.84 375.73 1154.84 374.13C1154.84 372.54 1156.13 371.24 1157.73 371.24C1159.32 371.24 1160.62 372.53 1160.62 374.13C1160.62 375.73 1159.32 377.02 1157.73 377.02Z" fill="#E0E0E6"/>
<path d="M1145.1 313.87C1143.5 313.87 1142.21 312.58 1142.21 310.98C1142.21 309.39 1143.5 308.09 1145.1 308.09C1146.69 308.09 1147.99 309.38 1147.99 310.98C1147.99 312.58 1146.69 313.87 1145.1 313.87Z" fill="#E0E0E6"/>
<path d="M1145.1 326.5C1143.5 326.5 1142.21 325.21 1142.21 323.61C1142.21 322.02 1143.5 320.72 1145.1 320.72C1146.69 320.72 1147.99 322.01 1147.99 323.61C1147.99 325.21 1146.69 326.5 1145.1 326.5Z" fill="#E0E0E6"/>
<path d="M1145.1 339.13C1143.5 339.13 1142.21 337.84 1142.21 336.24C1142.21 334.65 1143.5 333.35 1145.1 333.35C1146.69 333.35 1147.99 334.64 1147.99 336.24C1147.99 337.84 1146.69 339.13 1145.1 339.13Z" fill="#E0E0E6"/>
<path d="M1145.1 351.76C1143.5 351.76 1142.21 350.47 1142.21 348.87C1142.21 347.28 1143.5 345.98 1145.1 345.98C1146.69 345.98 1147.99 347.27 1147.99 348.87C1147.99 350.47 1146.69 351.76 1145.1 351.76Z" fill="#E0E0E6"/>
<path d="M1145.1 364.39C1143.5 364.39 1142.21 363.1 1142.21 361.5C1142.21 359.91 1143.5 358.61 1145.1 358.61C1146.69 358.61 1147.99 359.9 1147.99 361.5C1147.99 363.1 1146.69 364.39 1145.1 364.39Z" fill="#E0E0E6"/>
<path d="M1145.1 377.02C1143.5 377.02 1142.21 375.73 1142.21 374.13C1142.21 372.54 1143.5 371.24 1145.1 371.24C1146.69 371.24 1147.99 372.53 1147.99 374.13C1147.99 375.73 1146.69 377.02 1145.1 377.02Z" fill="#E0E0E6"/>
<g clip-path="url(#clip1_205_1995)">
<path d="M266.782 260.01L249.632 250.11V269.92L266.782 260.01Z" fill="#FEFEFE"/>
<path d="M295.512 260.01L278.362 250.11V269.92L295.512 260.01Z" fill="#FEFEFE"/>
<path d="M324.242 260.01L307.092 250.11V269.92L324.242 260.01Z" fill="#F59D1B"/>
</g>
<path d="M902.375 412.72C912.984 412.72 921.585 404.119 921.585 393.51C921.585 382.901 912.984 374.3 902.375 374.3C891.766 374.3 883.165 382.901 883.165 393.51C883.165 404.119 891.766 412.72 902.375 412.72Z" fill="#FFB703"/>
<path d="M886.125 423.32C896.734 423.32 905.335 414.719 905.335 404.11C905.335 393.501 896.734 384.9 886.125 384.9C875.516 384.9 866.915 393.501 866.915 404.11C866.915 414.719 875.516 423.32 886.125 423.32Z" stroke="#262626" stroke-width="1.3076" stroke-miterlimit="10" stroke-linecap="round" stroke-linejoin="round"/>
<g clip-path="url(#clip2_205_1995)">
<path d="M970.458 3.38761L974.849 7.75073L979.212 3.35986L974.821 -1.00325L970.458 3.38761Z" fill="#023047"/>
<path d="M997.894 30.3045L1001.94 34.3223L1005.96 30.279L1001.91 26.2612L997.894 30.3045Z" fill="#023047"/>
<path d="M1025.32 57.2263L1029.02 60.8987L1032.69 57.203L1028.99 53.5306L1025.32 57.2263Z" fill="#023047"/>
<path d="M1052.76 84.1389L1056.1 87.4658L1059.43 84.1177L1056.08 80.7907L1052.76 84.1389Z" fill="#023047"/>
<path d="M1080.21 111.072L1083.21 114.054L1086.19 111.053L1083.19 108.071L1080.21 111.072Z" fill="#023047"/>
<path d="M1019.69 8.34787L1023.74 12.3656L1027.76 8.32231L1023.71 4.30458L1019.69 8.34787Z" fill="#023047"/>
<path d="M1047.16 35.294L1050.85 38.9668L1054.52 35.2717L1050.83 31.5988L1047.16 35.294Z" fill="#023047"/>
<path d="M1074.57 62.1915L1077.92 65.5184L1081.24 62.1703L1077.9 58.8433L1074.57 62.1915Z" fill="#023047"/>
<path d="M1102.01 89.1064L1105.01 92.088L1107.99 89.0875L1104.99 86.1059L1102.01 89.1064Z" fill="#023047"/>
<path d="M1068.97 13.3471L1072.67 17.0199L1076.34 13.3248L1072.64 9.65197L1068.97 13.3471Z" fill="#023047"/>
<path d="M1096.39 40.246L1099.73 43.573L1103.06 40.2249L1099.71 36.8979L1096.39 40.246Z" fill="#023047"/>
<path d="M1123.84 67.1853L1126.84 70.1672L1129.83 67.1672L1126.83 64.1852L1123.84 67.1853Z" fill="#023047"/>
<path d="M1118.19 18.2911L1121.54 21.618L1124.87 18.2699L1121.52 14.943L1118.19 18.2911Z" fill="#023047"/>
<path d="M1145.65 45.23L1148.65 48.2119L1151.63 45.2119L1148.63 42.2299L1145.65 45.23Z" fill="#023047"/>
<path d="M1167.45 23.2667L1170.45 26.2483L1173.43 23.2477L1170.43 20.2662L1167.45 23.2667Z" fill="#023047"/>
<path d="M1189.27 1.32396L1192.27 4.30554L1195.25 1.30499L1192.25 -1.67659L1189.27 1.32396Z" fill="#023047"/>
</g>
<g clip-path="url(#clip3_205_1995)">
<path d="M221.577 123.78L222.252 113.886L212.731 113.993L212.056 123.887L221.577 123.78Z" fill="#023047"/>
<path d="M223.918 85.0319L224.558 75.642L215.521 75.7443L214.881 85.1342L223.918 85.0319Z" fill="#023047"/>
<path d="M226.252 46.2905L226.858 37.4045L218.307 37.5014L217.701 46.3873L226.252 46.2905Z" fill="#023047"/>
<path d="M228.573 7.5475L229.144 -0.834473L221.078 -0.743152L220.507 7.63883L228.573 7.5475Z" fill="#023047"/>
<path d="M190.331 124.179L191.005 114.285L181.484 114.393L180.809 124.287L190.331 124.179Z" fill="#023047"/>
<path d="M192.647 85.437L193.287 76.0471L184.25 76.1494L183.61 85.5393L192.647 85.437Z" fill="#023047"/>
<path d="M194.986 46.6968L195.592 37.8109L187.04 37.9077L186.435 46.7937L194.986 46.6968Z" fill="#023047"/>
<path d="M197.311 7.95597L197.882 -0.426025L189.815 -0.334704L189.244 8.04729L197.311 7.95597Z" fill="#023047"/>
<path d="M159.063 124.585L159.737 114.692L150.216 114.799L149.542 124.693L159.063 124.585Z" fill="#023047"/>
<path d="M161.371 85.8583L162.012 76.4679L152.975 76.5695L152.334 85.9599L161.371 85.8583Z" fill="#023047"/>
<path d="M163.694 47.1138L164.301 38.2273L155.749 38.3234L155.143 47.2099L163.694 47.1138Z" fill="#023047"/>
<path d="M166.044 8.37333L166.615 -0.00866699L158.549 0.0826539L157.978 8.46465L166.044 8.37333Z" fill="#023047"/>
<path d="M127.785 125L128.459 115.106L118.938 115.214L118.264 125.108L127.785 125Z" fill="#023047"/>
<path d="M130.12 86.258L130.76 76.8682L121.723 76.9705L121.084 86.3603L130.12 86.258Z" fill="#023047"/>
<path d="M132.451 47.5191L133.056 38.6332L124.505 38.73L123.9 47.6159L132.451 47.5191Z" fill="#023047"/>
<path d="M134.766 8.77309L135.337 0.391113L127.271 0.482434L126.7 8.86441L134.766 8.77309Z" fill="#023047"/>
<path d="M96.516 125.405L97.1902 115.511L87.6689 115.619L86.9947 125.513L96.516 125.405Z" fill="#023047"/>
<path d="M98.855 86.6647L99.4949 77.2748L90.4586 77.3771L89.8187 86.767L98.855 86.6647Z" fill="#023047"/>
<path d="M101.182 47.9242L101.787 39.0383L93.2358 39.1351L92.6303 48.0211L101.182 47.9242Z" fill="#023047"/>
<path d="M103.503 9.18157L104.074 0.799561L96.0078 0.890882L95.4367 9.27289L103.503 9.18157Z" fill="#023047"/>
<path d="M65.256 125.813L65.9302 115.919L56.4089 116.027L55.7347 125.921L65.256 125.813Z" fill="#023047"/>
<path d="M67.5889 87.0712L68.2288 77.6813L59.1924 77.7836L58.5526 87.1735L67.5889 87.0712Z" fill="#023047"/>
<path d="M69.9092 48.3278L70.5146 39.4419L61.9633 39.5387L61.3578 48.4246L69.9092 48.3278Z" fill="#023047"/>
<path d="M72.2265 9.59209L72.7976 1.21008L64.7313 1.3014L64.1601 9.68341L72.2265 9.59209Z" fill="#023047"/>
<path d="M33.9904 126.23L34.6646 116.336L25.1433 116.443L24.4691 126.337L33.9904 126.23Z" fill="#023047"/>
<path d="M36.3182 87.486L36.958 78.0961L27.9217 78.1984L27.2819 87.5883L36.3182 87.486Z" fill="#023047"/>
<path d="M38.6125 48.7594L39.2188 39.8729L30.6669 39.9691L30.0607 48.8555L38.6125 48.7594Z" fill="#023047"/>
<path d="M40.9711 10.0059L41.5422 1.6239L33.4759 1.71522L32.9047 10.0972L40.9711 10.0059Z" fill="#023047"/>
<path d="M2.68465 126.654L3.35962 116.76L-6.16219 116.867L-6.83717 126.761L2.68465 126.654Z" fill="#023047"/>
<path d="M5.05353 87.8928L5.69336 78.5029L-3.34295 78.6052L-3.98278 87.9951L5.05353 87.8928Z" fill="#023047"/>
<path d="M7.34276 49.1657L7.94897 40.2792L-0.602845 40.3753L-1.20906 49.2618L7.34276 49.1657Z" fill="#023047"/>
<path d="M9.70131 10.4099L10.2725 2.02795L2.20609 2.11927L1.63494 10.5013L9.70131 10.4099Z" fill="#023047"/>
</g>
<path d="M103.303 182.355C103.303 177.96 104.285 174.035 106.247 170.579C108.253 167.08 110.962 164.371 114.375 162.451C117.831 160.488 121.693 159.507 125.959 159.507C130.951 159.507 135.325 160.787 139.079 163.347C142.834 165.907 145.458 169.448 146.951 173.971H136.647C135.623 171.838 134.173 170.238 132.295 169.171C130.461 168.104 128.327 167.571 125.895 167.571C123.293 167.571 120.967 168.19 118.919 169.427C116.914 170.622 115.335 172.328 114.183 174.547C113.074 176.766 112.519 179.368 112.519 182.355C112.519 185.299 113.074 187.902 114.183 190.163C115.335 192.382 116.914 194.11 118.919 195.347C120.967 196.542 123.293 197.139 125.895 197.139C128.327 197.139 130.461 196.606 132.295 195.539C134.173 194.43 135.623 192.808 136.647 190.675H146.951C145.458 195.24 142.834 198.803 139.079 201.363C135.367 203.88 130.994 205.139 125.959 205.139C121.693 205.139 117.831 204.179 114.375 202.259C110.962 200.296 108.253 197.587 106.247 194.131C104.285 190.675 103.303 186.75 103.303 182.355ZM177.9 205.203C173.719 205.203 169.879 204.222 166.38 202.259C162.882 200.296 160.108 197.587 158.06 194.131C156.012 190.632 154.988 186.686 154.988 182.291C154.988 177.939 156.012 174.035 158.06 170.579C160.108 167.08 162.882 164.35 166.38 162.387C169.879 160.424 173.719 159.443 177.9 159.443C182.124 159.443 185.964 160.424 189.42 162.387C192.919 164.35 195.671 167.08 197.676 170.579C199.724 174.035 200.748 177.939 200.748 182.291C200.748 186.686 199.724 190.632 197.676 194.131C195.671 197.587 192.919 200.296 189.42 202.259C185.922 204.222 182.082 205.203 177.9 205.203ZM177.9 197.203C180.588 197.203 182.956 196.606 185.004 195.411C187.052 194.174 188.652 192.424 189.804 190.163C190.956 187.902 191.532 185.278 191.532 182.291C191.532 179.304 190.956 176.702 189.804 174.483C188.652 172.222 187.052 170.494 185.004 169.299C182.956 168.104 180.588 167.507 177.9 167.507C175.212 167.507 172.823 168.104 170.732 169.299C168.684 170.494 167.084 172.222 165.932 174.483C164.78 176.702 164.204 179.304 164.204 182.291C164.204 185.278 164.78 187.902 165.932 190.163C167.084 192.424 168.684 194.174 170.732 195.411C172.823 196.606 175.212 197.203 177.9 197.203ZM218.934 197.651H233.654V204.755H209.974V160.083H218.934V197.651ZM250.869 197.651H265.589V204.755H241.909V160.083H250.869V197.651ZM301.236 196.243H283.444L280.5 204.755H271.092L287.156 160.019H297.588L313.652 204.755H304.18L301.236 196.243ZM298.804 189.075L292.34 170.387L285.876 189.075H298.804ZM347.561 181.843C350.078 182.312 352.147 183.571 353.769 185.619C355.39 187.667 356.201 190.014 356.201 192.659C356.201 195.048 355.603 197.16 354.409 198.995C353.257 200.787 351.571 202.195 349.353 203.219C347.134 204.243 344.51 204.755 341.481 204.755H322.217V160.083H340.649C343.678 160.083 346.281 160.574 348.457 161.555C350.675 162.536 352.339 163.902 353.449 165.651C354.601 167.4 355.177 169.384 355.177 171.603C355.177 174.206 354.473 176.382 353.065 178.131C351.699 179.88 349.865 181.118 347.561 181.843ZM331.177 178.515H339.369C341.502 178.515 343.145 178.046 344.297 177.107C345.449 176.126 346.025 174.739 346.025 172.947C346.025 171.155 345.449 169.768 344.297 168.787C343.145 167.806 341.502 167.315 339.369 167.315H331.177V178.515ZM340.201 197.459C342.377 197.459 344.062 196.947 345.257 195.923C346.494 194.899 347.113 193.448 347.113 191.571C347.113 189.651 346.473 188.158 345.193 187.091C343.913 185.982 342.185 185.427 340.009 185.427H331.177V197.459H340.201ZM386.638 205.203C382.456 205.203 378.616 204.222 375.118 202.259C371.619 200.296 368.846 197.587 366.798 194.131C364.75 190.632 363.726 186.686 363.726 182.291C363.726 177.939 364.75 174.035 366.798 170.579C368.846 167.08 371.619 164.35 375.118 162.387C378.616 160.424 382.456 159.443 386.638 159.443C390.862 159.443 394.702 160.424 398.158 162.387C401.656 164.35 404.408 167.08 406.414 170.579C408.462 174.035 409.486 177.939 409.486 182.291C409.486 186.686 408.462 190.632 406.414 194.131C404.408 197.587 401.656 200.296 398.158 202.259C394.659 204.222 390.819 205.203 386.638 205.203ZM386.638 197.203C389.326 197.203 391.694 196.606 393.742 195.411C395.79 194.174 397.39 192.424 398.542 190.163C399.694 187.902 400.27 185.278 400.27 182.291C400.27 179.304 399.694 176.702 398.542 174.483C397.39 172.222 395.79 170.494 393.742 169.299C391.694 168.104 389.326 167.507 386.638 167.507C383.95 167.507 381.56 168.104 379.47 169.299C377.422 170.494 375.822 172.222 374.67 174.483C373.518 176.702 372.942 179.304 372.942 182.291C372.942 185.278 373.518 187.902 374.67 190.163C375.822 192.424 377.422 194.174 379.47 195.411C381.56 196.606 383.95 197.203 386.638 197.203ZM441.752 204.755L431.896 187.347H427.672V204.755H418.712V160.083H435.48C438.936 160.083 441.88 160.702 444.312 161.939C446.744 163.134 448.557 164.776 449.752 166.867C450.989 168.915 451.608 171.219 451.608 173.779C451.608 176.723 450.754 179.39 449.048 181.779C447.341 184.126 444.802 185.747 441.432 186.643L452.12 204.755H441.752ZM427.672 180.627H435.16C437.592 180.627 439.405 180.051 440.6 178.899C441.794 177.704 442.392 176.062 442.392 173.971C442.392 171.923 441.794 170.344 440.6 169.235C439.405 168.083 437.592 167.507 435.16 167.507H427.672V180.627ZM489.664 196.243H471.872L468.928 204.755H459.52L475.584 160.019H486.016L502.08 204.755H492.608L489.664 196.243ZM487.232 189.075L480.768 170.387L474.304 189.075H487.232ZM541.044 160.083V167.315H529.14V204.755H520.18V167.315H508.276V160.083H541.044ZM559.102 167.315V178.515H574.142V185.619H559.102V197.459H576.062V204.755H550.142V160.019H576.062V167.315H559.102ZM596.556 195.347L589.068 213.331H583.308L587.468 195.347H596.556ZM632.344 197.651H647.064V204.755H623.384V160.083H632.344V197.651ZM664.279 167.315V178.515H679.319V185.619H664.279V197.459H681.239V204.755H655.319V160.019H681.239V167.315H664.279ZM719.334 196.243H701.542L698.598 204.755H689.19L705.254 160.019H715.686L731.75 204.755H722.278L719.334 196.243ZM716.902 189.075L710.438 170.387L703.974 189.075H716.902ZM763.354 204.755L753.498 187.347H749.274V204.755H740.314V160.083H757.082C760.538 160.083 763.482 160.702 765.914 161.939C768.346 163.134 770.16 164.776 771.354 166.867C772.592 168.915 773.21 171.219 773.21 173.779C773.21 176.723 772.357 179.39 770.65 181.779C768.944 184.126 766.405 185.747 763.034 186.643L773.722 204.755H763.354ZM749.274 180.627H756.762C759.194 180.627 761.008 180.051 762.202 178.899C763.397 177.704 763.994 176.062 763.994 173.971C763.994 171.923 763.397 170.344 762.202 169.235C761.008 168.083 759.194 167.507 756.762 167.507H749.274V180.627ZM822.082 204.755H813.122L792.834 174.099V204.755H783.874V160.019H792.834L813.122 190.739V160.019H822.082V204.755ZM843.289 195.347L835.801 213.331H830.041L834.201 195.347H843.289ZM885.541 205.203C882.426 205.203 879.61 204.67 877.093 203.603C874.618 202.536 872.655 201 871.205 198.995C869.754 196.99 869.007 194.622 868.965 191.891H878.565C878.693 193.726 879.333 195.176 880.485 196.243C881.679 197.31 883.301 197.843 885.349 197.843C887.439 197.843 889.082 197.352 890.277 196.371C891.471 195.347 892.069 194.024 892.069 192.403C892.069 191.08 891.663 189.992 890.853 189.139C890.042 188.286 889.018 187.624 887.781 187.155C886.586 186.643 884.922 186.088 882.789 185.491C879.887 184.638 877.519 183.806 875.685 182.995C873.893 182.142 872.335 180.883 871.013 179.219C869.733 177.512 869.093 175.251 869.093 172.435C869.093 169.79 869.754 167.486 871.077 165.523C872.399 163.56 874.255 162.067 876.645 161.043C879.034 159.976 881.765 159.443 884.837 159.443C889.445 159.443 893.178 160.574 896.037 162.835C898.938 165.054 900.538 168.168 900.837 172.179H890.981C890.895 170.643 890.234 169.384 888.997 168.403C887.802 167.379 886.202 166.867 884.197 166.867C882.447 166.867 881.039 167.315 879.973 168.211C878.949 169.107 878.437 170.408 878.437 172.115C878.437 173.31 878.821 174.312 879.589 175.123C880.399 175.891 881.381 176.531 882.533 177.043C883.727 177.512 885.391 178.067 887.525 178.707C890.426 179.56 892.794 180.414 894.629 181.267C896.463 182.12 898.042 183.4 899.365 185.107C900.687 186.814 901.349 189.054 901.349 191.827C901.349 194.216 900.73 196.435 899.493 198.483C898.255 200.531 896.442 202.174 894.053 203.411C891.663 204.606 888.826 205.203 885.541 205.203ZM920.509 160.083V187.731C920.509 190.76 921.298 193.086 922.877 194.707C924.455 196.286 926.674 197.075 929.533 197.075C932.434 197.075 934.674 196.286 936.253 194.707C937.831 193.086 938.621 190.76 938.621 187.731V160.083H947.645V187.667C947.645 191.464 946.813 194.686 945.149 197.331C943.527 199.934 941.33 201.896 938.557 203.219C935.826 204.542 932.775 205.203 929.405 205.203C926.077 205.203 923.047 204.542 920.317 203.219C917.629 201.896 915.495 199.934 913.917 197.331C912.338 194.686 911.549 191.464 911.549 187.667V160.083H920.509ZM956.686 182.355C956.686 177.96 957.667 174.035 959.63 170.579C961.635 167.08 964.344 164.371 967.758 162.451C971.214 160.488 975.075 159.507 979.342 159.507C984.334 159.507 988.707 160.787 992.462 163.347C996.216 165.907 998.84 169.448 1000.33 173.971H990.03C989.006 171.838 987.555 170.238 985.678 169.171C983.843 168.104 981.71 167.571 979.278 167.571C976.675 167.571 974.35 168.19 972.302 169.427C970.296 170.622 968.718 172.328 967.566 174.547C966.456 176.766 965.902 179.368 965.902 182.355C965.902 185.299 966.456 187.902 967.566 190.163C968.718 192.382 970.296 194.11 972.302 195.347C974.35 196.542 976.675 197.139 979.278 197.139C981.71 197.139 983.843 196.606 985.678 195.539C987.555 194.43 989.006 192.808 990.03 190.675H1000.33C998.84 195.24 996.216 198.803 992.462 201.363C988.75 203.88 984.376 205.139 979.342 205.139C975.075 205.139 971.214 204.179 967.758 202.259C964.344 200.296 961.635 197.587 959.63 194.131C957.667 190.675 956.686 186.75 956.686 182.355ZM1008.37 182.355C1008.37 177.96 1009.35 174.035 1011.31 170.579C1013.32 167.08 1016.03 164.371 1019.44 162.451C1022.9 160.488 1026.76 159.507 1031.03 159.507C1036.02 159.507 1040.39 160.787 1044.15 163.347C1047.9 165.907 1050.53 169.448 1052.02 173.971H1041.71C1040.69 171.838 1039.24 170.238 1037.36 169.171C1035.53 168.104 1033.39 167.571 1030.96 167.571C1028.36 167.571 1026.03 168.19 1023.99 169.427C1021.98 170.622 1020.4 172.328 1019.25 174.547C1018.14 176.766 1017.59 179.368 1017.59 182.355C1017.59 185.299 1018.14 187.902 1019.25 190.163C1020.4 192.382 1021.98 194.11 1023.99 195.347C1026.03 196.542 1028.36 197.139 1030.96 197.139C1033.39 197.139 1035.53 196.606 1037.36 195.539C1039.24 194.43 1040.69 192.808 1041.71 190.675H1052.02C1050.53 195.24 1047.9 198.803 1044.15 201.363C1040.43 203.88 1036.06 205.139 1031.03 205.139C1026.76 205.139 1022.9 204.179 1019.44 202.259C1016.03 200.296 1013.32 197.587 1011.31 194.131C1009.35 190.675 1008.37 186.75 1008.37 182.355ZM1071.19 167.315V178.515H1086.23V185.619H1071.19V197.459H1088.15V204.755H1062.23V160.019H1088.15V167.315H1071.19ZM1107.81 167.315V178.515H1122.85V185.619H1107.81V197.459H1124.77V204.755H1098.85V160.019H1124.77V167.315H1107.81ZM1151.09 160.083C1155.79 160.083 1159.9 161 1163.44 162.835C1167.03 164.67 1169.78 167.294 1171.7 170.707C1173.66 174.078 1174.64 178.003 1174.64 182.483C1174.64 186.963 1173.66 190.888 1171.7 194.259C1169.78 197.587 1167.03 200.168 1163.44 202.003C1159.9 203.838 1155.79 204.755 1151.09 204.755H1135.48V160.083H1151.09ZM1150.77 197.139C1155.47 197.139 1159.09 195.859 1161.65 193.299C1164.21 190.739 1165.49 187.134 1165.49 182.483C1165.49 177.832 1164.21 174.206 1161.65 171.603C1159.09 168.958 1155.47 167.635 1150.77 167.635H1144.44V197.139H1150.77Z" fill="white"/>
<rect x="350.023" y="242.755" width="578.08" height="50" rx="25" fill="#FFB703"/>
<path d="M396.844 256.985V272.516C396.844 274.438 396.255 275.957 395.077 277.073C393.92 278.189 392.39 278.747 390.489 278.747C388.588 278.747 387.048 278.189 385.87 277.073C384.713 275.957 384.134 274.438 384.134 272.516H387.699C387.72 273.467 387.957 274.221 388.412 274.779C388.887 275.337 389.58 275.616 390.489 275.616C391.398 275.616 392.091 275.337 392.566 274.779C393.041 274.2 393.279 273.446 393.279 272.516V256.985H396.844ZM411.242 278.809C409.63 278.809 408.173 278.447 406.871 277.724C405.569 276.98 404.546 275.947 403.802 274.624C403.058 273.281 402.686 271.731 402.686 269.974C402.686 268.238 403.069 266.698 403.833 265.355C404.598 264.012 405.642 262.978 406.964 262.255C408.287 261.532 409.765 261.17 411.397 261.17C413.03 261.17 414.508 261.532 415.83 262.255C417.153 262.978 418.197 264.012 418.961 265.355C419.726 266.698 420.108 268.238 420.108 269.974C420.108 271.71 419.716 273.25 418.93 274.593C418.145 275.936 417.07 276.98 415.706 277.724C414.363 278.447 412.875 278.809 411.242 278.809ZM411.242 275.74C412.152 275.74 412.999 275.523 413.784 275.089C414.59 274.655 415.241 274.004 415.737 273.136C416.233 272.268 416.481 271.214 416.481 269.974C416.481 268.734 416.244 267.69 415.768 266.843C415.293 265.975 414.663 265.324 413.877 264.89C413.092 264.456 412.245 264.239 411.335 264.239C410.426 264.239 409.579 264.456 408.793 264.89C408.029 265.324 407.419 265.975 406.964 266.843C406.51 267.69 406.282 268.734 406.282 269.974C406.282 271.813 406.747 273.239 407.677 274.252C408.628 275.244 409.816 275.74 411.242 275.74ZM426.64 259.186C425.999 259.186 425.462 258.969 425.028 258.535C424.594 258.101 424.377 257.564 424.377 256.923C424.377 256.282 424.594 255.745 425.028 255.311C425.462 254.877 425.999 254.66 426.64 254.66C427.26 254.66 427.787 254.877 428.221 255.311C428.655 255.745 428.872 256.282 428.872 256.923C428.872 257.564 428.655 258.101 428.221 258.535C427.787 258.969 427.26 259.186 426.64 259.186ZM428.376 261.449V278.53H424.842V261.449H428.376ZM442.874 261.17C444.217 261.17 445.416 261.449 446.47 262.007C447.544 262.565 448.381 263.392 448.981 264.487C449.58 265.582 449.88 266.905 449.88 268.455V278.53H446.377V268.982C446.377 267.453 445.994 266.285 445.23 265.479C444.465 264.652 443.421 264.239 442.099 264.239C440.776 264.239 439.722 264.652 438.937 265.479C438.172 266.285 437.79 267.453 437.79 268.982V278.53H434.256V261.449H437.79V263.402C438.368 262.699 439.102 262.152 439.991 261.759C440.9 261.366 441.861 261.17 442.874 261.17ZM474.747 278.747C472.742 278.747 470.893 278.282 469.198 277.352C467.524 276.401 466.191 275.089 465.199 273.415C464.228 271.72 463.742 269.819 463.742 267.711C463.742 265.603 464.228 263.712 465.199 262.038C466.191 260.364 467.524 259.062 469.198 258.132C470.893 257.181 472.742 256.706 474.747 256.706C476.772 256.706 478.622 257.181 480.296 258.132C481.991 259.062 483.324 260.364 484.295 262.038C485.266 263.712 485.752 265.603 485.752 267.711C485.752 269.819 485.266 271.72 484.295 273.415C483.324 275.089 481.991 276.401 480.296 277.352C478.622 278.282 476.772 278.747 474.747 278.747ZM474.747 275.678C476.173 275.678 477.444 275.358 478.56 274.717C479.676 274.056 480.544 273.126 481.164 271.927C481.805 270.708 482.125 269.302 482.125 267.711C482.125 266.12 481.805 264.725 481.164 263.526C480.544 262.327 479.676 261.408 478.56 260.767C477.444 260.126 476.173 259.806 474.747 259.806C473.321 259.806 472.05 260.126 470.934 260.767C469.818 261.408 468.94 262.327 468.299 263.526C467.679 264.725 467.369 266.12 467.369 267.711C467.369 269.302 467.679 270.708 468.299 271.927C468.94 273.126 469.818 274.056 470.934 274.717C472.05 275.358 473.321 275.678 474.747 275.678ZM505.939 261.449V278.53H502.405V276.515C501.847 277.218 501.113 277.776 500.204 278.189C499.315 278.582 498.364 278.778 497.352 278.778C496.008 278.778 494.799 278.499 493.725 277.941C492.671 277.383 491.834 276.556 491.214 275.461C490.614 274.366 490.315 273.043 490.315 271.493V261.449H493.818V270.966C493.818 272.495 494.2 273.673 494.965 274.5C495.729 275.306 496.773 275.709 498.096 275.709C499.418 275.709 500.462 275.306 501.227 274.5C502.012 273.673 502.405 272.495 502.405 270.966V261.449H505.939ZM515.376 263.929C515.892 263.061 516.574 262.389 517.422 261.914C518.29 261.418 519.313 261.17 520.491 261.17V264.828H519.592C518.207 264.828 517.153 265.179 516.43 265.882C515.727 266.585 515.376 267.804 515.376 269.54V278.53H511.842V261.449H515.376V263.929ZM541.309 256.985C543.603 256.985 545.607 257.429 547.323 258.318C549.059 259.186 550.392 260.447 551.322 262.1C552.272 263.733 552.748 265.644 552.748 267.835C552.748 270.026 552.272 271.927 551.322 273.539C550.392 275.151 549.059 276.391 547.323 277.259C545.607 278.106 543.603 278.53 541.309 278.53H534.272V256.985H541.309ZM541.309 275.647C543.83 275.647 545.762 274.965 547.106 273.601C548.449 272.237 549.121 270.315 549.121 267.835C549.121 265.334 548.449 263.381 547.106 261.976C545.762 260.571 543.83 259.868 541.309 259.868H537.806V275.647H541.309ZM572.866 261.449L562.388 286.559H558.73L562.202 278.251L555.475 261.449H559.412L564.217 274.469L569.208 261.449H572.866ZM585.391 261.17C586.735 261.17 587.933 261.449 588.987 262.007C590.062 262.565 590.899 263.392 591.498 264.487C592.098 265.582 592.397 266.905 592.397 268.455V278.53H588.894V268.982C588.894 267.453 588.512 266.285 587.747 265.479C586.983 264.652 585.939 264.239 584.616 264.239C583.294 264.239 582.24 264.652 581.454 265.479C580.69 266.285 580.307 267.453 580.307 268.982V278.53H576.773V261.449H580.307V263.402C580.886 262.699 581.62 262.152 582.508 261.759C583.418 261.366 584.379 261.17 585.391 261.17ZM596.967 269.912C596.967 268.197 597.318 266.678 598.021 265.355C598.744 264.032 599.716 263.009 600.935 262.286C602.175 261.542 603.539 261.17 605.027 261.17C606.37 261.17 607.538 261.439 608.53 261.976C609.543 262.493 610.349 263.144 610.948 263.929V261.449H614.513V278.53H610.948V275.988C610.349 276.794 609.532 277.466 608.499 278.003C607.466 278.54 606.288 278.809 604.965 278.809C603.498 278.809 602.154 278.437 600.935 277.693C599.716 276.928 598.744 275.874 598.021 274.531C597.318 273.167 596.967 271.627 596.967 269.912ZM610.948 269.974C610.948 268.796 610.7 267.773 610.204 266.905C609.729 266.037 609.098 265.376 608.313 264.921C607.528 264.466 606.68 264.239 605.771 264.239C604.862 264.239 604.014 264.466 603.229 264.921C602.444 265.355 601.803 266.006 601.307 266.874C600.832 267.721 600.594 268.734 600.594 269.912C600.594 271.09 600.832 272.123 601.307 273.012C601.803 273.901 602.444 274.583 603.229 275.058C604.035 275.513 604.882 275.74 605.771 275.74C606.68 275.74 607.528 275.513 608.313 275.058C609.098 274.603 609.729 273.942 610.204 273.074C610.7 272.185 610.948 271.152 610.948 269.974ZM641.072 261.17C642.415 261.17 643.614 261.449 644.668 262.007C645.742 262.565 646.579 263.392 647.179 264.487C647.799 265.582 648.109 266.905 648.109 268.455V278.53H644.606V268.982C644.606 267.453 644.223 266.285 643.459 265.479C642.694 264.652 641.65 264.239 640.328 264.239C639.005 264.239 637.951 264.652 637.166 265.479C636.401 266.285 636.019 267.453 636.019 268.982V278.53H632.516V268.982C632.516 267.453 632.133 266.285 631.369 265.479C630.604 264.652 629.56 264.239 628.238 264.239C626.915 264.239 625.861 264.652 625.076 265.479C624.311 266.285 623.929 267.453 623.929 268.982V278.53H620.395V261.449H623.929V263.402C624.507 262.699 625.241 262.152 626.13 261.759C627.018 261.366 627.969 261.17 628.982 261.17C630.346 261.17 631.565 261.459 632.64 262.038C633.714 262.617 634.541 263.454 635.12 264.549C635.636 263.516 636.442 262.699 637.538 262.1C638.633 261.48 639.811 261.17 641.072 261.17ZM655.644 259.186C655.003 259.186 654.466 258.969 654.032 258.535C653.598 258.101 653.381 257.564 653.381 256.923C653.381 256.282 653.598 255.745 654.032 255.311C654.466 254.877 655.003 254.66 655.644 254.66C656.264 254.66 656.791 254.877 657.225 255.311C657.659 255.745 657.876 256.282 657.876 256.923C657.876 257.564 657.659 258.101 657.225 258.535C656.791 258.969 656.264 259.186 655.644 259.186ZM657.38 261.449V278.53H653.846V261.449H657.38ZM662.082 269.974C662.082 268.217 662.433 266.678 663.136 265.355C663.859 264.012 664.851 262.978 666.112 262.255C667.372 261.532 668.819 261.17 670.452 261.17C672.518 261.17 674.223 261.666 675.567 262.658C676.931 263.629 677.85 265.024 678.326 266.843H674.513C674.203 265.996 673.707 265.334 673.025 264.859C672.343 264.384 671.485 264.146 670.452 264.146C669.005 264.146 667.848 264.663 666.98 265.696C666.132 266.709 665.709 268.135 665.709 269.974C665.709 271.813 666.132 273.25 666.98 274.283C667.848 275.316 669.005 275.833 670.452 275.833C672.498 275.833 673.851 274.934 674.513 273.136H678.326C677.83 274.872 676.9 276.257 675.536 277.29C674.172 278.303 672.477 278.809 670.452 278.809C668.819 278.809 667.372 278.447 666.112 277.724C664.851 276.98 663.859 275.947 663.136 274.624C662.433 273.281 662.082 271.731 662.082 269.974ZM691.202 267.711C691.202 265.603 691.688 263.712 692.659 262.038C693.651 260.364 694.984 259.062 696.658 258.132C698.353 257.181 700.203 256.706 702.207 256.706C704.501 256.706 706.537 257.274 708.314 258.411C710.112 259.527 711.414 261.118 712.22 263.185H707.973C707.415 262.048 706.64 261.201 705.648 260.643C704.656 260.085 703.509 259.806 702.207 259.806C700.781 259.806 699.51 260.126 698.394 260.767C697.278 261.408 696.4 262.327 695.759 263.526C695.139 264.725 694.829 266.12 694.829 267.711C694.829 269.302 695.139 270.697 695.759 271.896C696.4 273.095 697.278 274.025 698.394 274.686C699.51 275.327 700.781 275.647 702.207 275.647C703.509 275.647 704.656 275.368 705.648 274.81C706.64 274.252 707.415 273.405 707.973 272.268H712.22C711.414 274.335 710.112 275.926 708.314 277.042C706.537 278.158 704.501 278.716 702.207 278.716C700.182 278.716 698.332 278.251 696.658 277.321C694.984 276.37 693.651 275.058 692.659 273.384C691.688 271.71 691.202 269.819 691.202 267.711ZM725.006 278.809C723.394 278.809 721.937 278.447 720.635 277.724C719.333 276.98 718.31 275.947 717.566 274.624C716.822 273.281 716.45 271.731 716.45 269.974C716.45 268.238 716.832 266.698 717.597 265.355C718.361 264.012 719.405 262.978 720.728 262.255C722.05 261.532 723.528 261.17 725.161 261.17C726.793 261.17 728.271 261.532 729.594 262.255C730.916 262.978 731.96 264.012 732.725 265.355C733.489 266.698 733.872 268.238 733.872 269.974C733.872 271.71 733.479 273.25 732.694 274.593C731.908 275.936 730.834 276.98 729.47 277.724C728.126 278.447 726.638 278.809 725.006 278.809ZM725.006 275.74C725.915 275.74 726.762 275.523 727.548 275.089C728.354 274.655 729.005 274.004 729.501 273.136C729.997 272.268 730.245 271.214 730.245 269.974C730.245 268.734 730.007 267.69 729.532 266.843C729.056 265.975 728.426 265.324 727.641 264.89C726.855 264.456 726.008 264.239 725.099 264.239C724.189 264.239 723.342 264.456 722.557 264.89C721.792 265.324 721.182 265.975 720.728 266.843C720.273 267.69 720.046 268.734 720.046 269.974C720.046 271.813 720.511 273.239 721.441 274.252C722.391 275.244 723.58 275.74 725.006 275.74ZM759.282 261.17C760.626 261.17 761.824 261.449 762.878 262.007C763.953 262.565 764.79 263.392 765.389 264.487C766.009 265.582 766.319 266.905 766.319 268.455V278.53H762.816V268.982C762.816 267.453 762.434 266.285 761.669 265.479C760.905 264.652 759.861 264.239 758.538 264.239C757.216 264.239 756.162 264.652 755.376 265.479C754.612 266.285 754.229 267.453 754.229 268.982V278.53H750.726V268.982C750.726 267.453 750.344 266.285 749.579 265.479C748.815 264.652 747.771 264.239 746.448 264.239C745.126 264.239 744.072 264.652 743.286 265.479C742.522 266.285 742.139 267.453 742.139 268.982V278.53H738.605V261.449H742.139V263.402C742.718 262.699 743.452 262.152 744.34 261.759C745.229 261.366 746.18 261.17 747.192 261.17C748.556 261.17 749.776 261.459 750.85 262.038C751.925 262.617 752.752 263.454 753.33 264.549C753.847 263.516 754.653 262.699 755.748 262.1C756.844 261.48 758.022 261.17 759.282 261.17ZM792.733 261.17C794.077 261.17 795.275 261.449 796.329 262.007C797.404 262.565 798.241 263.392 798.84 264.487C799.46 265.582 799.77 266.905 799.77 268.455V278.53H796.267V268.982C796.267 267.453 795.885 266.285 795.12 265.479C794.356 264.652 793.312 264.239 791.989 264.239C790.667 264.239 789.613 264.652 788.827 265.479C788.063 266.285 787.68 267.453 787.68 268.982V278.53H784.177V268.982C784.177 267.453 783.795 266.285 783.03 265.479C782.266 264.652 781.222 264.239 779.899 264.239C778.577 264.239 777.523 264.652 776.737 265.479C775.973 266.285 775.59 267.453 775.59 268.982V278.53H772.056V261.449H775.59V263.402C776.169 262.699 776.903 262.152 777.791 261.759C778.68 261.366 779.631 261.17 780.643 261.17C782.007 261.17 783.227 261.459 784.301 262.038C785.376 262.617 786.203 263.454 786.781 264.549C787.298 263.516 788.104 262.699 789.199 262.1C790.295 261.48 791.473 261.17 792.733 261.17ZM820.976 261.449V278.53H817.442V276.515C816.884 277.218 816.151 277.776 815.241 278.189C814.353 278.582 813.402 278.778 812.389 278.778C811.046 278.778 809.837 278.499 808.762 277.941C807.708 277.383 806.871 276.556 806.251 275.461C805.652 274.366 805.352 273.043 805.352 271.493V261.449H808.855V270.966C808.855 272.495 809.238 273.673 810.002 274.5C810.767 275.306 811.811 275.709 813.133 275.709C814.456 275.709 815.5 275.306 816.264 274.5C817.05 273.673 817.442 272.495 817.442 270.966V261.449H820.976ZM835.497 261.17C836.84 261.17 838.039 261.449 839.093 262.007C840.168 262.565 841.005 263.392 841.604 264.487C842.203 265.582 842.503 266.905 842.503 268.455V278.53H839V268.982C839 267.453 838.618 266.285 837.853 265.479C837.088 264.652 836.045 264.239 834.722 264.239C833.399 264.239 832.345 264.652 831.56 265.479C830.795 266.285 830.413 267.453 830.413 268.982V278.53H826.879V261.449H830.413V263.402C830.992 262.699 831.725 262.152 832.614 261.759C833.523 261.366 834.484 261.17 835.497 261.17ZM850.049 259.186C849.408 259.186 848.871 258.969 848.437 258.535C848.003 258.101 847.786 257.564 847.786 256.923C847.786 256.282 848.003 255.745 848.437 255.311C848.871 254.877 849.408 254.66 850.049 254.66C850.669 254.66 851.196 254.877 851.63 255.311C852.064 255.745 852.281 256.282 852.281 256.923C852.281 257.564 852.064 258.101 851.63 258.535C851.196 258.969 850.669 259.186 850.049 259.186ZM851.785 261.449V278.53H848.251V261.449H851.785ZM861.788 264.332V273.787C861.788 274.428 861.932 274.893 862.222 275.182C862.532 275.451 863.048 275.585 863.772 275.585H865.942V278.53H863.152C861.56 278.53 860.341 278.158 859.494 277.414C858.646 276.67 858.223 275.461 858.223 273.787V264.332H856.208V261.449H858.223V257.202H861.788V261.449H865.942V264.332H861.788ZM885.815 261.449L875.337 286.559H871.679L875.151 278.251L868.424 261.449H872.361L877.166 274.469L882.157 261.449H885.815ZM894.155 256.985L893.752 272.02H890.807L890.404 256.985H894.155ZM892.388 278.747C891.747 278.747 891.21 278.53 890.776 278.096C890.342 277.662 890.125 277.125 890.125 276.484C890.125 275.843 890.342 275.306 890.776 274.872C891.21 274.438 891.747 274.221 892.388 274.221C893.008 274.221 893.535 274.438 893.969 274.872C894.403 275.306 894.62 275.843 894.62 276.484C894.62 277.125 894.403 277.662 893.969 278.096C893.535 278.53 893.008 278.747 892.388 278.747Z" fill="#023047"/>
<rect x="507.563" y="333.755" width="263" height="70" rx="35" fill="#023047"/>
<path d="M549.389 360.075V372.099C549.389 373.587 548.933 374.763 548.021 375.627C547.125 376.491 545.941 376.923 544.469 376.923C542.997 376.923 541.805 376.491 540.893 375.627C539.997 374.763 539.549 373.587 539.549 372.099H542.309C542.325 372.835 542.509 373.419 542.861 373.851C543.229 374.283 543.765 374.499 544.469 374.499C545.173 374.499 545.709 374.283 546.077 373.851C546.445 373.403 546.629 372.819 546.629 372.099V360.075H549.389ZM559.576 376.971C558.328 376.971 557.2 376.691 556.192 376.131C555.184 375.555 554.392 374.755 553.816 373.731C553.24 372.691 552.952 371.491 552.952 370.131C552.952 368.787 553.248 367.595 553.84 366.555C554.432 365.515 555.24 364.715 556.264 364.155C557.288 363.595 558.432 363.315 559.696 363.315C560.96 363.315 562.104 363.595 563.128 364.155C564.152 364.715 564.96 365.515 565.552 366.555C566.144 367.595 566.44 368.787 566.44 370.131C566.44 371.475 566.136 372.667 565.528 373.707C564.92 374.747 564.088 375.555 563.032 376.131C561.992 376.691 560.84 376.971 559.576 376.971ZM559.576 374.595C560.28 374.595 560.936 374.427 561.544 374.091C562.168 373.755 562.672 373.251 563.056 372.579C563.44 371.907 563.632 371.091 563.632 370.131C563.632 369.171 563.448 368.363 563.08 367.707C562.712 367.035 562.224 366.531 561.616 366.195C561.008 365.859 560.352 365.691 559.648 365.691C558.944 365.691 558.288 365.859 557.68 366.195C557.088 366.531 556.616 367.035 556.264 367.707C555.912 368.363 555.736 369.171 555.736 370.131C555.736 371.555 556.096 372.659 556.816 373.443C557.552 374.211 558.472 374.595 559.576 374.595ZM570.537 361.779C570.041 361.779 569.625 361.611 569.289 361.275C568.953 360.939 568.785 360.523 568.785 360.027C568.785 359.531 568.953 359.115 569.289 358.779C569.625 358.443 570.041 358.275 570.537 358.275C571.017 358.275 571.425 358.443 571.761 358.779C572.097 359.115 572.265 359.531 572.265 360.027C572.265 360.523 572.097 360.939 571.761 361.275C571.425 361.611 571.017 361.779 570.537 361.779ZM571.881 363.531V376.755H569.145V363.531H571.881ZM582.145 363.315C583.185 363.315 584.113 363.531 584.929 363.963C585.761 364.395 586.409 365.035 586.873 365.883C587.337 366.731 587.569 367.755 587.569 368.955V376.755H584.857V369.363C584.857 368.179 584.561 367.275 583.969 366.651C583.377 366.011 582.569 365.691 581.545 365.691C580.521 365.691 579.705 366.011 579.097 366.651C578.505 367.275 578.209 368.179 578.209 369.363V376.755H575.473V363.531H578.209V365.043C578.657 364.499 579.225 364.075 579.913 363.771C580.617 363.467 581.361 363.315 582.145 363.315ZM596.381 368.379C596.381 366.747 596.757 365.283 597.509 363.987C598.277 362.691 599.309 361.683 600.605 360.963C601.917 360.227 603.349 359.859 604.901 359.859C606.677 359.859 608.253 360.299 609.629 361.179C611.021 362.043 612.029 363.275 612.653 364.875H609.365C608.933 363.995 608.333 363.339 607.565 362.907C606.797 362.475 605.909 362.259 604.901 362.259C603.797 362.259 602.813 362.507 601.949 363.003C601.085 363.499 600.405 364.211 599.909 365.139C599.429 366.067 599.189 367.147 599.189 368.379C599.189 369.611 599.429 370.691 599.909 371.619C600.405 372.547 601.085 373.267 601.949 373.779C602.813 374.275 603.797 374.523 604.901 374.523C605.909 374.523 606.797 374.307 607.565 373.875C608.333 373.443 608.933 372.787 609.365 371.907H612.653C612.029 373.507 611.021 374.739 609.629 375.603C608.253 376.467 606.677 376.899 604.901 376.899C603.333 376.899 601.901 376.539 600.605 375.819C599.309 375.083 598.277 374.067 597.509 372.771C596.757 371.475 596.381 370.011 596.381 368.379ZM621.592 376.971C620.344 376.971 619.216 376.691 618.208 376.131C617.2 375.555 616.408 374.755 615.832 373.731C615.256 372.691 614.968 371.491 614.968 370.131C614.968 368.787 615.264 367.595 615.856 366.555C616.448 365.515 617.256 364.715 618.28 364.155C619.304 363.595 620.448 363.315 621.712 363.315C622.976 363.315 624.12 363.595 625.144 364.155C626.168 364.715 626.976 365.515 627.568 366.555C628.16 367.595 628.456 368.787 628.456 370.131C628.456 371.475 628.152 372.667 627.544 373.707C626.936 374.747 626.104 375.555 625.048 376.131C624.008 376.691 622.856 376.971 621.592 376.971ZM621.592 374.595C622.296 374.595 622.952 374.427 623.56 374.091C624.184 373.755 624.688 373.251 625.072 372.579C625.456 371.907 625.648 371.091 625.648 370.131C625.648 369.171 625.464 368.363 625.096 367.707C624.728 367.035 624.24 366.531 623.632 366.195C623.024 365.859 622.368 365.691 621.664 365.691C620.96 365.691 620.304 365.859 619.696 366.195C619.104 366.531 618.632 367.035 618.28 367.707C617.928 368.363 617.752 369.171 617.752 370.131C617.752 371.555 618.112 372.659 618.832 373.443C619.568 374.211 620.488 374.595 621.592 374.595ZM647.168 363.315C648.208 363.315 649.136 363.531 649.952 363.963C650.784 364.395 651.432 365.035 651.896 365.883C652.376 366.731 652.616 367.755 652.616 368.955V376.755H649.904V369.363C649.904 368.179 649.608 367.275 649.016 366.651C648.424 366.011 647.616 365.691 646.592 365.691C645.568 365.691 644.752 366.011 644.144 366.651C643.552 367.275 643.256 368.179 643.256 369.363V376.755H640.544V369.363C640.544 368.179 640.248 367.275 639.656 366.651C639.064 366.011 638.256 365.691 637.232 365.691C636.208 365.691 635.392 366.011 634.784 366.651C634.192 367.275 633.896 368.179 633.896 369.363V376.755H631.16V363.531H633.896V365.043C634.344 364.499 634.912 364.075 635.6 363.771C636.288 363.467 637.024 363.315 637.808 363.315C638.864 363.315 639.808 363.539 640.64 363.987C641.472 364.435 642.112 365.083 642.56 365.931C642.96 365.131 643.584 364.499 644.432 364.035C645.28 363.555 646.192 363.315 647.168 363.315ZM672.106 363.315C673.146 363.315 674.074 363.531 674.89 363.963C675.722 364.395 676.37 365.035 676.834 365.883C677.314 366.731 677.554 367.755 677.554 368.955V376.755H674.842V369.363C674.842 368.179 674.546 367.275 673.954 366.651C673.362 366.011 672.554 365.691 671.53 365.691C670.506 365.691 669.69 366.011 669.082 366.651C668.49 367.275 668.194 368.179 668.194 369.363V376.755H665.482V369.363C665.482 368.179 665.186 367.275 664.594 366.651C664.002 366.011 663.194 365.691 662.17 365.691C661.146 365.691 660.33 366.011 659.722 366.651C659.13 367.275 658.834 368.179 658.834 369.363V376.755H656.098V363.531H658.834V365.043C659.282 364.499 659.85 364.075 660.538 363.771C661.226 363.467 661.962 363.315 662.746 363.315C663.802 363.315 664.746 363.539 665.578 363.987C666.41 364.435 667.05 365.083 667.498 365.931C667.898 365.131 668.522 364.499 669.37 364.035C670.218 363.555 671.13 363.315 672.106 363.315ZM693.011 363.531V376.755H690.275V375.195C689.843 375.739 689.275 376.171 688.571 376.491C687.883 376.795 687.147 376.947 686.363 376.947C685.323 376.947 684.387 376.731 683.555 376.299C682.739 375.867 682.091 375.227 681.611 374.379C681.147 373.531 680.915 372.507 680.915 371.307V363.531H683.627V370.899C683.627 372.083 683.923 372.995 684.515 373.635C685.107 374.259 685.915 374.571 686.939 374.571C687.963 374.571 688.771 374.259 689.363 373.635C689.971 372.995 690.275 372.083 690.275 370.899V363.531H693.011ZM703.293 363.315C704.333 363.315 705.261 363.531 706.077 363.963C706.909 364.395 707.557 365.035 708.021 365.883C708.485 366.731 708.717 367.755 708.717 368.955V376.755H706.005V369.363C706.005 368.179 705.709 367.275 705.117 366.651C704.525 366.011 703.717 365.691 702.693 365.691C701.669 365.691 700.853 366.011 700.245 366.651C699.653 367.275 699.357 368.179 699.357 369.363V376.755H696.621V363.531H699.357V365.043C699.805 364.499 700.373 364.075 701.061 363.771C701.765 363.467 702.509 363.315 703.293 363.315ZM713.599 361.779C713.103 361.779 712.687 361.611 712.351 361.275C712.015 360.939 711.847 360.523 711.847 360.027C711.847 359.531 712.015 359.115 712.351 358.779C712.687 358.443 713.103 358.275 713.599 358.275C714.079 358.275 714.487 358.443 714.823 358.779C715.159 359.115 715.327 359.531 715.327 360.027C715.327 360.523 715.159 360.939 714.823 361.275C714.487 361.611 714.079 361.779 713.599 361.779ZM714.943 363.531V376.755H712.207V363.531H714.943ZM721.727 365.763V373.083C721.727 373.579 721.839 373.939 722.063 374.163C722.303 374.371 722.703 374.475 723.263 374.475H724.943V376.755H722.783C721.551 376.755 720.607 376.467 719.951 375.891C719.295 375.315 718.967 374.379 718.967 373.083V365.763H717.407V363.531H718.967V360.243H721.727V363.531H724.943V365.763H721.727ZM739.369 363.531L731.257 382.971H728.425L731.113 376.539L725.905 363.531H728.953L732.673 373.611L736.537 363.531H739.369Z" fill="white"/>
</g>
<defs>
<clipPath id="clip0_205_1995">
<rect x="0.75" width="1269" height="474" rx="12" fill="white"/>
</clipPath>
<clipPath id="clip1_205_1995">
<rect width="74.61" height="19.81" fill="white" transform="translate(249.632 250.11)"/>
</clipPath>
<clipPath id="clip2_205_1995">
<rect width="537.49" height="550.4" fill="white" transform="translate(783.75 -435)"/>
</clipPath>
<clipPath id="clip3_205_1995">
<rect width="521.086" height="577.689" fill="white" transform="translate(27.2151 299.796) rotate(-133.298)"/>
</clipPath>
</defs>
</svg>
