<svg width="41" height="41" viewBox="0 0 41 41" fill="none" xmlns="http://www.w3.org/2000/svg">
<g id="arrow/angle-down">
<path id="Vector" d="M28.5512 16.3537C28.2313 16.0555 27.7985 15.8882 27.3474 15.8882C26.8963 15.8882 26.4635 16.0555 26.1436 16.3537L20.0136 22.0208L13.969 16.3537C13.649 16.0555 13.2163 15.8882 12.7652 15.8882C12.3141 15.8882 11.8813 16.0555 11.5614 16.3537C11.4013 16.5025 11.2743 16.6796 11.1876 16.8747C11.1009 17.0697 11.0563 17.279 11.0563 17.4903C11.0563 17.7017 11.1009 17.9109 11.1876 18.106C11.2743 18.3011 11.4013 18.4781 11.5614 18.6269L18.8012 25.4146C18.96 25.5647 19.1488 25.6838 19.3569 25.7651C19.565 25.8463 19.7882 25.8882 20.0136 25.8882C20.239 25.8882 20.4622 25.8463 20.6703 25.7651C20.8783 25.6838 21.0672 25.5647 21.2259 25.4146L28.5512 18.6269C28.7112 18.4781 28.8383 18.3011 28.925 18.106C29.0116 17.9109 29.0563 17.7017 29.0563 17.4903C29.0563 17.279 29.0116 17.0697 28.925 16.8747C28.8383 16.6796 28.7112 16.5025 28.5512 16.3537Z" fill="white"/>
</g>
</svg>
