<svg width="41" height="41" viewBox="0 0 41 41" fill="none" xmlns="http://www.w3.org/2000/svg">
<g id="arrow/angle-down">
<path id="Vector" d="M28.9949 15.9655C28.675 15.6674 28.2422 15.5 27.7911 15.5C27.34 15.5 26.9072 15.6674 26.5873 15.9655L20.4573 21.6326L14.4127 15.9655C14.0928 15.6674 13.66 15.5 13.2089 15.5C12.7578 15.5 12.325 15.6674 12.0051 15.9655C11.845 16.1143 11.718 16.2914 11.6313 16.4865C11.5446 16.6816 11.5 16.8908 11.5 17.1021C11.5 17.3135 11.5446 17.5227 11.6313 17.7178C11.718 17.9129 11.845 18.0899 12.0051 18.2388L19.245 25.0265C19.4037 25.1765 19.5926 25.2956 19.8006 25.3769C20.0087 25.4582 20.2319 25.5 20.4573 25.5C20.6827 25.5 20.9059 25.4582 21.114 25.3769C21.3221 25.2956 21.5109 25.1765 21.6697 25.0265L28.9949 18.2388C29.155 18.0899 29.282 17.9129 29.3687 17.7178C29.4554 17.5227 29.5 17.3135 29.5 17.1021C29.5 16.8908 29.4554 16.6816 29.3687 16.4865C29.282 16.2914 29.155 16.1143 28.9949 15.9655Z" fill="#565656"/>
</g>
</svg>
