<svg width="32" height="9" viewBox="0 0 32 9" fill="none" xmlns="http://www.w3.org/2000/svg">
<g id="BACK">
<path d="M4.52179 4.39859C4.97559 4.4831 5.36051 4.73239 5.67655 5.14648C5.99259 5.56056 6.15061 6.02958 6.15061 6.55352C6.15061 7.00141 6.03716 7.40704 5.81026 7.77042C5.59146 8.12535 5.27137 8.40845 4.84998 8.61972C4.4286 8.82254 3.93833 8.92394 3.37919 8.92394H0V0.114085H3.22117C3.79652 0.114085 4.29084 0.215493 4.70412 0.418311C5.1174 0.621128 5.42939 0.895775 5.64008 1.24225C5.85077 1.58028 5.95612 1.96056 5.95612 2.3831C5.95612 2.89014 5.82646 3.31268 5.56715 3.6507C5.30784 3.98873 4.95938 4.23803 4.52179 4.39859ZM1.38571 3.81549H3.09961C3.55341 3.81549 3.90592 3.70986 4.15713 3.49859C4.41644 3.27887 4.5461 2.9662 4.5461 2.56056C4.5461 2.16338 4.41644 1.85493 4.15713 1.63521C3.90592 1.40704 3.55341 1.29296 3.09961 1.29296H1.38571V3.81549ZM3.25763 7.74507C3.72764 7.74507 4.09635 7.62676 4.36377 7.39014C4.63119 7.15352 4.7649 6.82394 4.7649 6.40141C4.7649 5.97042 4.62308 5.62817 4.33946 5.37465C4.05583 5.12113 3.67902 4.99437 3.20901 4.99437H1.38571V7.74507H3.25763Z" fill="#565656"/>
<path d="M12.7495 7.12394H9.21233L8.60456 8.92394H7.15808L10.1848 0.101409H11.7893L14.8159 8.92394H13.3573L12.7495 7.12394ZM12.3606 5.94507L10.987 1.8507L9.6013 5.94507H12.3606Z" fill="#565656"/>
<path d="M15.67 4.5C15.67 3.63803 15.8605 2.86479 16.2413 2.18028C16.6303 1.49578 17.153 0.96338 17.8094 0.583099C18.4739 0.194366 19.1992 0 19.9852 0C20.8847 0 21.6829 0.232395 22.3798 0.697183C23.0848 1.15352 23.5953 1.80423 23.9114 2.6493H22.2461C22.0273 2.18451 21.7234 1.83803 21.3344 1.60986C20.9455 1.38169 20.4957 1.26761 19.9852 1.26761C19.4261 1.26761 18.9277 1.39859 18.4901 1.66056C18.0525 1.92254 17.7081 2.29859 17.4569 2.78873C17.2138 3.27887 17.0922 3.8493 17.0922 4.5C17.0922 5.1507 17.2138 5.72113 17.4569 6.21127C17.7081 6.70141 18.0525 7.08169 18.4901 7.35211C18.9277 7.61409 19.4261 7.74507 19.9852 7.74507C20.4957 7.74507 20.9455 7.63099 21.3344 7.40282C21.7234 7.17465 22.0273 6.82817 22.2461 6.36338H23.9114C23.5953 7.20845 23.0848 7.85916 22.3798 8.31549C21.6829 8.77183 20.8847 9 19.9852 9C19.191 9 18.4658 8.80986 17.8094 8.42958C17.153 8.04084 16.6303 7.50423 16.2413 6.81972C15.8605 6.13521 15.67 5.36197 15.67 4.5Z" fill="#565656"/>
<path d="M30.1889 8.92394L26.9191 4.98169V8.92394H25.5334V0.114085H26.9191V4.13239L30.201 0.114085H31.9392L28.2683 4.52535L32 8.92394H30.1889Z" fill="#565656"/>
</g>
</svg>
