<svg width="39" height="38" viewBox="0 0 39 38" fill="none" xmlns="http://www.w3.org/2000/svg">
<g id="Social/Behance">
<g id="Group">
<path id="Vector" d="M19.4688 37.5864C29.8241 37.5864 38.2188 29.1918 38.2188 18.8364C38.2188 8.48109 29.8241 0.0864258 19.4688 0.0864258C9.11341 0.0864258 0.71875 8.48109 0.71875 18.8364C0.71875 29.1918 9.11341 37.5864 19.4688 37.5864Z" fill="#4176FA"/>
</g>
<g id="Group_2">
<path id="Vector_2" d="M25.8994 15.2191C20.4838 15.2191 20.4768 20.6144 20.4768 20.6421C20.4768 20.6421 20.1058 26.0441 25.8994 26.0441C25.8994 26.0441 30.7312 26.3188 30.7312 22.2846H28.2501C28.2501 22.2846 28.3323 23.8033 25.982 23.8033C25.982 23.8033 23.5009 23.9684 23.5009 21.3497H30.8137C30.8137 21.3497 31.6179 15.2191 25.8994 15.2191ZM23.4732 19.4596C23.4732 19.4596 23.7757 17.2877 25.9546 17.2877C28.1402 17.2877 28.1057 19.4596 28.1057 19.4596H23.4732ZM17.2745 18.0715C17.2745 18.0715 19.4256 17.9134 19.4256 15.3842C19.4256 12.8621 17.6662 11.6248 15.4325 11.6248H8.08496V25.7483H15.4318C15.4318 25.7483 19.9199 25.886 19.9199 21.5766C19.9199 21.5766 20.1128 18.0715 17.2745 18.0715ZM11.3224 14.1332H15.4321C15.4321 14.1332 16.4288 14.1332 16.4288 15.6038C16.4288 17.0745 15.8446 17.2877 15.1778 17.2877H11.3224V14.1332ZM15.2263 23.2398H11.3224V19.4596H15.4321C15.4321 19.4596 16.9238 19.4459 16.9168 21.4045C16.9168 23.0543 15.8105 23.2261 15.2263 23.2398ZM22.8616 12.4563V14.1954H28.69V12.4563H22.8616Z" fill="#F1F2F2"/>
</g>
</g>
</svg>
