<svg width="18" height="18" viewBox="0 0 18 18" fill="none" xmlns="http://www.w3.org/2000/svg">
<g id="bi:check">
<path id="Vector" d="M12.0165 5.81086C12.1595 5.67466 12.3499 5.59936 12.5474 5.60085C12.745 5.60235 12.9342 5.68052 13.0752 5.81888C13.2162 5.95723 13.2979 6.14495 13.3031 6.34242C13.3083 6.53988 13.2367 6.73166 13.1032 6.87727L9.05083 11.9452C8.98115 12.0203 8.89705 12.0805 8.80355 12.1223C8.71006 12.1641 8.6091 12.1867 8.50671 12.1886C8.40431 12.1905 8.30259 12.1717 8.20761 12.1334C8.11264 12.095 8.02636 12.038 7.95395 11.9656L5.26661 9.27821C5.19177 9.20847 5.13174 9.12438 5.09011 9.03094C5.04848 8.93751 5.02609 8.83664 5.02429 8.73436C5.02248 8.63209 5.0413 8.5305 5.07961 8.43565C5.11792 8.3408 5.17494 8.25464 5.24727 8.18231C5.3196 8.10998 5.40576 8.05296 5.50061 8.01465C5.59546 7.97634 5.69705 7.95752 5.79933 7.95933C5.9016 7.96113 6.00247 7.98352 6.0959 8.02515C6.18934 8.06678 6.27344 8.12681 6.34317 8.20165L8.46989 10.3273L11.9972 5.83321C12.0035 5.82539 12.0103 5.81793 12.0175 5.81086H12.0165Z" fill="white"/>
</g>
</svg>
