<svg width="31" height="31" viewBox="0 0 31 31" fill="none" xmlns="http://www.w3.org/2000/svg">
<g id="Social/Facebook" clip-path="url(#clip0_17_530)">
<path id="Vector" d="M30.4687 15.9281C30.4687 7.59319 23.753 0.836426 15.4687 0.836426C7.18444 0.836426 0.468719 7.59319 0.468719 15.9281C0.468719 23.4607 5.95397 29.7043 13.125 30.8364V20.2905H9.31638V15.9281H13.125V12.6032C13.125 8.82086 15.3644 6.73161 18.7907 6.73161C20.4313 6.73161 22.1484 7.02637 22.1484 7.02637V10.7403H20.257C18.3937 10.7403 17.8125 11.9037 17.8125 13.0984V15.9281H21.9726L21.3076 20.2905H17.8125V30.8364C24.9835 29.7043 30.4687 23.4607 30.4687 15.9281Z" fill="white"/>
</g>
<defs>
<clipPath id="clip0_17_530">
<rect width="30" height="30" fill="white" transform="translate(0.468719 0.836426)"/>
</clipPath>
</defs>
</svg>
