<svg width="31" height="31" viewBox="0 0 31 31" fill="none" xmlns="http://www.w3.org/2000/svg">
<g id="Social/LinkedIn-White" clip-path="url(#clip0_17_534)">
<g id="Group">
<path id="Vector" d="M28.0814 0.836426H2.51691C1.2923 0.836426 0.302063 1.80322 0.302063 2.99854V28.6685C0.302063 29.8638 1.2923 30.8364 2.51691 30.8364H28.0814C29.306 30.8364 30.3021 29.8638 30.3021 28.6743V2.99854C30.3021 1.80322 29.306 0.836426 28.0814 0.836426ZM9.20245 26.4009H4.74933V12.0806H9.20245V26.4009ZM6.97589 10.1294C5.5462 10.1294 4.39191 8.9751 4.39191 7.55127C4.39191 6.12744 5.5462 4.97314 6.97589 4.97314C8.39972 4.97314 9.55402 6.12744 9.55402 7.55127C9.55402 8.96924 8.39972 10.1294 6.97589 10.1294ZM25.8665 26.4009H21.4193V19.4399C21.4193 17.7817 21.39 15.6431 19.1048 15.6431C16.7903 15.6431 16.4388 17.4536 16.4388 19.3228V26.4009H11.9974V12.0806H16.263V14.0376H16.3216C16.9134 12.9126 18.3665 11.7231 20.5286 11.7231C25.0345 11.7231 25.8665 14.688 25.8665 18.5435V26.4009Z" fill="#0A66C2"/>
</g>
</g>
<defs>
<clipPath id="clip0_17_534">
<rect width="30" height="30" fill="white" transform="translate(0.302063 0.836426)"/>
</clipPath>
</defs>
</svg>
