<svg width="44" height="51" viewBox="0 0 44 51" fill="none" xmlns="http://www.w3.org/2000/svg">
<g id="Favicon" clip-path="url(#clip0_781_18736)">
<g id="Group">
<path id="Vector" d="M21.98 50.0126C14.97 45.9726 7.99 41.9826 1.05 37.9226C0.59 37.6526 0.17 36.8626 0.17 36.3126C0.11 28.7026 0.11 21.0826 0.17 13.4726C0.17 12.8926 0.65 12.0926 1.15 11.7726C3.42 10.3426 5.77 9.05258 8.21 7.64258C9.52 9.79258 10.77 11.8326 12.1 14.0126C10.89 14.7526 9.68 15.3926 8.59 16.1926C8.16 16.5026 7.74 17.1626 7.73 17.6626C7.67 22.4726 7.67 27.2926 7.73 32.1026C7.74 32.5926 8.16 33.2826 8.59 33.5426C12.75 36.0426 16.94 38.4926 21.17 40.8826C21.59 41.1226 22.37 41.0726 22.82 40.8426C24.13 40.1826 25.36 39.3626 26.84 38.4826C28.15 40.6026 29.45 42.7026 30.82 44.9126C27.81 46.6426 24.89 48.3326 21.98 50.0126Z" fill="#5F22D9"/>
<path id="Vector_2" d="M42.7098 11.7124C42.6798 11.6924 42.6398 11.6724 42.5998 11.6524L23.2298 0.412438C22.2898 -0.147562 21.6498 -0.0975625 20.7898 0.462438C19.2798 1.44244 17.6898 2.30244 16.1298 3.21244C14.6398 4.08244 13.1498 4.96244 11.5898 5.87244C19.1298 18.3524 26.5598 30.6624 34.0398 43.0524C37.1398 41.3124 40.1498 39.6524 43.0998 37.8924C43.4998 37.6524 43.7298 36.8324 43.7298 36.2724C43.7998 28.7824 43.7998 21.2924 43.8698 13.7924C43.8898 12.7824 43.5498 12.2224 42.7098 11.7124ZM27.1498 19.8324C24.9998 16.3224 22.8398 12.8224 20.6998 9.32244L20.7098 9.31244C20.6998 9.30244 20.6998 9.29244 20.6898 9.29244C20.7998 9.17244 20.9098 9.05244 21.0198 8.93244C21.0298 8.93244 21.0498 8.94244 21.0598 8.94244C21.6898 8.40244 22.3098 8.53244 23.0598 8.99244C26.6898 11.1724 30.3598 13.2724 33.9798 15.4524C34.1898 15.5624 34.3998 15.6724 34.5998 15.7824C34.8598 15.9224 34.8698 16.2924 34.6098 16.4524L28.3598 20.1324C27.9498 20.3724 27.3998 20.2424 27.1498 19.8324ZM35.8198 33.3024C35.8198 33.3124 35.8198 33.3324 35.8098 33.3424C35.6498 33.3824 35.4998 33.4224 35.3398 33.4624C35.3398 33.4524 35.3298 33.4424 35.3298 33.4424C35.3198 33.4424 35.3198 33.4424 35.3098 33.4424C33.2298 29.9024 31.1498 26.3624 29.0598 22.8124C28.8098 22.3924 28.9498 21.8524 29.3698 21.5924L35.5498 17.7924C35.8098 17.6324 36.1298 17.8124 36.1298 18.1124C36.1298 18.3524 36.1298 18.5824 36.1298 18.8224C36.3598 23.0424 36.4898 27.2824 36.7098 31.5024C36.7598 32.3924 36.5998 33.0024 35.8198 33.3024Z" fill="#5F22D9"/>
</g>
</g>
<defs>
<clipPath id="clip0_781_18736">
<rect width="43.76" height="50" fill="white" transform="translate(0.120117 0.0126953)"/>
</clipPath>
</defs>
</svg>
