<svg width="25" height="25" viewBox="0 0 25 25" fill="none" xmlns="http://www.w3.org/2000/svg">
<g id="Other/logout">
<g id="vuesax/bold/logout">
<g id="logout">
<path id="Vector" d="M17.211 2.36218H14.609C11.4066 2.36218 9.40503 4.36218 9.40503 7.56218V11.6122H15.6598C16.0701 11.6122 16.4104 11.9522 16.4104 12.3622C16.4104 12.7722 16.0701 13.1122 15.6598 13.1122H9.40503V17.1622C9.40503 20.3622 11.4066 22.3622 14.609 22.3622H17.201C20.4035 22.3622 22.405 20.3622 22.405 17.1622V7.56218C22.415 4.36218 20.4135 2.36218 17.211 2.36218Z" fill="white"/>
<path id="Vector_2" d="M4.96344 11.63L7.03418 9.60928C7.18424 9.46285 7.25426 9.27737 7.25426 9.0919C7.25426 8.90642 7.18424 8.71118 7.03418 8.57451C6.74408 8.29141 6.26391 8.29141 5.9738 8.57451L2.62261 11.8448C2.3325 12.1279 2.3325 12.5965 2.62261 12.8796L5.9738 16.1499C6.26391 16.433 6.74408 16.433 7.03418 16.1499C7.32429 15.8668 7.32429 15.3982 7.03418 15.1151L4.96344 13.0943H9.40503V11.63H4.96344Z" fill="white"/>
</g>
</g>
</g>
</svg>
