<svg width="25" height="24" viewBox="0 0 25 24" fill="none" xmlns="http://www.w3.org/2000/svg">
<g id="vuesax/linear/medal-star">
<g id="vuesax/linear/medal-star_2">
<g id="medal-star">
<path id="Vector" d="M19.7188 9C19.7188 10.45 19.2887 11.78 18.5487 12.89C17.4687 14.49 15.7588 15.62 13.7688 15.91C13.4288 15.97 13.0788 16 12.7188 16C12.3587 16 12.0087 15.97 11.6687 15.91C9.67875 15.62 7.96875 14.49 6.88875 12.89C6.14875 11.78 5.71875 10.45 5.71875 9C5.71875 5.13 8.84875 2 12.7188 2C16.5887 2 19.7188 5.13 19.7188 9Z" stroke="#5B5B5B" stroke-width="1.5" stroke-linecap="round" stroke-linejoin="round"/>
<path id="Vector_2" d="M21.9688 18.47L20.3188 18.86C19.9488 18.95 19.6588 19.23 19.5788 19.6L19.2288 21.07C19.0388 21.87 18.0188 22.11 17.4888 21.48L12.7188 16L7.94877 21.49C7.41877 22.12 6.39877 21.88 6.20877 21.08L5.85877 19.61C5.76877 19.24 5.47877 18.95 5.11877 18.87L3.46877 18.48C2.70877 18.3 2.43877 17.35 2.98877 16.8L6.88877 12.9C7.96877 14.5 9.67877 15.63 11.6688 15.92C12.0088 15.98 12.3588 16.01 12.7188 16.01C13.0788 16.01 13.4288 15.98 13.7688 15.92C15.7588 15.63 17.4688 14.5 18.5488 12.9L22.4488 16.8C22.9988 17.34 22.7288 18.29 21.9688 18.47Z" stroke="#5B5B5B" stroke-width="1.5" stroke-linecap="round" stroke-linejoin="round"/>
<path id="Vector_3" d="M13.2987 5.98L13.8887 7.15999C13.9687 7.31999 14.1787 7.48 14.3687 7.51L15.4387 7.68999C16.1187 7.79999 16.2787 8.3 15.7887 8.79L14.9587 9.61998C14.8187 9.75998 14.7387 10.03 14.7887 10.23L15.0287 11.26C15.2187 12.07 14.7887 12.39 14.0687 11.96L13.0687 11.37C12.8887 11.26 12.5887 11.26 12.4087 11.37L11.4087 11.96C10.6887 12.38 10.2587 12.07 10.4487 11.26L10.6887 10.23C10.7287 10.04 10.6587 9.75998 10.5187 9.61998L9.68872 8.79C9.19872 8.3 9.35872 7.80999 10.0387 7.68999L11.1087 7.51C11.2887 7.48 11.4987 7.31999 11.5787 7.15999L12.1687 5.98C12.4587 5.34 12.9787 5.34 13.2987 5.98Z" stroke="#5B5B5B" stroke-width="1.5" stroke-linecap="round" stroke-linejoin="round"/>
</g>
</g>
</g>
</svg>
