<svg width="25" height="25" viewBox="0 0 25 25" fill="none" xmlns="http://www.w3.org/2000/svg">
<g id="Other/message-text">
<path id="Vector" d="M16.3076 2.36218H8.30762C4.30762 2.36218 2.30762 4.36218 2.30762 8.36218V21.3622C2.30762 21.9122 2.75762 22.3622 3.30762 22.3622H16.3076C20.3076 22.3622 22.3076 20.3622 22.3076 16.3622V8.36218C22.3076 4.36218 20.3076 2.36218 16.3076 2.36218ZM14.3076 15.6122H7.30762C6.89762 15.6122 6.55762 15.2722 6.55762 14.8622C6.55762 14.4522 6.89762 14.1122 7.30762 14.1122H14.3076C14.7176 14.1122 15.0576 14.4522 15.0576 14.8622C15.0576 15.2722 14.7176 15.6122 14.3076 15.6122ZM17.3076 10.6122H7.30762C6.89762 10.6122 6.55762 10.2722 6.55762 9.86218C6.55762 9.45218 6.89762 9.11218 7.30762 9.11218H17.3076C17.7176 9.11218 18.0576 9.45218 18.0576 9.86218C18.0576 10.2722 17.7176 10.6122 17.3076 10.6122Z" fill="white"/>
</g>
</svg>
