<svg width="40" height="46" viewBox="0 0 40 46" fill="none" xmlns="http://www.w3.org/2000/svg">
<g id="Other/Pin" clip-path="url(#clip0_31_1941)">
<path id="Vector" d="M25.3083 34.9325C19.2023 31.2637 13.2197 27.669 7.10463 23.9946C7.79107 23.0075 8.35226 21.97 9.12455 21.1402C10.7789 19.36 13.4264 19.0535 15.5233 20.2948C18.5827 22.1082 21.6311 23.9398 24.6685 25.7898C27.1465 27.2974 27.9318 30.4627 26.4873 32.96C26.1138 33.6126 25.7202 34.247 25.3083 34.9325Z" fill="black"/>
<path id="Vector_2" d="M24.7172 23.9902C22.135 22.4386 19.667 20.9557 17.1076 19.4179C19.5548 16.2043 21.9644 13.0429 24.4116 9.82936C26.194 10.9004 27.9308 11.9439 29.7498 13.0368C28.0869 16.6532 26.424 20.2696 24.7172 23.9902Z" fill="black"/>
<path id="Vector_3" d="M37.8629 10.8391C36.3529 12.7932 33.5206 13.3867 31.3798 12.1564C29.0306 10.807 26.7089 9.412 24.4192 7.97401C22.3232 6.65867 21.5221 3.882 22.5386 1.63135C27.6299 4.69055 32.7167 7.747 37.8629 10.8391Z" fill="black"/>
<path id="Vector_4" d="M9.50096 40.4629C11.0595 37.0513 12.618 33.6397 14.2057 30.1586C15.0056 30.6391 15.7414 31.0813 16.5778 31.5838C14.2752 34.5981 11.9891 37.585 9.70573 40.5673C9.64357 40.5361 9.57227 40.4995 9.50096 40.4629Z" fill="black"/>
</g>
<defs>
<clipPath id="clip0_31_1941">
<rect width="21.237" height="40" fill="white" transform="translate(21.0715 0.749878) rotate(31)"/>
</clipPath>
</defs>
</svg>
