<svg width="25" height="25" viewBox="0 0 25 25" fill="none" xmlns="http://www.w3.org/2000/svg">
<g id="Other/setting-2">
<g id="vuesax/bold/setting-2">
<g id="setting-2">
<path id="Vector" d="M20.4635 10.0642C18.6544 10.0642 17.9148 8.7759 18.8143 7.19574C19.3341 6.27985 19.0242 5.11234 18.1147 4.58897L16.3856 3.59257C15.5959 3.11952 14.5765 3.40134 14.1067 4.19645L13.9967 4.38768C13.0972 5.96784 11.6179 5.96784 10.7084 4.38768L10.5984 4.19645C10.1487 3.40134 9.12918 3.11952 8.33957 3.59257L6.61044 4.58897C5.70089 5.11234 5.39105 6.28991 5.91079 7.2058C6.82033 8.7759 6.0807 10.0642 4.27161 10.0642C3.23213 10.0642 2.37256 10.9197 2.37256 11.9765V13.7479C2.37256 14.7946 3.22213 15.6602 4.27161 15.6602C6.0807 15.6602 6.82033 16.9485 5.91079 18.5286C5.39105 19.4445 5.70089 20.612 6.61044 21.1354L8.33957 22.1318C9.12918 22.6048 10.1487 22.323 10.6184 21.5279L10.7284 21.3367C11.6279 19.7565 13.1072 19.7565 14.0167 21.3367L14.1267 21.5279C14.5964 22.323 15.6159 22.6048 16.4055 22.1318L18.1347 21.1354C19.0442 20.612 19.3541 19.4345 18.8343 18.5286C17.9248 16.9485 18.6644 15.6602 20.4735 15.6602C21.513 15.6602 22.3726 14.8047 22.3726 13.7479V11.9765C22.3626 10.9298 21.513 10.0642 20.4635 10.0642ZM12.3676 16.1332C10.5785 16.1332 9.11918 14.6638 9.11918 12.8622C9.11918 11.0606 10.5785 9.59115 12.3676 9.59115C14.1567 9.59115 15.6159 11.0606 15.6159 12.8622C15.6159 14.6638 14.1567 16.1332 12.3676 16.1332Z" fill="white"/>
</g>
</g>
</g>
</svg>
