<svg width="31" height="31" viewBox="0 0 31 31" fill="none" xmlns="http://www.w3.org/2000/svg">
<g id="Social/Twitter" clip-path="url(#clip0_17_532)">
<path id="Vector" d="M10.3231 27.8364C21.641 27.8364 27.8332 18.602 27.8332 10.5963C27.8332 10.3367 27.8274 10.0713 27.8156 9.8117C29.0202 8.95401 30.0597 7.89164 30.8854 6.67451C29.7635 7.16594 28.5724 7.48689 27.3528 7.6264C28.637 6.86849 29.5985 5.67784 30.0592 4.27518C28.8511 4.98013 27.5298 5.4774 26.1522 5.7457C25.2239 4.7746 23.9966 4.13161 22.66 3.91616C21.3234 3.7007 19.9519 3.92477 18.7576 4.55373C17.5632 5.18268 16.6126 6.18149 16.0527 7.39573C15.4927 8.60997 15.3547 9.97201 15.6598 11.2713C13.2135 11.1504 10.8203 10.5247 8.63535 9.43478C6.45041 8.34484 4.52249 6.81499 2.97659 4.94438C2.19088 6.27815 1.95045 7.85643 2.30416 9.35847C2.65788 10.8605 3.5792 12.1736 4.88088 13.0308C3.90366 13.0003 2.94785 12.7412 2.09241 12.2751V12.3501C2.09153 13.7498 2.583 15.1066 3.48326 16.1898C4.38353 17.2731 5.63703 18.016 7.03069 18.2922C6.12544 18.536 5.17535 18.5716 4.25393 18.396C4.64719 19.5997 5.41234 20.6526 6.44259 21.4076C7.47284 22.1625 8.71678 22.582 10.0008 22.6074C7.82091 24.2933 5.12809 25.2078 2.35608 25.2034C1.86448 25.2027 1.37337 25.173 0.885376 25.1146C3.70145 26.8934 6.97729 27.8381 10.3231 27.8364Z" fill="#55ACEE"/>
</g>
<defs>
<clipPath id="clip0_17_532">
<rect width="30" height="30" fill="white" transform="translate(0.885376 0.836426)"/>
</clipPath>
</defs>
</svg>
