<svg width="32" height="10" viewBox="0 0 32 10" fill="none" xmlns="http://www.w3.org/2000/svg">
<path d="M4.52179 4.64859C4.97559 4.7331 5.36051 4.98239 5.67655 5.39648C5.99259 5.81056 6.15061 6.27958 6.15061 6.80352C6.15061 7.25141 6.03716 7.65704 5.81026 8.02042C5.59146 8.37535 5.27137 8.65845 4.84998 8.86972C4.4286 9.07254 3.93833 9.17394 3.37919 9.17394H0V0.364085H3.22117C3.79652 0.364085 4.29084 0.465493 4.70412 0.668311C5.1174 0.871128 5.42939 1.14578 5.64008 1.49225C5.85077 1.83028 5.95612 2.21056 5.95612 2.6331C5.95612 3.14014 5.82646 3.56268 5.56715 3.9007C5.30784 4.23873 4.95938 4.48803 4.52179 4.64859ZM1.38571 4.06549H3.09961C3.55341 4.06549 3.90592 3.95986 4.15713 3.74859C4.41644 3.52887 4.5461 3.2162 4.5461 2.81056C4.5461 2.41338 4.41644 2.10493 4.15713 1.88521C3.90592 1.65704 3.55341 1.54296 3.09961 1.54296H1.38571V4.06549ZM3.25763 7.99507C3.72764 7.99507 4.09635 7.87676 4.36377 7.64014C4.63119 7.40352 4.7649 7.07394 4.7649 6.65141C4.7649 6.22042 4.62308 5.87817 4.33946 5.62465C4.05583 5.37113 3.67902 5.24437 3.20901 5.24437H1.38571V7.99507H3.25763Z" fill="#5A5A5A"/>
<path d="M12.7495 7.37394H9.21233L8.60456 9.17394H7.15808L10.1848 0.351409H11.7893L14.8159 9.17394H13.3573L12.7495 7.37394ZM12.3606 6.19507L10.987 2.1007L9.6013 6.19507H12.3606Z" fill="#5A5A5A"/>
<path d="M15.67 4.75C15.67 3.88803 15.8605 3.11479 16.2413 2.43028C16.6303 1.74578 17.153 1.21338 17.8094 0.833099C18.4739 0.444366 19.1992 0.25 19.9852 0.25C20.8847 0.25 21.6829 0.482395 22.3798 0.947183C23.0848 1.40352 23.5953 2.05423 23.9114 2.8993H22.2461C22.0273 2.43451 21.7234 2.08803 21.3344 1.85986C20.9455 1.63169 20.4957 1.51761 19.9852 1.51761C19.4261 1.51761 18.9277 1.64859 18.4901 1.91056C18.0525 2.17254 17.7081 2.54859 17.4569 3.03873C17.2138 3.52887 17.0922 4.0993 17.0922 4.75C17.0922 5.4007 17.2138 5.97113 17.4569 6.46127C17.7081 6.95141 18.0525 7.33169 18.4901 7.60211C18.9277 7.86409 19.4261 7.99507 19.9852 7.99507C20.4957 7.99507 20.9455 7.88099 21.3344 7.65282C21.7234 7.42465 22.0273 7.07817 22.2461 6.61338H23.9114C23.5953 7.45845 23.0848 8.10916 22.3798 8.56549C21.6829 9.02183 20.8847 9.25 19.9852 9.25C19.191 9.25 18.4658 9.05986 17.8094 8.67958C17.153 8.29084 16.6303 7.75423 16.2413 7.06972C15.8605 6.38521 15.67 5.61197 15.67 4.75Z" fill="#5A5A5A"/>
<path d="M30.1889 9.17394L26.9191 5.23169V9.17394H25.5334V0.364085H26.9191V4.38239L30.201 0.364085H31.9392L28.2683 4.77535L32 9.17394H30.1889Z" fill="#5A5A5A"/>
</svg>
