<svg width="41" height="40" viewBox="0 0 41 40" fill="none" xmlns="http://www.w3.org/2000/svg">
<path d="M12.748 33.0029C14.9505 34.2732 17.506 34.9999 20.2312 34.9999C28.5154 34.9999 35.231 28.2843 35.231 20C35.231 11.7157 28.5152 5 20.231 5C11.9467 5 5.23096 11.7157 5.23096 20C5.23096 22.7252 5.9577 25.2806 7.22794 27.4831L7.229 27.485C7.35379 27.7013 7.41635 27.8098 7.44455 27.9118C7.47088 28.0071 7.47958 28.0921 7.47284 28.1907C7.46568 28.2953 7.42953 28.4038 7.3581 28.6181L7.35543 28.6261L6.07406 32.4702L6.07306 32.4732C5.80231 33.2855 5.66686 33.6918 5.76329 33.9622C5.8473 34.1978 6.03295 34.3833 6.26855 34.4673C6.53929 34.5638 6.94683 34.4281 7.76107 34.1567L11.6052 32.8754L11.6078 32.8745C11.8256 32.8019 11.9345 32.7656 12.04 32.7584C12.1386 32.7516 12.2239 32.7601 12.3192 32.7865C12.4215 32.8147 12.5305 32.8774 12.748 33.0029Z" stroke="#5B5B5B" stroke-width="2" stroke-linecap="round" stroke-linejoin="round"/>
</svg>
