<svg width="41" height="40" viewBox="0 0 41 40" fill="none" xmlns="http://www.w3.org/2000/svg">
<path d="M15.231 22.5L25.231 27.5M25.231 12.5L15.231 17.5M30.231 35C27.4695 35 25.231 32.7614 25.231 30C25.231 27.2386 27.4695 25 30.231 25C32.9924 25 35.231 27.2386 35.231 30C35.231 32.7614 32.9924 35 30.231 35ZM10.231 25C7.46953 25 5.23096 22.7614 5.23096 20C5.23096 17.2386 7.46953 15 10.231 15C12.9924 15 15.231 17.2386 15.231 20C15.231 22.7614 12.9924 25 10.231 25ZM30.231 15C27.4695 15 25.231 12.7614 25.231 10C25.231 7.23858 27.4695 5 30.231 5C32.9924 5 35.231 7.23858 35.231 10C35.231 12.7614 32.9924 15 30.231 15Z" stroke="#5B5B5B" stroke-width="2" stroke-linecap="round" stroke-linejoin="round"/>
</svg>
