<svg width="45" height="51" viewBox="0 0 45 51" fill="none" xmlns="http://www.w3.org/2000/svg">
<g clip-path="url(#clip0_990_13072)">
<path d="M22.211 50.4999C15.201 46.4599 8.22096 42.4699 1.28096 38.4099C0.820957 38.1399 0.400957 37.3499 0.400957 36.7999C0.340957 29.1899 0.340957 21.5699 0.400957 13.9599C0.400957 13.3799 0.880957 12.5799 1.38096 12.2599C3.65096 10.8299 6.00096 9.53988 8.44096 8.12988C9.75096 10.2799 11.001 12.3199 12.331 14.4999C11.121 15.2399 9.91096 15.8799 8.82096 16.6799C8.39096 16.9899 7.97096 17.6499 7.96096 18.1499C7.90096 22.9599 7.90096 27.7799 7.96096 32.5899C7.97096 33.0799 8.39096 33.7699 8.82096 34.0299C12.981 36.5299 17.171 38.9799 21.401 41.3699C21.821 41.6099 22.601 41.5599 23.051 41.3299C24.361 40.6699 25.591 39.8499 27.071 38.9699C28.381 41.0899 29.681 43.1899 31.051 45.3999C28.041 47.1299 25.121 48.8199 22.211 50.4999Z" fill="#5F22D9"/>
<path d="M42.9409 12.1997C42.9109 12.1797 42.8709 12.1597 42.8309 12.1397L23.4609 0.899742C22.5209 0.339742 21.8809 0.389742 21.0209 0.949742C19.5109 1.92974 17.9209 2.78974 16.3609 3.69974C14.8709 4.56974 13.3809 5.44974 11.8209 6.35974C19.3609 18.8397 26.7909 31.1497 34.2709 43.5397C37.3709 41.7997 40.3809 40.1397 43.3309 38.3797C43.7309 38.1397 43.9609 37.3197 43.9609 36.7597C44.0309 29.2697 44.0309 21.7797 44.1009 14.2797C44.1209 13.2697 43.7809 12.7097 42.9409 12.1997ZM27.3809 20.3197C25.2309 16.8097 23.0709 13.3097 20.9309 9.80974L20.9409 9.79974C20.9309 9.78974 20.9309 9.77974 20.9209 9.77974C21.0309 9.65974 21.1409 9.53974 21.2509 9.41974C21.2609 9.41974 21.2809 9.42974 21.2909 9.42974C21.9209 8.88974 22.5409 9.01974 23.2909 9.47974C26.9209 11.6597 30.5909 13.7597 34.2109 15.9397C34.4209 16.0497 34.6309 16.1597 34.8309 16.2697C35.0909 16.4097 35.1009 16.7797 34.8409 16.9397L28.5909 20.6197C28.1809 20.8597 27.6309 20.7297 27.3809 20.3197ZM36.0509 33.7897C36.0509 33.7997 36.0509 33.8197 36.0409 33.8297C35.8809 33.8697 35.7309 33.9097 35.5709 33.9497C35.5709 33.9397 35.5609 33.9297 35.5609 33.9297C35.5509 33.9297 35.5509 33.9297 35.5409 33.9297C33.4609 30.3897 31.3809 26.8497 29.2909 23.2997C29.0409 22.8797 29.1809 22.3397 29.6009 22.0797L35.7809 18.2797C36.0409 18.1197 36.3609 18.2997 36.3609 18.5997C36.3609 18.8397 36.3609 19.0697 36.3609 19.3097C36.5909 23.5297 36.7209 27.7697 36.9409 31.9897C36.9909 32.8797 36.8309 33.4897 36.0509 33.7897Z" fill="#5F22D9"/>
</g>
<defs>
<clipPath id="clip0_990_13072">
<rect width="43.76" height="50" fill="white" transform="translate(0.350952 0.5)"/>
</clipPath>
</defs>
</svg>
