<svg width="45" height="51" viewBox="0 0 45 51" fill="none" xmlns="http://www.w3.org/2000/svg">
<g clip-path="url(#clip0_966_18069)">
<path d="M22.48 50.4999C15.47 46.4599 8.49 42.4699 1.55 38.4099C1.09 38.1399 0.67 37.3499 0.67 36.7999C0.61 29.1899 0.61 21.5699 0.67 13.9599C0.67 13.3799 1.15 12.5799 1.65 12.2599C3.92 10.8299 6.27 9.53988 8.71 8.12988C10.02 10.2799 11.27 12.3199 12.6 14.4999C11.39 15.2399 10.18 15.8799 9.09 16.6799C8.66 16.9899 8.24 17.6499 8.23 18.1499C8.17 22.9599 8.17 27.7799 8.23 32.5899C8.24 33.0799 8.66 33.7699 9.09 34.0299C13.25 36.5299 17.44 38.9799 21.67 41.3699C22.09 41.6099 22.87 41.5599 23.32 41.3299C24.63 40.6699 25.86 39.8499 27.34 38.9699C28.65 41.0899 29.95 43.1899 31.32 45.3999C28.31 47.1299 25.39 48.8199 22.48 50.4999Z" fill="#5F22D9"/>
<path d="M43.2101 12.1997C43.1801 12.1797 43.1401 12.1597 43.1001 12.1397L23.7301 0.899742C22.7901 0.339742 22.1501 0.389742 21.2901 0.949742C19.7801 1.92974 18.1901 2.78974 16.6301 3.69974C15.1401 4.56974 13.6501 5.44974 12.0901 6.35974C19.6301 18.8397 27.0601 31.1497 34.5401 43.5397C37.6401 41.7997 40.6501 40.1397 43.6001 38.3797C44.0001 38.1397 44.2301 37.3197 44.2301 36.7597C44.3001 29.2697 44.3001 21.7797 44.3701 14.2797C44.3901 13.2697 44.0501 12.7097 43.2101 12.1997ZM27.6501 20.3197C25.5001 16.8097 23.3401 13.3097 21.2001 9.80974L21.2101 9.79974C21.2001 9.78974 21.2001 9.77974 21.1901 9.77974C21.3001 9.65974 21.4101 9.53974 21.5201 9.41974C21.5301 9.41974 21.5501 9.42974 21.5601 9.42974C22.1901 8.88974 22.8101 9.01974 23.5601 9.47974C27.1901 11.6597 30.8601 13.7597 34.4801 15.9397C34.6901 16.0497 34.9001 16.1597 35.1001 16.2697C35.3601 16.4097 35.3701 16.7797 35.1101 16.9397L28.8601 20.6197C28.4501 20.8597 27.9001 20.7297 27.6501 20.3197ZM36.3201 33.7897C36.3201 33.7997 36.3201 33.8197 36.3101 33.8297C36.1501 33.8697 36.0001 33.9097 35.8401 33.9497C35.8401 33.9397 35.8301 33.9297 35.8301 33.9297C35.8201 33.9297 35.8201 33.9297 35.8101 33.9297C33.7301 30.3897 31.6501 26.8497 29.5601 23.2997C29.3101 22.8797 29.4501 22.3397 29.8701 22.0797L36.0501 18.2797C36.3101 18.1197 36.6301 18.2997 36.6301 18.5997C36.6301 18.8397 36.6301 19.0697 36.6301 19.3097C36.8601 23.5297 36.9901 27.7697 37.2101 31.9897C37.2601 32.8797 37.1001 33.4897 36.3201 33.7897Z" fill="#5F22D9"/>
</g>
<defs>
<clipPath id="clip0_966_18069">
<rect width="43.76" height="50" fill="white" transform="translate(0.620117 0.5)"/>
</clipPath>
</defs>
</svg>
