<svg width="44" height="51" viewBox="0 0 44 51" fill="none" xmlns="http://www.w3.org/2000/svg">
<g clip-path="url(#clip0_959_19512)">
<path d="M21.98 50.25C14.97 46.21 7.99 42.22 1.05 38.16C0.59 37.89 0.17 37.1 0.17 36.55C0.11 28.94 0.11 21.32 0.17 13.71C0.17 13.13 0.65 12.33 1.15 12.01C3.42 10.58 5.77 9.29 8.21 7.88C9.52 10.03 10.77 12.07 12.1 14.25C10.89 14.99 9.68 15.63 8.59 16.43C8.16 16.74 7.74 17.4 7.73 17.9C7.67 22.71 7.67 27.53 7.73 32.34C7.74 32.83 8.16 33.52 8.59 33.78C12.75 36.28 16.94 38.73 21.17 41.12C21.59 41.36 22.37 41.31 22.82 41.08C24.13 40.42 25.36 39.6 26.84 38.72C28.15 40.84 29.45 42.94 30.82 45.15C27.81 46.88 24.89 48.57 21.98 50.25Z" fill="#5F22D9"/>
<path d="M42.7098 11.95C42.6798 11.93 42.6398 11.91 42.5998 11.89L23.2298 0.649986C22.2898 0.0899864 21.6498 0.139986 20.7898 0.699986C19.2798 1.67999 17.6898 2.53999 16.1298 3.44999C14.6398 4.31999 13.1498 5.19999 11.5898 6.10999C19.1298 18.59 26.5598 30.9 34.0398 43.29C37.1398 41.55 40.1498 39.89 43.0998 38.13C43.4998 37.89 43.7298 37.07 43.7298 36.51C43.7998 29.02 43.7998 21.53 43.8698 14.03C43.8898 13.02 43.5498 12.46 42.7098 11.95ZM27.1498 20.07C24.9998 16.56 22.8398 13.06 20.6998 9.55999L20.7098 9.54999C20.6998 9.53999 20.6998 9.52999 20.6898 9.52999C20.7998 9.40999 20.9098 9.28999 21.0198 9.16999C21.0298 9.16999 21.0498 9.17999 21.0598 9.17999C21.6898 8.63999 22.3098 8.76999 23.0598 9.22999C26.6898 11.41 30.3598 13.51 33.9798 15.69C34.1898 15.8 34.3998 15.91 34.5998 16.02C34.8598 16.16 34.8698 16.53 34.6098 16.69L28.3598 20.37C27.9498 20.61 27.3998 20.48 27.1498 20.07ZM35.8198 33.54C35.8198 33.55 35.8198 33.57 35.8098 33.58C35.6498 33.62 35.4998 33.66 35.3398 33.7C35.3398 33.69 35.3298 33.68 35.3298 33.68C35.3198 33.68 35.3198 33.68 35.3098 33.68C33.2298 30.14 31.1498 26.6 29.0598 23.05C28.8098 22.63 28.9498 22.09 29.3698 21.83L35.5498 18.03C35.8098 17.87 36.1298 18.05 36.1298 18.35C36.1298 18.59 36.1298 18.82 36.1298 19.06C36.3598 23.28 36.4898 27.52 36.7098 31.74C36.7598 32.63 36.5998 33.24 35.8198 33.54Z" fill="#5F22D9"/>
</g>
<defs>
<clipPath id="clip0_959_19512">
<rect width="43.76" height="50" fill="white" transform="translate(0.120117 0.25)"/>
</clipPath>
</defs>
</svg>
