<svg width="44" height="51" viewBox="0 0 44 51" fill="none" xmlns="http://www.w3.org/2000/svg">
<g clip-path="url(#clip0_959_15997)">
<path d="M21.98 50.4999C14.97 46.4599 7.99 42.4699 1.05 38.4099C0.59 38.1399 0.17 37.3499 0.17 36.7999C0.11 29.1899 0.11 21.5699 0.17 13.9599C0.17 13.3799 0.65 12.5799 1.15 12.2599C3.42 10.8299 5.77 9.53988 8.21 8.12988C9.52 10.2799 10.77 12.3199 12.1 14.4999C10.89 15.2399 9.68 15.8799 8.59 16.6799C8.16 16.9899 7.74 17.6499 7.73 18.1499C7.67 22.9599 7.67 27.7799 7.73 32.5899C7.74 33.0799 8.16 33.7699 8.59 34.0299C12.75 36.5299 16.94 38.9799 21.17 41.3699C21.59 41.6099 22.37 41.5599 22.82 41.3299C24.13 40.6699 25.36 39.8499 26.84 38.9699C28.15 41.0899 29.45 43.1899 30.82 45.3999C27.81 47.1299 24.89 48.8199 21.98 50.4999Z" fill="#5F22D9"/>
<path d="M42.71 12.1997C42.68 12.1797 42.64 12.1597 42.6 12.1397L23.23 0.899742C22.29 0.339742 21.65 0.389742 20.79 0.949742C19.28 1.92974 17.69 2.78974 16.13 3.69974C14.64 4.56974 13.15 5.44974 11.59 6.35974C19.13 18.8397 26.56 31.1497 34.04 43.5397C37.14 41.7997 40.15 40.1397 43.1 38.3797C43.5 38.1397 43.73 37.3197 43.73 36.7597C43.8 29.2697 43.8 21.7797 43.87 14.2797C43.89 13.2697 43.55 12.7097 42.71 12.1997ZM27.15 20.3197C25 16.8097 22.84 13.3097 20.7 9.80974L20.71 9.79974C20.7 9.78974 20.7 9.77974 20.69 9.77974C20.8 9.65974 20.91 9.53974 21.02 9.41974C21.03 9.41974 21.05 9.42974 21.06 9.42974C21.69 8.88974 22.31 9.01974 23.06 9.47974C26.69 11.6597 30.36 13.7597 33.98 15.9397C34.19 16.0497 34.4 16.1597 34.6 16.2697C34.86 16.4097 34.87 16.7797 34.61 16.9397L28.36 20.6197C27.95 20.8597 27.4 20.7297 27.15 20.3197ZM35.82 33.7897C35.82 33.7997 35.82 33.8197 35.81 33.8297C35.65 33.8697 35.5 33.9097 35.34 33.9497C35.34 33.9397 35.33 33.9297 35.33 33.9297C35.32 33.9297 35.32 33.9297 35.31 33.9297C33.23 30.3897 31.15 26.8497 29.06 23.2997C28.81 22.8797 28.95 22.3397 29.37 22.0797L35.55 18.2797C35.81 18.1197 36.13 18.2997 36.13 18.5997C36.13 18.8397 36.13 19.0697 36.13 19.3097C36.36 23.5297 36.49 27.7697 36.71 31.9897C36.76 32.8797 36.6 33.4897 35.82 33.7897Z" fill="#5F22D9"/>
</g>
<defs>
<clipPath id="clip0_959_15997">
<rect width="43.76" height="50" fill="white" transform="translate(0.119995 0.5)"/>
</clipPath>
</defs>
</svg>
