<svg width="532" height="500" viewBox="0 0 532 500" fill="none" xmlns="http://www.w3.org/2000/svg">
<g clip-path="url(#clip0_966_5202)">
<path d="M246.06 461.589C332.034 475.043 421.016 439.982 468.669 366.298C477.734 352.279 485.359 337.328 491.543 321.811C510.364 274.611 519.217 219.638 513.993 168.989C508.458 115.387 488.931 56.9373 442.915 24.9568C399.935 -4.91797 345.688 -4.86145 296.862 8.88887C259.77 19.3323 227.394 38.4669 196.345 60.8094C180.305 72.3551 164.491 84.2966 147.562 94.5422C130.52 104.844 112.079 111.43 94.2888 119.98C61.5597 135.737 31.8803 158.178 14.1885 190.568C-5.80481 227.17 -1.97841 273.48 15.897 310.082C56.7872 393.841 157.276 447.698 246.06 461.589Z" fill="#C6FF00"/>
<path d="M246.06 461.646C332.034 475.1 421.016 440.038 468.669 366.355C477.734 352.336 485.359 337.384 491.543 321.868C510.364 274.667 519.217 219.694 513.993 169.046C508.458 115.443 488.931 56.9939 442.915 25.0135C399.935 -4.87543 345.688 -4.80477 296.862 8.93141C259.77 19.3749 227.394 38.5094 196.345 60.8519C180.305 72.3977 164.491 84.3391 147.562 94.5847C130.52 104.887 112.079 111.472 94.2888 120.022C61.5597 135.779 31.8803 158.221 14.1885 190.597C-5.80481 227.198 -1.97841 273.508 15.897 310.11C56.7872 393.884 157.276 447.754 246.06 461.646Z" fill="#5F22D9"/>
<path d="M531.008 219.341H316.856C316.461 219.341 316.15 219.03 316.15 218.634V70.8714C316.15 70.4757 316.461 70.1648 316.856 70.1648H531.008C531.403 70.1648 531.714 70.4757 531.714 70.8714V218.634C531.714 219.016 531.403 219.341 531.008 219.341ZM317.562 217.928H530.302V71.578H317.562V217.928Z" fill="#263238"/>
<path d="M510.14 92.1822C507.118 92.1822 504.661 89.7232 504.661 86.699C504.661 83.6748 507.118 81.2158 510.14 81.2158C513.161 81.2158 515.618 83.6748 515.618 86.699C515.618 89.7232 513.161 92.1822 510.14 92.1822ZM510.14 82.629C507.895 82.629 506.073 84.452 506.073 86.699C506.073 88.946 507.895 90.769 510.14 90.769C512.385 90.769 514.206 88.946 514.206 86.699C514.206 84.452 512.385 82.629 510.14 82.629Z" fill="#263238"/>
<path d="M497.813 86.6989C497.813 89.3416 495.681 91.4755 493.041 91.4755C490.401 91.4755 488.269 89.3416 488.269 86.6989C488.269 84.0563 490.401 81.9224 493.041 81.9224C495.667 81.9224 497.813 84.0563 497.813 86.6989Z" fill="#263238"/>
<path d="M480.7 86.6989C480.7 89.3416 478.568 91.4755 475.928 91.4755C473.287 91.4755 471.155 89.3416 471.155 86.6989C471.155 84.0563 473.287 81.9224 475.928 81.9224C478.568 81.9224 480.7 84.0563 480.7 86.6989Z" fill="#263238"/>
<path d="M517.086 103.459H331.865V206.481H517.086V103.459Z" fill="#263238"/>
<path d="M434.261 187.657C434.19 187.657 434.119 187.657 434.035 187.657C424.024 187.601 414.634 183.644 407.603 176.521C400.571 169.399 396.717 159.959 396.773 149.939C396.83 139.92 400.783 130.522 407.899 123.484C414.959 116.489 424.306 112.645 434.232 112.645C434.303 112.645 434.373 112.645 434.458 112.645C455.115 112.758 471.833 129.674 471.72 150.363C471.663 160.383 467.71 169.78 460.594 176.818C453.52 183.813 444.187 187.657 434.261 187.657ZM434.246 114.058C424.687 114.058 415.693 117.761 408.902 124.488C402.054 131.271 398.256 140.301 398.199 149.953C398.143 159.591 401.842 168.678 408.619 175.532C415.397 182.386 424.419 186.188 434.063 186.244C434.133 186.244 434.204 186.244 434.275 186.244C443.834 186.244 452.828 182.542 459.619 175.815C466.467 169.031 470.265 160.001 470.322 150.349C470.435 130.451 454.353 114.172 434.472 114.058C434.388 114.058 434.317 114.058 434.246 114.058Z" fill="white"/>
<path d="M426.566 133.603L426.368 167.972L451.543 150.801L426.566 133.603Z" fill="white"/>
<path d="M203.787 80.7635H29.8622C29.4669 80.7635 29.1562 80.4526 29.1562 80.0569V53.701C29.1562 53.3053 29.4669 52.9944 29.8622 52.9944H203.773C204.168 52.9944 204.479 53.3053 204.479 53.701V80.0569C204.493 80.4385 204.182 80.7635 203.787 80.7635ZM30.5682 79.3503H203.067V54.4076H30.5682V79.3503Z" fill="#263238"/>
<path d="M50.8441 66.872C50.8441 69.656 48.5849 71.9171 45.8034 71.9171C43.0218 71.9171 40.7627 69.656 40.7627 66.872C40.7627 64.088 43.0218 61.8269 45.8034 61.8269C48.5849 61.8269 50.8441 64.088 50.8441 66.872Z" fill="#263238"/>
<path d="M73.1527 66.872C73.1527 69.656 70.8935 71.9171 68.112 71.9171C65.3304 71.9171 63.0713 69.656 63.0713 66.872C63.0713 64.088 65.3304 61.8269 68.112 61.8269C70.8935 61.8269 73.1527 64.088 73.1527 66.872Z" fill="#263238"/>
<path d="M95.4476 66.872C95.4476 69.656 93.1885 71.9171 90.4069 71.9171C87.6253 71.9171 85.3662 69.656 85.3662 66.872C85.3662 64.088 87.6253 61.8269 90.4069 61.8269C93.1885 61.8269 95.4476 64.088 95.4476 66.872Z" fill="#263238"/>
<path d="M209.886 48.119H198.097C197.701 48.119 197.391 47.8081 197.391 47.4124C197.391 47.0167 197.701 46.7058 198.097 46.7058H209.886C210.282 46.7058 210.592 47.0167 210.592 47.4124C210.592 47.8081 210.268 48.119 209.886 48.119Z" fill="#263238"/>
<path d="M59.3012 90.4581H13.7939C13.3985 90.4581 13.0879 90.1472 13.0879 89.7515C13.0879 89.3558 13.3985 89.0449 13.7939 89.0449H59.2871C59.6825 89.0449 59.9931 89.3558 59.9931 89.7515C60.0072 90.1331 59.6825 90.4581 59.3012 90.4581Z" fill="#263238"/>
<path d="M362.477 479.707C360.952 452.531 359.907 433.707 359.907 433.707C262.849 457.223 210.339 419.462 210.339 419.462C210.339 419.462 206.089 446.214 200.709 479.707H362.477Z" fill="#263238"/>
<path d="M362.476 480.413H200.709C200.497 480.413 200.299 480.328 200.172 480.159C200.031 480.003 199.974 479.791 200.017 479.593C205.396 446.101 209.646 419.349 209.646 419.349C209.689 419.109 209.844 418.897 210.07 418.812C210.296 418.713 210.55 418.756 210.748 418.883C211.27 419.264 264.162 456.177 359.737 433.015C359.935 432.972 360.161 433.015 360.316 433.128C360.486 433.255 360.584 433.453 360.599 433.651C360.599 433.651 361.643 452.46 363.168 479.636C363.182 479.834 363.112 480.017 362.971 480.159C362.858 480.342 362.674 480.413 362.476 480.413ZM201.527 479H361.728C360.415 455.569 359.469 438.498 359.243 434.598C270.445 455.852 218.358 425.468 210.846 420.664C210.013 425.935 206.215 449.832 201.527 479Z" fill="#263238"/>
<g opacity="0.6">
<path d="M362.477 479.707C360.952 452.531 359.907 433.707 359.907 433.707C262.849 457.223 210.339 419.462 210.339 419.462C210.339 419.462 206.089 446.214 200.709 479.707H362.477Z" fill="white"/>
<path d="M362.476 480.413H200.709C200.497 480.413 200.299 480.328 200.172 480.159C200.031 480.003 199.974 479.791 200.017 479.593C205.396 446.101 209.646 419.349 209.646 419.349C209.689 419.109 209.844 418.897 210.07 418.812C210.296 418.713 210.55 418.756 210.748 418.883C211.27 419.264 264.162 456.177 359.737 433.015C359.935 432.972 360.161 433.015 360.316 433.128C360.486 433.255 360.584 433.453 360.599 433.651C360.599 433.651 361.643 452.46 363.168 479.636C363.182 479.834 363.112 480.017 362.971 480.159C362.858 480.342 362.674 480.413 362.476 480.413ZM201.527 479H361.728C360.415 455.569 359.469 438.498 359.243 434.598C270.445 455.852 218.358 425.468 210.846 420.664C210.013 425.935 206.215 449.832 201.527 479Z" fill="#263238"/>
</g>
<path d="M84.4905 213.914C84.3493 218.295 81.4971 222.266 81.4124 226.647C81.3277 230.745 83.6433 234.476 84.434 238.49C85.2812 242.814 84.4058 247.237 84.9847 251.59C85.3518 254.303 86.1566 257.2 87.2438 259.716C88.1192 261.722 89.3759 263.616 91.1408 264.902C94.0071 266.994 97.9888 266.909 101.392 266.895C104.865 266.895 108.48 266.259 111.261 264.054C113.534 262.259 115.003 259.631 116.401 257.087C117.573 254.953 118.773 252.72 118.815 250.29C118.829 248.919 118.476 247.562 117.968 246.29C115.201 239.352 108.098 234.406 106.898 227.029C106.39 223.877 107.054 220.669 107.322 217.504C107.604 214.324 107.421 210.876 105.5 208.332C102.309 204.079 94.8825 203.202 89.9265 203.216C82.8103 203.245 84.6599 208.643 84.4905 213.914Z" fill="white"/>
<path d="M100.488 267.601C97.1837 267.601 93.5267 267.502 90.7311 265.467C89.0226 264.224 87.6248 262.387 86.594 259.998C85.4786 257.412 84.6455 254.459 84.2784 251.689C84.0101 249.64 84.0384 247.562 84.0807 245.57C84.1231 243.28 84.1655 240.906 83.7278 238.631C83.4312 237.105 82.8806 235.578 82.3582 234.095C81.511 231.706 80.6356 229.247 80.692 226.633C80.7344 224.301 81.5251 222.111 82.2734 219.991C83.0077 217.914 83.6995 215.963 83.7701 213.9C83.7984 212.939 83.7701 211.964 83.7278 211.017C83.6289 208.304 83.5301 205.746 85.0974 204.107C86.114 203.047 87.6954 202.524 89.9545 202.524C94.5151 202.524 102.549 203.188 106.093 207.922C107.802 210.212 108.423 213.278 108.056 217.589C107.985 218.38 107.9 219.171 107.802 219.949C107.519 222.365 107.251 224.654 107.618 226.944C108.268 230.971 110.753 234.236 113.393 237.684C115.384 240.284 117.431 242.983 118.66 246.064C119.281 247.633 119.577 249.018 119.549 250.332C119.507 252.989 118.208 255.363 117.05 257.455C115.694 259.928 114.155 262.712 111.727 264.634C109.185 266.64 105.811 267.63 101.42 267.63H101.01C100.827 267.601 100.657 267.601 100.488 267.601ZM85.1962 213.928C85.1256 216.204 84.3631 218.366 83.6148 220.443C82.8665 222.549 82.1605 224.541 82.1181 226.647C82.0758 229.007 82.8665 231.24 83.6995 233.614C84.2361 235.14 84.8008 236.723 85.1256 238.348C85.5915 240.765 85.5492 243.21 85.5068 245.584C85.4645 247.534 85.4221 249.555 85.6904 251.491C86.0434 254.148 86.8341 256.96 87.9071 259.433C88.839 261.581 90.0816 263.234 91.5782 264.323C94.148 266.202 97.7908 266.188 101.01 266.188H101.42C105.486 266.188 108.564 265.312 110.851 263.503C113.054 261.765 114.523 259.094 115.807 256.748C116.881 254.798 118.095 252.593 118.123 250.276C118.137 249.159 117.883 247.944 117.332 246.559C116.175 243.662 114.184 241.047 112.263 238.518C109.637 235.084 106.926 231.523 106.22 227.156C105.825 224.683 106.107 222.181 106.39 219.779C106.474 219.002 106.573 218.224 106.644 217.447C106.983 213.504 106.46 210.749 104.964 208.756C101.674 204.361 93.3714 203.951 89.9545 203.923C88.1048 203.923 86.8482 204.305 86.114 205.082C84.9562 206.283 85.0409 208.445 85.1397 210.961C85.1821 211.922 85.2244 212.925 85.1962 213.928Z" fill="#263238"/>
<path d="M93.6396 266.103L98.3556 303.567C98.3556 303.567 125.013 297.009 132.892 286.481L117.77 253.187" fill="white"/>
<path d="M98.3556 304.273C98.2144 304.273 98.0732 304.231 97.9602 304.146C97.7908 304.033 97.6919 303.849 97.6637 303.652L92.9478 266.188C92.9054 265.806 93.1737 265.453 93.5549 265.397C93.9502 265.34 94.2891 265.623 94.3456 266.004L98.9627 302.662C103.312 301.503 124.914 295.399 132.073 286.368L117.12 253.483C116.965 253.13 117.12 252.706 117.473 252.551C117.826 252.395 118.25 252.551 118.405 252.904L133.527 286.199C133.64 286.439 133.598 286.707 133.457 286.919C125.522 297.518 99.6263 303.991 98.525 304.259C98.4685 304.273 98.412 304.273 98.3556 304.273Z" fill="#263238"/>
<path d="M142.267 289.068L150.711 308.004L237.913 256.649L254.419 234.589L265.87 262.387L242.587 316.992C224.528 329.781 205.156 341.059 185.388 350.937C175.872 355.685 166.2 360.179 156.231 363.91C146.715 367.471 136.831 369.902 127.032 372.516C126.354 372.7 125.606 372.87 124.971 372.559C124.519 372.333 124.335 371.795 123.954 371.47C116.781 365.691 98.793 314.152 96.9434 297.759L142.267 289.068Z" fill="#263238"/>
<path d="M376.75 214.07L417.076 271.459C427.002 285.577 427.892 304.16 419.377 319.168C403.818 346.584 379.01 388.457 366.076 400.511C366.076 400.511 372.119 412.905 371.201 417.498C370.284 422.091 361.755 423.009 361.755 423.009L374.873 445.522C374.873 445.522 303.724 508.465 203.645 426.684L224.471 353.622L213.444 345.75L257.68 197.86L303.131 192.971L316.968 229.601L331.893 211.936L346.873 229.601L376.75 214.07Z" fill="#263238"/>
<path d="M373.743 299.37C373.447 299.37 373.178 299.186 373.08 298.889C372.952 298.522 373.15 298.126 373.517 297.999C385.773 293.816 397.168 291.908 412.84 291.399C413.221 291.399 413.56 291.696 413.574 292.078C413.589 292.473 413.278 292.798 412.897 292.813C397.379 293.307 386.098 295.201 373.983 299.342C373.884 299.356 373.814 299.37 373.743 299.37Z" fill="white"/>
<path d="M336.651 435.728C336.495 435.728 336.354 435.686 336.227 435.587C335.916 435.347 335.86 434.908 336.1 434.598C343.16 425.341 352.535 418.021 363.238 413.456C363.591 413.301 364.014 413.47 364.17 413.824C364.325 414.177 364.155 414.601 363.802 414.756C353.326 419.222 344.134 426.387 337.229 435.446C337.06 435.629 336.862 435.728 336.651 435.728Z" fill="white"/>
<path d="M143.834 337.3C143.749 337.3 143.65 337.285 143.566 337.243C143.213 337.088 143.029 336.678 143.185 336.325C146.545 328.255 148.762 319.762 149.764 311.071C149.807 310.689 150.16 310.407 150.541 310.449C150.922 310.491 151.204 310.845 151.162 311.226C150.145 320.045 147.9 328.665 144.484 336.862C144.371 337.13 144.102 337.3 143.834 337.3Z" fill="white"/>
<path d="M159.365 329.089C159.337 329.089 159.309 329.089 159.281 329.089C158.899 329.047 158.617 328.693 158.659 328.312C159.309 322.56 157.812 316.526 154.522 311.749C154.296 311.424 154.381 310.986 154.706 310.76C155.031 310.534 155.468 310.619 155.694 310.944C159.168 315.989 160.763 322.376 160.071 328.467C160.029 328.821 159.718 329.089 159.365 329.089Z" fill="white"/>
<path d="M241.951 292.812C241.88 292.812 241.795 292.798 241.711 292.77C241.344 292.643 241.146 292.233 241.273 291.866C243.151 286.524 255.336 256.903 259.84 246.319C259.995 245.965 260.405 245.796 260.772 245.951C261.125 246.107 261.294 246.516 261.139 246.884C256.748 257.172 244.422 287.131 242.6 292.346C242.515 292.629 242.247 292.812 241.951 292.812Z" fill="white"/>
<path d="M331.879 371.428C331.568 371.428 331.286 371.216 331.201 370.905L326.471 353.24L252.513 309.46C252.174 309.262 252.061 308.824 252.258 308.485C252.456 308.146 252.894 308.033 253.219 308.23L327.431 352.166C327.586 352.265 327.699 352.407 327.756 352.59L331.173 365.351V350.174C331.173 350.018 331.229 349.849 331.328 349.722L362.956 310.703C363.21 310.407 363.648 310.35 363.944 310.605C364.241 310.845 364.297 311.297 364.043 311.594L332.585 350.428V370.722C332.585 371.075 332.316 371.372 331.978 371.428C331.935 371.414 331.907 371.428 331.879 371.428Z" fill="white"/>
<path d="M335.352 420.169C335.239 420.169 335.112 420.141 335.013 420.084L249.209 372.092C248.87 371.909 248.743 371.471 248.94 371.131C249.124 370.792 249.562 370.665 249.901 370.863L335.31 418.643L355.529 404.256C355.84 404.03 356.291 404.101 356.517 404.426C356.743 404.751 356.673 405.189 356.348 405.415L335.762 420.07C335.635 420.127 335.493 420.169 335.352 420.169Z" fill="white"/>
<path d="M178.554 286.905C222.894 286.905 258.838 250.247 258.838 205.025C258.838 159.804 222.894 123.145 178.554 123.145C134.215 123.145 98.2705 159.804 98.2705 205.025C98.2705 250.247 134.215 286.905 178.554 286.905Z" fill="#263238"/>
<path d="M183.92 277.451C226.708 277.451 261.394 242.735 261.394 199.91C261.394 157.085 226.708 122.368 183.92 122.368C141.133 122.368 106.446 157.085 106.446 199.91C106.446 242.735 141.133 277.451 183.92 277.451Z" fill="#F8221E"/>
<path d="M183.92 278.144C140.813 278.144 105.74 243.04 105.74 199.895C105.74 156.751 140.813 121.647 183.92 121.647C227.027 121.647 262.1 156.751 262.1 199.895C262.1 243.04 227.027 278.144 183.92 278.144ZM183.92 123.075C141.59 123.075 107.152 157.542 107.152 199.91C107.152 242.277 141.59 276.745 183.92 276.745C226.251 276.745 260.688 242.277 260.688 199.91C260.688 157.542 226.251 123.075 183.92 123.075Z" fill="#263238"/>
<path d="M153.267 170.204L177.34 238.066L225.898 184.223L153.267 170.204Z" fill="white"/>
<path d="M247.19 181.354C246.865 181.354 246.582 181.142 246.498 180.817C242.219 162.729 230.147 147.721 213.359 139.637C213.006 139.468 212.865 139.044 213.034 138.69C213.204 138.337 213.627 138.196 213.98 138.365C231.15 146.632 243.518 161.994 247.881 180.492C247.966 180.874 247.74 181.255 247.359 181.34C247.303 181.354 247.246 181.354 247.19 181.354Z" fill="white"/>
<path d="M206.822 136.896C206.751 136.896 206.667 136.881 206.596 136.853C202.12 135.327 197.447 134.324 192.717 133.871C192.335 133.829 192.039 133.49 192.081 133.108C192.124 132.727 192.462 132.43 192.844 132.472C197.687 132.939 202.459 133.956 207.034 135.525C207.401 135.652 207.599 136.048 207.472 136.415C207.387 136.712 207.104 136.896 206.822 136.896Z" fill="white"/>
<path d="M240.652 304.288C240.652 304.288 225.742 335.251 214.531 338.642L197.757 317.204L183.638 299.144L180.037 294.678C180.037 294.678 180.037 294.678 180.023 294.664L179.938 294.508L164.844 267.262L163.136 264.181L162.628 261.949L161.427 256.692L161.343 256.31L161.569 255.688L164.35 247.817L169.391 242.023L169.447 241.797L171.269 232.498L171.467 231.494L176.267 228.527C176.253 228.513 176.253 228.498 176.253 228.456C175.914 227.537 172.37 217.447 175.138 211.554C175.731 210.268 176.634 209.166 177.962 208.445C178.484 208.134 179.063 207.908 179.712 207.725C179.712 207.725 179.882 207.371 180.164 207.06C180.602 206.566 181.364 206.184 182.254 207.442V207.456C182.579 207.908 182.889 208.558 183.214 209.463C183.369 209.844 183.525 210.311 183.666 210.791C183.736 211.017 183.807 211.243 183.863 211.484C183.934 211.738 184.019 211.992 184.104 212.261C184.273 212.812 184.457 213.391 184.64 213.957C187.238 222.054 192.095 235.79 192.462 236.766C192.462 236.78 192.462 236.794 192.476 236.822L204.21 240.694L205.593 241.146L206.285 243.04L210.38 254.261L210.648 254.982L210.761 255.9L213.359 277.409L213.458 277.508L235.64 299.37L240.652 304.288Z" fill="white"/>
<path d="M241.951 306.012C241.782 306.012 241.598 305.955 241.471 305.828C221.619 287.259 212.964 278.002 212.879 277.918C212.78 277.804 212.71 277.663 212.696 277.508L211.368 263.899C210.931 259.447 209.942 254.642 208.319 249.202C207.302 245.768 205.932 243.28 204.111 241.57C201.81 239.408 198.901 238.857 195.809 238.292C194.665 238.08 193.479 237.854 192.321 237.557C191.94 237.458 191.714 237.076 191.827 236.695C191.926 236.313 192.321 236.101 192.688 236.2C193.79 236.497 194.947 236.709 196.077 236.921C199.226 237.5 202.487 238.108 205.085 240.567C207.076 242.447 208.587 245.146 209.674 248.82C211.312 254.346 212.329 259.235 212.766 263.786L214.079 277.154C215.35 278.497 224.104 287.669 242.432 304.825C242.714 305.093 242.728 305.531 242.46 305.828C242.333 305.941 242.149 306.012 241.951 306.012Z" fill="#263238"/>
<path d="M197.15 249.385C196.868 249.385 196.613 249.216 196.501 248.947C195.004 245.287 193.479 241.415 191.855 237.105C191.841 237.091 191.841 237.062 191.827 237.048C191.248 235.564 190.697 234.066 190.147 232.554C187.845 226.35 185.854 220.09 184.005 214.211C183.821 213.66 183.638 213.081 183.468 212.515L183.412 212.317C183.341 212.105 183.285 211.908 183.228 211.71L182.494 209.449C182.466 209.35 182.423 209.237 182.395 209.138C182.282 208.813 182.084 208.304 181.788 207.993C181.76 207.965 181.731 207.936 181.717 207.908C181.378 207.611 181.054 207.541 180.418 207.753C180.164 207.823 179.91 207.951 179.599 208.148C179.162 208.417 178.78 208.7 178.456 208.996C177.566 209.788 176.832 210.791 176.295 211.978L176.154 212.303C174.629 216.048 175.476 220.627 176.098 223.976C176.366 225.446 176.648 226.887 176.973 228.329V228.343C176.973 228.357 176.987 228.385 176.987 228.399C178.385 234.943 180.192 241.274 181.788 246.615C181.901 246.983 181.689 247.379 181.308 247.492C180.941 247.605 180.545 247.393 180.432 247.011C178.837 241.655 177.016 235.296 175.604 228.696C175.604 228.668 175.589 228.654 175.589 228.626C175.265 227.17 174.982 225.7 174.714 224.231C174.065 220.712 173.161 215.893 174.855 211.752L175.011 211.399C175.646 210.014 176.493 208.855 177.524 207.936C177.905 207.583 178.357 207.258 178.865 206.933C179.133 206.764 179.543 206.537 179.995 206.396C180.221 206.325 180.588 206.212 181.011 206.212C181.703 206.212 182.296 206.467 182.79 206.961C182.819 206.99 182.861 207.032 182.875 207.074C183.313 207.569 183.567 208.191 183.751 208.7L184.584 211.3C184.64 211.512 184.697 211.696 184.753 211.879L184.824 212.091C184.993 212.642 185.177 213.222 185.36 213.773C187.196 219.652 189.187 225.898 191.474 232.06C192.025 233.558 192.589 235.056 193.154 236.539C193.154 236.554 193.168 236.568 193.168 236.596C194.792 240.892 196.303 244.75 197.8 248.41C197.941 248.778 197.771 249.187 197.418 249.329C197.334 249.357 197.235 249.385 197.15 249.385Z" fill="#263238"/>
<path d="M171.171 251.943C170.86 251.943 170.578 251.745 170.493 251.434C169.476 247.916 168.897 244.679 168.756 241.825C168.573 238.066 169.166 234.957 170.578 232.314C170.634 232.201 170.662 232.159 170.705 232.102C171.58 230.618 173.359 229.403 175.562 228.795C175.943 228.696 176.324 228.908 176.437 229.29C176.536 229.671 176.324 230.053 175.943 230.166C174.093 230.675 172.625 231.664 171.905 232.865C171.862 232.95 171.834 232.992 171.806 233.049C170.549 235.409 170.013 238.278 170.182 241.768C170.309 244.51 170.874 247.633 171.862 251.053C171.975 251.434 171.749 251.816 171.382 251.929C171.298 251.943 171.227 251.943 171.171 251.943Z" fill="#263238"/>
<path d="M213.444 336.819C213.233 336.819 213.035 336.735 212.894 336.551L179.501 295.116C179.445 295.06 179.445 295.045 179.402 294.989C179.261 294.749 169.829 279.924 164.209 267.545C163.278 265.524 162.558 263.772 161.979 262.189C161.4 260.62 160.962 259.193 160.665 257.949C160.651 257.893 160.651 257.822 160.651 257.751C160.665 257.356 160.694 256.988 160.736 256.593C160.764 256.253 160.807 255.9 160.877 255.533C161.287 252.805 162.275 250.007 163.744 247.449C165.283 244.764 167.16 242.616 169.024 241.415C169.349 241.203 169.787 241.302 169.999 241.627C170.21 241.952 170.111 242.39 169.787 242.602C168.135 243.662 166.384 245.697 164.972 248.156C163.588 250.558 162.656 253.201 162.275 255.787C162.205 256.14 162.176 256.451 162.148 256.762C162.106 257.101 162.092 257.412 162.063 257.723C162.332 258.882 162.755 260.225 163.306 261.694C163.871 263.235 164.591 264.959 165.494 266.951C170.973 279.048 180.447 293.971 180.532 294.113C180.574 294.198 180.602 294.24 180.631 294.268L213.981 335.66C214.221 335.957 214.179 336.409 213.868 336.65C213.755 336.763 213.6 336.819 213.444 336.819Z" fill="#263238"/>
<path d="M247.388 301.221C245.721 306.111 243.166 311.014 240.187 315.72C229.512 332.58 213.67 350.471 213.67 350.471C203.575 341.242 189.582 319.861 189.582 319.861C196.515 315.565 207.613 303.284 213.854 295.385C219.84 287.796 224.161 281.352 224.161 281.352L247.388 301.221Z" fill="white"/>
<path d="M213.67 351.191C213.501 351.191 213.331 351.121 213.19 351.008C203.151 341.822 189.13 320.469 188.989 320.257C188.89 320.101 188.848 319.903 188.89 319.72C188.933 319.536 189.046 319.366 189.215 319.267C196.233 314.929 207.472 302.352 213.303 294.946C219.205 287.471 223.54 281.012 223.582 280.956C223.695 280.786 223.879 280.673 224.076 280.645C224.274 280.617 224.472 280.673 224.627 280.815L247.84 300.684C248.065 300.868 248.136 301.179 248.051 301.447C246.47 306.054 244.027 310.972 240.766 316.088C230.19 332.806 214.348 350.767 214.193 350.937C214.066 351.078 213.896 351.163 213.698 351.177C213.698 351.191 213.684 351.191 213.67 351.191ZM190.571 320.073C192.872 323.521 204.704 341.045 213.628 349.467C216.353 346.344 230.105 330.333 239.594 315.339C242.686 310.477 245.03 305.814 246.569 301.447L224.331 282.411C223.074 284.249 219.276 289.704 214.433 295.837C208.672 303.086 197.757 315.325 190.571 320.073Z" fill="#263238"/>
<path opacity="0.1" d="M247.388 301.221C245.722 306.111 239.862 314.477 236.883 319.168L212.23 297.617C218.217 290.029 224.176 281.352 224.176 281.352L247.388 301.221Z" fill="black"/>
<path d="M84.3908 209.321C84.2496 207.202 84.1931 204.686 84.8991 203.824C85.591 202.962 86.6076 202.425 87.5959 201.902C97.2678 196.857 106.954 191.798 116.951 187.403C117.84 187.007 118.927 186.654 119.704 187.233C120.367 187.728 120.438 188.689 120.339 189.509C120.014 192.081 118.49 194.342 116.781 196.278C114.324 199.076 111.359 201.436 108.098 203.216C106.996 203.81 105.853 204.347 104.85 205.082C103.48 206.071 102.379 207.385 101.179 208.587C100.289 209.491 99.3575 210.325 98.3692 211.116" fill="white"/>
<path d="M98.3555 211.823C98.1437 211.823 97.9461 211.738 97.8049 211.554C97.5648 211.243 97.6072 210.805 97.9178 210.565C98.878 209.802 99.8098 208.968 100.671 208.092C100.954 207.809 101.236 207.512 101.518 207.216C102.408 206.269 103.34 205.308 104.427 204.516C105.232 203.937 106.107 203.471 106.954 203.019L107.745 202.595C110.964 200.842 113.816 198.553 116.245 195.811C118.292 193.479 119.365 191.444 119.634 189.41C119.676 189.042 119.747 188.138 119.281 187.784C118.801 187.417 117.883 187.756 117.233 188.039C107.265 192.434 97.4378 197.564 87.9212 202.51C87.0034 202.99 86.0574 203.485 85.4502 204.248C85.2102 204.545 84.8431 205.591 85.0973 209.251C85.1255 209.646 84.829 209.971 84.4478 210C84.0524 210.028 83.7277 209.731 83.6994 209.35C83.4735 206.057 83.6712 204.206 84.363 203.358C85.1679 202.368 86.2974 201.775 87.2858 201.266C96.8165 196.292 106.672 191.162 116.669 186.753C117.728 186.286 119.069 185.862 120.128 186.668C120.876 187.233 121.201 188.279 121.032 189.593C120.735 191.925 119.549 194.2 117.304 196.744C114.777 199.627 111.783 202.001 108.423 203.838L107.604 204.276C106.757 204.714 105.966 205.138 105.232 205.661C104.243 206.368 103.41 207.258 102.521 208.191C102.238 208.488 101.942 208.798 101.66 209.095C100.756 210.014 99.7957 210.876 98.7791 211.681C98.6662 211.78 98.5108 211.823 98.3555 211.823Z" fill="#263238"/>
<path d="M92.792 209.42C93.5121 209.053 94.2463 208.77 94.9523 208.558C102.04 206.424 109.707 206.933 116.824 204.926C120.424 203.909 123.954 202.241 127.696 202.27C128.825 202.27 130.364 202.736 130.237 204.149C130.124 205.379 129.136 206.128 128.387 206.961C127.512 207.951 126.721 208.954 125.733 209.83C123.77 211.568 121.497 212.939 119.069 213.928C115.539 215.384 111.769 215.822 108.055 216.529C104.441 217.221 100.981 218.338 97.4515 219.355C96.5902 219.609 95.6865 219.836 94.7829 220.019" fill="white"/>
<path d="M94.7971 220.726C94.4724 220.726 94.1759 220.5 94.1053 220.161C94.0347 219.779 94.2747 219.412 94.6559 219.327C95.4466 219.171 96.2797 218.959 97.268 218.677L99.4142 218.055C102.168 217.235 105.034 216.401 107.942 215.836C108.747 215.681 109.552 215.539 110.343 215.398C113.308 214.875 116.104 214.381 118.814 213.264C121.257 212.261 123.432 210.918 125.267 209.293C125.959 208.685 126.538 208.007 127.159 207.286C127.385 207.018 127.625 206.749 127.865 206.481C128.02 206.311 128.176 206.156 128.331 205.986C128.91 205.379 129.461 204.813 129.531 204.078C129.559 203.838 129.503 203.654 129.362 203.499C129.079 203.174 128.416 202.976 127.696 202.962C125.126 202.934 122.655 203.768 120.043 204.644C119.04 204.983 118.024 205.322 117.007 205.605C113.477 206.594 109.778 206.99 106.22 207.371C102.535 207.753 98.7223 208.163 95.1501 209.237C94.4724 209.434 93.7946 209.717 93.1028 210.056C92.7498 210.226 92.3262 210.085 92.1568 209.745C91.9873 209.392 92.1285 208.968 92.4674 208.799C93.2298 208.417 93.9923 208.106 94.7406 207.88C98.44 206.764 102.323 206.354 106.065 205.958C109.58 205.591 113.209 205.209 116.626 204.248C117.614 203.965 118.603 203.64 119.591 203.315C122.189 202.453 124.844 201.563 127.696 201.563C128.246 201.563 129.602 201.676 130.407 202.552C130.816 203.004 131 203.57 130.943 204.22C130.83 205.449 130.054 206.269 129.362 206.99C129.221 207.145 129.065 207.286 128.938 207.442C128.698 207.71 128.472 207.965 128.246 208.233C127.625 208.954 126.976 209.703 126.227 210.381C124.279 212.119 121.963 213.547 119.365 214.607C116.513 215.78 113.506 216.303 110.597 216.825C109.806 216.967 109.001 217.108 108.211 217.264C105.373 217.815 102.549 218.648 99.8237 219.454L97.6775 220.09C96.6609 220.387 95.7714 220.599 94.9524 220.768C94.8959 220.726 94.8536 220.726 94.7971 220.726Z" fill="#263238"/>
<path d="M91.4365 219.341C92.9897 218.126 94.8393 217.221 96.3501 216.924C99.7247 216.246 103.198 216.698 106.615 216.967C112.588 217.447 118.603 217.391 124.561 216.811C125.535 216.712 126.538 216.613 127.484 216.882C133.033 218.465 125.549 223.849 123.446 224.768C115.214 228.329 105.471 228.513 96.6608 228.301" fill="white"/>
<path d="M101.066 229.05C99.5978 229.05 98.1153 229.021 96.661 228.993C96.2656 228.979 95.9691 228.654 95.9691 228.272C95.9832 227.877 96.2938 227.608 96.6892 227.58C105.768 227.806 115.256 227.537 123.177 224.103C124.858 223.369 128.896 220.33 128.797 218.677C128.769 218.196 128.261 217.815 127.3 217.546C126.51 217.32 125.634 217.405 124.702 217.49C118.645 218.083 112.56 218.126 106.559 217.645L105.217 217.532C102.323 217.278 99.3154 217.023 96.4915 217.589C95.0654 217.871 93.3005 218.747 91.8744 219.864C91.5638 220.104 91.1261 220.048 90.886 219.751C90.646 219.44 90.7025 219.002 90.999 218.762C92.6086 217.49 94.5571 216.543 96.2091 216.204C99.2448 215.596 102.337 215.865 105.33 216.119L106.672 216.232C112.588 216.712 118.589 216.656 124.491 216.076C125.578 215.978 126.623 215.865 127.668 216.161C129.658 216.727 130.124 217.772 130.181 218.564C130.364 221.447 124.9 224.867 123.714 225.375C116.866 228.385 108.917 229.05 101.066 229.05Z" fill="#263238"/>
<path d="M101.759 228.752C101.759 228.752 113.506 244.227 104.95 259.122L101.759 228.752Z" fill="white"/>
<path d="M104.95 259.829C104.837 259.829 104.71 259.8 104.597 259.73C104.258 259.532 104.145 259.108 104.342 258.769C112.56 244.467 101.321 229.332 101.208 229.177C100.968 228.866 101.038 228.428 101.349 228.187C101.66 227.947 102.097 228.018 102.337 228.329C102.465 228.484 114.269 244.354 105.585 259.475C105.43 259.701 105.19 259.829 104.95 259.829Z" fill="#263238"/>
<path d="M146.051 294.664C146.051 294.664 141.406 302.21 126.693 308.089C119.718 310.873 110.47 313.275 98.3694 314.307L94.0488 283.923C94.0488 283.923 103.495 285.633 117.276 279.783C121.737 277.889 126.651 275.204 131.847 271.403L146.051 294.664Z" fill="white"/>
<path d="M98.3554 315.014C98.0024 315.014 97.7059 314.759 97.6636 314.406L93.343 284.022C93.3147 283.796 93.3853 283.57 93.5548 283.415C93.7242 283.259 93.9501 283.189 94.176 283.231C94.2749 283.245 103.608 284.814 117.007 279.133C121.879 277.069 126.722 274.271 131.438 270.837C131.593 270.724 131.805 270.668 131.988 270.71C132.186 270.753 132.355 270.866 132.454 271.035L146.673 294.282C146.814 294.508 146.814 294.791 146.673 295.017C146.475 295.328 141.731 302.832 126.976 308.739C118.885 311.975 109.298 314.081 98.4543 314.999C98.3978 315.014 98.3837 315.014 98.3554 315.014ZM94.8679 284.757L98.9626 313.558C109.397 312.611 118.631 310.562 126.425 307.453C138.935 302.45 144.089 296.19 145.204 294.65L131.621 272.448C127.018 275.741 122.288 278.44 117.53 280.461C106.079 285.308 97.6212 285.026 94.8679 284.757Z" fill="#263238"/>
<path opacity="0.1" d="M146.051 294.664C146.051 294.664 141.406 302.21 126.693 308.089L117.275 279.783C121.737 277.889 126.651 275.204 131.847 271.403L146.051 294.664Z" fill="black"/>
<path d="M362.603 136.373C362.603 136.373 366.048 138.097 369.479 132.246C372.924 126.395 375.889 110.37 368.35 108.999C358.127 104.011 354.682 111.246 354.682 111.246L348.497 88.8753C348.497 88.8753 346.775 68.2145 333.7 69.9386C320.625 71.6627 313.057 86.1196 313.057 86.1196L277.631 87.4904L276.601 107.459C276.601 107.459 270.755 103.332 269.033 108.49C267.31 113.649 267.31 130.861 281.754 136.373C281.754 136.373 287.43 162.022 304.713 176.041L313.199 176.535L311.335 196.617C311.335 196.617 316.841 209.703 331.286 214.169C345.73 218.648 359.101 190.484 359.101 190.484C359.101 190.484 359.412 155.634 362.603 136.373Z" fill="white"/>
<path d="M288.08 90.656C294.448 94.4575 301.254 97.7784 308.568 98.9655C315.882 100.153 323.831 99.0079 329.761 94.5705C329.761 99.333 329.832 104.604 331.131 109.183C332.43 113.776 335.211 118.157 339.461 120.291C339.913 125.986 340.45 131.667 340.901 137.362C341.283 142.153 341.494 148.356 339.602 152.78C337.273 158.192 334.237 162.531 329.507 166.035C324.847 169.484 320.993 170.77 314.201 175.264C313.721 175.589 313.961 176.762 314.357 176.338C314.357 176.338 323.21 176.14 332.345 169.187C332.345 169.187 344.022 191.911 344.332 209.279L359.087 190.455C359.087 190.455 358.212 150.321 363.253 136.076C363.253 136.076 370.51 136.358 372.402 122.778C374.294 109.197 366.091 107.939 366.091 107.939C366.091 107.939 338.021 66.5894 331.074 70.3767C324.17 74.1923 288.08 90.656 288.08 90.656Z" fill="#C92B28"/>
<path opacity="0.5" d="M288.08 90.656C294.448 94.4575 301.254 97.7784 308.568 98.9655C315.882 100.153 323.831 99.0079 329.761 94.5705C329.761 99.333 329.832 104.604 331.131 109.183C332.43 113.776 335.211 118.157 339.461 120.291C339.913 125.986 340.45 131.667 340.901 137.362C341.283 142.153 341.494 148.356 339.602 152.78C337.273 158.192 334.237 162.531 329.507 166.035C324.847 169.484 320.993 170.77 314.201 175.264C313.721 175.589 313.961 176.762 314.357 176.338C314.357 176.338 323.21 176.14 332.345 169.187C332.345 169.187 344.022 191.911 344.332 209.279L359.087 190.455C359.087 190.455 358.212 150.321 363.253 136.076C363.253 136.076 370.51 136.358 372.402 122.778C374.294 109.197 366.091 107.939 366.091 107.939C366.091 107.939 338.021 66.5894 331.074 70.3767C324.17 74.1923 288.08 90.656 288.08 90.656Z" fill="white"/>
<path d="M280.639 135.595C280.582 135.595 280.526 135.595 280.484 135.581C273.876 134.041 269.343 129.052 267.705 121.548C266.209 114.666 267.536 107.162 269.64 105.537C270.388 104.957 271.249 104.745 272.195 104.901C275.344 105.438 278.436 110.172 278.563 110.384C278.775 110.709 278.676 111.147 278.351 111.359C278.027 111.571 277.589 111.472 277.377 111.147C276.587 109.918 274.059 106.653 271.955 106.3C271.405 106.201 270.939 106.328 270.501 106.653C269.117 107.727 267.606 114.454 269.089 121.237C270.162 126.155 273.057 132.387 280.808 134.196C281.19 134.281 281.43 134.663 281.331 135.044C281.246 135.369 280.964 135.595 280.639 135.595Z" fill="#263238"/>
<path d="M376.214 217.97C376.2 218.055 376.186 218.111 376.186 218.111C373.009 222.351 369.507 226.181 365.963 229.601V229.615C365.384 230.166 364.805 230.717 364.226 231.24C352.154 242.376 340.025 248.664 338.359 249.47C338.218 249.555 338.162 249.583 338.162 249.583L331.893 211.936C331.893 211.936 331.907 211.922 331.963 211.907C346.055 203.471 351.858 196.08 355.486 192.052L355.952 191.557C356.912 190.498 358.579 188.957 359.087 188.166C360.809 185.495 360.471 186.654 360.471 186.654L359.341 181.298L358.748 178.556C358.974 178.655 359.186 178.754 359.383 178.867C376.242 191.105 376.581 215.794 376.214 217.97Z" fill="white"/>
<path d="M338.147 250.29C338.034 250.29 337.921 250.261 337.823 250.205C337.625 250.106 337.484 249.908 337.441 249.696L331.172 212.049C331.13 211.823 331.201 211.611 331.356 211.441C331.441 211.356 331.61 211.257 331.709 211.229C332.768 210.65 345.715 201.549 354.074 192.49C354.583 191.939 355.119 191.374 355.656 190.794C357.83 188.477 360.061 186.088 361.529 184.039C361.755 183.714 362.193 183.644 362.518 183.87C362.842 184.096 362.913 184.534 362.687 184.859C361.162 186.993 358.889 189.409 356.686 191.755C356.15 192.335 355.613 192.9 355.105 193.451C347.17 202.043 335.126 210.692 332.627 212.303L338.642 248.438C342.906 245.824 354.385 238.56 363.732 230.689C364.325 230.194 364.904 229.699 365.469 229.191C370.524 224.767 373.912 220.924 375.522 217.772C376.101 215.469 373.842 191.953 359.496 179.673C359.2 179.418 359.171 178.966 359.426 178.669C359.68 178.372 360.131 178.344 360.428 178.599C375.508 191.515 377.513 215.61 376.877 218.14C376.877 218.154 376.835 218.309 376.835 218.323C375.098 221.743 371.611 225.714 366.415 230.265C365.836 230.773 365.243 231.282 364.65 231.777C354.667 240.185 342.27 247.901 338.712 250.063C338.543 250.162 338.458 250.205 338.458 250.205C338.359 250.261 338.246 250.29 338.147 250.29Z" fill="#263238"/>
<path d="M331.878 211.95L315.26 249.597C315.26 249.597 297.751 226.138 297.243 206.622C299.785 196.094 302.524 190.229 313.368 183.855L312.153 191.444C312.168 191.43 314.158 209.42 331.878 211.95Z" fill="white"/>
<path d="M315.274 250.29C315.048 250.29 314.822 250.176 314.695 249.979C314.54 249.738 298.5 226.11 296.565 206.679C296.565 206.608 296.565 206.551 296.58 206.481C300.166 187.092 312.21 183.898 312.718 183.771C313.085 183.686 313.481 183.912 313.565 184.279C313.664 184.661 313.424 185.043 313.057 185.142C312.944 185.17 301.408 188.293 297.977 206.65C299.686 223.382 312.055 243.337 315.161 248.127L331.017 212.204C328.702 210.522 318.592 202.736 310.374 189.494C310.163 189.169 310.276 188.731 310.6 188.519C310.925 188.321 311.363 188.42 311.575 188.745C320.696 203.442 332.175 211.286 332.288 211.37C332.57 211.568 332.683 211.936 332.542 212.246L315.923 249.894C315.825 250.134 315.599 250.29 315.344 250.318C315.316 250.29 315.288 250.29 315.274 250.29Z" fill="#263238"/>
<path opacity="0.12" d="M376.214 217.8C376.2 217.885 376.186 217.942 376.186 217.942C374.364 221.503 370.524 225.573 365.977 229.572C365.977 229.544 365.963 229.488 365.963 229.459V229.445C363.817 210.848 354.625 192.985 354.625 192.985L360.103 186.626L359.383 178.712C374.166 192.292 376.581 215.624 376.214 217.8Z" fill="black"/>
<path d="M312.338 191.812C312.281 191.812 312.211 191.798 312.154 191.784C311.773 191.685 311.561 191.289 311.66 190.922C313.524 184.138 312.521 176.705 312.521 176.634C312.465 176.253 312.733 175.885 313.128 175.843C313.495 175.786 313.877 176.055 313.919 176.451C313.961 176.762 314.964 184.237 313.03 191.317C312.931 191.614 312.648 191.812 312.338 191.812Z" fill="#263238"/>
<path d="M359.708 188.166C359.327 188.166 359.016 187.869 359.002 187.488C357.449 154.9 362.546 136.104 362.603 135.92C362.702 135.539 363.097 135.327 363.478 135.426C363.859 135.525 364.071 135.92 363.972 136.302C363.916 136.486 358.875 155.083 360.428 187.431C360.443 187.827 360.146 188.152 359.751 188.166C359.722 188.166 359.722 188.166 359.708 188.166Z" fill="#263238"/>
<path d="M306.478 140.287C305.645 140.287 304.783 140.132 303.936 139.934C301.607 139.383 298.811 138.436 297.865 135.92C297.201 134.196 297.667 132.034 299.107 129.999C299.602 129.307 300.166 128.671 300.703 128.049C301.395 127.258 302.058 126.509 302.581 125.661C304.826 122.015 304.19 117.379 303.273 112.56C303.202 112.179 303.456 111.811 303.837 111.741C304.233 111.67 304.586 111.925 304.656 112.306C305.588 117.21 306.294 122.34 303.781 126.41C303.202 127.357 302.468 128.19 301.762 128.996C301.225 129.618 300.703 130.197 300.251 130.833C299.7 131.61 298.486 133.603 299.178 135.426C299.898 137.319 302.27 138.097 304.261 138.563C305.574 138.874 307.057 139.143 308.13 138.478C308.454 138.28 308.892 138.379 309.104 138.704C309.316 139.029 309.203 139.468 308.878 139.68C308.144 140.132 307.325 140.287 306.478 140.287Z" fill="#263238"/>
<path d="M297.328 115.034C297.441 117.676 296.382 119.867 294.97 119.937C293.544 119.994 292.302 117.902 292.189 115.26C292.076 112.617 293.135 110.427 294.547 110.356C295.959 110.299 297.201 112.391 297.328 115.034Z" fill="#263238"/>
<path d="M326.359 114.341C326.472 116.984 325.413 119.174 324.001 119.245C322.575 119.301 321.332 117.21 321.219 114.567C321.106 111.924 322.165 109.734 323.577 109.663C324.989 109.607 326.232 111.698 326.359 114.341Z" fill="#263238"/>
<path d="M313.1 150.674C309.246 150.674 306.182 149.544 305.532 149.12C305.207 148.908 305.123 148.47 305.349 148.144C305.56 147.819 305.998 147.735 306.323 147.947C306.676 148.187 311.321 150.01 316.559 148.922C320.555 148.102 323.789 145.813 326.175 142.138C326.387 141.813 326.824 141.714 327.149 141.926C327.474 142.138 327.573 142.577 327.361 142.902C324.749 146.915 321.205 149.402 316.8 150.307C315.529 150.575 314.286 150.674 313.1 150.674Z" fill="#263238"/>
<path d="M313.608 100.223C313.397 100.223 313.185 100.124 313.044 99.9407C312.818 99.6298 312.874 99.1775 313.199 98.9514C319.355 94.4151 323.577 94.2455 329.945 98.259C330.27 98.4709 330.368 98.909 330.171 99.2341C329.959 99.5732 329.521 99.658 329.196 99.4602C323.309 95.7435 319.765 95.8848 314.046 100.096C313.905 100.167 313.764 100.223 313.608 100.223Z" fill="#263238"/>
<path d="M287.628 102.739C287.473 102.739 287.303 102.682 287.176 102.569C286.88 102.315 286.838 101.877 287.092 101.58C290.198 97.8914 296.142 97.1141 300.096 99.8557C300.421 100.082 300.491 100.52 300.265 100.845C300.039 101.17 299.602 101.241 299.277 101.015C295.902 98.6686 290.805 99.3328 288.151 102.484C288.024 102.654 287.826 102.739 287.628 102.739Z" fill="#263238"/>
<path d="M308.935 176.988C306.351 176.988 304.755 176.761 304.614 176.747C304.501 176.733 304.374 176.677 304.29 176.606C303.908 176.309 294.759 169.144 287.445 154.306C274.991 129.052 277.378 92.5496 277.406 92.1822C277.434 91.7865 277.773 91.4897 278.154 91.5321C278.55 91.5604 278.832 91.8995 278.804 92.2811C278.775 92.6485 276.418 128.77 288.702 153.684C295.366 167.208 303.795 174.387 304.996 175.377C306.125 175.504 312.267 176.097 319.722 174.274C328.858 172.041 337.513 164.891 343.189 159.28C343.471 159.012 343.909 159.012 344.191 159.28C344.46 159.563 344.46 160.001 344.191 160.284C338.402 166.021 329.521 173.342 320.075 175.645C315.656 176.719 311.731 176.988 308.935 176.988Z" fill="#263238"/>
<path d="M343.697 160.481C343.584 160.481 343.457 160.453 343.358 160.397C343.019 160.213 342.892 159.775 343.09 159.436C350.079 146.915 351.618 138.902 351.632 138.817C351.703 138.436 352.084 138.181 352.451 138.252C352.832 138.323 353.086 138.69 353.016 139.072C352.959 139.411 351.434 147.367 344.318 160.128C344.191 160.354 343.951 160.481 343.697 160.481Z" fill="#263238"/>
<path d="M362.476 136.853C358.48 136.853 357.11 134.437 357.04 134.309C356.856 133.97 356.983 133.532 357.322 133.348C357.661 133.165 358.085 133.292 358.282 133.631C358.339 133.744 359.934 136.387 365.215 135.073C368.491 134.253 372.345 125.279 372.458 118.213C372.501 115.486 371.993 110.752 368.166 109.678C359.412 107.219 354.809 120.093 354.767 120.234C354.64 120.601 354.23 120.799 353.863 120.672C353.496 120.545 353.298 120.135 353.425 119.768C353.482 119.626 358.508 105.509 368.533 108.321C372.035 109.31 373.927 112.829 373.856 118.241C373.743 125.519 369.903 135.355 365.554 136.443C364.382 136.726 363.365 136.853 362.476 136.853Z" fill="#263238"/>
<path d="M356.094 117.125C355.021 119.4 350.841 117.393 349.302 115.401C347.763 113.408 347.777 110.37 349.331 108.391C346.069 107.445 342.398 105.961 340.986 102.866C340.294 101.34 340.266 99.6155 340.379 97.9479C340.661 93.4116 341.819 88.8894 341.311 84.3672C340.816 79.845 338.049 75.0967 333.587 74.2629C333.587 74.2629 318.084 102.103 288.758 90.8679C288.758 90.8679 275.683 97.1142 269.753 86.4022C263.808 75.7044 271.828 64.3989 288.461 57.2764C288.461 57.2764 278.069 56.9796 278.366 51.6236C278.662 46.2677 303.908 44.7838 321.727 48.656C321.727 48.656 319.623 39.2724 341.607 41.9574C363.591 44.6284 370.708 50.8323 373.404 66.1936C389.515 74.9836 371.414 111.204 371.414 111.204C371.414 111.204 362.885 102.682 356.094 117.125Z" fill="#263238"/>
<path d="M275.895 86.8687C275.895 86.8687 270.29 95.4891 274.173 106.06L278.691 113.182L277.985 89.1721L275.895 86.8687Z" fill="#263238"/>
<path d="M372.006 69.0342C371.936 69.0342 371.865 69.0201 371.78 69.0059C371.413 68.8787 371.201 68.483 371.329 68.1156C377.315 49.8148 364.537 41.2085 364 40.8411C363.676 40.6291 363.577 40.191 363.789 39.866C364 39.541 364.438 39.442 364.763 39.654C364.904 39.7529 378.995 49.193 372.67 68.5396C372.571 68.8505 372.303 69.0342 372.006 69.0342Z" fill="#263238"/>
<path d="M283.759 83.2792C279.241 83.2792 275.104 82.0073 271.984 79.5625C271.673 79.3222 271.617 78.8841 271.857 78.5732C272.097 78.2623 272.534 78.2058 272.845 78.4602C277.208 81.8942 283.816 82.8128 290.509 80.9191C296.298 79.2798 301.55 75.9306 306.619 72.6944L307.297 72.2563C312.945 68.6527 318.536 65.3034 324.749 63.9609C332.331 62.3216 340.393 63.8478 346.86 68.1439C350.008 70.2354 351.675 72.5813 351.788 75.0968C351.802 75.4925 351.505 75.8175 351.11 75.8317C350.686 75.874 350.39 75.549 350.376 75.1533C350.277 73.1042 348.837 71.1399 346.083 69.3169C340.026 65.2893 332.147 63.8054 325.045 65.3317C319.058 66.6318 313.806 69.7691 308.059 73.4292L307.382 73.8673C302.228 77.16 296.891 80.5658 290.89 82.2617C288.49 82.9541 286.075 83.2792 283.759 83.2792Z" fill="white"/>
<path d="M356.927 66.9992C356.617 66.9992 356.334 66.8014 356.25 66.4763C354.88 61.5867 350.588 57.3189 345.053 55.3263C340.196 53.5739 334.322 53.3478 327.107 54.6338C324.311 55.1284 321.473 55.8068 318.748 56.4568C315.571 57.2199 312.267 57.9972 308.977 58.5059C304.064 59.2832 297.456 59.2549 293.996 54.761C293.756 54.4501 293.813 54.012 294.123 53.7718C294.434 53.5315 294.872 53.5881 295.112 53.899C298.147 57.8559 304.219 57.8276 308.751 57.121C311.999 56.6123 315.26 55.835 318.423 55.086C321.177 54.436 324.029 53.7576 326.867 53.2489C334.336 51.9346 340.436 52.1749 345.533 54.012C351.491 56.1601 356.122 60.7812 357.619 66.1089C357.718 66.4905 357.506 66.872 357.125 66.9851C357.054 66.9992 356.998 66.9992 356.927 66.9992Z" fill="white"/>
<path d="M517.933 487.861H40.2112C37.5426 487.861 35.3682 485.684 35.3682 483.014C35.3682 480.343 37.5426 478.166 40.2112 478.166H517.933C520.601 478.166 522.776 480.343 522.776 483.014C522.776 485.699 520.615 487.861 517.933 487.861Z" fill="#263238"/>
<path d="M515.278 483.72H40.8749C40.4796 483.72 40.1689 483.409 40.1689 483.013C40.1689 482.618 40.4796 482.307 40.8749 482.307H515.278C515.674 482.307 515.984 482.618 515.984 483.013C515.984 483.409 515.674 483.72 515.278 483.72Z" fill="white"/>
<path d="M82.2012 493.366C89.0688 485.924 88.6085 474.319 81.173 467.445C73.7375 460.572 62.1425 461.032 55.2748 468.474C48.4072 475.916 48.8675 487.521 56.303 494.395C63.7385 501.269 75.3335 500.808 82.2012 493.366Z" fill="white"/>
<path d="M68.7177 500C58.2269 500 49.6846 491.45 49.6846 480.95C49.6846 470.45 58.2269 461.9 68.7177 461.9C79.2086 461.9 87.7509 470.45 87.7509 480.95C87.7509 491.45 79.2086 500 68.7177 500ZM68.7177 463.299C59.0035 463.299 51.0965 471.213 51.0965 480.936C51.0965 490.659 59.0035 498.573 68.7177 498.573C78.432 498.573 86.339 490.659 86.339 480.936C86.339 471.213 78.432 463.299 68.7177 463.299Z" fill="#263238"/>
<path d="M78.4043 480.95C78.4043 486.306 74.0696 490.645 68.7183 490.645C63.3669 490.645 59.0322 486.306 59.0322 480.95C59.0322 475.594 63.3669 471.256 68.7183 471.256C74.0696 471.256 78.4043 475.594 78.4043 480.95Z" fill="#F8221E"/>
<path d="M68.7182 491.351C62.9856 491.351 58.3262 486.688 58.3262 480.95C58.3262 475.213 62.9856 470.549 68.7182 470.549C74.4507 470.549 79.1102 475.213 79.1102 480.95C79.1102 486.674 74.4507 491.351 68.7182 491.351ZM68.7182 471.948C63.7622 471.948 59.7381 475.976 59.7381 480.936C59.7381 485.896 63.7622 489.924 68.7182 489.924C73.6741 489.924 77.6982 485.896 77.6982 480.936C77.6982 475.976 73.66 471.948 68.7182 471.948Z" fill="#263238"/>
</g>
<defs>
<clipPath id="clip0_966_5202">
<rect width="530.938" height="500" fill="white" transform="translate(0.775391)"/>
</clipPath>
</defs>
</svg>
