<svg width="846" height="588" viewBox="0 0 846 588" fill="none" xmlns="http://www.w3.org/2000/svg">
<g clip-path="url(#clip0_966_11921)">
<path d="M128.08 408.12C127.51 408.51 121.57 412.56 111.19 414.38C109.24 414.72 104.63 411.71 103.34 408.39C103.17 407.96 99.23 394.75 98.67 393.48C96.97 389.63 100.55 386.61 100.55 386.61C100.55 386.61 94.95 374.97 99.63 373.68C103.91 372.5 106.83 379.14 107.26 381.28C107.95 384.73 112.29 401.29 113.96 400.76C117.99 399.48 125.88 396.66 125.88 396.66C125.88 396.66 128.8 397.16 129.75 400.28C130.36 402.23 130.55 406.46 128.08 408.12Z" fill="#3A3E3F"/>
<path d="M125.14 397.43C125.14 397.43 126.5 396.36 127.53 398.32C128.57 400.28 129.2 403.21 128.85 405.35C128.58 406.99 128.08 407.63 126.98 407.6C125.84 407.56 124.11 404.46 124.04 402.36C123.96 400.25 124.15 397.76 125.14 397.43Z" fill="#D6EAE9"/>
<path d="M124.68 398.18C124.68 398.18 128.1 395.49 128.93 395.11C131.78 393.8 134.61 395.43 138.17 392.36C141.12 394.31 136.85 397.17 134.61 396.93C134.61 396.93 139.89 399.35 142.99 399.78C145.58 400.14 145.7 399.49 146.38 399.92C147.06 400.35 147.41 402.06 146.56 403.13C144.93 405.17 141.68 406.56 138.04 406.02C134.4 405.48 129.8 403.45 129.8 403.45L124.77 403.98L124.68 398.18Z" fill="#F2C8A5"/>
<path d="M125.86 397.11C125.86 397.11 124.61 397.54 125 401.35C125.23 403.59 125.66 405.81 126.02 406.45C126.66 407.61 127.49 407.53 127.47 407.55C127.41 407.6 125.76 407.73 125.76 407.73C125.76 407.73 122.99 406.55 123.19 401.23C123.3 398.26 124.15 397.68 124.15 397.68L125.86 397.11Z" fill="white"/>
<path d="M108.25 498.66L109.46 501.44C109.46 501.44 120.96 506.2 121.66 506.59C122.47 507.02 124.24 507.79 123.97 509.33C123.9 509.7 123.91 509.93 123.67 510.26C122.8 511.41 121.11 511.89 119.55 512.11C116.15 512.61 109.11 511.38 109.11 511.38C107.05 511.07 103.66 509.95 103.29 509.63C103.29 509.63 101.53 509.05 101.19 509.67C101.07 509.89 101.21 510.94 101.22 511.14L96.87 509.21C96.65 509.09 96.32 506.92 96.26 505.96L96.6 499.64L108.25 498.66Z" fill="#231F20"/>
<path d="M121.51 511.059C120.61 511.469 119.36 511.649 118.13 511.759C113.19 512.189 105.82 510.289 105.82 510.289C105.08 510.099 102.32 509.329 102.32 509.329C102.32 509.329 101.18 509.209 101.2 509.659C101.2 509.519 101.21 509.649 101.15 509.659C101.04 509.699 101.23 511.129 101.23 511.129L102.44 510.409C102.44 510.409 105.82 511.259 106.41 511.469C106.41 511.469 113.5 513.279 118.48 512.909C120.05 512.789 122.73 511.939 123.72 510.509C123.9 510.249 124.15 509.389 123.98 508.939C123.95 509.029 122.72 510.509 121.51 511.059Z" fill="#282827"/>
<path d="M101.19 509.66L96.45 507.35C96.45 507.35 96.77 509.24 96.83 509.21L101.17 511.14C101.17 510.99 101.19 510.06 101.19 509.66Z" fill="#282827"/>
<path d="M105.39 426.57L109.75 498.43C110.1 500.88 111.52 501.68 110.84 502.54C108.29 505.76 96.9498 509.01 95.2698 503.84L89.0498 430.44L105.39 426.57Z" fill="#141413"/>
<path d="M69.7799 511.2C69.7799 511.2 69.5599 518.23 69.5399 518.4C69.2899 521.52 72.6499 529.61 77.5499 530.01C79.1499 530.14 79.6699 530.14 80.8399 529.83C82.5299 529.38 84.1899 527.34 83.6299 523.22C83.2999 520.77 80.9699 510.97 80.9699 510.97L69.7799 511.2Z" fill="#383736"/>
<path d="M69.3098 509.45C69.3098 509.45 69.6898 513.49 70.0098 518.74C70.1998 521.87 73.3498 527.59 77.5398 528.67C78.7698 528.99 79.8198 528.85 79.8898 528.84C81.7498 528.74 84.4798 527.86 83.4498 521.4C83.0798 519.09 81.5698 510.21 81.4398 510.21L69.3098 509.45Z" fill="#231F20"/>
<path d="M92.2799 431.67C91.4199 444.39 83.4899 514.05 83.4899 514.05C83.3599 515.84 78.1899 517.9 78.1899 517.9C71.8799 517.66 68.9199 513.7 68.8899 513.08L69.9299 433.38L92.2799 431.67Z" fill="#383736"/>
<path d="M80.3499 382.89C80.3499 382.89 83.6299 377.1 86.6199 375.95C89.6199 374.8 99.2599 375.32 99.2599 375.32C99.2599 375.32 104.4 386.52 104.45 387.28C104.5 388.05 102.06 408.19 102.06 408.19L89.1999 397.97L80.3499 382.89Z" fill="#D7DFE2"/>
<path d="M102 375.53C100.52 373.14 97.3799 373.01 95.2899 373.23C97.8499 375.06 101.23 381.01 101.78 389.48C102.07 393.9 101.2 404.41 101.05 404.16C100.91 403.92 92.3599 388.2 89.0499 385.19C88.5799 384.76 84.0899 376.04 84.0899 376.04C84.0899 376.04 70.0399 384.09 68.8999 386.14L67.4199 393.98L68.8999 445.66C69.0799 446.99 68.8399 447.46 70.2199 448.09C70.2199 448.09 83.1099 451.08 91.2699 450.83C97.7199 450.62 108.06 446.46 108.06 446.46C108.24 446.33 108.55 446.21 108.51 445.66L106.11 424C106.46 401.05 105.43 381.07 102 375.53Z" fill="#3D4244"/>
<path d="M102.56 448.39L100.95 422.98L101.36 405.4C101.36 405.4 100.66 403.85 100.38 403.36L100.31 422.84L101.82 448.65C101.84 448.62 102.53 448.4 102.56 448.39Z" fill="#383736"/>
<path d="M97.7498 379.85C93.1298 384.7 88.4898 378.86 85.3098 375.29L86.6298 358.24L96.9298 366.09L97.7498 379.85Z" fill="#E8C5AC"/>
<path d="M98.3699 388.13C98.2499 387.66 97.9299 387.17 98.0299 386.61L98.3599 384.91L96.0099 381.44L94.7899 381.68L94.1099 385.61L95.7799 386.94C96.1599 387.28 96.6599 387.98 96.6399 388.47L97.8499 399.6L100.83 404.29C100.83 404.29 101.9 400.87 101.86 399.61C101.69 395.19 98.3699 388.13 98.3699 388.13Z" fill="#160B01"/>
<path d="M97.5498 375.44L98.2898 373.52C98.2898 373.52 99.2298 374.02 99.4398 374.17C100.62 374.97 101.26 376.19 101.73 376.97C102.66 378.52 104.99 383.42 104.99 383.42C105.45 384.54 105.21 385.33 104.59 386.09L102.78 388.38L104.64 389.85C105.85 390.67 105.47 392.38 105.11 393.58C103.82 397.82 100.83 404.32 100.83 404.32C100.83 404.32 101.57 396.7 101.42 392.2C101.08 382.01 97.5498 375.44 97.5498 375.44Z" fill="#7A797A"/>
<path d="M95.71 380.77C95.07 381.35 95.62 382.06 96.02 382.55L98.48 385.59C99.26 386.49 99.52 385.41 99.48 384.41L99.34 377.18C98.98 373.4 97.34 373.11 97.34 373.11C97.34 373.11 97.43 374.02 97.4 375.19C97.36 376.75 97.55 379.1 95.71 380.77Z" fill="white"/>
<path d="M85.59 371.14C85.59 371.14 85.53 373.72 85.99 374.79C88.24 380.06 94.8 380.99 94.8 380.99C95.57 381.23 95.56 381.6 95.51 382.89L95.04 387.61C94.99 388.85 94.34 388.76 93.82 388.28C93.82 388.28 88.63 384.31 87.16 382.96C83.7 379.78 83.45 377.44 84.17 373.07C84.49 371.14 85.59 371.14 85.59 371.14Z" fill="white"/>
<path d="M84.23 372.57L81.72 377.54C81.72 377.54 81.26 378.17 81.42 379.47C81.53 380.39 81.99 381.66 81.99 381.66L85.13 388.18C85.67 389.73 86.27 390.22 87.47 390.24L91.72 390.49L90.41 393.54C89.96 394.52 90.32 395.04 91.16 395.6C99.83 401.41 101.32 405.23 101.32 405.23C101.32 405.23 101.34 401.03 93.96 389.37C92.08 386.39 88.86 382.18 86.57 378.76C83.6 374.34 84.23 372.57 84.23 372.57Z" fill="#7A797A"/>
<path d="M99.8299 347.74L90.4099 346.71L88.3299 363.69C88.3299 364.87 88.1599 365.92 88.2399 366.93C88.3299 368.04 88.1799 369.58 89.3899 370.72C89.3899 370.72 90.7899 371.75 92.6199 373.32C93.7599 374.3 95.1999 375.33 96.9099 376.06C98.0299 376.54 100.84 375.64 100.84 375.64C102.66 375.13 102.38 375.11 104.26 370.17C104.26 370.17 107.33 361.12 108.28 358.38C111 350.59 108.14 348.46 108.14 348.46L99.8299 347.74Z" fill="#EDC3A4"/>
<path d="M110.2 352.48C110.12 352.73 108.99 356.84 108.62 357.3C108.62 357.3 110.83 350.56 107.16 351.3C107.09 351.32 104.42 352.71 102.77 353.55C101.84 354.02 100.01 354.55 99.88 354.32C99.73 354.05 100.74 352.21 98.78 351.97C96.34 351.66 94.36 354.41 93.7 357.85C93.19 360.49 92.79 362.66 92.78 362.69C92.59 362.99 89.73 359.12 89.54 358.97C89.21 358.71 88.15 360.22 88.15 360.22C88.21 360.22 86.21 364.55 86.19 364.49C86.01 363.39 84.01 357.41 83.84 356.69C81.21 345.01 91.73 332.67 108.9 346.91C110.3 348.07 111.42 348.57 110.2 352.48Z" fill="#49260A"/>
<path d="M89.05 355.7C91.74 355.28 91.66 359.42 91.66 359.42L91.3 364.04C91.3 364.04 90.96 365.72 89.86 365.72C88.58 365.71 87.78 364.76 87.24 363.18C87.21 363.09 86.39 360.86 86.36 360.72C85.8 358.76 86.37 356.12 89.05 355.7Z" fill="#EDC3A4"/>
<path d="M103.9 371.13C103.9 371.13 103.12 368.13 102.56 367.77C101.98 367.4 101.83 367.53 100.73 367.53C99.6299 367.53 98.2999 367.83 97.9199 368.02C96.1399 368.92 92.8999 373.58 92.8999 373.58L95.2899 375.35C95.2899 375.35 98.1599 370.28 99.0199 369.6C99.6499 369.11 101.55 368.9 102.02 369.54C102.69 370.46 103.3 372.78 103.3 372.78L103.9 371.13Z" fill="#49260A"/>
<path d="M88.26 364.16C88.26 364.16 87.46 367.52 87.46 368.93C87.46 370.33 88.44 371.2 90.33 372.96C92.48 374.98 94.58 376.7 95.77 377.05C97.78 377.66 101.62 376.83 102.43 375.71C102.81 375.19 103.44 372.31 103.44 372.31C103.44 372.31 102.35 374.44 101.64 374.26C101.18 374.14 101.01 373.47 101.01 373.47C101.01 373.47 100.86 372.52 100 373.5C99.33 374.27 98.91 374.71 98.67 374.75C96.81 375.08 95.03 374.06 93.26 372.74C91.2 371.19 88.97 368.59 88.85 367.76C88.67 366.57 88.26 364.16 88.26 364.16Z" fill="#49260A"/>
<path d="M99.6201 421.89C99.0501 422.28 93.1101 426.33 82.7301 428.15C80.7801 428.49 76.1701 425.47 74.8801 422.16C74.7101 421.73 69.5701 406.56 69.0901 405.25C64.6001 392.81 65.8001 386.42 70.4901 385.14C74.7701 383.96 77.2601 390.91 77.6901 393.05C78.3801 396.5 83.8301 415.05 85.5101 414.52C89.5401 413.24 97.4301 410.42 97.4301 410.42C97.4301 410.42 100.35 410.92 101.3 414.04C101.89 416 102.08 420.23 99.6201 421.89Z" fill="#3A3E3F"/>
<path d="M96.6701 411.21C96.6701 411.21 98.0301 410.14 99.0601 412.1C100.1 414.06 100.73 416.99 100.38 419.13C100.11 420.77 99.6101 421.41 98.5101 421.38C97.3701 421.34 95.6401 418.24 95.5701 416.14C95.5001 414.02 95.6801 411.53 96.6701 411.21Z" fill="#D6EAE9"/>
<path d="M96.21 411.95C96.21 411.95 99.63 409.26 100.45 408.88C102.55 407.92 105.59 408.56 107.8 407.42C108.79 406.91 109.69 406.13 109.69 406.13C109.69 406.13 111.58 407.38 110.19 408.88C108.29 410.93 106.13 410.7 106.13 410.7C106.13 410.7 111.41 413.13 114.51 413.55C117.1 413.91 117.22 413.27 117.9 413.69C118.58 414.12 118.93 415.83 118.08 416.9C116.45 418.94 113.19 420.33 109.56 419.79C105.92 419.25 101.32 417.22 101.32 417.22L96.29 417.75L96.21 411.95Z" fill="#F2C8A5"/>
<path d="M97.39 410.89C97.39 410.89 96.14 411.32 96.53 415.13C96.76 417.37 97.2001 419.59 97.5501 420.23C98.1901 421.39 99.02 421.31 99 421.34C98.95 421.39 97.29 421.52 97.29 421.52C97.29 421.52 94.52 420.34 94.72 415.02C94.83 412.05 95.68 411.47 95.68 411.47L97.39 410.89Z" fill="white"/>
<path d="M215.68 361.16C217.14 362.12 219.39 360.79 220.27 359.46C220.58 359 224.6 360.61 225.74 358.62C225.74 358.62 224.79 358 223.08 356.96C222.94 356.88 221.66 355.73 220.09 355.93C215.92 356.48 215.25 356.41 214.37 357.73C213.5 359.07 214.23 360.2 215.68 361.16Z" fill="#E8C5AC"/>
<path opacity="0.29" d="M277.47 368.22C276.54 370.08 277.78 372.41 283.06 374.89C291.1 378.67 301.37 383.27 308.2 376.6C312.05 372.84 316.43 367.29 322.01 364.96C327.6 362.63 322.82 356.48 305.56 353.32C281.82 348.97 277.47 368.22 277.47 368.22Z" fill="#231F20"/>
<path d="M302.71 360.89L298.19 363.29L298.14 359.98H305.33L302.71 360.89Z" fill="#231F20"/>
<path d="M304.46 351.11L306.95 353.22C306.95 353.22 318.37 358.77 319.11 359.04C319.6 359.22 320.41 359.82 320.39 360.72C320.38 361.07 320.36 361.3 320.14 361.62C319.35 362.76 317.73 363.27 316.22 363.55C312.93 364.16 305.74 362.81 305.74 362.81C304.95 362.44 300.27 361.62 299.89 361.33C299.89 361.33 298.45 361.28 298.15 361.89C298.04 362.11 298.19 363.09 298.21 363.29L293.91 361.61C293.69 361.5 293.26 359.44 293.14 358.53L292.36 352.44L304.46 351.11Z" fill="#231F20"/>
<path d="M320.16 361.121C319.13 362.421 317.59 362.901 316.08 363.201C311.16 364.191 304.3 361.681 304.3 361.681C302.24 360.961 300.17 360.531 299.55 360.581C299.55 360.581 298.06 360.731 298.12 361.851C298.13 362.081 298.03 361.921 298.07 362.171C298.07 362.041 298.07 361.931 298.1 361.871C298.4 361.271 299.24 361.361 299.24 361.361C300.23 361.361 300.72 361.491 303.63 362.351C303.63 362.351 310.37 364.871 315.21 364.341C316.74 364.171 319.31 363.261 320.21 361.851C320.37 361.601 320.55 361.001 320.36 360.581C320.33 360.661 320.21 361.061 320.16 361.121Z" fill="#60605D"/>
<path d="M298.25 361.381L293.39 359.851C293.39 359.851 293.8 361.651 293.86 361.611L298.21 363.281C298.19 363.151 298.27 361.761 298.25 361.381Z" fill="#60605D"/>
<path d="M288.12 370.44L284.39 372.35V369.03L288.12 370.44Z" fill="#282827"/>
<path d="M307.48 274.17C307.48 274.17 307.96 301.97 308.02 308.84C308.08 316.94 307.98 351.11 307.98 351.11C307.98 353.7 308.28 354.27 307.42 355.03C304.22 357.89 293.97 362.66 292.96 357.04L285.59 281.46L307.48 274.17Z" fill="#141413"/>
<path d="M292.52 361.53L300.07 367.87C300.07 367.87 303.88 370.93 305.29 371.75C305.92 372.12 306.37 372.93 306.41 373.73C306.44 374.24 306.31 374.74 305.96 375.11C305.08 376.05 303.26 376.78 301.76 377.13C297.32 378.14 292.82 375.38 292.82 375.38C292.08 374.91 287.07 371.68 286.71 371.38C285.67 370.54 284.72 370.21 284.34 370.78C284.34 370.78 284.39 372.16 284.39 372.36L280.19 369.47C280.19 369.47 279.92 367.91 279.92 366.98V360.84L292.52 361.53Z" fill="#231F20"/>
<path d="M306.41 373.93C305.5 375.33 303.21 376.06 301.72 376.45C296.5 377.84 292.68 374.74 292.68 374.74C291.25 373.85 287.24 371.3 286.83 371.08C286.83 371.08 284.51 369.34 284.38 370.7C284.36 370.93 284.32 370.98 284.33 371.24C284.34 371.11 284.42 371.01 284.44 370.95C284.73 370.06 287.06 371.77 287.06 371.77C287.39 372.11 291.95 375.2 292.69 375.67C292.69 375.67 296.95 378.94 301.9 377.46C303.37 377.02 305.24 376.44 306.14 375.04C306.4 374.65 306.45 373.86 306.41 373.93Z" fill="#60605D"/>
<path d="M284.39 370.69C284.39 370.69 282.4 369.59 281.72 369.25C280.14 368.45 279.94 367.86 279.94 367.86C279.94 367.86 280.07 369.61 280.14 369.59C280.14 369.59 280.19 370.08 281.1 370.62C281.92 371.11 284.4 372.35 284.4 372.35V370.69H284.39Z" fill="#60605D"/>
<path d="M297 277.4C297 277.4 296.48 311.03 296.46 317.72C296.43 327.16 296.61 362.47 296.61 362.47C296.59 364.33 295.77 364.92 294.26 365.72C285.06 370.58 280.35 366.74 280.35 366.74C279.61 366.32 279.67 365.82 279.61 365.18C279.61 365.18 276.66 321.46 274.69 294.07C274.53 291.87 274.42 279.56 274.42 279.56L297 277.4Z" fill="#383736"/>
<path d="M350.13 258.23C349.56 262.85 346.22 264.43 346.22 264.43C346.22 264.43 326.92 258.32 320.38 254.27C314.89 250.87 306.98 243.08 306.98 243.08C306.98 243.08 297.65 235.58 300.45 230C302.05 226.81 306.44 222.81 312.16 228.09C314.79 230.52 322.87 241.71 327.48 245.1C332.3 248.64 349.37 254.71 349.37 254.71C349.37 254.71 350.37 256.27 350.13 258.23Z" fill="#141413"/>
<path d="M290.53 228.43C290.53 228.43 294.94 224.05 297.93 223.77C300.92 223.49 309.46 226.4 309.46 226.4C309.46 226.4 311.26 237.77 311.12 238.47C310.97 239.17 306.6 276.07 306.6 276.07C306.6 276.07 305.46 279.09 300.95 280.2C296.76 281.22 290.51 282.64 284.43 280.13C278.77 277.79 290.53 228.43 290.53 228.43Z" fill="#EDEDED"/>
<path d="M305.68 229.93C300.3 233.12 298.21 227.59 296.25 223.58L298.67 211.52L308.56 217.32L305.68 229.93Z" fill="#E8C5AC"/>
<path d="M304.17 205.97C306.62 206.49 306.39 208.9 306.39 208.9L305.35 213.82C305.35 213.82 305 214.86 304.04 214.86C302.59 214.85 302.24 213.5 301.9 212.03C301.88 211.95 301.51 209.8 301.48 209.67C301.16 207.84 301.85 205.47 304.17 205.97Z" fill="#FFE8D9"/>
<path d="M296.93 261.631C296.99 254.361 298.95 235.401 296.94 232.311C294.05 227.871 294.33 224.751 294.42 224.771C295.22 224.391 277.53 229.65 277.36 232.18L272.32 285.691C272.17 286.861 272.6 287.7 273.39 288.49C273.39 288.49 276.29 291.881 281.1 293.541C284.04 294.551 289.45 295.251 293.31 294.251L296.93 261.631Z" fill="#282827"/>
<path d="M312.6 228.65C311.98 227.06 306.89 223.79 306.39 223.51C308.24 225.8 309.71 234.53 308.66 241.01C308.2 243.84 308.07 257.16 306.91 260.06L305.35 291.21C307.02 290.42 310.31 287.35 310.31 287.35C311.63 285.68 311.58 283.7 311.88 282.28L312.89 253.48C313.45 245.49 313.83 231.8 312.6 228.65Z" fill="#282827"/>
<path d="M304.59 237.37C304.57 236.92 304.63 236.59 304.82 236.1L305.45 234.6L303.97 230.75L302.84 230.73L301.44 234.43L302.58 236.18C302.86 236.57 303.02 237.45 302.9 237.9C302.9 237.9 302.24 253.08 299.27 268.6C298.96 270.25 302.23 275.7 302.23 275.7C302.23 275.7 304.83 270.47 305.3 268.45C306.99 261.09 304.59 237.37 304.59 237.37Z" fill="#FF5E48"/>
<path d="M307.52 225.81L309.03 224.52C309.03 224.52 309.76 225.2 309.9 225.39C310.39 226.03 310.87 228.16 310.87 228.16L312.56 235.11C312.69 236.24 312.71 236.78 312.03 237.63L309.94 239.47L311.37 241.79C312.3 243.27 311.91 244.12 311.36 245.56L306.92 260.05C306.92 260.05 308.01 248.41 308.41 243.59C309.31 232.82 307.52 225.81 307.52 225.81Z" fill="#7A797A"/>
<path d="M304 230.22C303.28 230.58 303.6 231.36 303.83 231.9L305.27 235.25C305.74 236.26 306.26 235.35 306.47 234.44L307.88 227.81C308.38 223.58 306.9 223.8 306.9 223.8C306.9 223.8 306.62 224.13 306.51 225C306.32 226.44 306.47 229 304 230.22Z" fill="white"/>
<path d="M296.87 220.64C296.87 220.64 296.5 221.32 296.75 222.38C297.79 226.69 303.1 230.18 303.1 230.18C303.73 230.59 303.63 230.92 303.27 232.07L301.65 236.2C301.3 237.3 300.73 237.06 300.39 236.5C300.39 236.5 296.72 231.62 295.74 230.03C293.43 226.3 293.31 226.47 295.3 222.83C296.51 220.63 296.87 220.64 296.87 220.64Z" fill="white"/>
<path d="M295.24 222.81L293.1 224.49C293.1 224.49 292.46 225.01 292.31 225.22C291.8 225.91 292.02 226.83 292.02 226.83L292.19 234.84C292.28 236.37 292.42 236.92 293.47 237.35L296.58 239.26L294.14 242.34C293.21 243.47 293.55 244.55 293.74 245.73L296.77 262.89C296.77 262.89 299.53 245.02 297.48 233.58C296.71 229.29 295.24 222.81 295.24 222.81Z" fill="#7A797A"/>
<path d="M309.81 199.51L300.18 198.58L298.31 215.47C298.32 216.67 298.14 217.4 298.23 218.43C298.33 219.56 298.73 220.64 299.98 221.79C299.98 221.79 306.53 226.99 308.51 227.39C309.7 227.63 311.2 227.46 312.46 225.97C313.06 225.26 312.92 225.64 314.59 223.05C315.59 221.52 316.23 219.96 316.43 218.96L318.31 208.03L319.43 201.43L309.81 199.51Z" fill="#FFE1CC"/>
<path d="M320.11 198.7C320.98 199.83 320.55 199.65 319.24 203.87C319.15 204.18 318.8 205.14 318.8 205.08C319.02 202.06 318.43 200.72 317.37 201.49C314.97 203.22 312.07 205.6 310.85 206.59C309.93 207.34 309.18 206.72 308.27 205.89C307.31 205.02 307.09 204.74 306.66 204.69C304.39 204.43 304.45 206.66 303.9 208.84L303.22 211.09C301.95 212.96 301.31 211.42 301.17 210.56C301.17 210.56 301.25 208.78 299.05 208.87C297.17 208.95 298.12 213.41 298.2 213.65C298.2 213.65 297.57 219.29 297.23 218.33C295.89 214.55 294.48 210.77 294.13 209.61C290.2 196.66 300.93 188.11 312.59 192.98C314.78 193.87 320.11 198.7 320.11 198.7Z" fill="#543211"/>
<path d="M299.43 208.71C301.92 208.96 301.96 211.38 301.96 211.38L301.45 216.38C301.45 216.38 301.22 217.46 300.26 217.55C298.81 217.69 298.32 216.4 297.83 214.97C297.8 214.89 297.2 212.8 297.16 212.67C296.65 210.9 297.08 208.47 299.43 208.71Z" fill="#FFE1CC"/>
<path d="M349.5 256.21C349.5 256.21 349.54 255.03 348.77 255.34C347.99 255.65 346.04 259.48 345.93 262.13C345.88 263.35 346.02 263.46 346.46 263.55C346.74 263.61 347.39 262.89 347.39 262.89C347.39 262.89 347.55 262.9 348.22 261.23C348.89 259.56 349.5 256.21 349.5 256.21Z" fill="white"/>
<path d="M348.53 256.57C348.53 256.57 356.38 255.83 358.32 256.31C360.26 256.79 363.72 261.83 363.72 261.83C363.72 261.83 364.41 264.96 363.62 266.17C362.83 267.38 360.24 269.79 358.49 267.8C356.73 265.82 355.1 264.64 353.84 264.73C352.58 264.83 347.37 262.79 346.98 261.37C346.3 258.96 348.53 256.57 348.53 256.57Z" fill="#E8C5AC"/>
<path d="M353.84 258.3C353.84 258.3 357.52 260.45 358.12 260.85C358.72 261.25 359.94 264.11 360.19 264.57C360.48 265.12 360.7 265.31 359.99 265.61C359.45 265.84 358.44 265.77 357.59 264.6C356.74 263.43 356.31 262.94 356.31 262.94C356.31 262.94 354.51 263.25 352.91 263.08C351.31 262.91 349.34 261.95 348.98 260.72C348.5 259.07 349.97 256.63 353.84 258.3Z" fill="#EACEB5"/>
<path d="M755.03 64.6998C754.48 65.0698 748.8 68.9498 738.86 70.6898C736.99 71.0198 732.58 68.1298 731.35 64.9498C731.19 64.5398 727.41 51.8998 726.88 50.6798C725.25 46.9898 728.68 44.0998 728.68 44.0998C728.68 44.0998 723.32 32.9598 727.8 31.7298C731.9 30.5998 734.7 36.9498 735.11 38.9998C735.77 42.2998 739.92 58.1498 741.53 57.6398C745.38 56.4198 752.94 53.7098 752.94 53.7098C752.94 53.7098 755.73 54.1798 756.65 57.1798C757.21 59.0698 757.39 63.1198 755.03 64.6998Z" fill="#3A3E3F"/>
<path d="M752.21 54.4798C752.21 54.4798 753.51 53.4598 754.5 55.3298C755.49 57.2098 756.1 60.0098 755.76 62.0598C755.51 63.6298 755.03 64.2398 753.97 64.2098C752.88 64.1798 751.22 61.2098 751.15 59.1898C751.09 57.1698 751.26 54.7898 752.21 54.4798Z" fill="#D6EAE9"/>
<path d="M751.77 55.1901C751.77 55.1901 755.04 52.6201 755.83 52.2501C757.84 51.3301 760.75 51.9401 762.86 50.8501C763.81 50.3601 764.67 49.6201 764.67 49.6201C764.67 49.6201 766.48 50.8201 765.15 52.2501C763.33 54.2201 761.26 53.9901 761.26 53.9901C761.26 53.9901 766.31 56.3101 769.28 56.7201C771.76 57.0601 771.87 56.4501 772.53 56.8601C773.18 57.2701 773.52 58.9101 772.7 59.9301C771.14 61.8801 768.02 63.2101 764.54 62.7001C761.06 62.1901 756.65 60.2401 756.65 60.2401L751.83 60.7501L751.77 55.1901Z" fill="#F2C8A5"/>
<path d="M752.9 54.1699C752.9 54.1699 751.71 54.5799 752.08 58.2299C752.3 60.3699 752.72 62.4999 753.05 63.1099C753.67 64.2199 754.46 64.1399 754.43 64.1699C754.38 64.2199 752.79 64.3399 752.79 64.3399C752.79 64.3399 750.14 63.2099 750.33 58.1099C750.44 55.2699 751.25 54.7099 751.25 54.7099L752.9 54.1699Z" fill="white"/>
<path d="M736.04 151.37L737.2 154.03C737.2 154.03 748.21 158.59 748.88 158.95C749.65 159.36 751.35 160.1 751.09 161.57C751.03 161.92 751.03 162.15 750.8 162.46C749.97 163.56 748.35 164.02 746.86 164.23C743.61 164.71 736.86 163.53 736.86 163.53C734.89 163.24 731.64 162.16 731.29 161.85C731.29 161.85 729.6 161.3 729.28 161.89C729.16 162.1 729.3 163.1 729.31 163.3L725.15 161.46C724.94 161.34 724.63 159.27 724.57 158.35L724.9 152.3L736.04 151.37Z" fill="#231F20"/>
<path d="M748.73 163.25C747.87 163.64 746.68 163.82 745.49 163.92C740.76 164.33 733.71 162.51 733.71 162.51C733.01 162.33 730.36 161.59 730.36 161.59C730.36 161.59 729.27 161.48 729.29 161.91C729.29 161.78 729.3 161.9 729.25 161.91C729.14 161.94 729.33 163.32 729.33 163.32L730.49 162.63C730.49 162.63 733.73 163.44 734.29 163.65C734.29 163.65 741.08 165.38 745.84 165.03C747.34 164.92 749.91 164.11 750.85 162.74C751.02 162.49 751.26 161.67 751.1 161.24C751.08 161.3 749.9 162.72 748.73 163.25Z" fill="#282827"/>
<path d="M729.29 161.91L724.75 159.7C724.75 159.7 725.05 161.51 725.12 161.48L729.28 163.33C729.27 163.18 729.29 162.28 729.29 161.91Z" fill="#282827"/>
<path d="M733.31 82.3701L737.49 151.16C737.83 153.51 739.19 154.27 738.53 155.1C736.09 158.18 725.23 161.29 723.62 156.35L717.67 86.0801L733.31 82.3701Z" fill="#141413"/>
<path d="M699.22 163.38C699.22 163.38 699.01 170.11 698.99 170.27C698.75 173.26 701.97 181 706.66 181.39C708.19 181.52 708.69 181.52 709.81 181.22C711.43 180.79 713.02 178.84 712.48 174.89C712.16 172.54 709.93 163.17 709.93 163.17L699.22 163.38Z" fill="#383736"/>
<path d="M698.77 161.7C698.77 161.7 699.14 165.56 699.44 170.59C699.62 173.58 702.64 179.06 706.64 180.09C707.82 180.39 708.82 180.26 708.89 180.26C710.67 180.16 713.28 179.32 712.3 173.14C711.95 170.93 710.5 162.43 710.38 162.43L698.77 161.7Z" fill="#231F20"/>
<path d="M720.75 87.25C719.92 99.42 712.34 166.11 712.34 166.11C712.21 167.82 707.27 169.79 707.27 169.79C701.23 169.56 698.39 165.77 698.37 165.17L699.37 88.87L720.75 87.25Z" fill="#383736"/>
<path d="M709.34 40.5502C709.34 40.5502 712.48 35.0102 715.35 33.9102C718.22 32.8102 727.45 33.3102 727.45 33.3102C727.45 33.3102 732.37 44.0302 732.42 44.7602C732.47 45.4902 730.13 64.7702 730.13 64.7702L717.82 54.9902L709.34 40.5502Z" fill="#D7DFE2"/>
<path d="M730.06 33.51C728.64 31.22 725.64 31.1 723.63 31.31C726.08 33.06 729.32 38.76 729.84 46.86C730.11 51.09 729.15 61.91 729.01 61.67C728.88 61.44 720.82 45.63 717.66 42.74C717.21 42.33 712.91 33.98 712.91 33.98C712.91 33.98 700.79 40.74 699.7 42.71L700.01 55.91L698.36 100.46C698.53 101.74 698.3 102.18 699.63 102.78C699.63 102.78 711.97 105.82 719.78 105.57C725.96 105.37 735.85 101.38 735.85 101.38C736.02 101.25 736.32 101.15 736.28 100.62L734 79.9C734.33 57.93 733.34 38.81 730.06 33.51Z" fill="#3D4244"/>
<path d="M730.6 103.25L729.06 78.9302L729.45 62.1102C729.45 62.1102 728.78 60.6202 728.52 60.1602L728.45 78.8002L729.9 103.51C729.91 103.47 730.57 103.27 730.6 103.25Z" fill="#383736"/>
<path d="M726 37.6502C721.58 42.2902 717.14 36.7002 714.09 33.2902L715.36 16.9702L725.22 24.4902L726 37.6502Z" fill="#E8C5AC"/>
<path d="M726.59 45.5699C726.47 45.1199 726.17 44.6599 726.26 44.1199L726.58 42.4899L724.33 39.1699L723.16 39.3999L722.51 43.1599L724.1 44.4399C724.46 44.7699 724.94 45.4399 724.92 45.9099L726.08 56.5699L728.93 61.0599C728.93 61.0599 729.96 57.7899 729.91 56.5799C729.77 52.3299 726.59 45.5699 726.59 45.5699Z" fill="#160B01"/>
<path d="M725.8 33.4201L726.51 31.5801C726.51 31.5801 727.41 32.0601 727.61 32.2001C728.74 32.9601 729.36 34.1401 729.8 34.8801C730.69 36.3701 732.92 41.0601 732.92 41.0601C733.36 42.1301 733.13 42.8801 732.53 43.6101L730.8 45.8001L732.58 47.2001C733.74 47.9901 733.38 49.6201 733.03 50.7701C731.79 54.8201 728.94 61.0501 728.94 61.0501C728.94 61.0501 729.65 53.7601 729.51 49.4501C729.19 39.7101 725.8 33.4201 725.8 33.4201Z" fill="#7A797A"/>
<path d="M724.04 38.5299C723.43 39.0899 723.96 39.7599 724.33 40.2299L726.68 43.1399C727.42 43.9999 727.68 42.9699 727.64 42.0099L727.51 35.0899C727.17 31.4699 725.59 31.1899 725.59 31.1899C725.59 31.1899 725.68 32.0699 725.65 33.1799C725.62 34.6699 725.8 36.9299 724.04 38.5299Z" fill="white"/>
<path d="M714.35 29.3101C714.35 29.3101 714.3 31.7801 714.73 32.8001C716.88 37.8401 723.16 38.7401 723.16 38.7401C723.89 38.9701 723.89 39.3201 723.84 40.5601L723.39 45.0801C723.34 46.2601 722.73 46.1801 722.23 45.7201C722.23 45.7201 717.26 41.9201 715.85 40.6301C712.54 37.5901 712.3 35.3501 712.99 31.1601C713.3 29.3101 714.35 29.3101 714.35 29.3101Z" fill="white"/>
<path d="M713.05 30.9199L710.65 35.6799C710.65 35.6799 710.21 36.2799 710.36 37.5299C710.46 38.4099 710.9 39.6299 710.9 39.6299L713.91 45.8699C714.42 47.3599 715 47.8299 716.15 47.8399L720.21 48.0799L718.97 50.9999C718.54 51.9299 718.89 52.4399 719.69 52.9699C727.99 58.5299 729.41 62.1899 729.41 62.1899C729.41 62.1899 729.43 58.1699 722.37 47.0099C720.57 44.1599 717.48 40.1199 715.3 36.8599C712.45 32.6099 713.05 30.9199 713.05 30.9199Z" fill="#7A797A"/>
<path d="M727.99 6.91018L718.97 5.93018L716.98 22.1802C716.98 23.3102 716.82 24.3102 716.9 25.2802C716.98 26.3402 716.84 27.8102 718 28.9102C718 28.9102 719.34 29.9002 721.09 31.4002C722.18 32.3402 723.56 33.3202 725.19 34.0202C726.27 34.4802 728.95 33.6102 728.95 33.6102C730.7 33.1202 730.43 33.1102 732.22 28.3702C732.22 28.3702 735.15 19.7002 736.07 17.0802C738.68 9.63018 735.94 7.59018 735.94 7.59018L727.99 6.91018Z" fill="#EDC3A4"/>
<path d="M737.91 11.45C737.84 11.69 736.75 15.62 736.4 16.07C736.4 16.07 738.51 9.62005 735 10.32C734.93 10.33 732.38 11.67 730.8 12.47C729.91 12.92 728.15 13.43 728.04 13.21C727.9 12.95 728.86 11.19 726.99 10.96C724.65 10.67 722.76 13.3 722.12 16.59C721.63 19.11 721.25 21.2 721.24 21.22C721.06 21.51 718.32 17.81 718.14 17.66C717.82 17.41 716.81 18.86 716.81 18.86C716.87 18.86 714.95 23 714.94 22.94C714.77 21.89 712.85 16.17 712.69 15.48C710.17 4.30005 720.24 -7.51995 736.68 6.12005C738 7.22005 739.08 7.71005 737.91 11.45Z" fill="#A89678"/>
<path d="M717.67 14.5303C720.25 14.1303 720.16 18.1003 720.16 18.1003L719.82 22.5203C719.82 22.5203 719.49 24.1303 718.44 24.1303C717.22 24.1203 716.45 23.2103 715.93 21.7003C715.9 21.6203 715.12 19.4803 715.08 19.3403C714.55 17.4603 715.1 14.9303 717.67 14.5303Z" fill="#EDC3A4"/>
<path d="M723.52 83.1999C722.88 83.3799 716.28 85.3199 706.29 83.8999C704.41 83.6299 702.35 80.7699 701.34 77.5099C696.59 62.1899 695.97 50.0999 695.97 50.0999C695.97 50.0999 695.97 41.3199 703.49 42.1099C707.72 42.5499 708.46 50.5199 708.22 52.5999C707.83 55.9499 711.17 72.2999 712.85 72.3099C716.89 72.3399 724.91 72.0999 724.91 72.0999C724.91 72.0999 727.42 73.4099 727.36 76.5399C727.33 78.5199 726.25 82.4199 723.52 83.1999Z" fill="#3A3E3F"/>
<path d="M724 72.5998C724 72.5998 725.55 72.0298 725.91 74.1198C726.27 76.2098 725.98 79.0598 725.03 80.9098C724.3 82.3298 723.66 82.7598 722.66 82.3998C721.63 82.0298 720.97 78.6898 721.53 76.7598C722.09 74.8198 723 72.5998 724 72.5998Z" fill="#D6EAE9"/>
<path d="M721.51 80.3299C722.37 81.5099 725.84 84.3599 727.2 84.0499C728.52 83.7499 733.95 78.1999 733.69 76.7499C733.48 75.5399 728.88 75.4199 727.73 75.0899C725.77 74.5199 723.48 72.6499 722.74 74.6799C722.35 75.7399 721.62 80.2999 721.51 80.3299Z" fill="#F2C8A5"/>
<path d="M643.42 140.47C643.65 142.17 641.5 143.6 639.95 143.81C639.41 143.88 639.11 148.14 636.86 148.3C636.86 148.3 636.72 147.19 636.53 145.23C636.52 145.08 636.05 143.45 636.9 142.14C639.17 138.68 639.4 138.05 640.95 137.84C642.51 137.64 643.19 138.77 643.42 140.47Z" fill="#E8C5AC"/>
<path d="M579.53 148.65C580.16 148.46 594.61 124.98 594.6 121.58C594.6 121.14 593.51 107.99 593.57 106.66C593.74 102.63 589.5 101.19 589.5 101.19C589.5 101.19 592.47 88.2604 587.84 88.7504C583.61 89.1904 581.29 96.7204 581.65 98.7804C582.24 102.1 583.36 117.06 582.46 118.48C579.81 122.68 571.3 141.59 571.3 141.59C571.3 141.59 570.64 141.83 572.39 144.43C573.48 146.05 576.81 149.47 579.53 148.65Z" fill="#3A3E3F"/>
<path d="M571.76 141.87C571.76 141.87 570.19 142.39 571.21 144.25C572.23 146.11 574.23 148.16 576.12 149.01C577.57 149.66 578.35 149.6 578.9 148.7C579.47 147.77 577.91 144.75 576.27 143.58C574.64 142.41 572.55 141.24 571.76 141.87Z" fill="#D6EAE9"/>
<path d="M573.73 142.2C573.73 142.2 569.78 143.51 569.04 143.97C567.16 145.14 566.07 147.9 564 149.07C563.06 149.59 561.97 149.9 561.97 149.9C561.97 149.9 561.97 152.07 563.9 151.75C566.54 151.31 567.5 149.47 567.5 149.47C567.5 149.47 566.65 154.96 565.35 157.67C564.27 159.93 563.7 159.68 563.68 160.45C563.66 161.22 564.84 162.41 566.15 162.28C568.64 162.05 571.46 160.19 572.96 157C574.45 153.81 575.26 149.06 575.26 149.06L578.34 145.33L573.73 142.2Z" fill="#F2C8A5"/>
<path d="M571.13 142.27C571.13 142.27 572.13 141.5 574.97 143.83C576.64 145.19 578.18 146.72 578.51 147.34C579.1 148.46 578.6 149.08 578.63 149.08C578.7 149.06 579.68 147.81 579.68 147.81C579.68 147.81 580.2 144.98 575.84 142.33C573.41 140.85 572.49 141.22 572.49 141.22L571.13 142.27Z" fill="white"/>
<path d="M596.67 203.64L595.51 206.3C595.51 206.3 584.5 210.86 583.83 211.22C583.06 211.63 581.36 212.37 581.62 213.84C581.68 214.19 581.68 214.42 581.91 214.73C582.74 215.83 584.36 216.29 585.85 216.5C589.1 216.98 595.85 215.8 595.85 215.8C597.82 215.51 601.07 214.43 601.42 214.12C601.42 214.12 603.11 213.57 603.43 214.16C603.55 214.37 603.41 215.37 603.4 215.57L607.56 213.73C607.77 213.61 608.08 211.54 608.14 210.62L607.81 204.57L596.67 203.64Z" fill="#231F20"/>
<path d="M583.97 215.51C584.83 215.9 586.02 216.08 587.21 216.18C591.94 216.59 598.99 214.77 598.99 214.77C599.69 214.59 602.34 213.85 602.34 213.85C602.34 213.85 603.43 213.74 603.41 214.17C603.41 214.04 603.4 214.16 603.45 214.17C603.56 214.2 603.37 215.58 603.37 215.58L602.21 214.89C602.21 214.89 598.97 215.7 598.41 215.91C598.41 215.91 591.62 217.64 586.86 217.29C585.36 217.18 582.79 216.37 581.85 215C581.68 214.75 581.44 213.93 581.6 213.5C581.63 213.56 582.81 214.99 583.97 215.51Z" fill="#282827"/>
<path d="M603.42 214.17L607.96 211.96C607.96 211.96 607.66 213.77 607.59 213.74L603.43 215.59C603.44 215.45 603.42 214.55 603.42 214.17Z" fill="#282827"/>
<path d="M599.4 134.63L593.88 176.26L595.22 203.42C594.89 205.77 593.52 206.53 594.18 207.36C596.62 210.44 607.48 213.55 609.09 208.61L610.85 179.97L618.89 139.89L599.4 134.63Z" fill="#141413"/>
<path d="M633.49 215.65C633.49 215.65 633.7 222.38 633.72 222.54C633.96 225.53 630.74 233.27 626.05 233.66C624.52 233.79 624.02 233.79 622.9 233.49C621.28 233.06 619.69 231.11 620.23 227.16C620.55 224.81 622.78 215.44 622.78 215.44L633.49 215.65Z" fill="#383736"/>
<path d="M633.93 213.97C633.93 213.97 633.56 217.83 633.26 222.86C633.08 225.85 630.06 231.33 626.06 232.36C624.88 232.66 623.88 232.53 623.81 232.53C622.03 232.43 619.42 231.59 620.4 225.41C620.75 223.2 622.2 214.7 622.32 214.7L633.93 213.97Z" fill="#231F20"/>
<path d="M611.95 139.521C612.78 151.691 620.36 218.381 620.36 218.381C620.49 220.091 625.43 222.061 625.43 222.061C631.47 221.83 634.31 218.041 634.33 217.441L633.33 141.141L611.95 139.521Z" fill="#383736"/>
<path d="M606.28 91.3101C606.28 91.3101 601.34 87.2901 598.27 87.3101C595.19 87.3301 586.78 91.1601 586.78 91.1601C586.78 91.1601 586.1 102.94 586.32 103.63C586.54 104.33 595.74 121.44 595.74 121.44L603.65 107.85L606.28 91.3101Z" fill="#D7DFE2"/>
<path d="M584.42 92.3C584.91 89.65 587.66 88.44 589.6 87.91C587.95 90.43 587.01 96.92 589.48 104.66C590.77 108.7 595.61 118.43 595.65 118.15C595.69 117.89 597.43 100.23 599.33 96.39C599.6 95.85 600.56 86.5 600.56 86.5C600.56 86.5 614.61 91.09 616.34 92.53L634.33 141.16C634.64 142.41 633.74 143.72 632.72 144.77C632.72 144.77 627.22 148.99 619.86 151.61C614.04 153.67 598.48 151.34 598.48 151.34C598.28 151.28 597.96 151.29 597.8 150.79L598.04 136.09C589.75 115.74 583.29 98.43 584.42 92.3Z" fill="#3D4244"/>
<path d="M608.62 152.35L601.53 130.17L595.4 118.71C595.4 118.71 595.48 117.08 595.56 116.55L602.05 129.82L609.38 152.39L608.62 152.35Z" fill="#383736"/>
<path d="M592.04 102.27C591.99 101.81 592.1 101.27 591.82 100.8L590.93 99.4003L591.81 95.4903L592.98 95.2803L594.96 98.5403L593.94 100.31C593.72 100.75 593.52 101.54 593.71 101.98L596.51 112.33L595.49 117.55C595.49 117.55 593.34 114.88 592.95 113.74C591.54 109.71 592.04 102.27 592.04 102.27Z" fill="#160B01"/>
<path d="M588.35 90.66L588.52 88L587.02 89.2C587.02 89.2 586.36 89.97 586.22 90.18C585.45 91.3 585.3 92.62 585.15 93.47C584.86 95.18 584.49 100.36 584.49 100.36C584.47 101.52 584.96 102.14 585.78 102.6L588.19 104.01L587.04 105.97C586.25 107.12 587.18 108.52 587.92 109.46C590.55 112.79 595.47 117.54 595.47 117.54C595.47 117.54 592.15 111.01 590.72 106.94C587.49 97.75 588.35 90.66 588.35 90.66Z" fill="#7A797A"/>
<path d="M589.36 91.3104C593.78 95.9504 598.22 90.3604 601.27 86.9504L600 70.6304L590.14 78.1504L589.36 91.3104Z" fill="#E8C5AC"/>
<path d="M591.31 92.1901C591.92 92.7501 591.39 93.4201 591.02 93.8901L588.67 96.8001C587.93 97.6601 587.67 96.6301 587.71 95.6701L587.84 88.7501C588.18 85.1301 589.76 84.8501 589.76 84.8501C589.76 84.8501 589.67 85.7301 589.7 86.8401C589.74 88.3301 589.56 90.5901 591.31 92.1901Z" fill="white"/>
<path d="M601.01 82.9702C601.01 82.9702 601.06 85.4402 600.63 86.4602C598.48 91.5002 592.2 92.4002 592.2 92.4002C591.47 92.6302 591.47 92.9802 591.52 94.2202L591.97 98.7402C592.02 99.9202 592.63 99.8402 593.13 99.3802C593.13 99.3802 598.1 95.5802 599.51 94.2902C602.82 91.2502 603.06 89.0102 602.37 84.8202C602.06 82.9702 601.01 82.9702 601.01 82.9702Z" fill="white"/>
<path d="M587.37 60.5703L596.39 59.5903L598.38 75.8403C598.38 76.9703 598.54 77.9703 598.46 78.9403C598.38 80.0003 598.52 81.4703 597.36 82.5703C597.36 82.5703 596.02 83.5603 594.27 85.0603C593.18 86.0003 591.8 86.9803 590.17 87.6803C589.09 88.1403 586.41 87.2703 586.41 87.2703C584.66 86.7803 584.93 86.7703 583.14 82.0303C583.14 82.0303 580.21 73.3603 579.29 70.7403C576.68 63.2903 579.42 61.2503 579.42 61.2503L587.37 60.5703Z" fill="#EDC3A4"/>
<path d="M577.45 65.1102C577.52 65.3502 578.61 69.2802 578.96 69.7302C578.96 69.7302 576.85 63.2802 580.36 63.9802C580.43 63.9902 582.98 65.3302 584.56 66.1302C585.45 66.5802 587.21 67.0902 587.32 66.8702C587.46 66.6102 586.5 64.8502 588.37 64.6202C590.71 64.3302 592.6 66.9602 593.24 70.2502C593.73 72.7702 594.11 74.8602 594.12 74.8802C594.3 75.1702 597.04 71.4702 597.22 71.3202C597.54 71.0702 598.55 72.5202 598.55 72.5202C598.49 72.5202 600.41 76.6602 600.42 76.6002C600.59 75.5502 602.51 69.8302 602.67 69.1402C605.19 57.9602 595.12 46.1402 578.68 59.7802C577.35 60.8802 576.28 61.3602 577.45 65.1102Z" fill="#A89678"/>
<path d="M597.69 68.1904C595.11 67.7904 595.2 71.7604 595.2 71.7604L595.54 76.1804C595.54 76.1804 595.87 77.7904 596.92 77.7904C598.14 77.7804 598.91 76.8704 599.43 75.3604C599.46 75.2804 600.24 73.1404 600.28 73.0004C600.81 71.1204 600.25 68.5904 597.69 68.1904Z" fill="#EDC3A4"/>
<path d="M601.27 82.9702L605.24 86.5302C605.24 86.5302 605.86 86.9302 606.18 88.1502C606.4 89.0102 603.95 97.9302 603.95 97.9302C604.01 99.5002 603.64 100.15 602.58 100.58L598.88 102.29L601.11 104.56C601.85 105.27 601.71 105.87 601.16 106.66C595.45 114.86 595.46 118.79 595.46 118.79C595.46 118.79 593.98 115.06 596.49 102.09C597.13 98.7802 600.49 93.1702 601.34 89.3402C602.45 84.3302 601.27 82.9702 601.27 82.9702Z" fill="#7A797A"/>
<path d="M458.42 174.87C458.97 175.24 464.65 179.12 474.59 180.86C476.46 181.19 480.87 178.3 482.1 175.12C482.26 174.71 486.04 162.07 486.57 160.85C488.2 157.16 484.77 154.27 484.77 154.27C484.77 154.27 490.13 143.13 485.65 141.9C481.55 140.77 478.75 147.12 478.34 149.17C477.68 152.47 473.53 168.32 471.92 167.81C468.07 166.59 460.51 163.88 460.51 163.88C460.51 163.88 457.72 164.35 456.8 167.35C456.24 169.24 456.06 173.28 458.42 174.87Z" fill="#3A3E3F"/>
<path d="M461.24 164.64C461.24 164.64 459.94 163.62 458.95 165.49C457.96 167.37 457.35 170.17 457.69 172.22C457.94 173.79 458.42 174.4 459.48 174.37C460.57 174.34 462.23 171.37 462.3 169.35C462.36 167.34 462.19 164.95 461.24 164.64Z" fill="#D6EAE9"/>
<path d="M461.68 165.36C461.68 165.36 458.41 162.79 457.62 162.42C455.61 161.5 452.7 162.11 450.59 161.02C449.64 160.53 448.78 159.79 448.78 159.79C448.78 159.79 446.97 160.99 448.3 162.42C450.12 164.39 452.19 164.16 452.19 164.16C452.19 164.16 447.14 166.48 444.17 166.89C441.69 167.23 441.58 166.62 440.92 167.03C440.27 167.44 439.93 169.08 440.75 170.1C442.31 172.05 445.43 173.38 448.91 172.87C452.39 172.36 456.8 170.41 456.8 170.41L461.62 170.92L461.68 165.36Z" fill="#F2C8A5"/>
<path d="M460.55 164.34C460.55 164.34 461.74 164.75 461.37 168.4C461.15 170.54 460.73 172.67 460.4 173.28C459.78 174.39 458.99 174.31 459.02 174.34C459.07 174.39 460.66 174.51 460.66 174.51C460.66 174.51 463.31 173.38 463.12 168.28C463.01 165.44 462.2 164.88 462.2 164.88L460.55 164.34Z" fill="white"/>
<path opacity="0.29" d="M739.08 160.05L845.1 98.79L842.6 94.46L729.45 159.83C728.64 159.83 727.84 159.82 727 159.82C709 159.82 695.05 165.26 695.05 171.48C695.05 173.62 695.82 176.03 697.56 178.26L631.05 216.69C625.27 213.93 616.17 212.09 605.71 212.09C586.75 212.09 577.08 213.24 574.1 217.32C571.89 220.35 580.37 222.54 583.39 222.89C599.37 224.75 593.8 226.54 593.8 229.95C593.8 232.09 595.64 234 598.57 235.45L518.4 281.77C518.4 281.73 518.4 281.68 518.4 281.64C518.4 275.43 504.44 269.98 486.45 269.98C467.49 269.98 457.82 271.13 454.84 275.21C452.63 278.24 461.11 280.43 464.13 280.78C480.11 282.64 474.54 284.43 474.54 287.84C474.54 292.56 483.46 296.11 493.28 296.28L483.09 302.17L479.08 299.85L464.88 291.65C462.67 290.38 459.11 290.38 456.92 291.65L449.25 296.11C446.74 297.57 445.48 299.61 445.82 301.67L448.49 317.64L440 322.57C431.69 322.03 422.53 321.76 412.7 321.76C375.13 321.76 351.93 334.76 351.93 347.85C351.93 348.59 351.99 349.31 352.11 350.04L346.09 353.49C343.89 354.75 343.89 356.81 346.09 358.1L366.81 369.36L123.12 510.17C118.37 508.66 110.41 508.17 98.44 508.17C81.75 508.17 68.81 513.22 68.81 518.98C68.81 523.94 73.24 530.42 85.1 532.14L0 581.3V587.11L94.62 532.43C102.68 531.78 109.49 528.7 109.49 524.73C109.49 524.44 109.45 524.17 109.38 523.9L119.32 518.15C122.19 517.77 129.39 515.85 127.88 513.21L371.09 372.66L372.41 373.71L383.31 379.89C385.51 381.18 389.07 381.2 391.27 379.94L398.97 375.53C400.52 374.64 401.59 373.53 402.11 372.33C403.81 372.38 405.54 372.41 407.32 372.41C428.38 372.41 446.11 371.63 446.11 361.43C446.11 354.24 434.48 350.45 467.83 346.54C474.15 345.8 491.84 341.17 487.23 334.79C483.57 329.73 472.13 326.12 455.3 324L457.37 322.8L485.01 324.3C488.55 324.49 492.08 323.75 494.59 322.29L502.26 317.83C504.45 316.56 504.44 314.49 502.23 313.22L488.08 305.05L506.05 294.67C510.03 293.44 512.93 291.61 514.9 289.55L604.92 237.54C607.49 238.08 610.32 238.39 613.22 238.39C631.22 238.39 637.66 229.94 637.66 223.73C637.66 222.35 636.97 221.01 635.7 219.76L701.45 181.77C705.33 184.32 711.18 186.12 719.48 186.12C729.57 186.12 738.91 182.5 738.91 177.67C738.91 174.26 733.34 172.46 749.32 170.61C752.35 170.26 760.82 168.06 758.61 165.04C756.35 161.96 750.21 160.55 739.08 160.05Z" fill="#231F20"/>
<path d="M477.41 261.54L476.25 264.2C476.25 264.2 465.24 268.76 464.57 269.12C463.8 269.53 462.1 270.27 462.36 271.74C462.42 272.09 462.42 272.32 462.65 272.63C463.48 273.73 465.1 274.19 466.59 274.4C469.84 274.88 476.59 273.7 476.59 273.7C478.56 273.41 481.81 272.33 482.16 272.02C482.16 272.02 483.85 271.47 484.17 272.06C484.29 272.27 484.15 273.27 484.14 273.47L488.3 271.63C488.51 271.51 488.82 269.44 488.88 268.52L488.55 262.47L477.41 261.54Z" fill="#231F20"/>
<path d="M464.72 273.42C465.58 273.81 466.77 273.99 467.96 274.09C472.69 274.5 479.74 272.68 479.74 272.68C480.44 272.5 483.09 271.76 483.09 271.76C483.09 271.76 484.18 271.65 484.16 272.08C484.16 271.95 484.15 272.07 484.2 272.08C484.31 272.11 484.12 273.49 484.12 273.49L482.96 272.8C482.96 272.8 479.72 273.61 479.16 273.82C479.16 273.82 472.37 275.55 467.61 275.2C466.11 275.09 463.54 274.28 462.6 272.91C462.43 272.66 462.19 271.84 462.35 271.41C462.37 271.47 463.55 272.89 464.72 273.42Z" fill="#282827"/>
<path d="M484.16 272.07L488.7 269.86C488.7 269.86 488.4 271.67 488.33 271.64L484.17 273.49C484.18 273.35 484.17 272.45 484.16 272.07Z" fill="#282827"/>
<path d="M480.14 192.53L475.96 261.32C475.63 263.67 474.26 264.43 474.92 265.26C477.36 268.34 488.22 271.45 489.83 266.51L498.55 197.43L480.14 192.53Z" fill="#141413"/>
<path d="M514.23 273.55C514.23 273.55 514.44 280.28 514.46 280.44C514.7 283.43 511.48 291.17 506.79 291.56C505.26 291.69 504.76 291.69 503.64 291.39C502.02 290.96 500.43 289.01 500.97 285.06C501.29 282.71 503.52 273.34 503.52 273.34L514.23 273.55Z" fill="#383736"/>
<path d="M514.68 271.87C514.68 271.87 514.31 275.73 514.01 280.76C513.83 283.75 510.81 289.23 506.81 290.26C505.63 290.56 504.63 290.43 504.56 290.43C502.78 290.33 500.17 289.49 501.15 283.31C501.5 281.1 502.95 272.6 503.07 272.6L514.68 271.87Z" fill="#231F20"/>
<path d="M492.7 197.42C493.53 209.59 501.11 276.28 501.11 276.28C501.24 277.99 506.18 279.96 506.18 279.96C512.22 279.73 515.06 275.94 515.08 275.34L512.22 197.42H492.7Z" fill="#383736"/>
<path d="M504.11 150.72C504.11 150.72 500.97 145.18 498.1 144.08C495.23 142.98 486 143.48 486 143.48C486 143.48 481.08 154.2 481.03 154.93C480.98 155.66 483.32 174.94 483.32 174.94L495.63 165.16L504.11 150.72Z" fill="#D7DFE2"/>
<path d="M515.08 165.71C515.29 159.57 513.04 155.52 513.04 155.52C511.95 153.55 500.54 144.16 500.54 144.16C500.54 144.16 496.24 152.51 495.79 152.92C492.62 155.8 484.57 171.62 484.44 171.85C484.3 172.09 483.33 161.26 483.61 157.04C484.13 148.94 487.37 143.24 489.82 141.49C487.82 141.28 484.82 141.4 483.39 143.69C480.1 148.99 479.12 168.11 479.45 190.08L477.16 210.81C477.13 211.34 477.42 211.44 477.59 211.57C477.59 211.57 487.48 215.56 493.66 215.76C500.99 215.99 515.07 212.16 515.62 211.45C515.2 208.35 513.41 194.96 512.84 188.54C512.22 181.46 514.82 173.63 515.08 165.71Z" fill="#3D4244"/>
<path d="M482.85 213.42L484.39 189.1L484 172.27C484 172.27 484.67 170.78 484.93 170.32L485 188.96L483.55 213.67C483.54 213.64 482.88 213.44 482.85 213.42Z" fill="#383736"/>
<path d="M487.45 147.82C491.87 152.46 496.31 146.87 499.36 143.46L498.09 127.14L488.23 134.66L487.45 147.82Z" fill="#E8C5AC"/>
<path d="M486.86 155.74C486.98 155.29 487.28 154.83 487.19 154.29L486.87 152.66L489.12 149.34L490.29 149.57L490.94 153.33L489.35 154.61C488.99 154.94 488.51 155.61 488.53 156.08L487.37 166.74L484.52 171.23C484.52 171.23 483.49 167.96 483.54 166.75C483.68 162.49 486.86 155.74 486.86 155.74Z" fill="#160B01"/>
<path d="M487.65 143.59L486.94 141.75C486.94 141.75 486.04 142.23 485.84 142.37C484.71 143.13 484.09 144.31 483.65 145.05C482.76 146.54 480.53 151.23 480.53 151.23C480.09 152.3 480.32 153.05 480.92 153.78L482.65 155.97L480.87 157.37C479.71 158.16 480.07 159.79 480.42 160.94C481.66 164.99 484.51 171.22 484.51 171.22C484.51 171.22 483.8 163.93 483.94 159.62C484.26 149.88 487.65 143.59 487.65 143.59Z" fill="#7A797A"/>
<path d="M489.41 148.69C490.02 149.25 489.49 149.92 489.12 150.39L486.77 153.3C486.03 154.16 485.77 153.13 485.81 152.17L485.94 145.25C486.28 141.63 487.86 141.35 487.86 141.35C487.86 141.35 487.77 142.23 487.8 143.34C487.83 144.84 487.65 147.1 489.41 148.69Z" fill="white"/>
<path d="M499.1 139.47C499.1 139.47 499.15 141.94 498.72 142.96C496.57 148 490.29 148.9 490.29 148.9C489.56 149.13 489.56 149.48 489.61 150.72L490.06 155.24C490.11 156.42 490.73 156.34 491.22 155.88C491.22 155.88 496.19 152.08 497.6 150.79C500.91 147.75 501.15 145.51 500.46 141.32C500.15 139.47 499.1 139.47 499.1 139.47Z" fill="white"/>
<path d="M500.4 141.08L502.8 145.84C502.8 145.84 503.24 146.44 503.09 147.69C502.99 148.57 502.55 149.79 502.55 149.79L499.54 156.03C499.03 157.52 498.45 157.99 497.3 158L493.24 158.24L494.49 161.16C494.92 162.09 494.57 162.6 493.77 163.13C485.47 168.69 484.05 172.35 484.05 172.35C484.05 172.35 484.03 168.33 491.09 157.17C492.89 154.32 495.98 150.28 498.16 147.02C501 142.78 500.4 141.08 500.4 141.08Z" fill="#7A797A"/>
<path d="M485.46 117.08L494.48 116.1L496.47 132.35C496.47 133.48 496.63 134.48 496.55 135.45C496.47 136.51 496.61 137.98 495.45 139.08C495.45 139.08 494.11 140.07 492.36 141.57C491.27 142.51 489.89 143.49 488.26 144.19C487.18 144.65 484.5 143.78 484.5 143.78C482.75 143.29 483.02 143.28 481.23 138.54C481.23 138.54 478.3 129.87 477.38 127.25C474.77 119.8 477.51 117.76 477.51 117.76L485.46 117.08Z" fill="#EDC3A4"/>
<path d="M475.54 121.62C475.61 121.86 476.7 125.79 477.05 126.24C477.05 126.24 474.94 119.79 478.45 120.49C478.52 120.5 481.07 121.84 482.65 122.64C483.54 123.09 485.3 123.6 485.41 123.38C485.55 123.12 484.59 121.36 486.46 121.13C488.8 120.84 490.69 123.47 491.33 126.76C491.82 129.28 492.2 131.37 492.21 131.39C492.39 131.68 495.13 127.98 495.31 127.83C495.63 127.58 496.64 129.03 496.64 129.03C496.58 129.03 498.5 133.17 498.51 133.11C498.68 132.06 500.6 126.34 500.76 125.65C503.28 114.47 493.21 102.65 476.77 116.29C475.45 117.39 474.37 117.87 475.54 121.62Z" fill="#49260A"/>
<path d="M495.78 124.69C493.2 124.29 493.29 128.26 493.29 128.26L493.63 132.68C493.63 132.68 493.96 134.29 495.01 134.29C496.23 134.28 497 133.37 497.52 131.86C497.55 131.78 498.33 129.64 498.37 129.5C498.9 127.63 498.35 125.1 495.78 124.69Z" fill="#EDC3A4"/>
<path d="M481.57 139.47C481.57 139.47 482.31 136.59 482.86 136.25C483.42 135.9 483.56 136.02 484.61 136.02C485.67 136.02 486.94 136.3 487.3 136.49C489 137.35 492.1 141.82 492.1 141.82L489.82 143.52C489.82 143.52 487.07 138.66 486.25 138.02C485.65 137.55 483.83 137.35 483.38 137.96C482.74 138.84 482.15 141.06 482.15 141.06L481.57 139.47Z" fill="#49260A"/>
<path d="M496.54 132.79C496.54 132.79 497.3 136.01 497.3 137.36C497.3 138.7 496.36 139.53 494.55 141.22C492.49 143.15 490.48 144.8 489.34 145.14C487.42 145.72 483.74 144.93 482.96 143.85C482.6 143.35 481.99 140.6 481.99 140.6C481.99 140.6 483.04 142.64 483.71 142.47C484.15 142.36 484.32 141.72 484.32 141.72C484.32 141.72 484.46 140.81 485.29 141.75C485.93 142.48 486.34 142.91 486.57 142.95C488.35 143.26 490.06 142.29 491.74 141.03C493.71 139.55 495.84 137.06 495.96 136.27C496.15 135.1 496.54 132.79 496.54 132.79Z" fill="#49260A"/>
<path d="M459.41 179.26C458.02 179.26 456.78 178.29 456.48 176.88C456.14 175.26 457.17 173.67 458.79 173.32C461.4 172.76 465.33 172.75 470.76 172.73C480.16 172.69 494.36 172.64 510.64 169.42C521.34 167.3 532.83 163.51 545 159.5C554.15 156.48 563.62 153.36 573.41 150.73C589.68 146.36 606.99 143.86 623.47 143.5C660.4 142.71 684.33 119.92 709.67 95.7998C720.5 85.4898 731.71 74.8198 744.04 65.9698C758.66 55.4798 768.34 51.8498 780.59 47.2598L783.61 46.1298C789.06 44.3098 794.78 42.6598 800.84 40.9098C814.61 36.9298 828.84 32.8198 839.75 26.6798C841.19 25.8698 843.02 26.3798 843.83 27.8198C844.64 29.2598 844.13 31.0898 842.69 31.9098C831.18 38.3898 816.6 42.5998 802.5 46.6698C796.52 48.3998 790.87 50.0298 785.55 51.7998L782.68 52.8798C770.84 57.3098 761.5 60.8098 747.52 70.8398C735.53 79.4398 724.48 89.9598 713.79 100.14C688.74 123.99 662.83 148.65 623.58 149.49C607.58 149.83 590.76 152.26 574.95 156.51C565.32 159.1 555.93 162.19 546.86 165.19C534.52 169.26 522.86 173.11 511.79 175.3C494.95 178.63 480.4 178.69 470.77 178.73C465.89 178.75 462.03 178.76 460.03 179.19C459.83 179.24 459.62 179.26 459.41 179.26Z" fill="white"/>
<path d="M396.78 246.14C396.78 246.08 396.77 246.02 396.76 245.97C396.75 245.83 396.73 245.69 396.71 245.56C396.7 245.5 396.69 245.44 396.68 245.38C396.65 245.21 396.62 245.04 396.58 244.87C396.57 244.85 396.57 244.82 396.56 244.8C396.52 244.61 396.46 244.41 396.41 244.22C396.39 244.16 396.38 244.1 396.36 244.05C396.32 243.91 396.27 243.77 396.22 243.63C396.2 243.57 396.17 243.5 396.15 243.44C396.09 243.29 396.03 243.14 395.96 242.98C395.94 242.94 395.93 242.9 395.91 242.86C395.91 242.85 395.9 242.84 395.9 242.84C395.89 242.82 395.87 242.79 395.86 242.77C395.76 242.54 395.65 242.32 395.54 242.1C395.5 242.02 395.46 241.95 395.42 241.87C395.32 241.68 395.21 241.5 395.1 241.32C395.06 241.26 395.02 241.19 394.98 241.13C394.83 240.89 394.67 240.67 394.51 240.44C394.48 240.4 394.44 240.36 394.41 240.31C394.27 240.13 394.13 239.95 393.98 239.78C393.95 239.75 393.93 239.72 393.9 239.69C393.86 239.65 393.83 239.61 393.79 239.57C393.69 239.46 393.59 239.36 393.49 239.25C393.42 239.18 393.36 239.11 393.29 239.05C393.18 238.94 393.07 238.85 392.96 238.75C392.89 238.69 392.83 238.63 392.76 238.57C392.64 238.47 392.51 238.37 392.39 238.28C392.33 238.24 392.27 238.19 392.21 238.15C392.02 238.02 391.83 237.9 391.64 237.79L343.33 209.9C341.89 209.07 340.59 208.99 339.66 209.54C334.63 212.46 329.6 215.39 324.57 218.31C325.51 217.76 326.81 217.84 328.24 218.67L376.55 246.56C376.74 246.67 376.93 246.79 377.11 246.92C377.17 246.96 377.23 247.01 377.29 247.06C377.41 247.15 377.54 247.24 377.66 247.35C377.73 247.41 377.8 247.47 377.87 247.53C377.98 247.63 378.08 247.72 378.19 247.82C378.26 247.89 378.33 247.96 378.4 248.03C378.5 248.13 378.6 248.24 378.7 248.34C378.76 248.41 378.83 248.48 378.88 248.55C379.03 248.72 379.17 248.9 379.31 249.08C379.34 249.12 379.37 249.16 379.41 249.2C379.57 249.42 379.73 249.65 379.88 249.89C379.92 249.95 379.96 250.02 380 250.08C380.11 250.26 380.22 250.45 380.32 250.63C380.36 250.71 380.41 250.78 380.44 250.86C380.55 251.07 380.65 251.28 380.75 251.5C380.77 251.54 380.79 251.59 380.81 251.63C380.82 251.66 380.83 251.68 380.84 251.71C380.91 251.87 380.98 252.04 381.04 252.2C381.06 252.26 381.08 252.32 381.11 252.38C381.16 252.52 381.21 252.67 381.25 252.81C381.27 252.86 381.29 252.92 381.3 252.98C381.36 253.17 381.41 253.37 381.45 253.56C381.46 253.58 381.46 253.61 381.47 253.63C381.51 253.8 381.54 253.97 381.57 254.14C381.58 254.2 381.59 254.26 381.6 254.32C381.62 254.46 381.64 254.6 381.65 254.73C381.66 254.79 381.66 254.85 381.67 254.9C381.69 255.09 381.69 255.28 381.69 255.46L381.66 266.93C381.65 270.27 380.48 272.8 378.45 273.98C383.48 271.06 388.51 268.13 393.55 265.21C395.58 264.03 396.75 261.5 396.76 258.16L396.79 246.69C396.8 246.52 396.79 246.33 396.78 246.14Z" fill="#F5F5F5"/>
<path d="M376.55 246.56C379.4 248.21 381.71 252.2 381.7 255.48L381.67 266.95C381.66 270.7 380.18 273.44 377.66 274.38L356.24 282.4C355.08 282.83 353.67 282.57 352.26 281.75C350.85 280.94 349.44 279.57 348.29 277.81L326.98 245.12C324.47 241.28 323.02 236.85 323.03 233.1L323.06 221.63C323.07 218.35 325.39 217.03 328.24 218.68L376.55 246.56Z" fill="#C6C7C8"/>
<path d="M374.11 267.79C374.13 267.75 374.15 267.7 374.16 267.65C374.22 267.48 374.28 267.3 374.34 267.12C374.35 267.08 374.36 267.05 374.37 267.01C374.42 266.86 374.46 266.7 374.5 266.54C374.52 266.48 374.53 266.42 374.55 266.35C374.59 266.19 374.63 266.03 374.67 265.86C374.68 265.82 374.69 265.77 374.7 265.72C374.74 265.51 374.78 265.3 374.82 265.09C374.83 265.03 374.84 264.97 374.85 264.91C374.87 264.74 374.9 264.57 374.92 264.4C374.93 264.33 374.94 264.26 374.94 264.19C374.97 263.98 374.98 263.76 375 263.54C375 263.52 375 263.51 375 263.49C375.01 263.26 375.02 263.02 375.03 262.79C375.03 262.72 375.03 262.64 375.03 262.57C375.03 262.39 375.03 262.2 375.02 262.03C375.02 261.96 375.02 261.89 375.02 261.82C375.01 261.58 375 261.33 374.98 261.09C374.98 261.04 374.97 261 374.96 260.95C374.94 260.75 374.92 260.54 374.89 260.34C374.88 260.26 374.87 260.18 374.86 260.11C374.83 259.91 374.79 259.71 374.75 259.52C374.74 259.46 374.73 259.41 374.72 259.36C374.67 259.12 374.61 258.87 374.54 258.63C374.52 258.57 374.5 258.5 374.49 258.44C374.43 258.25 374.38 258.07 374.31 257.88C374.29 257.81 374.26 257.73 374.23 257.66C374.15 257.44 374.06 257.21 373.97 256.99C373.96 256.97 373.96 256.96 373.95 256.94V256.93C373.85 256.71 373.74 256.49 373.63 256.28C373.59 256.21 373.56 256.15 373.52 256.08C373.44 255.93 373.35 255.78 373.26 255.63C373.21 255.56 373.17 255.48 373.12 255.41C373.03 255.26 372.93 255.12 372.82 254.97C372.77 254.91 372.73 254.85 372.68 254.78C372.53 254.58 372.37 254.38 372.2 254.18C372.19 254.18 372.19 254.17 372.19 254.16C372.03 253.98 371.85 253.79 371.67 253.62C371.61 253.56 371.55 253.51 371.49 253.45C371.36 253.33 371.22 253.21 371.08 253.09C371.01 253.03 370.93 252.97 370.86 252.91C370.71 252.79 370.56 252.68 370.41 252.57C370.34 252.52 370.27 252.47 370.2 252.42C369.97 252.26 369.73 252.11 369.48 251.96C362.37 247.86 344.05 237.24 335.71 232.31C328.42 228 321.48 232.37 320.65 232.86C320.65 232.86 306.03 242.59 299 247.79C298.16 248.41 306.54 247.11 308.16 248.04C316.55 252.89 335.2 263.65 342.31 267.76C342.56 267.9 342.8 268.06 343.03 268.21C343.11 268.26 343.18 268.31 343.25 268.37C343.4 268.48 343.56 268.59 343.7 268.71C343.78 268.77 343.85 268.83 343.92 268.89C344.06 269.01 344.2 269.13 344.33 269.26C344.39 269.32 344.45 269.37 344.51 269.43C344.69 269.61 344.86 269.79 345.03 269.97C345.03 269.98 345.04 269.98 345.05 269.99C345.22 270.19 345.38 270.38 345.53 270.59C345.58 270.65 345.62 270.71 345.67 270.78C345.77 270.92 345.87 271.07 345.97 271.22C346.02 271.29 346.06 271.36 346.11 271.43C346.2 271.58 346.29 271.73 346.37 271.89C346.41 271.95 346.44 272.02 346.48 272.08C346.59 272.3 346.7 272.51 346.8 272.74C346.8 272.75 346.81 272.77 346.82 272.78C346.92 273.01 347.01 273.23 347.09 273.46C347.12 273.53 347.14 273.6 347.17 273.68C347.23 273.87 347.29 274.06 347.35 274.24C347.37 274.3 347.39 274.37 347.4 274.43C347.47 274.68 347.53 274.92 347.58 275.16C347.59 275.21 347.6 275.27 347.61 275.32C347.65 275.52 347.68 275.72 347.71 275.92C347.72 276 347.73 276.07 347.74 276.15C347.77 276.36 347.79 276.56 347.81 276.76C347.82 276.81 347.82 276.85 347.83 276.9C347.85 277.14 347.87 277.39 347.87 277.63C347.87 277.7 347.87 277.77 347.87 277.83C347.88 278.01 347.88 278.2 347.88 278.38C347.88 278.45 347.88 278.53 347.88 278.6C347.88 278.84 347.87 279.07 347.85 279.3C347.85 279.32 347.85 279.33 347.84 279.35C347.83 279.57 347.8 279.79 347.78 280C347.78 280.07 347.76 280.14 347.76 280.21C347.74 280.38 347.71 280.55 347.69 280.72C347.68 280.78 347.67 280.84 347.66 280.9C347.62 281.11 347.58 281.33 347.54 281.53C347.53 281.58 347.52 281.62 347.51 281.66C347.47 281.83 347.44 281.99 347.39 282.15C347.37 282.21 347.36 282.28 347.34 282.34C347.3 282.5 347.26 282.66 347.21 282.81C347.2 282.85 347.19 282.89 347.18 282.92C347.12 283.11 347.06 283.28 347 283.45C346.98 283.5 346.96 283.54 346.95 283.59C346.9 283.72 346.85 283.84 346.8 283.97C346.78 284.02 346.76 284.06 346.74 284.11C346.67 284.26 346.6 284.41 346.53 284.55C346.07 285.43 342.05 293.06 335.76 296.71L362.93 280.92C369.22 277.27 373.24 269.64 373.7 268.76C373.77 268.62 373.84 268.47 373.91 268.32C373.93 268.28 373.95 268.23 373.97 268.18C374.01 268.04 374.06 267.92 374.11 267.79Z" fill="#F5F5F5"/>
<path d="M342.31 267.77C349.34 271.83 348.4 280.93 346.52 284.54C345.79 285.94 335.96 304.57 322.33 296.71C308.43 288.68 298.28 256.9 297.46 254.65C295.04 247.98 301.8 244.39 308.53 248.27C316.92 253.11 335.2 263.66 342.31 267.77Z" fill="#C6C7C8"/>
<path d="M329.04 278.47C329.03 278.39 329.02 278.31 329.01 278.24C328.97 277.91 328.91 277.58 328.83 277.24C328.83 277.22 328.82 277.21 328.82 277.2C328.74 276.88 328.65 276.55 328.54 276.23C328.52 276.15 328.49 276.08 328.46 276C328.34 275.67 328.22 275.34 328.07 275.01C328.07 275 328.07 275 328.06 274.99C328.05 274.96 328.03 274.93 328.02 274.9C327.9 274.64 327.78 274.39 327.65 274.13C327.61 274.05 327.56 273.96 327.51 273.87C327.39 273.66 327.27 273.44 327.14 273.23C327.09 273.16 327.05 273.09 327.01 273.01C326.84 272.74 326.66 272.48 326.47 272.22C326.43 272.17 326.39 272.12 326.35 272.07C326.19 271.86 326.03 271.66 325.86 271.47C325.83 271.43 325.8 271.39 325.77 271.36C325.73 271.31 325.68 271.27 325.64 271.22C325.53 271.1 325.42 270.98 325.3 270.86C325.22 270.78 325.14 270.7 325.06 270.62C324.94 270.5 324.82 270.39 324.69 270.28C324.61 270.21 324.53 270.14 324.45 270.07C324.31 269.96 324.17 269.85 324.03 269.75C323.96 269.7 323.89 269.64 323.81 269.59C323.6 269.44 323.38 269.3 323.16 269.17C321.51 268.21 320.01 268.13 318.93 268.75L313.92 271.66C315 271.03 316.5 271.12 318.15 272.08C318.37 272.21 318.59 272.35 318.8 272.5C318.87 272.55 318.94 272.61 319.01 272.66C319.15 272.77 319.29 272.87 319.43 272.99C319.51 273.06 319.59 273.13 319.67 273.2C319.79 273.31 319.92 273.42 320.04 273.54C320.12 273.62 320.2 273.69 320.27 273.77C320.39 273.89 320.5 274.01 320.62 274.14C320.69 274.22 320.76 274.3 320.83 274.38C321 274.58 321.16 274.78 321.32 274.99C321.36 275.04 321.39 275.09 321.43 275.13C321.62 275.38 321.8 275.65 321.98 275.92C322.03 275.99 322.07 276.06 322.11 276.14C322.24 276.35 322.36 276.56 322.48 276.78C322.53 276.87 322.57 276.95 322.62 277.04C322.75 277.29 322.87 277.54 322.99 277.79C323.01 277.83 323.03 277.87 323.04 277.91C323.18 278.24 323.31 278.57 323.43 278.9C323.46 278.98 323.48 279.06 323.51 279.14C323.61 279.46 323.71 279.77 323.78 280.09C323.79 280.11 323.79 280.13 323.8 280.15C323.88 280.48 323.93 280.81 323.98 281.14C323.99 281.22 324 281.3 324.01 281.38C324.05 281.71 324.07 282.04 324.07 282.36C324.07 284.23 323.4 285.55 322.34 286.17L327.35 283.26C328.42 282.64 329.08 281.32 329.09 279.45C329.1 279.12 329.08 278.8 329.04 278.47Z" fill="#F5F5F5"/>
<path d="M318.17 272.09C321.45 273.98 324.1 278.58 324.09 282.35C324.08 286.12 321.41 287.64 318.13 285.75C314.84 283.85 312.19 279.26 312.2 275.49C312.21 271.72 314.88 270.2 318.17 272.09Z" fill="#7E7F7F"/>
<path d="M482.05 193C482.07 192.96 482.09 192.91 482.1 192.86C482.16 192.69 482.22 192.51 482.28 192.33C482.29 192.29 482.3 192.25 482.31 192.22C482.36 192.07 482.4 191.91 482.44 191.75C482.45 191.69 482.47 191.63 482.48 191.56C482.52 191.4 482.56 191.24 482.6 191.07C482.61 191.03 482.62 190.98 482.63 190.94C482.67 190.73 482.71 190.52 482.75 190.3C482.76 190.24 482.77 190.18 482.78 190.12C482.81 189.95 482.83 189.78 482.85 189.61C482.86 189.54 482.87 189.47 482.88 189.4C482.9 189.18 482.92 188.97 482.94 188.75C482.94 188.74 482.94 188.72 482.94 188.7C482.96 188.47 482.96 188.23 482.97 187.99C482.97 187.92 482.97 187.85 482.97 187.77C482.97 187.59 482.97 187.41 482.97 187.22C482.97 187.15 482.97 187.09 482.96 187.01C482.95 186.77 482.94 186.53 482.92 186.28C482.92 186.23 482.91 186.19 482.9 186.14C482.88 185.94 482.86 185.73 482.83 185.53C482.82 185.45 482.81 185.38 482.8 185.3C482.77 185.1 482.73 184.9 482.7 184.71C482.69 184.66 482.68 184.6 482.67 184.55C482.62 184.31 482.56 184.06 482.49 183.82C482.47 183.76 482.45 183.69 482.43 183.63C482.38 183.44 482.32 183.26 482.26 183.07C482.23 183 482.21 182.92 482.18 182.85C482.1 182.63 482.01 182.4 481.92 182.18C481.91 182.16 481.91 182.15 481.9 182.13C481.9 182.13 481.9 182.13 481.9 182.12C481.8 181.9 481.7 181.68 481.59 181.47C481.55 181.4 481.52 181.34 481.48 181.27C481.4 181.12 481.31 180.97 481.22 180.82C481.17 180.75 481.13 180.67 481.09 180.6C480.99 180.45 480.89 180.31 480.79 180.16C480.74 180.1 480.7 180.03 480.65 179.97C480.5 179.77 480.34 179.57 480.17 179.38C480.16 179.38 480.16 179.37 480.16 179.37C480 179.18 479.82 179 479.64 178.83C479.58 178.77 479.52 178.71 479.46 178.66C479.33 178.54 479.19 178.42 479.05 178.29C478.98 178.23 478.9 178.17 478.83 178.11C478.68 177.99 478.53 177.88 478.38 177.77C478.3 177.72 478.24 177.67 478.16 177.61C477.93 177.45 477.69 177.3 477.44 177.16C470.33 173.05 450.86 161.93 442.52 157C435.23 152.69 428.29 157.06 427.46 157.54L406.9 169.5C407.73 169.02 408.9 169.1 410.52 170.04C418.91 174.89 443.14 188.87 450.25 192.98C450.5 193.13 450.74 193.28 450.97 193.43C451.04 193.48 451.11 193.53 451.19 193.59C451.34 193.7 451.5 193.81 451.64 193.93C451.71 193.99 451.79 194.05 451.86 194.11C452 194.23 452.14 194.35 452.27 194.48C452.33 194.54 452.39 194.59 452.45 194.65C452.63 194.83 452.8 195.01 452.97 195.19C452.97 195.2 452.98 195.2 452.98 195.21C453.15 195.41 453.31 195.6 453.46 195.81C453.51 195.87 453.55 195.93 453.59 196C453.69 196.14 453.79 196.29 453.89 196.44C453.94 196.51 453.98 196.58 454.03 196.66C454.12 196.81 454.21 196.96 454.29 197.11C454.33 197.18 454.36 197.24 454.4 197.31C454.51 197.52 454.62 197.74 454.72 197.97C454.72 197.98 454.73 198 454.74 198.01C454.84 198.23 454.93 198.46 455.01 198.69C455.04 198.76 455.06 198.83 455.09 198.9C455.16 199.09 455.21 199.27 455.27 199.46C455.29 199.52 455.31 199.58 455.33 199.65C455.4 199.89 455.46 200.14 455.51 200.38C455.52 200.43 455.53 200.49 455.54 200.54C455.58 200.74 455.62 200.94 455.65 201.14C455.66 201.22 455.67 201.29 455.68 201.37C455.71 201.57 455.73 201.78 455.75 201.98C455.75 202.03 455.76 202.07 455.77 202.12C455.79 202.36 455.8 202.61 455.81 202.85C455.81 202.92 455.81 202.99 455.82 203.06C455.82 203.24 455.83 203.42 455.83 203.6C455.83 203.67 455.83 203.75 455.83 203.82C455.82 204.06 455.82 204.29 455.8 204.52C455.8 204.54 455.8 204.55 455.8 204.57C455.78 204.79 455.76 205.01 455.74 205.22C455.73 205.29 455.72 205.36 455.71 205.43C455.69 205.6 455.67 205.77 455.64 205.94C455.63 206 455.62 206.06 455.61 206.12C455.57 206.34 455.54 206.55 455.49 206.76C455.48 206.8 455.47 206.85 455.46 206.89C455.42 207.05 455.38 207.22 455.34 207.38C455.32 207.44 455.31 207.51 455.29 207.57C455.25 207.73 455.2 207.89 455.16 208.04C455.15 208.08 455.14 208.12 455.13 208.15C455.07 208.33 455.01 208.51 454.95 208.68C454.93 208.73 454.91 208.77 454.9 208.82C454.85 208.95 454.8 209.07 454.75 209.2C454.73 209.25 454.71 209.29 454.69 209.34C454.62 209.5 454.55 209.64 454.48 209.78C454.02 210.66 450 218.29 443.71 221.94L470.88 206.15C477.17 202.5 481.19 194.87 481.65 193.99C481.72 193.85 481.79 193.7 481.86 193.55C481.88 193.51 481.9 193.46 481.92 193.41C481.95 193.25 482 193.13 482.05 193Z" fill="#C6C7C8"/>
<path d="M450.25 192.97C457.28 197.02 456.34 206.13 454.46 209.74C453.73 211.14 443.9 229.77 430.27 221.91C416.37 213.88 406.92 184.2 406.23 181.9C404.76 176.96 403.8 166.16 410.52 170.04C418.91 174.88 443.14 188.87 450.25 192.97Z" fill="#C6C7C8"/>
<path d="M469.76 198.19C469.76 198.13 469.75 198.07 469.74 198.02C469.73 197.88 469.71 197.74 469.69 197.61C469.68 197.55 469.67 197.49 469.66 197.43C469.63 197.26 469.6 197.09 469.56 196.92C469.55 196.9 469.55 196.88 469.54 196.85C469.5 196.66 469.44 196.46 469.39 196.27C469.37 196.21 469.35 196.16 469.33 196.1C469.29 195.96 469.24 195.82 469.19 195.68C469.17 195.62 469.15 195.56 469.12 195.49C469.06 195.34 469 195.18 468.94 195.03C468.92 194.99 468.91 194.95 468.89 194.91C468.89 194.9 468.89 194.89 468.88 194.89C468.87 194.87 468.86 194.84 468.84 194.82C468.74 194.6 468.63 194.37 468.52 194.15C468.48 194.07 468.44 194 468.4 193.92C468.3 193.73 468.19 193.55 468.08 193.37C468.04 193.3 468 193.24 467.96 193.18C467.81 192.95 467.65 192.71 467.49 192.49C467.46 192.45 467.42 192.4 467.39 192.36C467.25 192.18 467.11 192 466.96 191.83C466.93 191.8 466.91 191.77 466.88 191.74C466.84 191.7 466.81 191.66 466.77 191.63C466.67 191.52 466.57 191.41 466.47 191.31C466.4 191.24 466.33 191.18 466.27 191.11C466.16 191.01 466.05 190.91 465.94 190.81C465.87 190.75 465.81 190.69 465.74 190.63C465.62 190.53 465.49 190.43 465.37 190.34C465.31 190.29 465.25 190.25 465.19 190.21C465 190.08 464.82 189.96 464.62 189.84L416.31 161.95C414.87 161.12 413.57 161.04 412.64 161.59C407.61 164.51 402.58 167.44 397.55 170.36C398.49 169.81 399.79 169.89 401.22 170.72L449.53 198.61C449.72 198.72 449.91 198.84 450.1 198.97C450.16 199.01 450.22 199.06 450.28 199.11C450.4 199.2 450.53 199.3 450.65 199.39C450.72 199.45 450.79 199.51 450.86 199.57C450.97 199.67 451.08 199.76 451.18 199.86C451.25 199.93 451.32 200 451.39 200.07C451.49 200.17 451.59 200.28 451.69 200.38C451.75 200.45 451.81 200.52 451.88 200.59C452.03 200.76 452.17 200.94 452.31 201.12C452.34 201.16 452.38 201.2 452.41 201.24C452.57 201.46 452.73 201.69 452.88 201.93C452.92 201.99 452.96 202.06 453 202.12C453.11 202.3 453.22 202.49 453.32 202.67C453.36 202.74 453.4 202.82 453.44 202.9C453.55 203.11 453.65 203.32 453.75 203.54C453.77 203.58 453.79 203.63 453.81 203.67C453.82 203.69 453.83 203.72 453.84 203.75C453.91 203.91 453.98 204.08 454.04 204.25C454.06 204.31 454.08 204.37 454.11 204.43C454.16 204.57 454.21 204.72 454.25 204.86C454.27 204.91 454.29 204.97 454.3 205.03C454.35 205.22 454.41 205.42 454.45 205.61C454.46 205.63 454.46 205.66 454.46 205.68C454.5 205.85 454.53 206.02 454.56 206.19C454.57 206.25 454.58 206.31 454.59 206.37C454.61 206.51 454.63 206.65 454.64 206.78C454.64 206.84 454.65 206.9 454.66 206.96C454.67 207.15 454.68 207.34 454.68 207.52L454.66 219C454.65 222.34 453.48 224.87 451.45 226.05C456.48 223.12 461.51 220.2 466.54 217.28C468.57 216.1 469.74 213.57 469.75 210.23L469.78 198.76C469.78 198.57 469.77 198.38 469.76 198.19Z" fill="#F5F5F5"/>
<path d="M449.54 198.61C452.39 200.26 454.7 204.25 454.69 207.53L454.66 219C454.65 222.75 453.17 225.49 450.66 226.43L429.23 234.45C428.08 234.88 426.66 234.62 425.25 233.8C423.84 232.99 422.43 231.62 421.28 229.86L399.97 197.16C397.46 193.32 396.01 188.9 396.02 185.14L396.05 173.67C396.06 170.39 398.38 169.07 401.23 170.71L449.54 198.61Z" fill="#C6C7C8"/>
<path d="M411.49 185.66L411.48 189.15L380.61 207.09L380.62 203.6L411.49 185.66Z" fill="#A3A3A0"/>
<mask id="mask0_966_11921" style="mask-type:luminance" maskUnits="userSpaceOnUse" x="373" y="201" width="8" height="7">
<path d="M373.84 205.46C373.84 204.3 373.85 203.13 373.85 201.97C373.85 202.56 374.24 203.15 375.02 203.6C376.57 204.5 379.08 204.5 380.62 203.6L380.61 207.09C379.07 207.99 376.56 207.99 375.01 207.09C374.23 206.64 373.84 206.05 373.84 205.46Z" fill="white"/>
</mask>
<g mask="url(#mask0_966_11921)">
<path d="M380.62 203.6L380.61 207.09C379.07 207.99 376.56 207.99 375.01 207.09C374.23 206.64 373.84 206.05 373.84 205.46L373.85 201.97C373.85 202.56 374.24 203.15 375.02 203.6C376.57 204.5 379.08 204.5 380.62 203.6Z" fill="#A3A3A0"/>
</g>
<path d="M411.49 185.66L380.62 203.6C379.08 204.5 376.57 204.5 375.02 203.6C373.47 202.7 373.46 201.25 375 200.35L405.87 182.41L411.49 185.66Z" fill="#F5F5F5"/>
<path d="M403.07 233.7L400.05 231.94L424.44 218.08L427.45 219.83L403.07 233.7Z" fill="#F5F5F5"/>
<mask id="mask1_966_11921" style="mask-type:luminance" maskUnits="userSpaceOnUse" x="397" y="231" width="7" height="10">
<path d="M401.08 240.35L398.06 238.6C397.56 238.31 397.24 237.68 397.24 236.8C397.23 235.02 398.49 232.84 400.04 231.95L403.06 233.71C401.51 234.6 400.25 236.78 400.26 238.56C400.27 239.44 400.58 240.06 401.08 240.35Z" fill="white"/>
</mask>
<g mask="url(#mask1_966_11921)">
<path d="M401.08 240.35L398.06 238.6C397.56 238.31 397.24 237.68 397.24 236.8C397.23 235.02 398.49 232.84 400.04 231.95L403.06 233.71C401.51 234.6 400.25 236.78 400.26 238.56C400.27 239.44 400.58 240.06 401.08 240.35Z" fill="#F5F5F5"/>
</g>
<path d="M427.45 219.83L427.47 226.29L403.08 240.15C401.53 241.05 400.26 240.33 400.26 238.55C400.26 236.77 401.51 234.59 403.06 233.7L427.45 219.83Z" fill="#A3A3A0"/>
<path d="M445.22 205.27L445.21 208.76L414.34 226.7L414.36 223.21L445.22 205.27Z" fill="#A3A3A0"/>
<mask id="mask2_966_11921" style="mask-type:luminance" maskUnits="userSpaceOnUse" x="407" y="221" width="8" height="7">
<path d="M407.57 225.07C407.57 223.91 407.58 222.75 407.58 221.58C407.58 222.17 407.97 222.76 408.75 223.21C410.3 224.11 412.81 224.11 414.35 223.21L414.34 226.7C412.8 227.6 410.29 227.6 408.74 226.7C407.96 226.25 407.57 225.66 407.57 225.07Z" fill="white"/>
</mask>
<g mask="url(#mask2_966_11921)">
<path d="M414.36 223.21L414.35 226.7C412.81 227.6 410.3 227.6 408.75 226.7C407.97 226.25 407.58 225.66 407.58 225.06L407.59 221.57C407.59 222.16 407.98 222.75 408.76 223.2C410.3 224.11 412.81 224.11 414.36 223.21Z" fill="#A3A3A0"/>
</g>
<path d="M445.22 205.27L414.35 223.21C412.81 224.11 410.3 224.11 408.75 223.21C407.2 222.31 407.19 220.86 408.73 219.97L439.6 202.03L445.22 205.27Z" fill="#F5F5F5"/>
<path opacity="0.29" d="M229.79 442.9C213.56 444.79 219.22 446.61 219.22 450.07C219.22 454.97 210.79 457.17 200.54 457.17C182.27 457.17 173.39 449.84 173.39 443.53C173.39 437.22 184.68 430.97 202.95 430.97C222.21 430.97 234.3 433.06 237.33 437.21C239.58 440.28 232.86 442.54 229.79 442.9Z" fill="#231F20"/>
<path d="M215.12 423.34L216.3 426.05C216.3 426.05 227.48 430.68 228.16 431.05C228.94 431.47 230.67 432.22 230.41 433.71C230.35 434.06 230.35 434.3 230.11 434.61C229.27 435.73 227.63 436.19 226.11 436.41C222.81 436.9 215.96 435.7 215.96 435.7C213.96 435.4 210.66 434.3 210.3 433.99C210.3 433.99 208.59 433.43 208.26 434.03C208.14 434.24 208.06 435.01 208.08 435.21L204.07 433.59C203.86 433.47 203.54 431.36 203.48 430.43L203.81 424.29L215.12 423.34Z" fill="#231F20"/>
<path d="M228.02 435.39C227.15 435.79 225.93 435.97 224.73 436.07C219.93 436.48 212.76 434.64 212.76 434.64C212.05 434.45 209.36 433.7 209.36 433.7C209.36 433.7 208.54 433.56 208.15 433.96C208.15 434.08 208.25 435.46 208.25 435.46L209.48 434.75C209.48 434.75 212.77 435.57 213.34 435.78C213.34 435.78 220.24 437.54 225.07 437.18C226.6 437.07 229.2 436.24 230.16 434.85C230.33 434.6 230.54 433.99 230.38 433.56C230.36 433.65 229.2 434.86 228.02 435.39Z" fill="#282827"/>
<path d="M208.27 434.03L203.66 431.78C203.66 431.78 203.97 433.62 204.04 433.59L208.26 435.47C208.25 435.33 208.26 434.42 208.27 434.03Z" fill="#282827"/>
<path d="M212.35 353.26L216.59 423.11C216.93 425.5 218.31 426.27 217.65 427.11C215.17 430.24 204.15 433.4 202.51 428.38L196.47 357.02L212.35 353.26Z" fill="#141413"/>
<path d="M177.74 435.53C177.74 435.53 177.52 442.36 177.51 442.53C177.27 445.57 180.54 453.34 185.3 453.82C186.01 453.89 188.5 453.65 188.5 453.65C188.5 453.65 191.75 453.53 191.14 447.37C190.9 444.98 188.63 435.32 188.63 435.32L177.74 435.53Z" fill="#383736"/>
<path d="M177.28 433.83C177.28 433.83 177.65 437.75 177.96 442.86C178.15 445.9 181.54 452.34 185.73 452.59C186.81 452.65 187.67 452.54 187.74 452.54C189.55 452.44 192.02 451.73 191.02 445.45C190.66 443.21 189.19 434.58 189.07 434.57L177.28 433.83Z" fill="#231F20"/>
<path d="M199.6 358.22C198.76 370.58 191.06 438.3 191.06 438.3C190.93 440.04 185.91 442.04 185.91 442.04C179.77 441.8 176.89 437.96 176.87 437.35L177.88 359.87L199.6 358.22Z" fill="#383736"/>
<path d="M216.81 348.83L218.25 343.59C218.25 343.59 220.06 342.8 225.67 343.77C228.3 344.23 230.48 345.63 230.48 345.63C230.48 345.63 233.68 347.88 232.49 351.31C231.88 353.05 230.4 353.49 230.4 353.49C229.14 353.82 227.7 352.92 226.38 352.6C225.06 352.28 220.65 352.11 220.65 352.11C218.52 351.88 216.84 349.92 216.81 348.83Z" fill="#E8C5AC"/>
<path d="M220.24 347.06C218.91 351.52 216.92 351.54 216.56 351.96C216.27 351.88 203.6 348.57 201.45 340.55C199.92 334.84 198.36 320.35 198.36 320.35C198.36 320.35 194.34 306.08 200 302.9C201.83 301.87 205.83 301.35 208.22 303C209.78 304.08 211.88 309.24 212.23 312.84C213.25 323.13 208.77 333.28 209.13 335.1C211.32 338.31 220.87 341.82 220.87 341.82C220.87 341.82 221.16 343.97 220.24 347.06Z" fill="#2C3133"/>
<path d="M187.49 310.06C187.49 310.06 190.99 304.63 193.96 303.67C196.93 302.71 206.27 303.75 206.27 303.75C206.27 303.75 210.65 314.9 210.66 315.64C210.67 316.39 207.2 335.8 207.2 335.8L195.27 325.18L187.49 310.06Z" fill="#D7DFE2"/>
<path d="M208.89 304.1C207.58 301.7 204.55 301.4 202.5 301.5C204.89 303.42 207.84 309.37 207.91 317.62C207.95 321.92 206.35 332.85 206.22 332.59C206.1 332.35 198.83 315.86 195.79 312.75C195.36 312.31 191.47 303.6 191.47 303.6C191.47 303.6 179.36 312.47 178.15 314.41C178.15 314.41 174.92 316.53 174.46 319.92C174 323.31 177.76 342.08 177.63 347.09C177.5 352.09 176.72 368.98 176.72 368.98C176.82 370.28 176.56 370.72 177.87 371.41C177.87 371.41 186.43 376.4 194.36 376.59C200.63 376.74 210.89 373.26 210.89 373.26C211.07 373.14 211.38 373.05 211.37 372.51L210.23 351.36C211.83 329.1 211.92 309.66 208.89 304.1Z" fill="#3D4244"/>
<path d="M205.38 374.85L205.29 350.08L206.65 333.05C206.65 333.05 206.05 331.5 205.81 331.01L204.68 349.91L204.65 375.06C204.87 375.03 205.28 374.91 205.38 374.85Z" fill="#383736"/>
<path d="M204.93 307.85C200.44 312.56 195.93 306.89 192.83 303.42L192.84 291.54L204.13 294.48L204.93 307.85Z" fill="#E8C5AC"/>
<path d="M204.69 316.13C204.6 315.67 204.32 315.18 204.44 314.64L204.86 313L202.77 309.51L201.57 309.67L200.69 313.44L202.24 314.83C202.58 315.19 203.03 315.89 202.98 316.37L203.55 327.24L206.18 331.96C206.18 331.96 207.41 328.7 207.43 327.48C207.53 323.16 204.69 316.13 204.69 316.13Z" fill="#160B01"/>
<path d="M204.58 303.76L205.4 301.94C205.4 301.94 206.28 302.48 206.48 302.63C207.58 303.47 208.14 304.69 208.55 305.47C209.37 307.03 211.36 311.91 211.36 311.91C211.74 313.03 211.47 313.77 210.82 314.48L208.94 316.6L210.66 318.13C211.79 318.99 211.33 320.63 210.91 321.78C209.43 325.82 206.18 331.97 206.18 331.97C206.18 331.97 207.32 324.62 207.42 320.24C207.66 310.33 204.58 303.76 204.58 303.76Z" fill="#7A797A"/>
<path d="M202.51 308.84C201.86 309.37 202.36 310.08 202.71 310.58L204.93 313.66C205.64 314.58 205.95 313.54 205.97 312.56L206.23 305.54C206.09 301.85 204.51 301.48 204.51 301.48C204.51 301.48 204.55 302.37 204.46 303.5C204.33 305.02 204.38 307.32 202.51 308.84Z" fill="white"/>
<path d="M192.91 299.07C192.91 299.07 193.02 301.44 193.4 302.5C195.29 307.74 201.61 309 201.61 309C202.35 309.27 202.31 309.63 202.2 310.88L201.49 315.44C201.38 316.64 200.75 316.52 200.28 316.03C200.28 316.03 195.46 311.89 194.1 310.5C190.91 307.23 190.59 304.89 191.74 300.74C192.13 299.29 192.91 299.07 192.91 299.07Z" fill="white"/>
<path d="M191.8 300.5L189.09 305.19C189.09 305.19 188.61 305.78 188.69 307.05C188.74 307.95 189.12 309.21 189.12 309.21L191.82 315.71C192.25 317.25 192.82 317.75 193.98 317.84L198.09 318.32L196.66 321.21C196.17 322.13 196.49 322.67 197.28 323.26C205.38 329.37 206.61 333.16 206.61 333.16C206.61 333.16 206.86 329.09 200.34 317.37C198.68 314.38 195.78 310.11 193.75 306.68C191.09 302.18 191.8 300.5 191.8 300.5Z" fill="#7A797A"/>
<path d="M201.96 277.04L192.4 277.7L193.36 294.97C193.57 296.14 193.59 297.22 193.85 298.21C194.14 299.3 194.7 300.29 196.11 301.21C196.11 301.21 198.01 302.15 200.12 303.37C201.36 304.09 205.06 305.09 206.77 304.04C207.73 303.44 209.32 303.59 210.65 299.62C210.73 299.38 211.23 295.81 211.26 294.81L211.66 283.97L211.67 277.34L201.96 277.04Z" fill="#FFE1CC"/>
<path d="M210.67 274.48C212.93 276.17 211.55 280.98 211.55 280.95C211.36 278.92 209.16 277.76 208.19 278.23C206.31 279.15 200.39 282.17 199.73 282.61C197.86 283.89 197.7 286.64 197.88 288.15L197.98 289.66C198.03 290.44 198.22 291.33 197.44 291.3C196.62 291.26 196.67 290.94 196.39 290.12C196.39 290.12 195.11 287.49 192.97 287.94C191.15 288.32 192.8 292.53 192.93 292.75L192.89 297.89C192.68 297.85 192.03 296.69 191.01 294.79C189.12 291.29 188.85 290.53 188.3 289.47C182.03 277.2 191.59 267.06 203.78 269.92C206.06 270.44 210.67 274.48 210.67 274.48Z" fill="#A89678"/>
<path d="M193.33 287.73C195.8 287.57 196.24 289.93 196.24 289.93L196.56 294.9C196.56 294.9 196.51 295.99 195.59 296.24C194.2 296.62 193.51 295.43 192.79 294.11C192.75 294.04 191.82 292.09 191.76 291.97C190.96 290.32 190.99 287.88 193.33 287.73Z" fill="#FFE1CC"/>
<path d="M292.5 289.07C293.3 290.51 295.77 290.37 297.08 289.64C297.54 289.39 300.21 292.49 302.02 291.32C302.02 291.32 301.49 290.38 300.52 288.77C300.44 288.64 299.87 287.12 298.46 286.61C294.73 285.26 294.2 284.9 292.89 285.63C291.57 286.37 291.7 287.64 292.5 289.07Z" fill="#FFE8D9"/>
<path d="M0 579.46C18.99 567.45 48.39 509.78 69.91 467.58C81.62 444.61 90.87 426.47 95.76 420.9C111.64 402.81 132.99 392.81 152.92 394.15C157.39 394.45 161.76 395.1 165.99 395.72C185.08 398.55 200.16 400.78 212.53 371.18C215.91 363.09 219.2 356.35 222.59 350.56C241.92 317.54 289.33 290.23 315.87 276.89C317.35 276.15 319.15 276.74 319.9 278.22C320.64 279.7 320.05 281.5 318.57 282.25C292.62 295.29 246.32 321.9 227.77 353.58C224.52 359.13 221.35 365.64 218.07 373.48C203.9 407.38 184.18 404.46 165.11 401.64C161 401.03 156.75 400.4 152.51 400.12C134.47 398.91 114.92 408.14 100.26 424.84C95.87 429.85 86.31 448.59 75.24 470.29C52.02 515.88 23.1 572.6 2.65 584.87C2.17 585.16 0.53 586.11 0 586.11V579.46Z" fill="white"/>
<path d="M489 198.88C489.63 199.09 499.36 197.08 508.82 194.44C510.65 193.93 514.19 190.3 514.53 186.91C514.57 186.47 516.48 163.7 516.08 160.06C515.75 156.98 514.41 153.62 509.76 153.62C505.51 153.62 503.84 160.81 503.99 162.9C504.23 166.26 504.29 181.86 502.77 182.58C498.54 184.58 488.09 187.74 488.09 187.74C488.09 187.74 485.52 188.94 485.44 192.07C485.4 194.03 486.31 197.98 489 198.88Z" fill="#4A4F51"/>
<path d="M488.99 188.28C488.99 188.28 487.47 187.64 487.01 189.71C486.55 191.78 486.72 194.65 487.58 196.53C488.25 197.98 488.87 198.44 489.88 198.13C490.92 197.81 491.73 194.5 491.26 192.54C490.8 190.58 490 188.32 488.99 188.28Z" fill="#D6EAE9"/>
<path d="M489.61 188.85C489.61 188.85 485.77 187.24 484.91 187.1C482.72 186.75 480.09 188.12 477.76 187.63C476.71 187.41 475.69 186.93 475.69 186.93C475.69 186.93 474.26 188.56 475.93 189.59C478.21 191 480.14 190.23 480.14 190.23C480.14 190.23 475.89 193.81 473.13 195C470.84 195.99 470.56 195.43 470.04 196C469.52 196.57 469.63 198.24 470.7 199.01C472.73 200.48 476.08 200.92 479.3 199.5C482.52 198.08 486.25 195.03 486.25 195.03L491.03 194.24L489.61 188.85Z" fill="#F2C8A5"/>
<path d="M488.25 188.16C488.25 188.16 489.51 188.24 490.12 191.86C490.48 193.98 490.65 196.14 490.48 196.83C490.18 198.06 489.4 198.2 489.43 198.22C489.49 198.25 491.06 197.95 491.06 197.95C491.06 197.95 493.31 196.16 491.77 191.29C490.91 188.58 489.97 188.26 489.97 188.26L488.25 188.16Z" fill="white"/>
<path d="M645.24 137.89L640.75 138.44L639.11 139.13L639.89 144.83C639.89 144.83 639.89 145.61 639.19 146.76C638.92 147.22 638.19 148.43 638.19 148.43C638.19 148.43 637.81 151.29 640.41 150.59C641.25 150.37 642.45 149.96 642.45 149.96C643.58 149.8 645.46 149.31 646.72 149.05C649.61 148.46 648.88 145.02 648.88 145.02L648.49 141.62C648.31 139.73 647.29 137.64 645.24 137.89Z" fill="#FFE1CC"/>
<path d="M644.29 141.31C646.06 141.29 647.17 140.59 647.17 140.59C647.17 140.59 648.69 139.78 648.71 138.32C648.77 133.98 646.74 119.04 645.92 113.7C645.03 107.84 624.06 96.0199 624.06 96.0199C624.12 96.0899 616.16 87.9399 611.3 92.2099C607.22 95.7899 609.83 100.17 612.97 103.74C615.44 106.55 633.82 117.04 633.82 117.04L638.34 139.24C638.35 139.25 640.2 141.35 644.29 141.31Z" fill="#585E60"/>
<path d="M729.69 83.0799C728.52 84.1099 728.97 81.0599 729.07 80.5799C729.29 79.5399 729.57 78.5599 730.29 77.6999C731.52 76.2099 733.71 74.9499 735.54 75.9799C737.68 77.1899 737.27 79.3499 735.91 80.9199C734.83 82.1799 732.86 84.6399 731.07 84.7099C730.19 84.7399 729.32 84.0399 729.19 83.1999L729.69 83.0799Z" fill="#F2C8A5"/>
<path d="M724.74 72.52C724.74 72.52 723.48 72.54 722.7 76.13C722.25 78.23 721.98 80.39 722.12 81.08C722.36 82.32 723.14 82.5 723.11 82.51C723.04 82.54 721.5 82.17 721.5 82.17C721.5 82.17 719.33 80.28 721.09 75.49C722.07 72.82 723.02 72.54 723.02 72.54L724.74 72.52Z" fill="white"/>
<path d="M725.86 79.4998C726.07 79.4098 726.71 80.2598 727.03 80.3998C727.56 80.6398 728 80.4498 728.51 80.2598C729.1 80.0398 729.59 79.8198 730.14 79.5098C730.57 79.2598 731.11 79.0098 731.57 79.3298C733.42 80.6098 729.73 83.7898 728.51 84.0298C727.49 84.2298 726.58 83.3998 725.7 82.9198C725.11 82.5998 724.48 82.3698 723.92 82.0598C722.78 81.4198 723.18 81.1298 723.36 80.0598L725.86 79.4998Z" fill="#F2C8A5"/>
<path d="M289.62 288.14L293.38 285.99L296.93 287.34C296.93 287.34 298.1 291.2 299.3 291.69C299.77 291.88 300.59 292.2 300.59 292.2C300.59 292.2 302.7 294.72 300.3 295.67C299.53 295.98 298.68 295.81 298.68 295.81C297.72 296.33 295.99 297.03 294.88 297.55C292.32 298.76 290.91 295.69 290.91 295.69L289.26 292.86C288.33 291.3 287.9 289.12 289.62 288.14Z" fill="#FFE8D9"/>
<path d="M292.64 290.14C291.11 290.85 289.85 290.71 289.85 290.71C289.85 290.71 288.2 290.63 287.58 289.39C285.74 285.66 278.97 268.79 277.47 263.84C275.82 258.41 273.67 243.5 273.67 243.5C273.67 243.5 271.26 232.95 277.27 231.26C282.28 229.86 284.43 234.24 285.66 238.62C286.63 242.07 289.3 261.73 289.3 261.73L296.92 285.9C296.93 285.9 296.2 288.48 292.64 290.14Z" fill="#383736"/>
<path d="M212.52 361.68L215.01 357.83L216.37 356.64L221.23 359.87C221.23 359.87 222.09 360.49 223.39 360.05C223.77 359.92 224.4 360.01 224.4 360.01C224.4 360.01 228.03 361.5 226.25 363.57C225.67 364.24 224.79 364.49 224.79 364.49C224.14 365.45 222.86 366.96 222.07 367.99C220.25 370.37 217.43 368.18 217.43 368.18L214.5 366.32C212.85 365.3 211.38 363.45 212.52 361.68Z" fill="#FFE1CC"/>
<path d="M216.07 362.33C215.27 363.93 214.14 364.65 214.14 364.65C214.14 364.65 212.72 365.68 211.39 365.05C207.39 363.18 190.79 353.4 187.56 348.97C184.02 344.1 176.67 329.94 176.67 329.94C176.72 330.02 170.62 320.19 176.01 316.44C180.53 313.29 184.21 316.92 186.97 320.88C189.14 324 198.67 342.75 198.67 342.75L216.81 355.99C216.81 355.98 217.92 358.61 216.07 362.33Z" fill="#585E60"/>
<path d="M219.79 348.78C221.35 349.49 224.11 348.75 225.1 347.55C225.45 347.14 228.12 348.95 229.55 349.11C231.06 349.28 231.31 347.79 231.16 347.39C231.04 347.07 226.52 345.16 225.41 344.63C223.08 343.54 221.87 343.41 220.9 343.82L220.53 345.9L219.79 348.78Z" fill="#FFE1CC"/>
</g>
<defs>
<clipPath id="clip0_966_11921">
<rect width="845.1" height="587.11" fill="white"/>
</clipPath>
</defs>
</svg>
