<svg width="50" height="51" viewBox="0 0 50 51" fill="none" xmlns="http://www.w3.org/2000/svg">
<circle cx="25" cy="25.75" r="25" fill="#E5E5E5"/>
<g clip-path="url(#clip0_990_17146)">
<path d="M35.5599 32.7326C35.1828 33.606 34.7366 34.41 34.2195 35.1492C33.5147 36.1569 32.9376 36.8544 32.4928 37.2417C31.8034 37.8775 31.0647 38.2031 30.2737 38.2216C29.7058 38.2216 29.021 38.0596 28.2239 37.7309C27.4241 37.4037 26.6891 37.2417 26.0171 37.2417C25.3123 37.2417 24.5563 37.4037 23.7478 37.7309C22.938 38.0596 22.2857 38.2309 21.7869 38.2479C21.0284 38.2803 20.2723 37.9454 19.5176 37.2417C19.036 36.8204 18.4335 36.0982 17.7117 35.0751C16.9373 33.9826 16.3007 32.7156 15.8019 31.2712C15.2678 29.7111 15 28.2003 15 26.7377C15 25.0623 15.361 23.6173 16.0842 22.4064C16.6525 21.4337 17.4086 20.6664 18.3548 20.1032C19.3011 19.5399 20.3236 19.2529 21.4247 19.2345C22.0271 19.2345 22.8172 19.4214 23.799 19.7887C24.7781 20.1572 25.4067 20.3441 25.6824 20.3441C25.8884 20.3441 26.5868 20.1256 27.7707 19.6899C28.8902 19.2859 29.8351 19.1187 30.6092 19.1845C32.7067 19.3543 34.2826 20.1834 35.3306 21.6772C33.4546 22.817 32.5267 24.4134 32.5451 26.4613C32.5621 28.0565 33.1392 29.3839 34.2733 30.4379C34.7873 30.9271 35.3614 31.3052 36 31.5737C35.8615 31.9764 35.7153 32.3622 35.5599 32.7326ZM30.7492 13.7501C30.7492 15.0004 30.2937 16.1678 29.3858 17.2483C28.29 18.5329 26.9647 19.2751 25.5275 19.158C25.5092 19.008 25.4986 18.8501 25.4986 18.6843C25.4986 17.484 26.0197 16.1995 26.945 15.1492C27.407 14.6174 27.9946 14.1752 28.7071 13.8225C29.4181 13.4751 30.0906 13.2829 30.7231 13.25C30.7415 13.4171 30.7492 13.5843 30.7492 13.7501V13.7501Z" fill="black"/>
</g>
<defs>
<clipPath id="clip0_990_17146">
<rect width="25" height="25" fill="white" transform="translate(13 13.25)"/>
</clipPath>
</defs>
</svg>
