<svg width="44" height="50" viewBox="0 0 44 50" fill="none" xmlns="http://www.w3.org/2000/svg">
<path d="M21.98 49.9999C14.97 45.9599 7.99 41.9699 1.05 37.9099C0.59 37.6399 0.17 36.8499 0.17 36.2999C0.11 28.6899 0.11 21.0699 0.17 13.4599C0.17 12.8799 0.65 12.0799 1.15 11.7599C3.42 10.3299 5.77 9.03988 8.21 7.62988C9.52 9.77988 10.77 11.8199 12.1 13.9999C10.89 14.7399 9.68 15.3799 8.59 16.1799C8.16 16.4899 7.74 17.1499 7.73 17.6499C7.67 22.4599 7.67 27.2799 7.73 32.0899C7.74 32.5799 8.16 33.2699 8.59 33.5299C12.75 36.0299 16.94 38.4799 21.17 40.8699C21.59 41.1099 22.37 41.0599 22.82 40.8299C24.13 40.1699 25.36 39.3499 26.84 38.4699C28.15 40.5899 29.45 42.6899 30.82 44.8999C27.81 46.6299 24.89 48.3199 21.98 49.9999Z" fill="#5F22D9"/>
<path d="M42.7098 11.6997C42.6798 11.6797 42.6398 11.6597 42.5998 11.6397L23.2298 0.399742C22.2898 -0.160258 21.6498 -0.110258 20.7898 0.449742C19.2798 1.42974 17.6898 2.28974 16.1298 3.19974C14.6398 4.06974 13.1498 4.94974 11.5898 5.85974C19.1298 18.3397 26.5598 30.6497 34.0398 43.0397C37.1398 41.2997 40.1498 39.6397 43.0998 37.8797C43.4998 37.6397 43.7298 36.8197 43.7298 36.2597C43.7998 28.7697 43.7998 21.2797 43.8698 13.7797C43.8898 12.7697 43.5498 12.2097 42.7098 11.6997ZM27.1498 19.8197C24.9998 16.3097 22.8398 12.8097 20.6998 9.30974L20.7098 9.29974C20.6998 9.28974 20.6998 9.27974 20.6898 9.27974C20.7998 9.15974 20.9098 9.03974 21.0198 8.91974C21.0298 8.91974 21.0498 8.92974 21.0598 8.92974C21.6898 8.38974 22.3098 8.51974 23.0598 8.97974C26.6898 11.1597 30.3598 13.2597 33.9798 15.4397C34.1898 15.5497 34.3998 15.6597 34.5998 15.7697C34.8598 15.9097 34.8698 16.2797 34.6098 16.4397L28.3598 20.1197C27.9498 20.3597 27.3998 20.2297 27.1498 19.8197ZM35.8198 33.2897C35.8198 33.2997 35.8198 33.3197 35.8098 33.3297C35.6498 33.3697 35.4998 33.4097 35.3398 33.4497C35.3398 33.4397 35.3298 33.4297 35.3298 33.4297C35.3198 33.4297 35.3198 33.4297 35.3098 33.4297C33.2298 29.8897 31.1498 26.3497 29.0598 22.7997C28.8098 22.3797 28.9498 21.8397 29.3698 21.5797L35.5498 17.7797C35.8098 17.6197 36.1298 17.7997 36.1298 18.0997C36.1298 18.3397 36.1298 18.5697 36.1298 18.8097C36.3598 23.0297 36.4898 27.2697 36.7098 31.4897C36.7598 32.3797 36.5998 32.9897 35.8198 33.2897Z" fill="#5F22D9"/>
</svg>
