<svg width="25" height="25" viewBox="0 0 25 25" fill="none" xmlns="http://www.w3.org/2000/svg">
<path d="M25 12.5764C25 5.63064 19.4036 0 12.5 0C5.59644 0 0 5.63064 0 12.5764C0 18.8535 4.57104 24.0565 10.5469 25V16.2118H7.37305V12.5764H10.5469V9.80566C10.5469 6.6537 12.4131 4.91265 15.2683 4.91265C16.6355 4.91265 18.0664 5.15829 18.0664 5.15829V8.25326H16.4902C14.9375 8.25326 14.4531 9.22277 14.4531 10.2183V12.5764H17.9199L17.3657 16.2118H14.4531V25C20.429 24.0565 25 18.8535 25 12.5764Z" fill="#5B5B5B"/>
<path d="M17.2792 16.165L17.8493 12.5728H14.2831V10.2427C14.2831 9.25995 14.7814 8.30097 16.3786 8.30097H18V5.24272C18 5.24272 16.5286 5 15.1217 5C12.1846 5 10.2648 6.72039 10.2648 9.83495V12.5728H7V16.165H10.2648V24.849C11.5962 25.0503 12.9518 25.0503 14.2831 24.849V16.165H17.2792Z" fill="white"/>
</svg>
