<svg width="50" height="51" viewBox="0 0 50 51" fill="none" xmlns="http://www.w3.org/2000/svg">
<circle cx="25" cy="25.75" r="25" fill="#E5E5E5"/>
<g clip-path="url(#clip0_990_17142)">
<path d="M35.6545 13.25H14.3455C13.856 13.25 13.3866 13.4444 13.0405 13.7905C12.6944 14.1366 12.5 14.606 12.5 15.0955V36.4045C12.5 36.894 12.6944 37.3634 13.0405 37.7095C13.3866 38.0556 13.856 38.25 14.3455 38.25H35.6545C36.144 38.25 36.6134 38.0556 36.9595 37.7095C37.3056 37.3634 37.5 36.894 37.5 36.4045V15.0955C37.5 14.606 37.3056 14.1366 36.9595 13.7905C36.6134 13.4444 36.144 13.25 35.6545 13.25ZM19.9514 34.5469H16.1927V22.6076H19.9514V34.5469ZM18.0694 20.9531C17.6431 20.9507 17.227 20.8221 16.8737 20.5834C16.5204 20.3448 16.2457 20.0068 16.0842 19.6122C15.9228 19.2175 15.8819 18.7839 15.9667 18.3661C16.0515 17.9482 16.2581 17.5649 16.5606 17.2644C16.863 16.9638 17.2477 16.7597 17.6661 16.6776C18.0845 16.5955 18.5178 16.6392 18.9114 16.8031C19.305 16.9671 19.6412 17.2439 19.8776 17.5988C20.1139 17.9536 20.2399 18.3705 20.2396 18.7969C20.2436 19.0823 20.1901 19.3657 20.0823 19.63C19.9745 19.8943 19.8146 20.1343 19.6121 20.3355C19.4095 20.5367 19.1686 20.6951 18.9036 20.8012C18.6385 20.9073 18.3549 20.959 18.0694 20.9531ZM33.8056 34.5573H30.0486V28.0347C30.0486 26.1111 29.2309 25.5174 28.1753 25.5174C27.0608 25.5174 25.967 26.3576 25.967 28.0833V34.5573H22.2083V22.6163H25.8229V24.2708H25.8715C26.2344 23.5365 27.5052 22.2813 29.4444 22.2813C31.5417 22.2813 33.8073 23.526 33.8073 27.1719L33.8056 34.5573Z" fill="#0A66C2"/>
</g>
<defs>
<clipPath id="clip0_990_17142">
<rect width="25" height="25" fill="white" transform="translate(12.5 13.25)"/>
</clipPath>
</defs>
</svg>
