<svg width="26" height="25" viewBox="0 0 26 25" fill="none" xmlns="http://www.w3.org/2000/svg">
<path d="M25.5 12.5764C25.5 5.63064 19.9036 0 13 0C6.09644 0 0.5 5.63064 0.5 12.5764C0.5 18.8535 5.07104 24.0565 11.0469 25V16.2118H7.87305V12.5764H11.0469V9.80566C11.0469 6.6537 12.9131 4.91265 15.7683 4.91265C17.1355 4.91265 18.5664 5.15829 18.5664 5.15829V8.25326H16.9902C15.4375 8.25326 14.9531 9.22277 14.9531 10.2183V12.5764H18.4199L17.8657 16.2118H14.9531V25C20.929 24.0565 25.5 18.8535 25.5 12.5764Z" fill="#5B5B5B"/>
<path d="M17.7792 16.165L18.3493 12.5728H14.7831V10.2427C14.7831 9.25995 15.2814 8.30097 16.8786 8.30097H18.5V5.24272C18.5 5.24272 17.0286 5 15.6217 5C12.6846 5 10.7648 6.72039 10.7648 9.83495V12.5728H7.5V16.165H10.7648V24.849C12.0962 25.0503 13.4518 25.0503 14.7831 24.849V16.165H17.7792Z" fill="white"/>
</svg>
