<svg width="26" height="25" viewBox="0 0 26 25" fill="none" xmlns="http://www.w3.org/2000/svg">
<path d="M25.731 12.5764C25.731 5.63064 20.1345 0 13.231 0C6.32739 0 0.730957 5.63064 0.730957 12.5764C0.730957 18.8535 5.302 24.0565 11.2778 25V16.2118H8.104V12.5764H11.2778V9.80566C11.2778 6.6537 13.144 4.91265 15.9993 4.91265C17.3665 4.91265 18.7974 5.15829 18.7974 5.15829V8.25326H17.2212C15.6685 8.25326 15.1841 9.22277 15.1841 10.2183V12.5764H18.6509L18.0967 16.2118H15.1841V25C21.1599 24.0565 25.731 18.8535 25.731 12.5764Z" fill="#5B5B5B"/>
<path d="M18.0102 16.165L18.5803 12.5728H15.0141V10.2427C15.0141 9.25995 15.5123 8.30097 17.1096 8.30097H18.731V5.24272C18.731 5.24272 17.2595 5 15.8526 5C12.9155 5 10.9958 6.72039 10.9958 9.83495V12.5728H7.73096V16.165H10.9958V24.849C12.3271 25.0503 13.6827 25.0503 15.0141 24.849V16.165H18.0102Z" fill="white"/>
</svg>
