<svg width="50" height="51" viewBox="0 0 50 51" fill="none" xmlns="http://www.w3.org/2000/svg">
<circle cx="25" cy="25.75" r="25" fill="#E5E5E5"/>
<g clip-path="url(#clip0_990_17135)">
<path d="M37.5 25.8473C37.5 24.9784 37.4311 24.1048 37.2842 23.25H25.5V28.1721H32.2483C31.9682 29.7596 31.0685 31.1639 29.751 32.0563V35.25H33.777C36.1412 33.0238 37.5 29.7361 37.5 25.8473Z" fill="#4285F4"/>
<path d="M25.4084 38.25C28.7007 38.25 31.4771 37.1545 33.5 35.2636L29.5663 32.1727C28.4719 32.9273 27.059 33.3545 25.4129 33.3545C22.2283 33.3545 19.5281 31.1773 18.5593 28.25H14.5V31.4364C16.5722 35.6136 20.793 38.25 25.4084 38.25Z" fill="#34A853"/>
<path d="M17.5 28.0949C17.0224 26.5736 17.0224 24.9264 17.5 23.4051V20.25H13.7128C12.0957 23.7111 12.0957 27.7889 13.7128 31.25L17.5 28.0949Z" fill="#FBBC04"/>
<path d="M25.9366 18.1437C27.7612 18.1164 29.5247 18.7797 30.8461 19.9972L34.5 16.4673C32.1863 14.3684 29.1156 13.2145 25.9366 13.2508C21.0977 13.2508 16.6726 15.8858 14.5 20.0653L18.7511 23.25C19.7622 20.3198 22.5978 18.1437 25.9366 18.1437Z" fill="#EA4335"/>
</g>
<defs>
<clipPath id="clip0_990_17135">
<rect width="25" height="25" fill="white" transform="translate(12.5 13.25)"/>
</clipPath>
</defs>
</svg>
