<svg width="26" height="26" viewBox="0 0 26 26" fill="none" xmlns="http://www.w3.org/2000/svg">
<path d="M25.5 13.0764C25.5 6.13064 19.9036 0.5 13 0.5C6.09644 0.5 0.5 6.13064 0.5 13.0764C0.5 19.3535 5.07104 24.5565 11.0469 25.5V16.7118H7.87305V13.0764H11.0469V10.3057C11.0469 7.1537 12.9131 5.41265 15.7683 5.41265C17.1355 5.41265 18.5664 5.65829 18.5664 5.65829V8.75326H16.9902C15.4375 8.75326 14.9531 9.72277 14.9531 10.7183V13.0764H18.4199L17.8657 16.7118H14.9531V25.5C20.929 24.5565 25.5 19.3535 25.5 13.0764Z" fill="#5B5B5B"/>
<path d="M17.7792 16.665L18.3493 13.0728H14.7831V10.7427C14.7831 9.75995 15.2814 8.80097 16.8786 8.80097H18.5V5.74272C18.5 5.74272 17.0286 5.5 15.6217 5.5C12.6846 5.5 10.7648 7.22039 10.7648 10.335V13.0728H7.5V16.665H10.7648V25.349C12.0962 25.5503 13.4518 25.5503 14.7831 25.349V16.665H17.7792Z" fill="white"/>
</svg>
