<svg width="26" height="26" viewBox="0 0 26 26" fill="none" xmlns="http://www.w3.org/2000/svg">
<path d="M25.5 13.3264C25.5 6.38064 19.9036 0.75 13 0.75C6.09644 0.75 0.5 6.38064 0.5 13.3264C0.5 19.6035 5.07104 24.8065 11.0469 25.75V16.9618H7.87305V13.3264H11.0469V10.5557C11.0469 7.4037 12.9131 5.66265 15.7683 5.66265C17.1355 5.66265 18.5664 5.90829 18.5664 5.90829V9.00326H16.9902C15.4375 9.00326 14.9531 9.97277 14.9531 10.9683V13.3264H18.4199L17.8657 16.9618H14.9531V25.75C20.929 24.8065 25.5 19.6035 25.5 13.3264Z" fill="#5B5B5B"/>
<path d="M17.7792 16.915L18.3493 13.3228H14.7831V10.9927C14.7831 10.01 15.2814 9.05097 16.8786 9.05097H18.5V5.99272C18.5 5.99272 17.0286 5.75 15.6217 5.75C12.6846 5.75 10.7648 7.47039 10.7648 10.585V13.3228H7.5V16.915H10.7648V25.599C12.0962 25.8003 13.4518 25.8003 14.7831 25.599V16.915H17.7792Z" fill="white"/>
</svg>
