<svg width="25" height="26" viewBox="0 0 25 26" fill="none" xmlns="http://www.w3.org/2000/svg">
<path d="M25 13.2346C25 6.28884 19.4036 0.658203 12.5 0.658203C5.59644 0.658203 0 6.28884 0 13.2346C0 19.5117 4.57104 24.7147 10.5469 25.6582V16.87H7.37305V13.2346H10.5469V10.4639C10.5469 7.3119 12.4131 5.57086 15.2683 5.57086C16.6355 5.57086 18.0664 5.81649 18.0664 5.81649V8.91146H16.4902C14.9375 8.91146 14.4531 9.88097 14.4531 10.8765V13.2346H17.9199L17.3657 16.87H14.4531V25.6582C20.429 24.7147 25 19.5117 25 13.2346Z" fill="#5B5B5B"/>
<path d="M17.2792 16.8233L17.8493 13.231H14.2831V10.9009C14.2831 9.91815 14.7814 8.95917 16.3786 8.95917H18V5.90092C18 5.90092 16.5286 5.6582 15.1217 5.6582C12.1846 5.6582 10.2648 7.37859 10.2648 10.4932V13.231H7V16.8233H10.2648V25.5072C11.5962 25.7085 12.9518 25.7085 14.2831 25.5072V16.8233H17.2792Z" fill="white"/>
</svg>
