<svg width="45" height="40" viewBox="0 0 45 40" fill="none" xmlns="http://www.w3.org/2000/svg">
<path d="M21.51 19.6956C22.1106 20.1015 22.8894 20.1015 23.49 19.6956L44.5 5.49925V5.01756C44.5 2.25233 42.278 0 39.55 0H5.45C2.722 0 0.5 2.25233 0.5 5.01756V5.45688L21.51 19.6956Z" fill="#5F22D9"/>
<path d="M25.272 22.0124C24.4294 22.5803 23.468 22.8631 22.5 22.8631C21.532 22.8631 20.5706 22.5803 19.728 22.0102L0.5 9V34.9892C0.5 37.7507 2.722 40 5.45 40H39.55C42.278 40 44.5 37.7507 44.5 34.9892V9.04009L25.272 22.008V22.0124Z" fill="#5F22D9"/>
</svg>
