<svg width="38" height="40" viewBox="0 0 38 40" fill="none" xmlns="http://www.w3.org/2000/svg">
<g clip-path="url(#clip0_966_9803)">
<path d="M9.07069 0C10.3059 0.365815 11.1509 1.2517 11.8287 2.27106C12.7888 3.7151 13.7024 5.19636 14.5394 6.71587C15.1076 7.74746 15.3819 8.89242 15.1238 10.1013C14.9636 10.8516 14.5967 11.4902 14.0381 11.9942C13.2893 12.6699 12.55 13.3717 11.7263 13.945C10.0658 15.1006 9.75872 16.5394 10.4821 18.3779C10.9103 19.4661 11.4828 20.522 12.1417 21.4874C13.6974 23.7666 15.5053 25.8378 17.609 27.6276C18.6281 28.4946 19.7069 29.2733 21.0488 29.564C22.1131 29.7946 23.0315 29.5187 23.8201 28.7611C24.5858 28.0254 25.342 27.2773 26.1428 26.5822C27.5629 25.3497 29.1425 25.2163 30.8075 26.0789C32.332 26.8687 33.5835 28.0163 34.8333 29.159C35.5457 29.8105 36.2197 30.5243 36.8071 31.291C37.831 32.6271 37.7172 33.9791 36.4852 35.1177C35.224 36.2835 34.0222 37.5275 32.5035 38.3846C30.1924 39.6887 27.7295 40.1875 25.0987 39.9382C21.9052 39.6356 19.0945 38.343 16.4782 36.5632C12.8242 34.0774 9.82211 30.8986 7.08473 27.4498C5.12025 24.9747 3.40157 22.3418 2.14295 19.4228C1.16288 17.1495 0.510189 14.787 0.500142 12.2992C0.48334 8.17669 1.95692 4.72171 5.20132 2.11278C5.50376 1.86961 5.79269 1.60878 6.08006 1.34744C6.71456 0.770588 7.36933 0.229028 8.21862 0C8.5027 0 8.78678 0 9.07069 0Z" fill="#5F22D9"/>
</g>
<defs>
<clipPath id="clip0_966_9803">
<rect width="37" height="40" fill="white" transform="translate(0.5)"/>
</clipPath>
</defs>
</svg>
