<svg width="563" height="466" viewBox="0 0 563 466" fill="none" xmlns="http://www.w3.org/2000/svg">
<g clip-path="url(#clip0_1015_7013)">
<path d="M305.114 151.597C305.114 151.597 311.876 130.426 301.994 124.282C295.721 121.055 292.29 125.07 292.29 125.07C292.29 125.07 289.336 110.098 269.006 115.044C255.837 118.249 251.673 111.462 251.673 111.462C251.673 111.462 251.551 130.227 260.622 135.805C267.196 141.427 264.675 156.643 264.675 156.643L305.114 151.597Z" fill="#2F2F35"/>
<path opacity="0.87" d="M365.03 428.246C365.03 428.246 401.65 429.344 411.865 438.77C422.613 448.673 433.883 464.155 387.626 463.855C341.357 463.556 300.352 450.836 261.545 454.872C222.738 458.909 190.904 465.863 181.622 464.321C172.35 462.78 238.461 431.14 238.461 431.14L361.211 435.643L365.03 428.246Z" fill="#515159"/>
<path d="M330.776 345.981L284.619 341.345L238.461 345.981C238.461 345.981 235.719 367.761 226.803 379.384C284.619 400.122 284.619 400.122 284.619 400.122C284.619 400.122 284.619 400.122 342.435 379.384C333.519 367.761 330.776 345.981 330.776 345.981Z" fill="#A87D1D"/>
<path d="M282.798 399.467C284.619 400.122 284.619 400.122 284.619 400.122C284.619 400.122 284.619 400.122 286.44 399.467C297.077 375.025 294.534 347.611 293.901 342.277L284.619 341.345L272.738 342.532C272.505 348.398 272.105 375.192 282.798 399.467Z" fill="#A87D1D"/>
<path d="M238.195 347.755C238.195 347.755 286.762 369.148 333.675 359.854C331.565 352.247 330.777 345.981 330.777 345.981L284.619 341.345L247.545 345.06L238.195 347.755Z" fill="#895436"/>
<path d="M260.622 135.816C267.196 141.439 264.675 156.654 264.675 156.654L273.269 155.578C282.097 147.738 292.057 137.801 290.613 134.064C288.081 127.51 280.753 120.967 267.251 120.212C253.749 119.469 251.673 111.474 251.673 111.474C251.673 111.474 251.551 130.238 260.622 135.816Z" fill="#515159"/>
<path d="M282.942 188.937L244.779 202.832L238.461 345.981C238.461 345.981 251.952 352.291 284.618 352.291C284.618 203.498 284.618 191.155 284.618 191.155L282.942 188.937Z" fill="white"/>
<path d="M286.296 188.937L324.459 202.832L330.777 345.981C330.777 345.981 317.286 352.291 284.619 352.291C284.619 203.498 284.619 191.155 284.619 191.155L286.296 188.937Z" fill="white"/>
<path d="M244.779 202.832L244.602 202.899C233.454 206.88 224.549 215.43 220.141 226.398L179.18 325.42L214.012 329.556L243.503 257.383L244.779 202.832Z" fill="#FF7E6E"/>
<path d="M324.457 202.832L324.635 202.899C335.783 206.88 344.688 215.43 349.096 226.398L390.057 325.42L355.225 329.556L325.734 257.383L324.457 202.832Z" fill="#FF7E6E"/>
<path d="M365.007 264.847L349.107 226.398C344.698 215.43 335.782 206.869 324.645 202.899L324.468 202.832L325.756 257.383L334.106 277.833C345.242 268.507 356.435 265.468 365.007 264.847Z" fill="#E8E8E8"/>
<path d="M204.24 264.847L220.141 226.398C224.549 215.43 233.454 206.869 244.602 202.899L244.779 202.832L243.491 257.383L235.141 277.833C223.993 268.507 212.801 265.468 204.24 264.847Z" fill="#E8E8E8"/>
<path d="M326.945 259.269C326.945 259.269 325.913 257.827 324.458 255.11L325.746 257.383C325.746 257.383 311.223 337.874 272.416 351.98C276.147 352.18 280.2 352.302 284.619 352.302C317.285 352.302 330.776 345.992 330.776 345.992L326.945 259.269Z" fill="#D3D3D3"/>
<path opacity="0.52" d="M226.803 248.722C236.652 221.142 237.196 221.352 258.692 216.306C280.189 211.249 275.969 191.476 275.969 191.476L255.927 198.773L252.829 199.904L244.791 202.832L244.613 202.899C233.465 206.88 224.56 215.43 220.152 226.398L180.89 321.317C197.456 309.118 218.42 272.211 226.803 248.722Z" fill="#FFF6E7"/>
<path opacity="0.28" d="M342.434 248.722C332.586 221.142 332.041 221.352 310.545 216.306C289.049 211.249 293.268 191.476 293.268 191.476L313.31 198.773L316.408 199.904L324.447 202.832L324.624 202.899C335.772 206.88 344.677 215.43 349.085 226.398L388.348 321.317C371.781 309.118 350.818 272.211 342.434 248.722Z" fill="#4C2A29"/>
<path d="M284.718 206.592H284.507C278.867 206.592 274.292 202.023 274.292 196.389V172.036H294.922V196.389C294.933 202.034 290.37 206.592 284.718 206.592Z" fill="#FF7E6E"/>
<path d="M294.767 190.822C294.822 190.822 294.878 190.811 294.933 190.811V172.036H285.306L274.303 176.006C274.303 176.006 278.4 190.822 294.767 190.822Z" fill="#4C2A29"/>
<path d="M308.624 157.408C308.624 161.067 305.659 164.028 301.995 164.028C298.331 164.028 295.366 161.067 295.366 157.408C295.366 153.748 298.331 150.787 301.995 150.787C305.659 150.787 308.624 153.748 308.624 157.408Z" fill="#C64F4F"/>
<path d="M303.283 163.895C304.238 160.058 304.805 155.157 305.104 151.597C304.172 151.098 303.117 150.787 301.984 150.787C298.32 150.787 295.355 153.748 295.355 157.408C295.355 161.067 298.32 164.028 301.984 164.028C302.44 164.028 302.873 163.973 303.283 163.895Z" fill="#803D3D"/>
<path d="M260.623 157.408C260.623 161.067 263.588 164.028 267.252 164.028C270.916 164.028 273.881 161.067 273.881 157.408C273.881 153.748 270.916 150.787 267.252 150.787C263.588 150.787 260.623 153.748 260.623 157.408Z" fill="#C64F4F"/>
<path d="M265.954 163.895C264.999 160.058 264.433 155.157 264.133 151.597C265.066 151.098 266.12 150.787 267.253 150.787C270.917 150.787 273.882 153.748 273.882 157.408C273.882 161.067 270.917 164.028 267.253 164.028C266.809 164.028 266.376 163.973 265.954 163.895Z" fill="#803D3D"/>
<path d="M296.277 134.263H284.618H272.959L267.186 146.861L268.152 159.326C268.673 165.98 272.97 177.458 279.022 180.286C280.821 181.129 282.731 181.684 284.607 181.684C286.495 181.684 288.393 181.129 290.192 180.286C296.244 177.469 300.552 165.98 301.062 159.326L302.028 146.861L296.277 134.263Z" fill="#FF7E6E"/>
<path d="M290.604 150.078C290.604 150.078 294.512 151.176 298.942 150.078" stroke="#2F2F35" stroke-width="1.3362" stroke-miterlimit="10" stroke-linecap="round"/>
<path d="M289.337 142.913C289.337 142.913 295.055 141.959 298.486 143.944" stroke="#2F2F35" stroke-width="2.6723" stroke-miterlimit="10" stroke-linecap="round"/>
<path d="M278.634 150.078C278.634 150.078 274.725 151.176 270.295 150.078" stroke="#2F2F35" stroke-width="1.3362" stroke-miterlimit="10" stroke-linecap="round"/>
<path d="M279.898 142.913C279.898 142.913 274.18 141.959 270.749 143.944" stroke="#2F2F35" stroke-width="2.6723" stroke-miterlimit="10" stroke-linecap="round"/>
<path opacity="0.52" d="M275.324 160.934C274.558 148.336 272.959 134.263 272.959 134.263L267.186 146.861L267.497 150.82C267.408 150.82 267.33 150.798 267.241 150.798C263.577 150.798 260.612 153.759 260.612 157.419C260.612 161.079 263.577 164.04 267.241 164.04C267.819 164.04 268.374 163.94 268.907 163.807C270.472 170.239 274.181 178.046 279.022 180.297C280.821 181.14 282.731 181.695 284.607 181.695C284.618 181.684 276.091 173.533 275.324 160.934Z" fill="#FFF6E7"/>
<path d="M324.457 401.973L192.58 362.017C175.069 356.716 156.649 367.007 152.03 384.684L151.852 385.35C147.089 403.57 158.914 421.969 177.479 425.218C226.235 433.735 314.619 448.207 361.132 449.982L380.74 463.035C383.705 465.009 387.636 464.676 390.223 462.247L390.323 462.147C393.41 459.264 393.565 454.418 390.678 451.335L387.625 448.074C387.625 448.074 384.904 434.811 371.436 429.133C357.978 423.444 356.712 409.559 353.548 401.973C350.383 394.399 330.142 390.606 324.457 401.973Z" fill="#8C4242"/>
<path d="M152.03 384.684C156.66 367.007 175.07 356.705 192.58 362.017L237.305 375.568C230.565 383.964 221.682 400.998 221.416 432.626C205.083 429.976 189.982 427.403 177.49 425.218C158.925 421.98 147.089 403.571 151.863 385.35L152.03 384.684Z" fill="#5F22D9"/>
<path d="M193.624 412.465C193.624 417.832 192.336 422.9 190.06 427.392C185.641 426.637 181.421 425.906 177.48 425.218C158.915 421.98 147.078 403.57 151.853 385.35L152.03 384.684C152.441 383.098 152.974 381.568 153.607 380.104C155.839 379.627 158.137 379.383 160.513 379.383C178.801 379.383 193.624 394.199 193.624 412.465Z" fill="#3D4FC1"/>
<path d="M330.775 420.294C330.775 420.294 328.876 431.329 310.544 427.392" stroke="#7B3C38" stroke-width="1.139" stroke-miterlimit="10"/>
<path d="M342.433 415.237C342.433 415.237 314.341 413.973 254.893 403.382C206.737 394.799 192.613 370.19 188.982 361.152C190.182 361.374 191.381 361.651 192.569 362.017L324.446 401.974C330.142 390.607 350.372 394.399 353.537 401.974C356.701 409.548 357.967 423.444 371.425 429.133C384.882 434.822 387.614 448.075 387.614 448.075C387.614 448.075 373.768 439.236 365.018 437.34C356.279 435.454 342.433 415.237 342.433 415.237Z" fill="#3D4FC1"/>
<path d="M348.519 449.272C348.519 449.272 372.735 472.417 393.377 462.891C396.808 461.305 397.885 456.924 395.642 453.886C378.254 430.297 356.324 404.602 347.963 394.943C345.876 392.525 342.556 391.549 339.491 392.437L315.719 399.334L348.519 449.272Z" fill="#2F2F35"/>
<path d="M315.719 399.334L292.935 392.425L310.189 445.457L348.519 449.272L315.719 399.334Z" fill="#A5A5A5"/>
<path d="M244.779 401.974L376.656 362.017C394.166 356.716 412.587 367.007 417.206 384.685L417.384 385.35C422.147 403.571 410.322 421.969 391.757 425.218C343.001 433.735 254.617 448.208 208.104 449.982L188.495 463.035C185.531 465.009 181.6 464.676 179.013 462.248L178.913 462.148C175.826 459.264 175.671 454.418 178.558 451.335L181.611 448.075C181.611 448.075 184.332 434.811 197.8 429.133C211.258 423.444 212.524 409.559 215.688 401.974C218.864 394.4 239.094 390.607 244.779 401.974Z" fill="#FF7E6E"/>
<path d="M417.218 384.684C412.587 367.007 394.178 356.705 376.667 362.017L331.942 375.568C338.682 383.964 347.565 400.998 347.832 432.626C364.165 429.976 379.266 427.403 391.757 425.218C410.333 421.98 422.159 403.571 417.384 385.35L417.218 384.684Z" fill="#5F22D9"/>
<path d="M375.611 412.465C375.611 417.833 376.899 422.901 379.176 427.392C383.595 426.638 387.814 425.906 391.756 425.218C410.332 421.98 422.157 403.571 417.383 385.35L417.205 384.685C416.794 383.099 416.261 381.568 415.629 380.105C413.397 379.628 411.098 379.384 408.722 379.384C390.446 379.384 375.611 394.2 375.611 412.465Z" fill="#3D4FC1"/>
<path d="M226.802 415.237C226.802 415.237 254.894 413.973 314.331 403.382C362.487 394.799 376.611 370.19 380.242 361.152C379.042 361.374 377.843 361.651 376.655 362.017L244.778 401.974C239.082 390.607 218.852 394.399 215.687 401.974C212.523 409.548 211.257 423.444 197.799 429.133C184.342 434.822 181.61 448.075 181.61 448.075C181.61 448.075 195.456 439.236 204.206 437.34C212.967 435.454 226.802 415.237 226.802 415.237Z" fill="#3D4FC1"/>
<path opacity="0.57" d="M197.811 429.133L178.046 425.473C160.159 422.623 148.033 405.722 151.087 387.89L151.209 387.191C154.54 367.739 174.304 355.718 193.136 361.673L230.466 373.495" stroke="white" stroke-width="1.1139" stroke-miterlimit="10"/>
<path d="M277.844 160.724C277.133 160.724 276.712 161.544 277.156 162.11C279.132 164.649 281.753 166.202 284.639 166.202C287.515 166.202 290.147 164.649 292.123 162.11C292.556 161.555 292.145 160.724 291.435 160.724H277.844Z" fill="white"/>
<path d="M286.573 149.789V156.643C286.573 156.643 284.996 155.755 282.798 156.643" stroke="#2F2F35" stroke-width="0.8212" stroke-miterlimit="10" stroke-linecap="round"/>
<path d="M292.291 125.07H290.604V135.794H292.291V125.07Z" fill="#FF7E6E"/>
<path d="M390.057 325.42L390.124 325.608C394.077 336.543 389.346 348.709 379.031 354.098L308.613 390.972L308.268 390.074C302.062 374.06 308.557 355.939 323.514 347.478L355.225 329.556L390.057 325.42Z" fill="#FF7E6E"/>
<path opacity="0.28" d="M375.189 347.999C375.189 350.594 375.833 353.034 376.977 355.185L379.042 354.098C387.17 349.84 391.811 341.378 391.478 332.628C391.19 332.617 390.912 332.584 390.623 332.584C382.107 332.584 375.189 339.482 375.189 347.999Z" fill="#4C2A29"/>
<path d="M355.226 329.556L375.19 318.256" stroke="#4C2A29" stroke-width="1.3362" stroke-miterlimit="10" stroke-linecap="round"/>
<path d="M179.391 325.42L179.324 325.608C175.371 336.543 180.101 348.709 190.417 354.098L260.835 390.972L261.179 390.074C267.386 374.06 260.891 355.939 245.934 347.478L214.223 329.556L179.391 325.42Z" fill="#FF7E6E"/>
<path opacity="0.28" d="M194.259 347.999C194.259 350.594 193.615 353.034 192.471 355.185L190.406 354.098C182.278 349.84 177.637 341.378 177.97 332.628C178.259 332.617 178.536 332.584 178.825 332.584C187.341 332.584 194.259 339.482 194.259 347.999Z" fill="#4C2A29"/>
<path d="M214.223 329.556L194.259 318.256" stroke="#4C2A29" stroke-width="1.3362" stroke-miterlimit="10" stroke-linecap="round"/>
<path d="M253.006 386.88C253.006 386.88 256.559 367.407 244.989 361.152" stroke="#4C2A29" stroke-width="1.3362" stroke-miterlimit="10" stroke-linecap="round"/>
<path d="M316.23 386.88C316.23 386.88 312.677 367.407 324.247 361.152" stroke="#4C2A29" stroke-width="1.3362" stroke-miterlimit="10" stroke-linecap="round"/>
<path d="M220.718 449.272C220.718 449.272 196.501 472.417 175.86 462.891C172.429 461.305 171.352 456.924 173.595 453.886C190.983 430.297 212.912 404.602 221.273 394.943C223.361 392.525 226.681 391.549 229.745 392.437L253.529 399.334L220.718 449.272Z" fill="#2F2F35"/>
<path d="M253.529 399.334L276.302 392.425L259.047 445.457L220.718 449.272L253.529 399.334Z" fill="#ECECEC"/>
<path opacity="0.28" d="M244.058 413.751C250.82 413.03 259.591 411.977 270.451 410.446L276.313 392.425L253.54 399.323L244.058 413.751Z" fill="#4C2A29"/>
<path d="M227.979 433.158L214.766 453.276C213.944 454.529 212.478 455.194 210.99 454.994L210.902 454.983C208.037 454.595 206.582 451.335 208.203 448.95L221.716 429.022C222.583 427.747 224.148 427.137 225.647 427.491L225.725 427.514C228.234 428.101 229.389 431.007 227.979 433.158Z" fill="#FFF6E7"/>
<path d="M282.809 316.903H201.931L221.873 387.834H282.809H343.734L363.676 316.903H282.809Z" fill="#AFAFAF"/>
<path d="M343.733 387.834H221.872V398.17H343.733V387.834Z" fill="#8B8B8C"/>
<path d="M282.942 368.072C293.864 368.072 302.718 363.544 302.718 357.958C302.718 352.372 293.864 347.844 282.942 347.844C272.021 347.844 263.167 352.372 263.167 357.958C263.167 363.544 272.021 368.072 282.942 368.072Z" fill="#5A5A63"/>
<path d="M363.665 312.201H201.931V316.903H363.665V312.201Z" fill="#5A5A63"/>
<path d="M240.827 390.806H228.624V394.965H240.827V390.806Z" fill="#5A5A63"/>
<path d="M258.436 390.806H246.233V394.965H258.436V390.806Z" fill="#5A5A63"/>
<path d="M343.733 393.002H269.572" stroke="#0F1201" stroke-miterlimit="10"/>
<path opacity="0.54" d="M201.931 316.903L221.873 387.834H265.276C291.048 357.991 306.704 316.903 306.704 316.903L306.648 312.201H201.931V316.903Z" fill="white"/>
<path opacity="0.57" d="M201.931 316.903H363.676" stroke="#0F1201" stroke-miterlimit="10"/>
<path d="M230.4 31.1828C230.611 25.9483 229.289 20.725 227.268 15.9341C227.257 15.9009 227.224 15.8343 227.168 15.7234C225.114 11.5758 222.005 8.03813 218.152 5.46527C218.052 5.39873 217.986 5.35437 217.964 5.34328C213.467 2.72606 208.448 0.740969 203.229 0.275193C187.695 -1.12214 174.249 13.1173 173.783 28.1663C173.649 32.3916 171.751 35.8627 169.286 39.2784C168.542 40.3098 159.925 50.0467 159.548 49.6142C163.19 53.7618 167.676 58.8521 167.676 58.8521C167.676 58.8521 172.15 63.9424 175.803 68.09C175.426 67.6575 186.207 60.3825 187.318 59.7837C191.026 57.7875 194.724 56.3458 198.932 56.7561C213.922 58.2311 229.789 46.7419 230.4 31.1828Z" fill="#5F22D9"/>
<path d="M175.37 46.2096C177.835 42.7939 179.733 39.3117 179.867 35.0975C180.333 20.0485 193.779 5.82015 209.313 7.20639C214.532 7.67216 219.551 9.64617 224.048 12.2745C224.081 12.2967 224.148 12.3299 224.236 12.3965C224.869 12.8179 225.469 13.2726 226.057 13.7383C224.059 10.4446 221.361 7.60563 218.141 5.46527C218.041 5.39873 217.974 5.35437 217.952 5.34328C213.455 2.72606 208.436 0.740969 203.217 0.275193C187.684 -1.12214 174.237 13.1173 173.771 28.1663C173.638 32.3916 171.739 35.8627 169.274 39.2784C168.53 40.3098 159.914 50.0467 159.536 49.6142C161.635 51.9985 163.989 54.6823 165.632 56.5454C166.01 56.9779 174.626 47.241 175.37 46.2096Z" fill="#3D4FC1"/>
<path d="M167.665 58.8521L190.283 39.0012L196.079 40.9641C197.989 41.6073 199.732 39.6222 198.833 37.8146L194.38 28.8983C193.625 27.379 195.191 25.7487 196.745 26.4474L201.908 28.7985L209.581 22.0669" stroke="#FEFEFE" stroke-width="2.2387" stroke-miterlimit="10" stroke-linecap="round"/>
<path d="M174.293 72.6589C173.604 73.2578 172.561 73.1912 171.95 72.5037L154.095 52.198C153.496 51.5105 153.562 50.468 154.251 49.8581C154.939 49.2592 155.983 49.3258 156.594 50.0133L174.459 70.319C175.048 71.0065 174.981 72.0601 174.293 72.6589Z" fill="#2F2F35"/>
<path d="M170.563 75.9416C169.874 76.5405 168.83 76.474 168.22 75.7864L150.354 55.4808C149.755 54.7932 149.821 53.7507 150.51 53.1408C151.198 52.5419 152.242 52.6085 152.852 53.296L170.707 73.6017C171.318 74.2892 171.251 75.3317 170.563 75.9416Z" fill="#2F2F35"/>
<path d="M166.832 79.2131C166.144 79.812 165.1 79.7454 164.489 79.0579L146.624 58.7522C146.024 58.0647 146.091 57.0222 146.779 56.4123C147.468 55.8134 148.511 55.88 149.122 56.5675L166.988 76.8732C167.587 77.5607 167.509 78.6143 166.832 79.2131Z" fill="#2F2F35"/>
<path d="M146.845 76.5515C150.365 80.555 156.472 80.9542 160.492 77.4276L147.723 62.9331C143.714 66.4486 143.315 72.5481 146.845 76.5515Z" fill="#2F2F35"/>
<path d="M398.774 103.278V95.5044H395.332C394.676 91.8114 393.166 88.429 391.012 85.5456L393.744 82.8175L388.236 77.3169L385.405 80.1448C382.507 78.1708 379.143 76.84 375.512 76.3188V72.271H367.728V76.4852C364.253 77.1395 361.055 78.559 358.29 80.5663L355.536 77.816L350.029 83.3165L352.816 86.1001C350.773 88.9946 349.385 92.3659 348.83 96.0256H344.966V103.8H348.919C349.552 107.359 350.995 110.642 353.038 113.448L349.996 116.486L355.503 121.987L358.579 118.915C361.399 120.9 364.675 122.264 368.228 122.852V127.044H376.011V122.852C379.542 122.264 382.807 120.911 385.627 118.937L388.203 121.51L393.71 116.01L391.179 113.481C393.333 110.531 394.81 107.071 395.398 103.301H398.774V103.278ZM372.125 112.838C364.819 112.838 358.89 106.916 358.89 99.6187C358.89 92.3216 364.819 86.3995 372.125 86.3995C379.431 86.3995 385.361 92.3216 385.361 99.6187C385.361 106.916 379.442 112.838 372.125 112.838Z" fill="#666666"/>
<path d="M429.808 132.766V128.286H427.821C427.443 126.157 426.577 124.205 425.334 122.542L426.91 120.967L423.735 117.795L422.103 119.425C420.426 118.283 418.494 117.518 416.395 117.218V114.878H411.91V117.307C409.9 117.684 408.057 118.505 406.469 119.658L404.881 118.072L401.705 121.244L403.315 122.852C402.138 124.527 401.339 126.467 401.017 128.574H398.785V133.055H401.061C401.428 135.106 402.261 137.003 403.438 138.622L401.683 140.374L404.859 143.546L406.635 141.771C408.268 142.914 410.155 143.701 412.198 144.045V146.462H416.684V144.045C418.727 143.701 420.604 142.925 422.236 141.783L423.724 143.269L426.899 140.097L425.445 138.644C426.688 136.936 427.543 134.94 427.876 132.766H429.808ZM414.43 138.278C410.211 138.278 406.791 134.862 406.791 130.648C406.791 126.434 410.211 123.018 414.43 123.018C418.649 123.018 422.069 126.434 422.069 130.648C422.069 134.862 418.649 138.278 414.43 138.278Z" fill="#9E9E9E"/>
<path d="M500.538 74.6884V58.73H493.476C492.143 51.1445 489.034 44.1911 484.604 38.2691L490.211 32.6687L478.908 21.3792L473.101 27.1792C467.149 23.1203 460.232 20.4033 452.781 19.3275V10.999H436.803V19.6492C429.664 20.991 423.09 23.9188 417.428 28.022L411.776 22.3773L400.472 33.6668L406.202 39.3892C402.016 45.3334 399.162 52.2646 398.007 59.7614H390.068V75.7197H398.174C399.484 83.0391 402.438 89.7596 406.635 95.5374L400.395 101.77L411.698 113.059L418.016 106.749C423.812 110.819 430.541 113.625 437.825 114.834V123.451H453.803V114.834C461.053 113.625 467.771 110.841 473.545 106.794L478.83 112.072L490.133 100.783L484.937 95.5929C489.356 89.5267 492.388 82.4181 493.598 74.6884H500.538ZM445.819 94.3175C430.807 94.3175 418.638 82.163 418.638 67.1694C418.638 52.1759 430.807 40.0213 445.819 40.0213C460.831 40.0213 473.001 52.1759 473.001 67.1694C473.001 82.163 460.831 94.3175 445.819 94.3175Z" fill="#8B8B8C"/>
<path d="M445.298 83.161C454.11 83.161 461.253 76.0261 461.253 67.2248C461.253 58.4235 454.11 51.2886 445.298 51.2886C436.485 51.2886 429.342 58.4235 429.342 67.2248C429.342 76.0261 436.485 83.161 445.298 83.161Z" fill="#666666"/>
<path d="M60.2921 189.959C26.0155 192.033 -0.633036 212.549 0.777114 235.783C2.18726 259.016 31.1231 276.161 65.3997 274.087C65.4219 274.087 65.4552 274.087 65.4774 274.087C68.8529 273.877 71.2069 270.627 70.3741 267.356C69.9633 265.77 69.7412 264.095 69.719 262.376C69.5413 251.297 78.1244 241.793 89.1613 240.795C97.1781 240.074 104.495 243.834 108.726 249.956C110.813 252.972 115.244 253.194 117.498 250.288C122.65 243.668 125.392 236.127 124.915 228.264C123.493 205.03 94.5687 187.874 60.2921 189.959Z" fill="#5A5A63"/>
<path d="M60.0587 186.2C25.7821 188.274 -0.866434 208.79 0.543716 232.023C1.95387 255.257 30.8897 272.402 65.1663 270.328C65.1885 270.328 65.2219 270.328 65.2441 270.328C68.6195 270.117 70.9735 266.868 70.1407 263.596C69.7299 262.011 69.5078 260.336 69.4856 258.617C69.308 247.538 77.891 238.034 88.9279 237.036C96.9447 236.315 104.262 240.075 108.492 246.196C110.58 249.213 115.01 249.435 117.264 246.529C122.416 239.908 125.159 232.367 124.681 224.504C123.271 201.271 94.3353 184.115 60.0587 186.2Z" fill="#8B8B8C"/>
<path d="M47.9557 252.052C48.2111 256.177 45.0577 259.726 40.9271 259.981C36.7966 260.236 33.2435 257.087 32.9881 252.961C32.7327 248.836 35.8861 245.287 40.0167 245.032C44.1472 244.788 47.7003 247.926 47.9557 252.052Z" fill="#5F22D9"/>
<path d="M27.5367 237.879C27.7921 242.004 24.6387 245.553 20.5082 245.808C16.3777 246.063 12.8245 242.914 12.5692 238.788C12.3138 234.663 15.4672 231.114 19.5977 230.859C23.7393 230.615 27.2925 233.753 27.5367 237.879Z" fill="#5F22D9"/>
<path d="M33.5446 213.104C33.7999 217.229 30.6465 220.778 26.516 221.033C22.3855 221.288 18.8324 218.139 18.577 214.013C18.3216 209.888 21.475 206.339 25.6055 206.084C29.736 205.829 33.2892 208.978 33.5446 213.104Z" fill="#5F22D9"/>
<path d="M58.8483 199.708C59.1036 203.833 55.9502 207.382 51.8197 207.637C47.6892 207.892 44.1361 204.742 43.8807 200.617C43.6253 196.491 46.7787 192.943 50.9092 192.688C55.0398 192.444 58.5929 195.582 58.8483 199.708Z" fill="#5F22D9"/>
<path d="M87.3522 200.073C87.6076 204.199 84.4541 207.747 80.3236 208.003C76.1931 208.258 72.64 205.108 72.3846 200.983C72.1292 196.857 75.2826 193.308 79.4131 193.053C83.5437 192.809 87.0968 195.948 87.3522 200.073Z" fill="#5F22D9"/>
<path d="M111.414 213.614C111.669 217.74 108.516 221.288 104.385 221.544C100.255 221.799 96.7015 218.649 96.4461 214.524C96.1907 210.398 99.3441 206.849 103.475 206.594C107.605 206.35 111.158 209.489 111.414 213.614Z" fill="#5F22D9"/>
<path opacity="0.68" d="M93.4251 190.625L86.3632 205.375C85.4305 205.33 84.5311 205.863 84.1647 206.772L84.1425 206.816C83.6761 207.97 84.2313 209.289 85.3861 209.755L86.0523 210.021C85.9191 209.977 85.2528 209.899 83.8316 211.962C83.7428 212.084 83.6539 212.217 83.5651 212.361C83.554 212.372 83.5429 212.395 83.5429 212.406C83.4541 212.539 83.3652 212.683 83.2764 212.827C83.2542 212.86 83.2431 212.882 83.2209 212.916C83.1321 213.049 83.0543 213.204 82.9655 213.348C82.9433 213.393 82.91 213.437 82.8878 213.481C82.8101 213.625 82.7212 213.781 82.6324 213.936C82.5991 214.003 82.5658 214.058 82.5325 214.125C82.4547 214.28 82.3659 214.435 82.2771 214.601C82.2327 214.679 82.1883 214.768 82.1438 214.845C82.0661 215.001 81.9773 215.167 81.8885 215.333C81.833 215.433 81.7885 215.533 81.733 215.644C81.6553 215.81 81.5665 215.977 81.4887 216.154C81.4332 216.276 81.3666 216.398 81.3111 216.52C81.2334 216.697 81.1445 216.864 81.0557 217.052C80.9891 217.185 80.9225 217.33 80.8558 217.474C80.7781 217.651 80.6893 217.84 80.6005 218.028C80.5227 218.195 80.4561 218.361 80.3784 218.527C80.3007 218.716 80.2118 218.904 80.1341 219.093C80.0564 219.281 79.9676 219.481 79.8898 219.669C79.8121 219.869 79.7233 220.058 79.6456 220.257C79.5567 220.468 79.4679 220.69 79.3791 220.912C79.3013 221.111 79.2125 221.311 79.1348 221.522C79.0349 221.765 78.9349 222.021 78.835 222.276C78.7573 222.486 78.6684 222.686 78.5907 222.897C78.4797 223.185 78.3575 223.484 78.2465 223.784C78.1688 223.983 78.1022 224.161 78.0244 224.361C77.8912 224.715 77.7469 225.092 77.6025 225.47C77.547 225.625 77.4915 225.78 77.4248 225.946C77.225 226.49 77.014 227.055 76.803 227.643C76.2368 229.218 75.5817 231.059 74.8488 233.122C74.76 233.354 74.6823 233.587 74.5934 233.831C74.4824 234.142 74.3714 234.463 74.2603 234.785C74.1715 235.051 74.0716 235.306 73.9827 235.584C73.8384 236.005 73.6829 236.437 73.5275 236.87C73.4609 237.07 73.3943 237.258 73.3165 237.458C73.1611 237.89 73.0056 238.334 72.8502 238.766C72.7725 238.988 72.6947 239.21 72.617 239.443C72.4727 239.853 72.3172 240.286 72.1729 240.707C72.084 240.973 71.9952 241.228 71.8953 241.494C71.7176 241.982 71.5511 242.481 71.3734 242.992C71.3068 243.18 71.2402 243.369 71.1736 243.557C70.9959 244.067 70.8071 244.589 70.6295 245.11C70.5518 245.332 70.474 245.553 70.3963 245.775C70.2297 246.263 70.0521 246.751 69.8855 247.25C69.7967 247.505 69.7079 247.749 69.6191 248.004C69.4414 248.525 69.2526 249.058 69.0639 249.59C68.9862 249.823 68.9084 250.045 68.8307 250.278C68.653 250.799 68.4643 251.331 68.2866 251.852C68.1978 252.119 68.109 252.374 68.009 252.64C67.8425 253.117 67.6759 253.594 67.5094 254.07C67.3872 254.414 67.2762 254.747 67.1541 255.091C67.0097 255.501 66.8654 255.911 66.721 256.333C66.5878 256.721 66.4545 257.12 66.3102 257.508C66.1547 257.952 66.0104 258.395 65.855 258.839C65.7772 259.072 65.6995 259.305 65.6107 259.538C64.3671 263.153 63.1124 266.813 61.8799 270.45C62.968 270.428 64.0673 270.373 65.1665 270.306C65.1887 270.306 65.2221 270.306 65.2443 270.306C68.6197 270.095 70.9737 266.846 70.1409 263.574C69.7301 261.989 69.508 260.314 69.4858 258.595C69.3304 248.902 75.8815 240.408 84.9197 237.768C85.9191 235.606 86.8073 233.665 87.5624 232.035C95.5125 214.646 93.5361 213.082 93.2918 212.96L93.958 213.226C95.1128 213.692 96.4341 213.138 96.9005 211.984L96.9227 211.94C97.3668 210.864 96.9005 209.644 95.89 209.112L101.175 193.93C98.7325 192.71 96.1454 191.601 93.4251 190.625Z" fill="#2F2F35"/>
<path opacity="0.42" d="M32.2443 211.961C32.3442 213.691 31.034 215.166 29.3019 215.277C27.5697 215.377 26.093 214.069 25.9819 212.339C25.882 210.608 27.1922 209.134 28.9244 209.023C30.6565 208.912 32.1444 210.231 32.2443 211.961Z" fill="white"/>
<path opacity="0.42" d="M57.5597 198.831C57.6597 200.561 56.3495 202.036 54.6173 202.147C52.8852 202.247 51.4084 200.938 51.2973 199.208C51.1974 197.478 52.5076 196.003 54.2398 195.892C55.9719 195.781 57.4598 197.101 57.5597 198.831Z" fill="white"/>
<path opacity="0.42" d="M84.3752 198.166C84.4751 199.896 83.1649 201.371 81.4327 201.482C79.7006 201.582 78.2238 200.273 78.1128 198.543C78.0128 196.813 79.3231 195.338 81.0552 195.227C82.7874 195.116 84.2752 196.436 84.3752 198.166Z" fill="white"/>
<path opacity="0.42" d="M24.3722 235.672C24.4722 237.402 23.162 238.877 21.4298 238.988C19.6977 239.087 18.2209 237.779 18.1098 236.049C18.0099 234.319 19.3201 232.844 21.0523 232.733C22.7844 232.633 24.2723 233.953 24.3722 235.672Z" fill="white"/>
<path opacity="0.42" d="M46.6008 249.878C46.7007 251.608 45.3905 253.083 43.6583 253.194C41.9262 253.294 40.4494 251.985 40.3384 250.255C40.2384 248.525 41.5486 247.05 43.2808 246.939C45.0018 246.84 46.4897 248.148 46.6008 249.878Z" fill="white"/>
<path d="M120.828 186.178C120.828 186.178 131.054 180.599 131.709 171.971C131.665 166.87 129.455 162.689 129.455 162.689L128.056 167.946C128.056 167.946 127.29 159.695 121.383 155.703C115.487 151.71 116.93 152.83 116.93 152.83C116.93 152.83 121.882 159.395 116.386 170.286C110.89 181.176 117.83 184.958 117.83 184.958L120.828 186.178Z" fill="#5F22D9"/>
<path d="M120.194 182.64C120.194 182.64 118.34 173.169 122.57 168.079C117.074 175.032 115.941 180.622 117.318 185.146C120.194 182.64 120.194 182.64 120.194 182.64Z" fill="#3D4FC1"/>
<path d="M115.253 184.514C116.152 182.695 118.306 181.875 120.194 182.64L120.227 182.651L120.26 182.662C122.148 183.427 123.114 185.512 122.481 187.453L115.752 208.091L110.689 206.028L105.626 203.966L115.253 184.514Z" fill="white"/>
<path d="M104.849 208.579L113.41 212.061C114.565 212.527 115.886 211.973 116.352 210.819L116.375 210.775C116.841 209.622 116.286 208.302 115.131 207.836L106.57 204.354C105.415 203.888 104.094 204.443 103.628 205.596L103.606 205.64C103.139 206.794 103.694 208.102 104.849 208.579Z" fill="#CCCCCC"/>
<path d="M105.538 208.856L109.135 210.32L112.733 211.784C112.733 211.784 115.464 212.427 107.037 230.87C100.774 244.577 84.6518 278.945 75.3693 297.31C74.5032 299.028 71.8939 297.964 72.4712 296.134C78.667 276.516 91.1807 240.673 96.2772 226.489C103.139 207.415 105.538 208.856 105.538 208.856Z" fill="#2F2F35"/>
<path d="M86.3618 274.852C82.3534 283.214 78.4783 291.155 75.3693 297.298C74.5032 299.017 71.8939 297.953 72.4712 296.123C74.5476 289.558 77.3235 281.163 80.2992 272.379L86.3618 274.852Z" fill="white"/>
<path opacity="0.75" d="M85.0967 258.373C98.3099 242.038 103.273 210.919 103.295 210.786C101.83 212.915 99.5646 217.34 96.2779 226.489C93.7796 233.421 89.5159 245.52 85.0967 258.373Z" fill="white"/>
<path d="M464.701 244.802L467.043 249.538L472.273 250.303L468.487 253.985L469.375 259.197L464.701 256.735L460.015 259.197L460.914 253.985L457.128 250.303L462.358 249.538L464.701 244.802Z" fill="#9E9E9E"/>
<path d="M532.099 238.182L535.364 244.802L542.67 245.856L537.385 251.013L538.628 258.277L532.099 254.85L525.559 258.277L526.803 251.013L521.518 245.856L528.824 244.802L532.099 238.182Z" fill="#666666"/>
<path d="M511.635 337.314L513.467 341.007L517.542 341.606L514.589 344.479L515.288 348.537L511.635 346.619L507.993 348.537L508.693 344.479L505.739 341.606L509.814 341.007L511.635 337.314Z" fill="#9E9E9E"/>
<path d="M446.547 312.307L449.811 318.916L457.128 319.981L451.832 325.127L453.086 332.402L446.547 328.964L440.007 332.402L441.261 325.127L435.965 319.981L443.271 318.916L446.547 312.307Z" fill="#666666"/>
<path d="M509.222 327.94C527.909 320.456 536.983 299.259 529.49 280.595C521.997 261.931 500.774 252.868 482.087 260.352C463.4 267.836 454.325 289.033 461.819 307.697C469.312 326.361 490.535 335.424 509.222 327.94Z" fill="#5F22D9"/>
<path d="M485.841 329.208C498.722 332.801 511.901 329.008 520.895 320.38C514.8 322.01 508.215 322.088 501.697 320.28C482.311 314.879 470.974 294.796 476.381 275.433C478.202 268.923 481.678 263.333 486.23 258.975C474.194 262.202 464.112 271.507 460.525 284.36C455.107 303.723 466.444 323.796 485.841 329.208Z" fill="#3D4FC1"/>
<path opacity="0.52" d="M505.428 259.075C503.607 258.565 501.786 258.21 499.976 257.988C499.022 261.393 498.511 264.975 498.511 268.679C498.511 287.632 511.791 303.468 529.567 307.449C530.011 306.307 530.411 305.131 530.744 303.923C536.152 284.56 524.826 264.476 505.428 259.075Z" fill="#FFF6E7"/>
<path d="M459.304 291.147C445.158 285.646 436.364 280.667 437.108 278.016C438.341 273.614 465.478 277.34 497.745 286.323C530 295.317 555.15 306.163 553.929 310.565C553.196 313.205 543.147 312.928 528.279 310.344" stroke="#666666" stroke-width="2" stroke-miterlimit="10"/>
</g>
<defs>
<clipPath id="clip0_1015_7013">
<rect width="562" height="465" fill="white" transform="translate(0.5 0.186523)"/>
</clipPath>
</defs>
</svg>
