<svg width="266" height="201" viewBox="0 0 266 201" fill="none" xmlns="http://www.w3.org/2000/svg">
<path d="M100.426 200.424C75.1413 200.424 49.8564 200.275 24.5715 200.498C15.075 200.583 7.55215 197.578 3.00022 189C-1.66842 180.208 0.241482 172.15 5.82263 164.24C31.0969 128.449 56.1803 92.52 81.3485 56.6547C92.0758 41.3658 109.053 41.2809 119.727 56.4849C145.118 92.6368 170.286 128.937 195.921 164.898C206.606 179.879 197.64 196.506 185.194 199.564C182.499 200.222 179.613 200.36 176.812 200.36C151.346 200.413 125.892 200.392 100.426 200.392C100.426 200.403 100.426 200.413 100.426 200.424Z" fill="#E5E5E5"/>
<path d="M200.876 200.148C201.895 198.8 202.51 198.024 203.083 197.228C211.465 185.454 211.603 172.745 203.317 160.768C195.475 149.44 187.613 138.132 179.549 126.963C177.703 124.404 177.459 122.642 179.485 120.072C182.764 115.921 185.523 111.366 188.653 107.098C195.518 97.7334 206.266 97.6484 212.93 107.066C229.45 130.424 245.812 153.888 262.269 177.289C265.791 182.311 266.916 187.503 263.839 193.151C260.889 198.577 256.157 200.477 250.194 200.424C235.169 200.318 220.155 200.392 205.131 200.382C203.953 200.382 202.786 200.265 200.876 200.148Z" fill="#E5E5E5"/>
<path d="M199.953 24.3996C199.878 37.427 189.459 47.9488 176.482 48.1187C163.59 48.2779 152.481 37.2678 152.407 24.2403C152.322 11.1704 163.113 0.489391 176.376 0.500008C189.809 0.510625 200.027 10.8731 199.953 24.3996Z" fill="#E5E5E5"/>
</svg>
