<svg width="504" height="380" viewBox="0 0 504 380" fill="none" xmlns="http://www.w3.org/2000/svg">
<path d="M190.112 379.855C142.071 379.855 94.0295 379.573 45.9881 379.996C27.9449 380.158 13.6514 374.449 5.00277 358.149C-3.86765 341.446 -0.23884 326.135 10.3653 311.106C58.3866 243.103 106.045 174.838 153.864 106.694C174.246 77.6452 206.502 77.4838 226.783 106.371C275.026 175.06 322.846 244.031 371.553 312.357C391.854 340.821 374.819 372.411 351.171 378.221C346.05 379.472 340.567 379.734 335.244 379.734C286.86 379.835 238.496 379.795 190.112 379.795C190.112 379.815 190.112 379.835 190.112 379.855Z" fill="#9C9C9C"/>
<path d="M380.967 379.331C382.903 376.769 384.072 375.297 385.161 373.784C401.087 351.412 401.349 327.265 385.604 304.51C370.706 282.986 355.767 261.502 340.446 240.28C336.938 235.418 336.474 232.069 340.325 227.187C346.554 219.3 351.796 210.646 357.743 202.536C370.787 184.744 391.209 184.582 403.869 202.476C435.258 246.856 466.345 291.438 497.613 335.899C504.306 345.441 506.443 355.305 500.597 366.037C494.992 376.346 486.001 379.957 474.671 379.856C446.125 379.654 417.598 379.795 389.052 379.775C386.814 379.775 384.596 379.553 380.967 379.331Z" fill="#9C9C9C"/>
<path d="M379.213 45.4092C379.072 70.1614 359.275 90.1527 334.619 90.4755C310.125 90.7781 289.017 69.8588 288.876 45.1066C288.715 20.2738 309.217 -0.0201579 334.417 1.50264e-05C359.94 0.0201879 379.354 19.7089 379.213 45.4092Z" fill="#9C9C9C"/>
</svg>
