<svg width="98" height="74" viewBox="0 0 98 74" fill="none" xmlns="http://www.w3.org/2000/svg">
<path d="M36.9663 73.472C27.6249 73.472 18.2835 73.4177 8.94214 73.4991C5.43373 73.5301 2.65444 72.4334 0.972761 69.3021C-0.752042 66.0934 -0.0464411 63.152 2.01548 60.2649C11.3529 47.2012 20.6198 34.0871 29.9181 20.9963C33.8812 15.4158 40.1532 15.3848 44.0968 20.9343C53.4773 34.1298 62.7756 47.3795 72.2463 60.5052C76.1938 65.9733 72.8814 72.042 68.2832 73.1581C67.2875 73.3984 66.2213 73.4487 65.1864 73.4487C55.7784 73.4681 46.3743 73.4604 36.9663 73.4604C36.9663 73.4642 36.9663 73.4681 36.9663 73.472Z" fill="#E5E5E5"/>
<path d="M74.0758 73.3725C74.4522 72.8803 74.6795 72.5974 74.8912 72.3067C77.988 68.009 78.039 63.3703 74.9774 58.9989C72.0805 54.8639 69.1758 50.7367 66.1966 46.6599C65.5145 45.7259 65.4244 45.0826 66.1731 44.1448C67.3844 42.6295 68.4036 40.967 69.56 39.4091C72.0962 35.9911 76.0672 35.9601 78.529 39.3975C84.6324 47.9232 90.6771 56.4877 96.757 65.0289C98.0584 66.8619 98.474 68.7569 97.3372 70.8186C96.2474 72.7989 94.4991 73.4926 92.296 73.4732C86.7453 73.4345 81.1985 73.4616 75.6478 73.4577C75.2126 73.4577 74.7814 73.4151 74.0758 73.3725Z" fill="#E5E5E5"/>
<path d="M73.7366 9.22335C73.7092 13.9784 69.8597 17.8188 65.0656 17.8808C60.3028 17.9389 56.1985 13.9202 56.1711 9.16522C56.1397 4.3947 60.1264 0.496128 65.0264 0.500003C69.9891 0.503878 73.7641 4.28619 73.7366 9.22335Z" fill="#E5E5E5"/>
</svg>
