<svg width="99" height="74" viewBox="0 0 99 74" fill="none" xmlns="http://www.w3.org/2000/svg">
<path d="M37.5598 73.265C28.2184 73.265 18.877 73.2107 9.53564 73.2921C6.02724 73.3231 3.24795 72.2264 1.56627 69.0951C-0.158536 65.8864 0.547065 62.945 2.60899 60.0579C11.9464 46.9942 21.2133 33.8801 30.5116 20.7893C34.4747 15.2088 40.7467 15.1778 44.6903 20.7273C54.0708 33.9227 63.3691 47.1724 72.8398 60.2981C76.7873 65.7662 73.4749 71.835 68.8767 72.9511C67.881 73.1913 66.8148 73.2417 65.7799 73.2417C56.3719 73.2611 46.9678 73.2533 37.5598 73.2533C37.5598 73.2572 37.5598 73.2611 37.5598 73.265Z" fill="#5B5B5B"/>
<path d="M74.6706 73.1644C75.0469 72.6723 75.2742 72.3894 75.4859 72.0987C78.5827 67.801 78.6337 63.1622 75.5722 58.7909C72.6753 54.6559 69.7705 50.5287 66.7913 46.4519C66.1093 45.5179 66.0191 44.8746 66.7678 43.9368C67.9791 42.4215 68.9983 40.759 70.1547 39.2011C72.691 35.7831 76.6619 35.7521 79.1237 39.1895C85.2271 47.7152 91.2718 56.2797 97.3517 64.8209C98.6532 66.6539 99.0687 68.5489 97.9319 70.6106C96.8421 72.5909 95.0938 73.2846 92.8907 73.2652C87.34 73.2265 81.7932 73.2536 76.2425 73.2497C75.8074 73.2497 75.3762 73.2071 74.6706 73.1644Z" fill="#5B5B5B"/>
<path d="M74.3294 9.01632C74.302 13.7713 70.4525 17.6118 65.6584 17.6738C60.8955 17.7319 56.7913 13.7132 56.7639 8.95819C56.7325 4.18767 60.7191 0.289096 65.6192 0.292972C70.5819 0.296847 74.3569 4.07916 74.3294 9.01632Z" fill="#5B5B5B"/>
</svg>
