<svg width="505" height="380" viewBox="0 0 505 380" fill="none" xmlns="http://www.w3.org/2000/svg">
<path d="M190.572 379.856C142.53 379.856 94.489 379.573 46.4476 379.997C28.4044 380.158 14.1109 374.449 5.46224 358.15C-3.40817 341.447 0.220632 326.135 10.8248 311.107C58.846 243.104 106.504 174.839 154.324 106.695C174.706 77.6456 206.962 77.4843 227.243 106.372C275.486 175.061 323.305 244.032 372.012 312.357C392.313 340.821 375.278 372.412 351.63 378.222C346.51 379.473 341.026 379.735 335.704 379.735C287.32 379.836 238.956 379.795 190.572 379.795C190.572 379.815 190.572 379.836 190.572 379.856Z" fill="#9C9C9C"/>
<path d="M381.427 379.331C383.362 376.769 384.531 375.297 385.62 373.784C401.546 351.412 401.809 327.265 386.064 304.51C371.165 282.986 356.227 261.502 340.905 240.28C337.397 235.418 336.934 232.069 340.784 227.187C347.014 219.3 352.255 210.646 358.202 202.536C371.246 184.744 391.668 184.582 404.329 202.476C435.718 246.856 466.804 291.438 498.073 335.899C504.766 345.441 506.903 355.305 501.056 366.037C495.452 376.346 486.46 379.957 475.131 379.856C446.584 379.654 418.057 379.795 389.511 379.775C387.273 379.775 385.056 379.553 381.427 379.331Z" fill="#9C9C9C"/>
<path d="M379.673 45.4092C379.531 70.1614 359.734 90.1527 335.079 90.4755C310.584 90.7781 289.477 69.8588 289.335 45.1066C289.174 20.2738 309.677 -0.0201579 334.877 1.50264e-05C360.4 0.0201879 379.814 19.7089 379.673 45.4092Z" fill="#9C9C9C"/>
</svg>
