<svg width="25" height="26" viewBox="0 0 25 26" fill="none" xmlns="http://www.w3.org/2000/svg">
<g clip-path="url(#clip0_966_12275)">
<path d="M12.5073 2.90962C15.8491 2.90962 16.2449 2.92427 17.5591 2.98288C18.7805 3.0366 19.4401 3.24172 19.8798 3.41265C20.4612 3.6373 20.8814 3.91079 21.3162 4.34545C21.7559 4.78499 22.0246 5.20011 22.2494 5.78127C22.4204 6.22081 22.6256 6.88501 22.6793 8.10106C22.7379 9.41968 22.7526 9.81527 22.7526 13.1509C22.7526 16.4914 22.7379 16.887 22.6793 18.2007C22.6256 19.4216 22.4204 20.0809 22.2494 20.5205C22.0246 21.1017 21.751 21.5217 21.3162 21.9563C20.8765 22.3958 20.4612 22.6645 19.8798 22.8891C19.4401 23.06 18.7757 23.2652 17.5591 23.3189C16.24 23.3775 15.8442 23.3921 12.5073 23.3921C9.16553 23.3921 8.76979 23.3775 7.45554 23.3189C6.23412 23.2652 5.57456 23.06 5.13484 22.8891C4.55345 22.6645 4.13328 22.391 3.69846 21.9563C3.25875 21.5168 2.99003 21.1017 2.76529 20.5205C2.59429 20.0809 2.3891 19.4168 2.33535 18.2007C2.27672 16.8821 2.26207 16.4865 2.26207 13.1509C2.26207 9.81038 2.27672 9.4148 2.33535 8.10106C2.3891 6.88012 2.59429 6.22081 2.76529 5.78127C2.99003 5.20011 3.26363 4.7801 3.69846 4.34545C4.13817 3.90591 4.55345 3.6373 5.13484 3.41265C5.57456 3.24172 6.23901 3.0366 7.45554 2.98288C8.76979 2.92427 9.16553 2.90962 12.5073 2.90962ZM12.5073 0.658203C9.11178 0.658203 8.68673 0.672854 7.35294 0.73146C6.02404 0.790065 5.11042 1.00495 4.31894 1.31263C3.49326 1.63496 2.79461 2.05984 2.10084 2.75822C1.40219 3.45172 0.977135 4.1501 0.65468 4.97057C0.346883 5.76662 0.131913 6.675 0.0732851 8.00339C0.014657 9.34154 0 9.76643 0 13.1606C0 16.5549 0.014657 16.9798 0.0732851 18.313C0.131913 19.6414 0.346883 20.5547 0.65468 21.3458C0.977135 22.1712 1.40219 22.8696 2.10084 23.5631C2.79461 24.2566 3.49326 24.6863 4.31405 25.0038C5.11042 25.3115 6.01915 25.5263 7.34806 25.5849C8.68184 25.6436 9.1069 25.6582 12.5024 25.6582C15.898 25.6582 16.323 25.6436 17.6568 25.5849C18.9857 25.5263 19.8994 25.3115 20.6908 25.0038C21.5116 24.6863 22.2103 24.2566 22.904 23.5631C23.5978 22.8696 24.0278 22.1712 24.3453 21.3507C24.6531 20.5547 24.8681 19.6463 24.9267 18.3179C24.9853 16.9846 25 16.5597 25 13.1655C25 9.77131 24.9853 9.34642 24.9267 8.01316C24.8681 6.68477 24.6531 5.77151 24.3453 4.98034C24.0375 4.1501 23.6125 3.45172 22.9138 2.75822C22.2201 2.06473 21.5214 1.63496 20.7006 1.31751C19.9042 1.00983 18.9955 0.794949 17.6666 0.736343C16.3279 0.672854 15.9029 0.658203 12.5073 0.658203Z" fill="#5B5B5B"/>
<path d="M12.5 6.6582C8.91141 6.6582 6 9.56961 6 13.1582C6 16.7468 8.91141 19.6582 12.5 19.6582C16.0886 19.6582 19 16.7468 19 13.1582C19 9.56961 16.0886 6.6582 12.5 6.6582ZM12.5 17.3746C10.1719 17.3746 8.28365 15.4863 8.28365 13.1582C8.28365 10.8301 10.1719 8.94185 12.5 8.94185C14.8281 8.94185 16.7163 10.8301 16.7163 13.1582C16.7163 15.4863 14.8281 17.3746 12.5 17.3746Z" fill="#5B5B5B"/>
<path d="M21 6.1582C21 6.98882 20.3257 7.6582 19.5 7.6582C18.6694 7.6582 18 6.98394 18 6.1582C18 5.32758 18.6743 4.6582 19.5 4.6582C20.3257 4.6582 21 5.33247 21 6.1582Z" fill="#5B5B5B"/>
</g>
<defs>
<clipPath id="clip0_966_12275">
<rect width="25" height="25" fill="white" transform="translate(0 0.658203)"/>
</clipPath>
</defs>
</svg>
