<svg width="26" height="25" viewBox="0 0 26 25" fill="none" xmlns="http://www.w3.org/2000/svg">
<g clip-path="url(#clip0_17_315)">
<path d="M13.0073 2.25142C16.3491 2.25142 16.7449 2.26607 18.0591 2.32467C19.2805 2.37839 19.9401 2.58351 20.3798 2.75444C20.9612 2.9791 21.3814 3.25259 21.8162 3.68724C22.2559 4.12678 22.5246 4.5419 22.7494 5.12307C22.9204 5.56261 23.1256 6.2268 23.1793 7.44286C23.2379 8.76148 23.2526 9.15706 23.2526 12.4927C23.2526 15.8332 23.2379 16.2288 23.1793 17.5425C23.1256 18.7634 22.9204 19.4227 22.7494 19.8623C22.5246 20.4434 22.251 20.8635 21.8162 21.2981C21.3765 21.7376 20.9612 22.0063 20.3798 22.2309C19.9401 22.4018 19.2757 22.607 18.0591 22.6607C16.74 22.7193 16.3442 22.7339 13.0073 22.7339C9.66553 22.7339 9.26979 22.7193 7.95554 22.6607C6.73412 22.607 6.07456 22.4018 5.63484 22.2309C5.05345 22.0063 4.63328 21.7328 4.19846 21.2981C3.75875 20.8586 3.49003 20.4434 3.26529 19.8623C3.09429 19.4227 2.8891 18.7585 2.83535 17.5425C2.77672 16.2239 2.76207 15.8283 2.76207 12.4927C2.76207 9.15218 2.77672 8.75659 2.83535 7.44286C2.8891 6.22192 3.09429 5.56261 3.26529 5.12307C3.49003 4.5419 3.76363 4.1219 4.19846 3.68724C4.63817 3.2477 5.05345 2.9791 5.63484 2.75444C6.07456 2.58351 6.73901 2.37839 7.95554 2.32467C9.26979 2.26607 9.66553 2.25142 13.0073 2.25142ZM13.0073 0C9.61178 0 9.18673 0.0146513 7.85294 0.0732565C6.52404 0.131862 5.61042 0.346747 4.81894 0.654425C3.99326 0.976753 3.29461 1.40164 2.60084 2.10002C1.90219 2.79351 1.47714 3.49189 1.15468 4.31237C0.846883 5.10842 0.631913 6.0168 0.573285 7.34518C0.514657 8.68334 0.5 9.10822 0.5 12.5024C0.5 15.8967 0.514657 16.3215 0.573285 17.6548C0.631913 18.9832 0.846883 19.8965 1.15468 20.6876C1.47714 21.513 1.90219 22.2114 2.60084 22.9049C3.29461 23.5984 3.99326 24.0281 4.81405 24.3456C5.61042 24.6533 6.51915 24.8681 7.84806 24.9267C9.18184 24.9853 9.6069 25 13.0024 25C16.398 25 16.823 24.9853 18.1568 24.9267C19.4857 24.8681 20.3994 24.6533 21.1908 24.3456C22.0116 24.0281 22.7103 23.5984 23.404 22.9049C24.0978 22.2114 24.5278 21.513 24.8453 20.6925C25.1531 19.8965 25.3681 18.9881 25.4267 17.6597C25.4853 16.3264 25.5 15.9015 25.5 12.5073C25.5 9.11311 25.4853 8.68822 25.4267 7.35495C25.3681 6.02657 25.1531 5.1133 24.8453 4.32213C24.5375 3.49189 24.1125 2.79351 23.4138 2.10002C22.7201 1.40652 22.0214 0.976753 21.2006 0.659308C20.4042 0.351631 19.4955 0.136745 18.1666 0.0781403C16.8279 0.0146513 16.4029 0 13.0073 0Z" fill="#5B5B5B"/>
<path d="M13 6C9.41141 6 6.5 8.91141 6.5 12.5C6.5 16.0886 9.41141 19 13 19C16.5886 19 19.5 16.0886 19.5 12.5C19.5 8.91141 16.5886 6 13 6ZM13 16.7163C10.6719 16.7163 8.78365 14.8281 8.78365 12.5C8.78365 10.1719 10.6719 8.28365 13 8.28365C15.3281 8.28365 17.2163 10.1719 17.2163 12.5C17.2163 14.8281 15.3281 16.7163 13 16.7163Z" fill="#5B5B5B"/>
<path d="M21.5 5.5C21.5 6.33062 20.8257 7 20 7C19.1694 7 18.5 6.32573 18.5 5.5C18.5 4.66938 19.1743 4 20 4C20.8257 4 21.5 4.67427 21.5 5.5Z" fill="#5B5B5B"/>
</g>
<defs>
<clipPath id="clip0_17_315">
<rect width="25" height="25" fill="white" transform="translate(0.5)"/>
</clipPath>
</defs>
</svg>
