<svg width="26" height="26" viewBox="0 0 26 26" fill="none" xmlns="http://www.w3.org/2000/svg">
<g clip-path="url(#clip0_990_17175)">
<path d="M13.0073 3.00142C16.3491 3.00142 16.7449 3.01607 18.0591 3.07467C19.2805 3.12839 19.9401 3.33351 20.3798 3.50444C20.9612 3.7291 21.3814 4.00259 21.8162 4.43724C22.2559 4.87678 22.5246 5.2919 22.7494 5.87307C22.9204 6.31261 23.1256 6.9768 23.1793 8.19286C23.2379 9.51148 23.2526 9.90706 23.2526 13.2427C23.2526 16.5832 23.2379 16.9788 23.1793 18.2925C23.1256 19.5134 22.9204 20.1727 22.7494 20.6123C22.5246 21.1934 22.251 21.6135 21.8162 22.0481C21.3765 22.4876 20.9612 22.7563 20.3798 22.9809C19.9401 23.1518 19.2757 23.357 18.0591 23.4107C16.74 23.4693 16.3442 23.4839 13.0073 23.4839C9.66553 23.4839 9.26979 23.4693 7.95554 23.4107C6.73412 23.357 6.07456 23.1518 5.63484 22.9809C5.05345 22.7563 4.63328 22.4828 4.19846 22.0481C3.75875 21.6086 3.49003 21.1934 3.26529 20.6123C3.09429 20.1727 2.8891 19.5085 2.83535 18.2925C2.77672 16.9739 2.76207 16.5783 2.76207 13.2427C2.76207 9.90218 2.77672 9.50659 2.83535 8.19286C2.8891 6.97192 3.09429 6.31261 3.26529 5.87307C3.49003 5.2919 3.76363 4.8719 4.19846 4.43724C4.63817 3.9977 5.05345 3.7291 5.63484 3.50444C6.07456 3.33351 6.73901 3.12839 7.95554 3.07467C9.26979 3.01607 9.66553 3.00142 13.0073 3.00142ZM13.0073 0.75C9.61178 0.75 9.18673 0.764651 7.85294 0.823257C6.52404 0.881862 5.61042 1.09675 4.81894 1.40442C3.99326 1.72675 3.29461 2.15164 2.60084 2.85002C1.90219 3.54351 1.47714 4.24189 1.15468 5.06237C0.846883 5.85842 0.631913 6.7668 0.573285 8.09518C0.514657 9.43334 0.5 9.85822 0.5 13.2524C0.5 16.6467 0.514657 17.0715 0.573285 18.4048C0.631913 19.7332 0.846883 20.6465 1.15468 21.4376C1.47714 22.263 1.90219 22.9614 2.60084 23.6549C3.29461 24.3484 3.99326 24.7781 4.81405 25.0956C5.61042 25.4033 6.51915 25.6181 7.84806 25.6767C9.18184 25.7353 9.6069 25.75 13.0024 25.75C16.398 25.75 16.823 25.7353 18.1568 25.6767C19.4857 25.6181 20.3994 25.4033 21.1908 25.0956C22.0116 24.7781 22.7103 24.3484 23.404 23.6549C24.0978 22.9614 24.5278 22.263 24.8453 21.4425C25.1531 20.6465 25.3681 19.7381 25.4267 18.4097C25.4853 17.0764 25.5 16.6515 25.5 13.2573C25.5 9.86311 25.4853 9.43822 25.4267 8.10495C25.3681 6.77657 25.1531 5.8633 24.8453 5.07213C24.5375 4.24189 24.1125 3.54351 23.4138 2.85002C22.7201 2.15652 22.0214 1.72675 21.2006 1.40931C20.4042 1.10163 19.4955 0.886745 18.1666 0.82814C16.8279 0.764651 16.4029 0.75 13.0073 0.75Z" fill="#5B5B5B"/>
<path d="M13 6.75C9.41141 6.75 6.5 9.66141 6.5 13.25C6.5 16.8386 9.41141 19.75 13 19.75C16.5886 19.75 19.5 16.8386 19.5 13.25C19.5 9.66141 16.5886 6.75 13 6.75ZM13 17.4663C10.6719 17.4663 8.78365 15.5781 8.78365 13.25C8.78365 10.9219 10.6719 9.03365 13 9.03365C15.3281 9.03365 17.2163 10.9219 17.2163 13.25C17.2163 15.5781 15.3281 17.4663 13 17.4663Z" fill="#5B5B5B"/>
<path d="M21.5 6.25C21.5 7.08062 20.8257 7.75 20 7.75C19.1694 7.75 18.5 7.07573 18.5 6.25C18.5 5.41938 19.1743 4.75 20 4.75C20.8257 4.75 21.5 5.42427 21.5 6.25Z" fill="#5B5B5B"/>
</g>
<defs>
<clipPath id="clip0_990_17175">
<rect width="25" height="25" fill="white" transform="translate(0.5 0.75)"/>
</clipPath>
</defs>
</svg>
