<svg width="26" height="26" viewBox="0 0 26 26" fill="none" xmlns="http://www.w3.org/2000/svg">
<g clip-path="url(#clip0_900_7305)">
<path d="M13.0073 2.75142C16.3491 2.75142 16.7449 2.76607 18.0591 2.82467C19.2805 2.87839 19.9401 3.08351 20.3798 3.25444C20.9612 3.4791 21.3814 3.75259 21.8162 4.18724C22.2559 4.62678 22.5246 5.0419 22.7494 5.62307C22.9204 6.06261 23.1256 6.7268 23.1793 7.94286C23.2379 9.26148 23.2526 9.65706 23.2526 12.9927C23.2526 16.3332 23.2379 16.7288 23.1793 18.0425C23.1256 19.2634 22.9204 19.9227 22.7494 20.3623C22.5246 20.9434 22.251 21.3635 21.8162 21.7981C21.3765 22.2376 20.9612 22.5063 20.3798 22.7309C19.9401 22.9018 19.2757 23.107 18.0591 23.1607C16.74 23.2193 16.3442 23.2339 13.0073 23.2339C9.66553 23.2339 9.26979 23.2193 7.95554 23.1607C6.73412 23.107 6.07456 22.9018 5.63484 22.7309C5.05345 22.5063 4.63328 22.2328 4.19846 21.7981C3.75875 21.3586 3.49003 20.9434 3.26529 20.3623C3.09429 19.9227 2.8891 19.2585 2.83535 18.0425C2.77672 16.7239 2.76207 16.3283 2.76207 12.9927C2.76207 9.65218 2.77672 9.25659 2.83535 7.94286C2.8891 6.72192 3.09429 6.06261 3.26529 5.62307C3.49003 5.0419 3.76363 4.6219 4.19846 4.18724C4.63817 3.7477 5.05345 3.4791 5.63484 3.25444C6.07456 3.08351 6.73901 2.87839 7.95554 2.82467C9.26979 2.76607 9.66553 2.75142 13.0073 2.75142ZM13.0073 0.5C9.61178 0.5 9.18673 0.514651 7.85294 0.573257C6.52404 0.631862 5.61042 0.846747 4.81894 1.15442C3.99326 1.47675 3.29461 1.90164 2.60084 2.60002C1.90219 3.29351 1.47714 3.99189 1.15468 4.81237C0.846883 5.60842 0.631913 6.5168 0.573285 7.84518C0.514657 9.18334 0.5 9.60822 0.5 13.0024C0.5 16.3967 0.514657 16.8215 0.573285 18.1548C0.631913 19.4832 0.846883 20.3965 1.15468 21.1876C1.47714 22.013 1.90219 22.7114 2.60084 23.4049C3.29461 24.0984 3.99326 24.5281 4.81405 24.8456C5.61042 25.1533 6.51915 25.3681 7.84806 25.4267C9.18184 25.4853 9.6069 25.5 13.0024 25.5C16.398 25.5 16.823 25.4853 18.1568 25.4267C19.4857 25.3681 20.3994 25.1533 21.1908 24.8456C22.0116 24.5281 22.7103 24.0984 23.404 23.4049C24.0978 22.7114 24.5278 22.013 24.8453 21.1925C25.1531 20.3965 25.3681 19.4881 25.4267 18.1597C25.4853 16.8264 25.5 16.4015 25.5 13.0073C25.5 9.61311 25.4853 9.18822 25.4267 7.85495C25.3681 6.52657 25.1531 5.6133 24.8453 4.82213C24.5375 3.99189 24.1125 3.29351 23.4138 2.60002C22.7201 1.90652 22.0214 1.47675 21.2006 1.15931C20.4042 0.851631 19.4955 0.636745 18.1666 0.57814C16.8279 0.514651 16.4029 0.5 13.0073 0.5Z" fill="#5B5B5B"/>
<path d="M13 6.5C9.41141 6.5 6.5 9.41141 6.5 13C6.5 16.5886 9.41141 19.5 13 19.5C16.5886 19.5 19.5 16.5886 19.5 13C19.5 9.41141 16.5886 6.5 13 6.5ZM13 17.2163C10.6719 17.2163 8.78365 15.3281 8.78365 13C8.78365 10.6719 10.6719 8.78365 13 8.78365C15.3281 8.78365 17.2163 10.6719 17.2163 13C17.2163 15.3281 15.3281 17.2163 13 17.2163Z" fill="#5B5B5B"/>
<path d="M21.5 6C21.5 6.83062 20.8257 7.5 20 7.5C19.1694 7.5 18.5 6.82573 18.5 6C18.5 5.16938 19.1743 4.5 20 4.5C20.8257 4.5 21.5 5.17427 21.5 6Z" fill="#5B5B5B"/>
</g>
<defs>
<clipPath id="clip0_900_7305">
<rect width="25" height="25" fill="white" transform="translate(0.5 0.5)"/>
</clipPath>
</defs>
</svg>
