<svg width="26" height="25" viewBox="0 0 26 25" fill="none" xmlns="http://www.w3.org/2000/svg">
<g clip-path="url(#clip0_990_13488)">
<path d="M13.2383 2.25142C16.5801 2.25142 16.9758 2.26607 18.2901 2.32467C19.5115 2.37839 20.1711 2.58351 20.6108 2.75444C21.1922 2.9791 21.6123 3.25259 22.0472 3.68724C22.4869 4.12678 22.7556 4.5419 22.9803 5.12307C23.1513 5.56261 23.3565 6.2268 23.4103 7.44286C23.4689 8.76148 23.4835 9.15706 23.4835 12.4927C23.4835 15.8332 23.4689 16.2288 23.4103 17.5425C23.3565 18.7634 23.1513 19.4227 22.9803 19.8623C22.7556 20.4434 22.482 20.8635 22.0472 21.2981C21.6074 21.7376 21.1922 22.0063 20.6108 22.2309C20.1711 22.4018 19.5066 22.607 18.2901 22.6607C16.9709 22.7193 16.5752 22.7339 13.2383 22.7339C9.89648 22.7339 9.50074 22.7193 8.1865 22.6607C6.96508 22.607 6.30551 22.4018 5.8658 22.2309C5.28441 22.0063 4.86424 21.7328 4.42941 21.2981C3.9897 20.8586 3.72099 20.4434 3.49625 19.8623C3.32525 19.4227 3.12005 18.7585 3.06631 17.5425C3.00768 16.2239 2.99302 15.8283 2.99302 12.4927C2.99302 9.15218 3.00768 8.75659 3.06631 7.44286C3.12005 6.22192 3.32525 5.56261 3.49625 5.12307C3.72099 4.5419 3.99459 4.1219 4.42941 3.68724C4.86912 3.2477 5.28441 2.9791 5.8658 2.75444C6.30551 2.58351 6.96996 2.37839 8.1865 2.32467C9.50074 2.26607 9.89648 2.25142 13.2383 2.25142ZM13.2383 0C9.84274 0 9.41769 0.0146513 8.0839 0.0732565C6.75499 0.131862 5.84137 0.346747 5.04989 0.654425C4.22421 0.976753 3.52556 1.40164 2.8318 2.10002C2.13315 2.79351 1.70809 3.49189 1.38564 4.31237C1.07784 5.10842 0.86287 6.0168 0.804242 7.34518C0.745614 8.68334 0.730957 9.10822 0.730957 12.5024C0.730957 15.8967 0.745614 16.3215 0.804242 17.6548C0.86287 18.9832 1.07784 19.8965 1.38564 20.6876C1.70809 21.513 2.13315 22.2114 2.8318 22.9049C3.52556 23.5984 4.22422 24.0281 5.04501 24.3456C5.84137 24.6533 6.75011 24.8681 8.07901 24.9267C9.4128 24.9853 9.83786 25 13.2334 25C16.6289 25 17.054 24.9853 18.3878 24.9267C19.7167 24.8681 20.6303 24.6533 21.4218 24.3456C22.2426 24.0281 22.9412 23.5984 23.635 22.9049C24.3288 22.2114 24.7587 21.513 25.0763 20.6925C25.3841 19.8965 25.599 18.9881 25.6577 17.6597C25.7163 16.3264 25.731 15.9015 25.731 12.5073C25.731 9.11311 25.7163 8.68822 25.6577 7.35495C25.599 6.02657 25.3841 5.1133 25.0763 4.32213C24.7685 3.49189 24.3434 2.79351 23.6448 2.10002C22.951 1.40652 22.2524 0.976753 21.4316 0.659308C20.6352 0.351631 19.7265 0.136745 18.3976 0.0781403C17.0589 0.0146513 16.6338 0 13.2383 0Z" fill="#5B5B5B"/>
<path d="M13.231 6C9.64236 6 6.73096 8.91141 6.73096 12.5C6.73096 16.0886 9.64236 19 13.231 19C16.8196 19 19.731 16.0886 19.731 12.5C19.731 8.91141 16.8196 6 13.231 6ZM13.231 16.7163C10.9028 16.7163 9.01461 14.8281 9.01461 12.5C9.01461 10.1719 10.9028 8.28365 13.231 8.28365C15.5591 8.28365 17.4473 10.1719 17.4473 12.5C17.4473 14.8281 15.5591 16.7163 13.231 16.7163Z" fill="#5B5B5B"/>
<path d="M21.731 5.5C21.731 6.33062 21.0567 7 20.231 7C19.4003 7 18.731 6.32573 18.731 5.5C18.731 4.66938 19.4052 4 20.231 4C21.0567 4 21.731 4.67427 21.731 5.5Z" fill="#5B5B5B"/>
</g>
<defs>
<clipPath id="clip0_990_13488">
<rect width="25" height="25" fill="white" transform="translate(0.730957)"/>
</clipPath>
</defs>
</svg>
