<svg width="35" height="34" viewBox="0 0 35 34" fill="none" xmlns="http://www.w3.org/2000/svg">
<path d="M26 23.6371V10.1998V10.1951C26 8.61141 26 7.81905 25.6915 7.21356C25.4198 6.68044 24.9858 6.24696 24.4527 5.97532C23.8466 5.6665 23.0538 5.6665 21.4669 5.6665H13.5336C11.9468 5.6665 11.1528 5.6665 10.5467 5.97532C10.0136 6.24696 9.58046 6.68044 9.30881 7.21356C9 7.81965 9 8.61295 9 10.1998V23.6371C9 25.5652 9 26.5294 9.28917 27.1194C9.82513 28.2129 10.9997 28.8416 12.2069 28.681C12.8582 28.5943 13.6603 28.0595 15.2646 26.99L15.2678 26.9879C15.9041 26.5637 16.2226 26.3514 16.5553 26.2338C17.1663 26.0178 17.8326 26.0178 18.4435 26.2338C18.7768 26.3516 19.0961 26.5644 19.7345 26.99C21.3389 28.0596 22.1422 28.5943 22.7934 28.681C24.0006 28.8416 25.1749 28.2129 25.7109 27.1194C26 26.5295 26 25.5654 26 23.6375V23.6371Z" stroke="black" stroke-width="2" stroke-linecap="round" stroke-linejoin="round"/>
</svg>
