<svg width="40" height="41" viewBox="0 0 40 41" fill="none" xmlns="http://www.w3.org/2000/svg">
<path d="M16.667 10.0832C17.3573 10.0832 17.917 9.52353 17.917 8.83317C17.917 8.14281 17.3573 7.58317 16.667 7.58317V10.0832ZM32.9166 23.8332C32.9166 23.1428 32.357 22.5832 31.6666 22.5832C30.9763 22.5832 30.4166 23.1428 30.4166 23.8332H32.9166ZM29.8463 31.8031L29.2788 30.6894L29.8463 31.8031ZM31.3037 30.3466L30.1899 29.7791L31.3037 30.3466ZM8.69662 30.3466L7.58287 30.914L8.69662 30.3466ZM10.153 31.8031L10.7205 30.6894L10.153 31.8031ZM10.153 9.19648L10.7205 10.3102L10.153 9.19648ZM8.69662 10.6532L9.81038 11.2207L8.69662 10.6532ZM32.0833 15.4998C32.0833 16.1902 32.643 16.7498 33.3333 16.7498C34.0237 16.7498 34.5833 16.1902 34.5833 15.4998H32.0833ZM33.3333 7.1665H34.5833C34.5833 6.47615 34.0237 5.9165 33.3333 5.9165V7.1665ZM25 5.9165C24.3096 5.9165 23.75 6.47615 23.75 7.1665C23.75 7.85686 24.3096 8.4165 25 8.4165V5.9165ZM20.7828 17.9493C20.2946 18.4374 20.2946 19.2289 20.7828 19.7171C21.2709 20.2052 22.0624 20.2052 22.5505 19.7171L20.7828 17.9493ZM16.667 7.58317H13.667V10.0832H16.667V7.58317ZM7.08331 14.1664V26.8331H9.58331V14.1664H7.08331ZM13.667 33.4165H26.3336V30.9165H13.667V33.4165ZM32.9166 26.8332V23.8332H30.4166V26.8332H32.9166ZM26.3336 33.4165C27.2464 33.4165 28.0061 33.4175 28.6245 33.3669C29.2576 33.3152 29.8518 33.2033 30.4138 32.9169L29.2788 30.6894C29.1278 30.7663 28.8991 30.8361 28.4208 30.8752C27.9279 30.9155 27.2877 30.9165 26.3336 30.9165V33.4165ZM30.4166 26.8332C30.4166 27.7873 30.4158 28.4277 30.3755 28.9209C30.3365 29.3996 30.2668 29.6283 30.1899 29.7791L32.4174 30.914C32.7039 30.3518 32.8157 29.7572 32.8673 29.1241C32.9177 28.5056 32.9166 27.7458 32.9166 26.8332H30.4166ZM30.4138 32.9169C31.2755 32.4778 31.9777 31.7771 32.4174 30.914L30.1899 29.7791C29.9905 30.1704 29.6715 30.4893 29.2788 30.6894L30.4138 32.9169ZM7.08331 26.8331C7.08331 27.7459 7.08234 28.5057 7.13288 29.1243C7.18461 29.7574 7.29645 30.3519 7.58287 30.914L9.81038 29.7791C9.73349 29.6281 9.66368 29.3993 9.62458 28.9207C9.58428 28.4275 9.58331 27.7871 9.58331 26.8331H7.08331ZM13.667 30.9165C12.713 30.9165 12.0724 30.9155 11.5791 30.8752C11.1003 30.8361 10.8713 30.7663 10.7205 30.6894L9.58549 32.9169C10.1476 33.2033 10.7423 33.3152 11.3755 33.3669C11.9942 33.4175 12.7541 33.4165 13.667 33.4165V30.9165ZM7.58287 30.914C8.02219 31.7763 8.72289 32.4774 9.58549 32.9169L10.7205 30.6894C10.3286 30.4897 10.0102 30.1713 9.81038 29.7791L7.58287 30.914ZM13.667 7.58317C12.7542 7.58317 11.9942 7.5822 11.3755 7.63273C10.7423 7.68445 10.1477 7.79628 9.58549 8.08272L10.7205 10.3102C10.8713 10.2334 11.1002 10.1635 11.5791 10.1244C12.0724 10.0841 12.7129 10.0832 13.667 10.0832V7.58317ZM9.58331 14.1664C9.58331 13.2124 9.58429 12.572 9.62458 12.0789C9.66367 11.6005 9.73347 11.3717 9.81038 11.2207L7.58287 10.0858C7.29647 10.6478 7.18461 11.2422 7.13288 11.8754C7.08234 12.4939 7.08331 13.2536 7.08331 14.1664H9.58331ZM9.58549 8.08272C8.72275 8.52231 8.02212 9.22366 7.58287 10.0858L9.81038 11.2207C10.0103 10.8284 10.3288 10.5098 10.7205 10.3102L9.58549 8.08272ZM34.5833 15.4998V7.1665H32.0833V15.4998H34.5833ZM33.3333 5.9165H25V8.4165H33.3333V5.9165ZM22.5505 19.7171L34.2172 8.05039L32.4494 6.28262L20.7828 17.9493L22.5505 19.7171Z" fill="#5B5B5B"/>
</svg>
