<svg width="33" height="32" viewBox="0 0 33 32" fill="none" xmlns="http://www.w3.org/2000/svg">
<path d="M24.2308 22.247V9.6001V9.59571C24.2308 8.10516 24.2308 7.35942 23.9405 6.78955C23.6848 6.28779 23.2763 5.87981 22.7745 5.62415C22.2041 5.3335 21.4579 5.3335 19.9644 5.3335H12.4978C11.0043 5.3335 10.257 5.3335 9.68656 5.62415C9.1848 5.87981 8.77715 6.28779 8.52148 6.78955C8.23083 7.35998 8.23083 8.10662 8.23083 9.6001V22.247C8.23083 24.0617 8.23083 24.9692 8.50299 25.5244C9.00743 26.5536 10.1129 27.1453 11.2491 26.9942C11.862 26.9126 12.617 26.4093 14.127 25.4027L14.1299 25.4007C14.7289 25.0014 15.0285 24.8016 15.3417 24.6909C15.9167 24.4877 16.5438 24.4877 17.1189 24.6909C17.4326 24.8018 17.733 25.0021 18.3339 25.4027C19.8439 26.4093 20.5999 26.9126 21.2129 26.9942C22.349 27.1453 23.4543 26.5536 23.9587 25.5244C24.2308 24.9692 24.2308 24.0619 24.2308 22.2474V22.247Z" stroke="#5B5B5B" stroke-width="1.86732" stroke-linecap="round" stroke-linejoin="round"/>
</svg>
