<svg width="33" height="32" viewBox="0 0 33 32" fill="none" xmlns="http://www.w3.org/2000/svg">
<path d="M24.231 22.2467V9.59985V9.59547C24.231 8.10492 24.231 7.35918 23.9406 6.78931C23.6849 6.28754 23.2764 5.87956 22.7747 5.6239C22.2042 5.33325 21.458 5.33325 19.9646 5.33325H12.4979C11.0044 5.33325 10.2571 5.33325 9.68669 5.6239C9.18492 5.87956 8.77727 6.28754 8.52161 6.78931C8.23096 7.35974 8.23096 8.10638 8.23096 9.59985V22.2467C8.23096 24.0615 8.23096 24.9689 8.50312 25.5242C9.00755 26.5534 10.1131 27.1451 11.2492 26.9939C11.8622 26.9124 12.6171 26.4091 14.1271 25.4024L14.13 25.4005C14.729 25.0012 15.0287 24.8014 15.3419 24.6907C15.9169 24.4874 16.544 24.4874 17.119 24.6907C17.4327 24.8015 17.7331 25.0019 18.334 25.4025C19.844 26.4091 20.6 26.9124 21.213 26.9939C22.3492 27.1451 23.4544 26.5534 23.9588 25.5242C24.231 24.969 24.231 24.0616 24.231 22.2472V22.2467Z" stroke="#5B5B5B" stroke-width="1.86732" stroke-linecap="round" stroke-linejoin="round"/>
</svg>
