<svg width="33" height="32" viewBox="0 0 33 32" fill="none" xmlns="http://www.w3.org/2000/svg">
<path d="M24.5 22.2475V9.60059V9.5962C24.5 8.10565 24.5 7.35991 24.2096 6.79004C23.954 6.28827 23.5455 5.8803 23.0437 5.62463C22.4733 5.33398 21.7271 5.33398 20.2336 5.33398H12.7669C11.2735 5.33398 10.5262 5.33398 9.95573 5.62463C9.45396 5.8803 9.04631 6.28827 8.79065 6.79004C8.5 7.36047 8.5 8.10711 8.5 9.60059V22.2475C8.5 24.0622 8.5 24.9697 8.77216 25.5249C9.27659 26.5541 10.3821 27.1458 11.5182 26.9947C12.1312 26.9131 12.8862 26.4098 14.3961 25.4032L14.3991 25.4012C14.998 25.0019 15.2977 24.8021 15.6109 24.6914C16.1859 24.4882 16.813 24.4882 17.388 24.6914C17.7017 24.8023 18.0022 25.0026 18.6031 25.4032C20.113 26.4098 20.8691 26.9131 21.4821 26.9947C22.6182 27.1458 23.7234 26.5541 24.2279 25.5249C24.5 24.9697 24.5 24.0624 24.5 22.2479V22.2475Z" stroke="black" stroke-width="1.86732" stroke-linecap="round" stroke-linejoin="round"/>
</svg>
