<svg width="41" height="40" viewBox="0 0 41 40" fill="none" xmlns="http://www.w3.org/2000/svg">
<path d="M30.231 27.8089V12.0002V11.9948C30.231 10.1316 30.231 9.1994 29.868 8.48706C29.5484 7.85985 29.0378 7.34988 28.4106 7.0303C27.6976 6.66699 26.7648 6.66699 24.8979 6.66699H15.5646C13.6978 6.66699 12.7637 6.66699 12.0506 7.0303C11.4234 7.34988 10.9138 7.85985 10.5943 8.48706C10.231 9.2001 10.231 10.1334 10.231 12.0002V27.8089C10.231 30.0773 10.231 31.2116 10.5712 31.9057C11.2017 33.1921 12.5836 33.9318 14.0037 33.7428C14.77 33.6409 15.7137 33.0118 17.6011 31.7535L17.6048 31.751C18.3535 31.2519 18.7281 31.0021 19.1196 30.8638C19.8383 30.6097 20.6222 30.6097 21.341 30.8638C21.7331 31.0024 22.1087 31.2528 22.8598 31.7535C24.7473 33.0118 25.6923 33.6409 26.4585 33.7428C27.8787 33.9318 29.2602 33.1921 29.8908 31.9057C30.231 31.2117 30.231 30.0775 30.231 27.8094V27.8089Z" stroke="#5B5B5B" stroke-width="2" stroke-linecap="round" stroke-linejoin="round"/>
</svg>
