<svg width="41" height="41" viewBox="0 0 41 41" fill="none" xmlns="http://www.w3.org/2000/svg">
<path d="M16.8979 10.0832C17.5882 10.0832 18.1479 9.52353 18.1479 8.83317C18.1479 8.14281 17.5882 7.58317 16.8979 7.58317V10.0832ZM33.1475 23.8332C33.1475 23.1428 32.5879 22.5832 31.8975 22.5832C31.2072 22.5832 30.6475 23.1428 30.6475 23.8332H33.1475ZM30.0772 31.8031L29.5097 30.6894L30.0772 31.8031ZM31.5346 30.3466L30.4208 29.7791L31.5346 30.3466ZM8.92752 30.3466L7.81376 30.914L8.92752 30.3466ZM10.3839 31.8031L10.9514 30.6894L10.3839 31.8031ZM10.3839 9.19648L10.9514 10.3102L10.3839 9.19648ZM8.92752 10.6532L10.0413 11.2207L8.92752 10.6532ZM32.3142 15.4998C32.3142 16.1902 32.8739 16.7498 33.5642 16.7498C34.2546 16.7498 34.8142 16.1902 34.8142 15.4998H32.3142ZM33.5642 7.1665H34.8142C34.8142 6.47615 34.2546 5.9165 33.5642 5.9165V7.1665ZM25.2309 5.9165C24.5405 5.9165 23.9809 6.47615 23.9809 7.1665C23.9809 7.85686 24.5405 8.4165 25.2309 8.4165V5.9165ZM21.0137 17.9493C20.5255 18.4374 20.5255 19.2289 21.0137 19.7171C21.5018 20.2052 22.2933 20.2052 22.7814 19.7171L21.0137 17.9493ZM16.8979 7.58317H13.8979V10.0832H16.8979V7.58317ZM7.31421 14.1664V26.8331H9.81421V14.1664H7.31421ZM13.8979 33.4165H26.5645V30.9165H13.8979V33.4165ZM33.1475 26.8332V23.8332H30.6475V26.8332H33.1475ZM26.5645 33.4165C27.4773 33.4165 28.237 33.4175 28.8554 33.3669C29.4885 33.3152 30.0827 33.2033 30.6447 32.9169L29.5097 30.6894C29.3587 30.7663 29.13 30.8361 28.6517 30.8752C28.1588 30.9155 27.5186 30.9165 26.5645 30.9165V33.4165ZM30.6475 26.8332C30.6475 27.7873 30.6467 28.4277 30.6064 28.9209C30.5674 29.3996 30.4977 29.6283 30.4208 29.7791L32.6483 30.914C32.9348 30.3518 33.0465 29.7572 33.0982 29.1241C33.1486 28.5056 33.1475 27.7458 33.1475 26.8332H30.6475ZM30.6447 32.9169C31.5064 32.4778 32.2086 31.7771 32.6483 30.914L30.4208 29.7791C30.2214 30.1704 29.9023 30.4893 29.5097 30.6894L30.6447 32.9169ZM7.31421 26.8331C7.31421 27.7459 7.31324 28.5057 7.36377 29.1243C7.4155 29.7574 7.52735 30.3519 7.81376 30.914L10.0413 29.7791C9.96438 29.6281 9.89457 29.3993 9.85547 28.9207C9.81518 28.4275 9.81421 27.7871 9.81421 26.8331H7.31421ZM13.8979 30.9165C12.9439 30.9165 12.3033 30.9155 11.81 30.8752C11.3312 30.8361 11.1022 30.7663 10.9514 30.6894L9.81638 32.9169C10.3785 33.2033 10.9732 33.3152 11.6064 33.3669C12.2251 33.4175 12.985 33.4165 13.8979 33.4165V30.9165ZM7.81376 30.914C8.25309 31.7763 8.95378 32.4774 9.81638 32.9169L10.9514 30.6894C10.5595 30.4897 10.2411 30.1713 10.0413 29.7791L7.81376 30.914ZM13.8979 7.58317C12.9851 7.58317 12.2251 7.5822 11.6064 7.63273C10.9732 7.68445 10.3786 7.79628 9.81638 8.08272L10.9514 10.3102C11.1022 10.2334 11.3311 10.1635 11.81 10.1244C12.3033 10.0841 12.9438 10.0832 13.8979 10.0832V7.58317ZM9.81421 14.1664C9.81421 13.2124 9.81518 12.572 9.85547 12.0789C9.89457 11.6005 9.96437 11.3717 10.0413 11.2207L7.81376 10.0858C7.52736 10.6478 7.41551 11.2422 7.36377 11.8754C7.31324 12.4939 7.31421 13.2536 7.31421 14.1664H9.81421ZM9.81638 8.08272C8.95365 8.52231 8.25302 9.22366 7.81376 10.0858L10.0413 11.2207C10.2412 10.8284 10.5597 10.5098 10.9514 10.3102L9.81638 8.08272ZM34.8142 15.4998V7.1665H32.3142V15.4998H34.8142ZM33.5642 5.9165H25.2309V8.4165H33.5642V5.9165ZM22.7814 19.7171L34.4481 8.05039L32.6803 6.28262L21.0137 17.9493L22.7814 19.7171Z" fill="#5B5B5B"/>
</svg>
