<svg width="41" height="41" viewBox="0 0 41 41" fill="none" xmlns="http://www.w3.org/2000/svg">
<path d="M16.8979 10.0834C17.5882 10.0834 18.1479 9.52377 18.1479 8.83341C18.1479 8.14306 17.5882 7.58341 16.8979 7.58341V10.0834ZM33.1475 23.8334C33.1475 23.1431 32.5879 22.5834 31.8975 22.5834C31.2072 22.5834 30.6475 23.1431 30.6475 23.8334H33.1475ZM30.0772 31.8034L29.5097 30.6896L30.0772 31.8034ZM31.5346 30.3468L30.4208 29.7793L31.5346 30.3468ZM8.92752 30.3468L7.81376 30.9143L8.92752 30.3468ZM10.3839 31.8034L10.9514 30.6896L10.3839 31.8034ZM10.3839 9.19673L10.9514 10.3105L10.3839 9.19673ZM8.92752 10.6535L10.0413 11.221L8.92752 10.6535ZM32.3142 15.5001C32.3142 16.1904 32.8739 16.7501 33.5642 16.7501C34.2546 16.7501 34.8142 16.1904 34.8142 15.5001H32.3142ZM33.5642 7.16675H34.8142C34.8142 6.47639 34.2546 5.91675 33.5642 5.91675V7.16675ZM25.2309 5.91675C24.5405 5.91675 23.9809 6.47639 23.9809 7.16675C23.9809 7.8571 24.5405 8.41675 25.2309 8.41675V5.91675ZM21.0137 17.9495C20.5255 18.4377 20.5255 19.2291 21.0137 19.7173C21.5018 20.2055 22.2933 20.2055 22.7814 19.7173L21.0137 17.9495ZM16.8979 7.58341H13.8979V10.0834H16.8979V7.58341ZM7.31421 14.1667V26.8333H9.81421V14.1667H7.31421ZM13.8979 33.4167H26.5645V30.9167H13.8979V33.4167ZM33.1475 26.8334V23.8334H30.6475V26.8334H33.1475ZM26.5645 33.4167C27.4773 33.4167 28.237 33.4177 28.8554 33.3672C29.4885 33.3154 30.0827 33.2035 30.6447 32.9171L29.5097 30.6896C29.3587 30.7666 29.13 30.8364 28.6517 30.8755C28.1588 30.9158 27.5186 30.9167 26.5645 30.9167V33.4167ZM30.6475 26.8334C30.6475 27.7876 30.6467 28.428 30.6064 28.9212C30.5674 29.3998 30.4977 29.6285 30.4208 29.7793L32.6483 30.9143C32.9348 30.352 33.0465 29.7575 33.0982 29.1244C33.1486 28.5059 33.1475 27.7461 33.1475 26.8334H30.6475ZM30.6447 32.9171C31.5064 32.4781 32.2086 31.7773 32.6483 30.9143L30.4208 29.7793C30.2214 30.1707 29.9023 30.4896 29.5097 30.6896L30.6447 32.9171ZM7.31421 26.8333C7.31421 27.7461 7.31324 28.5059 7.36377 29.1245C7.4155 29.7577 7.52735 30.3522 7.81376 30.9143L10.0413 29.7793C9.96438 29.6284 9.89457 29.3996 9.85547 28.921C9.81518 28.4278 9.81421 27.7874 9.81421 26.8333H7.31421ZM13.8979 30.9167C12.9439 30.9167 12.3033 30.9158 11.81 30.8755C11.3312 30.8363 11.1022 30.7665 10.9514 30.6896L9.81638 32.9171C10.3785 33.2036 10.9732 33.3154 11.6064 33.3672C12.2251 33.4177 12.985 33.4167 13.8979 33.4167V30.9167ZM7.81376 30.9143C8.25309 31.7765 8.95378 32.4776 9.81638 32.9171L10.9514 30.6896C10.5595 30.49 10.2411 30.1715 10.0413 29.7793L7.81376 30.9143ZM13.8979 7.58341C12.9851 7.58341 12.2251 7.58244 11.6064 7.63298C10.9732 7.6847 10.3786 7.79652 9.81638 8.08297L10.9514 10.3105C11.1022 10.2336 11.3311 10.1638 11.81 10.1247C12.3033 10.0844 12.9438 10.0834 13.8979 10.0834V7.58341ZM9.81421 14.1667C9.81421 13.2126 9.81518 12.5723 9.85547 12.0792C9.89457 11.6007 9.96437 11.3719 10.0413 11.221L7.81376 10.086C7.52736 10.6481 7.41551 11.2425 7.36377 11.8756C7.31324 12.4941 7.31421 13.2539 7.31421 14.1667H9.81421ZM9.81638 8.08297C8.95365 8.52255 8.25302 9.22391 7.81376 10.086L10.0413 11.221C10.2412 10.8286 10.5597 10.5101 10.9514 10.3105L9.81638 8.08297ZM34.8142 15.5001V7.16675H32.3142V15.5001H34.8142ZM33.5642 5.91675H25.2309V8.41675H33.5642V5.91675ZM22.7814 19.7173L34.4481 8.05063L32.6803 6.28286L21.0137 17.9495L22.7814 19.7173Z" fill="#5B5B5B"/>
</svg>
