<svg width="33" height="32" viewBox="0 0 33 32" fill="none" xmlns="http://www.w3.org/2000/svg">
<path d="M24.231 22.2469V9.59998V9.59559C24.231 8.10504 24.231 7.3593 23.9406 6.78943C23.6849 6.28766 23.2764 5.87969 22.7747 5.62402C22.2042 5.33337 21.458 5.33337 19.9646 5.33337H12.4979C11.0044 5.33337 10.2571 5.33337 9.68669 5.62402C9.18492 5.87969 8.77727 6.28766 8.52161 6.78943C8.23096 7.35986 8.23096 8.1065 8.23096 9.59998V22.2469C8.23096 24.0616 8.23096 24.9691 8.50312 25.5243C9.00755 26.5535 10.1131 27.1452 11.2492 26.9941C11.8622 26.9125 12.6171 26.4092 14.1271 25.4025L14.13 25.4006C14.729 25.0013 15.0287 24.8015 15.3419 24.6908C15.9169 24.4876 16.544 24.4876 17.119 24.6908C17.4327 24.8017 17.7331 25.002 18.334 25.4026C19.844 26.4092 20.6 26.9125 21.213 26.9941C22.3492 27.1452 23.4544 26.5535 23.9588 25.5243C24.231 24.9691 24.231 24.0617 24.231 22.2473V22.2469Z" stroke="#5B5B5B" stroke-width="1.86732" stroke-linecap="round" stroke-linejoin="round"/>
</svg>
