<svg width="33" height="32" viewBox="0 0 33 32" fill="none" xmlns="http://www.w3.org/2000/svg">
<path d="M24.231 22.247V9.6001V9.59571C24.231 8.10516 24.231 7.35942 23.9406 6.78955C23.6849 6.28779 23.2764 5.87981 22.7747 5.62415C22.2042 5.3335 21.458 5.3335 19.9646 5.3335H12.4979C11.0044 5.3335 10.2571 5.3335 9.68669 5.62415C9.18492 5.87981 8.77727 6.28779 8.52161 6.78955C8.23096 7.35998 8.23096 8.10662 8.23096 9.6001V22.247C8.23096 24.0617 8.23096 24.9692 8.50312 25.5244C9.00755 26.5536 10.1131 27.1453 11.2492 26.9942C11.8622 26.9126 12.6171 26.4093 14.1271 25.4027L14.13 25.4007C14.729 25.0014 15.0287 24.8016 15.3419 24.6909C15.9169 24.4877 16.544 24.4877 17.119 24.6909C17.4327 24.8018 17.7331 25.0021 18.334 25.4027C19.844 26.4093 20.6 26.9126 21.213 26.9942C22.3492 27.1453 23.4544 26.5536 23.9588 25.5244C24.231 24.9692 24.231 24.0619 24.231 22.2474V22.247Z" stroke="#5B5B5B" stroke-width="1.86732" stroke-linecap="round" stroke-linejoin="round"/>
</svg>
