<svg width="33" height="32" viewBox="0 0 33 32" fill="none" xmlns="http://www.w3.org/2000/svg">
<path d="M24.2308 22.2469V9.59998V9.59559C24.2308 8.10504 24.2308 7.3593 23.9405 6.78943C23.6848 6.28766 23.2763 5.87969 22.7745 5.62402C22.2041 5.33337 21.4579 5.33337 19.9644 5.33337H12.4978C11.0043 5.33337 10.257 5.33337 9.68656 5.62402C9.1848 5.87969 8.77715 6.28766 8.52148 6.78943C8.23083 7.35986 8.23083 8.1065 8.23083 9.59998V22.2469C8.23083 24.0616 8.23083 24.9691 8.50299 25.5243C9.00743 26.5535 10.1129 27.1452 11.2491 26.9941C11.862 26.9125 12.617 26.4092 14.127 25.4025L14.1299 25.4006C14.7289 25.0013 15.0285 24.8015 15.3417 24.6908C15.9167 24.4876 16.5438 24.4876 17.1189 24.6908C17.4326 24.8017 17.733 25.002 18.3339 25.4026C19.8439 26.4092 20.5999 26.9125 21.2129 26.9941C22.349 27.1452 23.4543 26.5535 23.9587 25.5243C24.2308 24.9691 24.2308 24.0617 24.2308 22.2473V22.2469Z" stroke="#5B5B5B" stroke-width="1.86732" stroke-linecap="round" stroke-linejoin="round"/>
</svg>
