<svg width="33" height="32" viewBox="0 0 33 32" fill="none" xmlns="http://www.w3.org/2000/svg">
<path d="M24.2308 22.2467V9.59985V9.59547C24.2308 8.10492 24.2308 7.35918 23.9405 6.78931C23.6848 6.28754 23.2763 5.87956 22.7745 5.6239C22.2041 5.33325 21.4579 5.33325 19.9644 5.33325H12.4978C11.0043 5.33325 10.257 5.33325 9.68656 5.6239C9.1848 5.87956 8.77715 6.28754 8.52148 6.78931C8.23083 7.35974 8.23083 8.10638 8.23083 9.59985V22.2467C8.23083 24.0615 8.23083 24.9689 8.50299 25.5242C9.00743 26.5534 10.1129 27.1451 11.2491 26.9939C11.862 26.9124 12.617 26.4091 14.127 25.4024L14.1299 25.4005C14.7289 25.0012 15.0285 24.8014 15.3417 24.6907C15.9167 24.4874 16.5438 24.4874 17.1189 24.6907C17.4326 24.8015 17.733 25.0019 18.3339 25.4025C19.8439 26.4091 20.5999 26.9124 21.2129 26.9939C22.349 27.1451 23.4543 26.5534 23.9587 25.5242C24.2308 24.969 24.2308 24.0616 24.2308 22.2472V22.2467Z" stroke="#5B5B5B" stroke-width="1.86732" stroke-linecap="round" stroke-linejoin="round"/>
</svg>
