<svg width="40" height="40" viewBox="0 0 40 40" fill="none" xmlns="http://www.w3.org/2000/svg">
<path d="M30 27.8084V11.9998V11.9943C30 10.1311 30 9.19892 29.637 8.48657C29.3175 7.85937 28.8068 7.34939 28.1796 7.02982C27.4666 6.6665 26.5338 6.6665 24.667 6.6665H15.3337C13.4668 6.6665 12.5327 6.6665 11.8197 7.02982C11.1925 7.34939 10.6829 7.85937 10.3633 8.48657C10 9.19961 10 10.1329 10 11.9998V27.8084C10 30.0768 10 31.2111 10.3402 31.9052C10.9707 33.1916 12.3526 33.9313 13.7728 33.7424C14.539 33.6404 15.4827 33.0113 17.3702 31.753L17.3738 31.7505C18.1225 31.2514 18.4971 31.0017 18.8886 30.8633C19.6074 30.6092 20.3913 30.6092 21.11 30.8633C21.5022 31.0019 21.8777 31.2523 22.6289 31.753C24.5163 33.0113 25.4614 33.6404 26.2276 33.7424C27.6477 33.9313 29.0293 33.1916 29.6598 31.9052C30 31.2112 30 30.077 30 27.8089V27.8084Z" stroke="#5B5B5B" stroke-width="2" stroke-linecap="round" stroke-linejoin="round"/>
</svg>
