<svg width="26" height="26" viewBox="0 0 26 26" fill="none" xmlns="http://www.w3.org/2000/svg">
<g clip-path="url(#clip0_990_17170)">
<path d="M23.6494 0.75H2.3457C1.3252 0.75 0.5 1.55566 0.5 2.55176V23.9434C0.5 24.9395 1.3252 25.75 2.3457 25.75H23.6494C24.6699 25.75 25.5 24.9395 25.5 23.9482V2.55176C25.5 1.55566 24.6699 0.75 23.6494 0.75ZM7.91699 22.0537H4.20605V10.1201H7.91699V22.0537ZM6.06152 8.49414C4.87012 8.49414 3.9082 7.53223 3.9082 6.3457C3.9082 5.15918 4.87012 4.19727 6.06152 4.19727C7.24805 4.19727 8.20996 5.15918 8.20996 6.3457C8.20996 7.52734 7.24805 8.49414 6.06152 8.49414ZM21.8037 22.0537H18.0977V16.2529C18.0977 14.8711 18.0732 13.0889 16.1689 13.0889C14.2402 13.0889 13.9473 14.5977 13.9473 16.1553V22.0537H10.2461V10.1201H13.8008V11.751H13.8496C14.3428 10.8135 15.5537 9.82227 17.3555 9.82227C21.1104 9.82227 21.8037 12.293 21.8037 15.5059V22.0537Z" fill="#5B5B5B"/>
</g>
<defs>
<clipPath id="clip0_990_17170">
<rect width="25" height="25" fill="white" transform="translate(0.5 0.75)"/>
</clipPath>
</defs>
</svg>
