<svg width="26" height="25" viewBox="0 0 26 25" fill="none" xmlns="http://www.w3.org/2000/svg">
<g clip-path="url(#clip0_990_13483)">
<path d="M23.8804 0H2.57666C1.55615 0 0.730957 0.805664 0.730957 1.80176V23.1934C0.730957 24.1895 1.55615 25 2.57666 25H23.8804C24.9009 25 25.731 24.1895 25.731 23.1982V1.80176C25.731 0.805664 24.9009 0 23.8804 0ZM8.14795 21.3037H4.43701V9.37012H8.14795V21.3037ZM6.29248 7.74414C5.10107 7.74414 4.13916 6.78223 4.13916 5.5957C4.13916 4.40918 5.10107 3.44727 6.29248 3.44727C7.479 3.44727 8.44092 4.40918 8.44092 5.5957C8.44092 6.77734 7.479 7.74414 6.29248 7.74414ZM22.0347 21.3037H18.3286V15.5029C18.3286 14.1211 18.3042 12.3389 16.3999 12.3389C14.4712 12.3389 14.1782 13.8477 14.1782 15.4053V21.3037H10.4771V9.37012H14.0317V11.001H14.0806C14.5737 10.0635 15.7847 9.07227 17.5864 9.07227C21.3413 9.07227 22.0347 11.543 22.0347 14.7559V21.3037Z" fill="#5B5B5B"/>
</g>
<defs>
<clipPath id="clip0_990_13483">
<rect width="25" height="25" fill="white" transform="translate(0.730957)"/>
</clipPath>
</defs>
</svg>
