<svg width="26" height="26" viewBox="0 0 26 26" fill="none" xmlns="http://www.w3.org/2000/svg">
<g clip-path="url(#clip0_966_5516)">
<path d="M23.6494 0.5H2.3457C1.3252 0.5 0.5 1.30566 0.5 2.30176V23.6934C0.5 24.6895 1.3252 25.5 2.3457 25.5H23.6494C24.6699 25.5 25.5 24.6895 25.5 23.6982V2.30176C25.5 1.30566 24.6699 0.5 23.6494 0.5ZM7.91699 21.8037H4.20605V9.87012H7.91699V21.8037ZM6.06152 8.24414C4.87012 8.24414 3.9082 7.28223 3.9082 6.0957C3.9082 4.90918 4.87012 3.94727 6.06152 3.94727C7.24805 3.94727 8.20996 4.90918 8.20996 6.0957C8.20996 7.27734 7.24805 8.24414 6.06152 8.24414ZM21.8037 21.8037H18.0977V16.0029C18.0977 14.6211 18.0732 12.8389 16.1689 12.8389C14.2402 12.8389 13.9473 14.3477 13.9473 15.9053V21.8037H10.2461V9.87012H13.8008V11.501H13.8496C14.3428 10.5635 15.5537 9.57227 17.3555 9.57227C21.1104 9.57227 21.8037 12.043 21.8037 15.2559V21.8037Z" fill="#5B5B5B"/>
</g>
<defs>
<clipPath id="clip0_966_5516">
<rect width="25" height="25" fill="white" transform="translate(0.5 0.5)"/>
</clipPath>
</defs>
</svg>
