<svg width="25" height="26" viewBox="0 0 25 26" fill="none" xmlns="http://www.w3.org/2000/svg">
<g clip-path="url(#clip0_966_12270)">
<path d="M23.1494 0.658203H1.8457C0.825195 0.658203 0 1.46387 0 2.45996V23.8516C0 24.8477 0.825195 25.6582 1.8457 25.6582H23.1494C24.1699 25.6582 25 24.8477 25 23.8564V2.45996C25 1.46387 24.1699 0.658203 23.1494 0.658203ZM7.41699 21.9619H3.70605V10.0283H7.41699V21.9619ZM5.56152 8.40234C4.37012 8.40234 3.4082 7.44043 3.4082 6.25391C3.4082 5.06738 4.37012 4.10547 5.56152 4.10547C6.74805 4.10547 7.70996 5.06738 7.70996 6.25391C7.70996 7.43555 6.74805 8.40234 5.56152 8.40234ZM21.3037 21.9619H17.5977V16.1611C17.5977 14.7793 17.5732 12.9971 15.6689 12.9971C13.7402 12.9971 13.4473 14.5059 13.4473 16.0635V21.9619H9.74609V10.0283H13.3008V11.6592H13.3496C13.8428 10.7217 15.0537 9.73047 16.8555 9.73047C20.6104 9.73047 21.3037 12.2012 21.3037 15.4141V21.9619Z" fill="#5B5B5B"/>
</g>
<defs>
<clipPath id="clip0_966_12270">
<rect width="25" height="25" fill="white" transform="translate(0 0.658203)"/>
</clipPath>
</defs>
</svg>
