<svg width="45" height="51" viewBox="0 0 45 51" fill="none" xmlns="http://www.w3.org/2000/svg">
<g id="Favicon" clip-path="url(#clip0_1015_9776)">
<g id="Group">
<path id="Vector" d="M22.48 50.4999C15.47 46.4599 8.49 42.4699 1.55 38.4099C1.09 38.1399 0.67 37.3499 0.67 36.7999C0.61 29.1899 0.61 21.5699 0.67 13.9599C0.67 13.3799 1.15 12.5799 1.65 12.2599C3.92 10.8299 6.27 9.53988 8.71 8.12988C10.02 10.2799 11.27 12.3199 12.6 14.4999C11.39 15.2399 10.18 15.8799 9.09 16.6799C8.66 16.9899 8.24 17.6499 8.23 18.1499C8.17 22.9599 8.17 27.7799 8.23 32.5899C8.24 33.0799 8.66 33.7699 9.09 34.0299C13.25 36.5299 17.44 38.9799 21.67 41.3699C22.09 41.6099 22.87 41.5599 23.32 41.3299C24.63 40.6699 25.86 39.8499 27.34 38.9699C28.65 41.0899 29.95 43.1899 31.32 45.3999C28.31 47.1299 25.39 48.8199 22.48 50.4999Z" fill="white"/>
<path id="Vector_2" d="M43.2098 12.1997C43.1798 12.1797 43.1398 12.1597 43.0998 12.1397L23.7298 0.899742C22.7898 0.339742 22.1498 0.389742 21.2898 0.949742C19.7798 1.92974 18.1898 2.78974 16.6298 3.69974C15.1398 4.56974 13.6498 5.44974 12.0898 6.35974C19.6298 18.8397 27.0598 31.1497 34.5398 43.5397C37.6398 41.7997 40.6498 40.1397 43.5998 38.3797C43.9998 38.1397 44.2298 37.3197 44.2298 36.7597C44.2998 29.2697 44.2998 21.7797 44.3698 14.2797C44.3898 13.2697 44.0498 12.7097 43.2098 12.1997ZM27.6498 20.3197C25.4998 16.8097 23.3398 13.3097 21.1998 9.80974L21.2098 9.79974C21.1998 9.78974 21.1998 9.77974 21.1898 9.77974C21.2998 9.65974 21.4098 9.53974 21.5198 9.41974C21.5298 9.41974 21.5498 9.42974 21.5598 9.42974C22.1898 8.88974 22.8098 9.01974 23.5598 9.47974C27.1898 11.6597 30.8598 13.7597 34.4798 15.9397C34.6898 16.0497 34.8998 16.1597 35.0998 16.2697C35.3598 16.4097 35.3698 16.7797 35.1098 16.9397L28.8598 20.6197C28.4498 20.8597 27.8998 20.7297 27.6498 20.3197ZM36.3198 33.7897C36.3198 33.7997 36.3198 33.8197 36.3098 33.8297C36.1498 33.8697 35.9998 33.9097 35.8398 33.9497C35.8398 33.9397 35.8298 33.9297 35.8298 33.9297C35.8198 33.9297 35.8198 33.9297 35.8098 33.9297C33.7298 30.3897 31.6498 26.8497 29.5598 23.2997C29.3098 22.8797 29.4498 22.3397 29.8698 22.0797L36.0498 18.2797C36.3098 18.1197 36.6298 18.2997 36.6298 18.5997C36.6298 18.8397 36.6298 19.0697 36.6298 19.3097C36.8598 23.5297 36.9898 27.7697 37.2098 31.9897C37.2598 32.8797 37.0998 33.4897 36.3198 33.7897Z" fill="white"/>
</g>
</g>
<defs>
<clipPath id="clip0_1015_9776">
<rect width="43.76" height="50" fill="white" transform="translate(0.620117 0.5)"/>
</clipPath>
</defs>
</svg>
