<svg width="33" height="32" viewBox="0 0 33 32" fill="none" xmlns="http://www.w3.org/2000/svg">
<path d="M14.8977 23.9998C14.8977 24.7362 15.4947 25.3332 16.231 25.3332C16.9674 25.3332 17.5644 24.7362 17.5644 23.9998C17.5644 23.2635 16.9674 22.6665 16.231 22.6665C15.4947 22.6665 14.8977 23.2635 14.8977 23.9998Z" fill="black"/>
<path d="M14.8977 15.9998C14.8977 16.7362 15.4947 17.3332 16.231 17.3332C16.9674 17.3332 17.5644 16.7362 17.5644 15.9998C17.5644 15.2635 16.9674 14.6665 16.231 14.6665C15.4947 14.6665 14.8977 15.2635 14.8977 15.9998Z" fill="black"/>
<path d="M14.8977 7.99984C14.8977 8.73622 15.4947 9.33317 16.231 9.33317C16.9674 9.33317 17.5644 8.73622 17.5644 7.99984C17.5644 7.26346 16.9674 6.6665 16.231 6.6665C15.4947 6.6665 14.8977 7.26346 14.8977 7.99984Z" fill="black"/>
<path d="M14.8977 23.9998C14.8977 24.7362 15.4947 25.3332 16.231 25.3332C16.9674 25.3332 17.5644 24.7362 17.5644 23.9998C17.5644 23.2635 16.9674 22.6665 16.231 22.6665C15.4947 22.6665 14.8977 23.2635 14.8977 23.9998Z" stroke="black" stroke-width="1.86732" stroke-linecap="round" stroke-linejoin="round"/>
<path d="M14.8977 15.9998C14.8977 16.7362 15.4947 17.3332 16.231 17.3332C16.9674 17.3332 17.5644 16.7362 17.5644 15.9998C17.5644 15.2635 16.9674 14.6665 16.231 14.6665C15.4947 14.6665 14.8977 15.2635 14.8977 15.9998Z" stroke="black" stroke-width="1.86732" stroke-linecap="round" stroke-linejoin="round"/>
<path d="M14.8977 7.99984C14.8977 8.73622 15.4947 9.33317 16.231 9.33317C16.9674 9.33317 17.5644 8.73622 17.5644 7.99984C17.5644 7.26346 16.9674 6.6665 16.231 6.6665C15.4947 6.6665 14.8977 7.26346 14.8977 7.99984Z" stroke="black" stroke-width="1.86732" stroke-linecap="round" stroke-linejoin="round"/>
</svg>
