<svg width="33" height="32" viewBox="0 0 33 32" fill="none" xmlns="http://www.w3.org/2000/svg">
<path d="M14.8977 24.0001C14.8977 24.7365 15.4947 25.3334 16.231 25.3334C16.9674 25.3334 17.5644 24.7365 17.5644 24.0001C17.5644 23.2637 16.9674 22.6667 16.231 22.6667C15.4947 22.6667 14.8977 23.2637 14.8977 24.0001Z" fill="black"/>
<path d="M14.8977 16.0001C14.8977 16.7365 15.4947 17.3334 16.231 17.3334C16.9674 17.3334 17.5644 16.7365 17.5644 16.0001C17.5644 15.2637 16.9674 14.6667 16.231 14.6667C15.4947 14.6667 14.8977 15.2637 14.8977 16.0001Z" fill="black"/>
<path d="M14.8977 8.00008C14.8977 8.73646 15.4947 9.33341 16.231 9.33341C16.9674 9.33341 17.5644 8.73646 17.5644 8.00008C17.5644 7.2637 16.9674 6.66675 16.231 6.66675C15.4947 6.66675 14.8977 7.2637 14.8977 8.00008Z" fill="black"/>
<path d="M14.8977 24.0001C14.8977 24.7365 15.4947 25.3334 16.231 25.3334C16.9674 25.3334 17.5644 24.7365 17.5644 24.0001C17.5644 23.2637 16.9674 22.6667 16.231 22.6667C15.4947 22.6667 14.8977 23.2637 14.8977 24.0001Z" stroke="black" stroke-width="1.86732" stroke-linecap="round" stroke-linejoin="round"/>
<path d="M14.8977 16.0001C14.8977 16.7365 15.4947 17.3334 16.231 17.3334C16.9674 17.3334 17.5644 16.7365 17.5644 16.0001C17.5644 15.2637 16.9674 14.6667 16.231 14.6667C15.4947 14.6667 14.8977 15.2637 14.8977 16.0001Z" stroke="black" stroke-width="1.86732" stroke-linecap="round" stroke-linejoin="round"/>
<path d="M14.8977 8.00008C14.8977 8.73646 15.4947 9.33341 16.231 9.33341C16.9674 9.33341 17.5644 8.73646 17.5644 8.00008C17.5644 7.2637 16.9674 6.66675 16.231 6.66675C15.4947 6.66675 14.8977 7.2637 14.8977 8.00008Z" stroke="black" stroke-width="1.86732" stroke-linecap="round" stroke-linejoin="round"/>
</svg>
