<svg width="35" height="34" viewBox="0 0 35 34" fill="none" xmlns="http://www.w3.org/2000/svg">
<path d="M16.083 25.5002C16.083 26.2826 16.7173 26.9168 17.4997 26.9168C18.2821 26.9168 18.9163 26.2826 18.9163 25.5002C18.9163 24.7178 18.2821 24.0835 17.4997 24.0835C16.7173 24.0835 16.083 24.7178 16.083 25.5002Z" fill="black"/>
<path d="M16.083 17.0002C16.083 17.7826 16.7173 18.4168 17.4997 18.4168C18.2821 18.4168 18.9163 17.7826 18.9163 17.0002C18.9163 16.2178 18.2821 15.5835 17.4997 15.5835C16.7173 15.5835 16.083 16.2178 16.083 17.0002Z" fill="black"/>
<path d="M16.083 8.50016C16.083 9.28257 16.7173 9.91683 17.4997 9.91683C18.2821 9.91683 18.9163 9.28257 18.9163 8.50016C18.9163 7.71776 18.2821 7.0835 17.4997 7.0835C16.7173 7.0835 16.083 7.71776 16.083 8.50016Z" fill="black"/>
<path d="M16.083 25.5002C16.083 26.2826 16.7173 26.9168 17.4997 26.9168C18.2821 26.9168 18.9163 26.2826 18.9163 25.5002C18.9163 24.7178 18.2821 24.0835 17.4997 24.0835C16.7173 24.0835 16.083 24.7178 16.083 25.5002Z" stroke="black" stroke-width="2" stroke-linecap="round" stroke-linejoin="round"/>
<path d="M16.083 17.0002C16.083 17.7826 16.7173 18.4168 17.4997 18.4168C18.2821 18.4168 18.9163 17.7826 18.9163 17.0002C18.9163 16.2178 18.2821 15.5835 17.4997 15.5835C16.7173 15.5835 16.083 16.2178 16.083 17.0002Z" stroke="black" stroke-width="2" stroke-linecap="round" stroke-linejoin="round"/>
<path d="M16.083 8.50016C16.083 9.28257 16.7173 9.91683 17.4997 9.91683C18.2821 9.91683 18.9163 9.28257 18.9163 8.50016C18.9163 7.71776 18.2821 7.0835 17.4997 7.0835C16.7173 7.0835 16.083 7.71776 16.083 8.50016Z" stroke="black" stroke-width="2" stroke-linecap="round" stroke-linejoin="round"/>
</svg>
