<svg width="41" height="40" viewBox="0 0 41 40" fill="none" xmlns="http://www.w3.org/2000/svg">
<path d="M18.5642 29.9997C18.5642 30.9202 19.3104 31.6663 20.2309 31.6663C21.1514 31.6663 21.8975 30.9202 21.8975 29.9997C21.8975 29.0792 21.1514 28.333 20.2309 28.333C19.3104 28.333 18.5642 29.0792 18.5642 29.9997Z" fill="black"/>
<path d="M18.5642 19.9997C18.5642 20.9201 19.3104 21.6663 20.2309 21.6663C21.1514 21.6663 21.8975 20.9201 21.8975 19.9997C21.8975 19.0792 21.1514 18.333 20.2309 18.333C19.3104 18.333 18.5642 19.0792 18.5642 19.9997Z" fill="black"/>
<path d="M18.5642 9.99967C18.5642 10.9201 19.3104 11.6663 20.2309 11.6663C21.1514 11.6663 21.8975 10.9201 21.8975 9.99967C21.8975 9.0792 21.1514 8.33301 20.2309 8.33301C19.3104 8.33301 18.5642 9.0792 18.5642 9.99967Z" fill="black"/>
<path d="M18.5642 29.9997C18.5642 30.9202 19.3104 31.6663 20.2309 31.6663C21.1514 31.6663 21.8975 30.9202 21.8975 29.9997C21.8975 29.0792 21.1514 28.333 20.2309 28.333C19.3104 28.333 18.5642 29.0792 18.5642 29.9997Z" stroke="black" stroke-width="2" stroke-linecap="round" stroke-linejoin="round"/>
<path d="M18.5642 19.9997C18.5642 20.9201 19.3104 21.6663 20.2309 21.6663C21.1514 21.6663 21.8975 20.9201 21.8975 19.9997C21.8975 19.0792 21.1514 18.333 20.2309 18.333C19.3104 18.333 18.5642 19.0792 18.5642 19.9997Z" stroke="black" stroke-width="2" stroke-linecap="round" stroke-linejoin="round"/>
<path d="M18.5642 9.99967C18.5642 10.9201 19.3104 11.6663 20.2309 11.6663C21.1514 11.6663 21.8975 10.9201 21.8975 9.99967C21.8975 9.0792 21.1514 8.33301 20.2309 8.33301C19.3104 8.33301 18.5642 9.0792 18.5642 9.99967Z" stroke="black" stroke-width="2" stroke-linecap="round" stroke-linejoin="round"/>
</svg>
