<svg width="33" height="32" viewBox="0 0 33 32" fill="none" xmlns="http://www.w3.org/2000/svg">
<path d="M14.8977 24C14.8977 24.7363 15.4947 25.3333 16.231 25.3333C16.9674 25.3333 17.5644 24.7363 17.5644 24C17.5644 23.2636 16.9674 22.6666 16.231 22.6666C15.4947 22.6666 14.8977 23.2636 14.8977 24Z" fill="black"/>
<path d="M14.8977 16C14.8977 16.7363 15.4947 17.3333 16.231 17.3333C16.9674 17.3333 17.5644 16.7363 17.5644 16C17.5644 15.2636 16.9674 14.6666 16.231 14.6666C15.4947 14.6666 14.8977 15.2636 14.8977 16Z" fill="black"/>
<path d="M14.8977 7.99996C14.8977 8.73634 15.4947 9.33329 16.231 9.33329C16.9674 9.33329 17.5644 8.73634 17.5644 7.99996C17.5644 7.26358 16.9674 6.66663 16.231 6.66663C15.4947 6.66663 14.8977 7.26358 14.8977 7.99996Z" fill="black"/>
<path d="M14.8977 24C14.8977 24.7363 15.4947 25.3333 16.231 25.3333C16.9674 25.3333 17.5644 24.7363 17.5644 24C17.5644 23.2636 16.9674 22.6666 16.231 22.6666C15.4947 22.6666 14.8977 23.2636 14.8977 24Z" stroke="black" stroke-width="1.86732" stroke-linecap="round" stroke-linejoin="round"/>
<path d="M14.8977 16C14.8977 16.7363 15.4947 17.3333 16.231 17.3333C16.9674 17.3333 17.5644 16.7363 17.5644 16C17.5644 15.2636 16.9674 14.6666 16.231 14.6666C15.4947 14.6666 14.8977 15.2636 14.8977 16Z" stroke="black" stroke-width="1.86732" stroke-linecap="round" stroke-linejoin="round"/>
<path d="M14.8977 7.99996C14.8977 8.73634 15.4947 9.33329 16.231 9.33329C16.9674 9.33329 17.5644 8.73634 17.5644 7.99996C17.5644 7.26358 16.9674 6.66663 16.231 6.66663C15.4947 6.66663 14.8977 7.26358 14.8977 7.99996Z" stroke="black" stroke-width="1.86732" stroke-linecap="round" stroke-linejoin="round"/>
</svg>
