<svg width="40" height="40" viewBox="0 0 40 40" fill="none" xmlns="http://www.w3.org/2000/svg">
<path d="M18.3333 30.0002C18.3333 30.9206 19.0795 31.6668 20 31.6668C20.9205 31.6668 21.6666 30.9206 21.6666 30.0002C21.6666 29.0797 20.9205 28.3335 20 28.3335C19.0795 28.3335 18.3333 29.0797 18.3333 30.0002Z" fill="black"/>
<path d="M18.3333 20.0002C18.3333 20.9206 19.0795 21.6668 20 21.6668C20.9205 21.6668 21.6666 20.9206 21.6666 20.0002C21.6666 19.0797 20.9205 18.3335 20 18.3335C19.0795 18.3335 18.3333 19.0797 18.3333 20.0002Z" fill="black"/>
<path d="M18.3333 10.0002C18.3333 10.9206 19.0795 11.6668 20 11.6668C20.9205 11.6668 21.6666 10.9206 21.6666 10.0002C21.6666 9.07969 20.9205 8.3335 20 8.3335C19.0795 8.3335 18.3333 9.07969 18.3333 10.0002Z" fill="black"/>
<path d="M18.3333 30.0002C18.3333 30.9206 19.0795 31.6668 20 31.6668C20.9205 31.6668 21.6666 30.9206 21.6666 30.0002C21.6666 29.0797 20.9205 28.3335 20 28.3335C19.0795 28.3335 18.3333 29.0797 18.3333 30.0002Z" stroke="black" stroke-width="2" stroke-linecap="round" stroke-linejoin="round"/>
<path d="M18.3333 20.0002C18.3333 20.9206 19.0795 21.6668 20 21.6668C20.9205 21.6668 21.6666 20.9206 21.6666 20.0002C21.6666 19.0797 20.9205 18.3335 20 18.3335C19.0795 18.3335 18.3333 19.0797 18.3333 20.0002Z" stroke="black" stroke-width="2" stroke-linecap="round" stroke-linejoin="round"/>
<path d="M18.3333 10.0002C18.3333 10.9206 19.0795 11.6668 20 11.6668C20.9205 11.6668 21.6666 10.9206 21.6666 10.0002C21.6666 9.07969 20.9205 8.3335 20 8.3335C19.0795 8.3335 18.3333 9.07969 18.3333 10.0002Z" stroke="black" stroke-width="2" stroke-linecap="round" stroke-linejoin="round"/>
</svg>
