<svg width="33" height="32" viewBox="0 0 33 32" fill="none" xmlns="http://www.w3.org/2000/svg">
<path d="M15.167 24.0003C15.167 24.7367 15.7639 25.3337 16.5003 25.3337C17.2367 25.3337 17.8337 24.7367 17.8337 24.0003C17.8337 23.2639 17.2367 22.667 16.5003 22.667C15.7639 22.667 15.167 23.2639 15.167 24.0003Z" fill="black"/>
<path d="M15.167 16.0003C15.167 16.7367 15.7639 17.3337 16.5003 17.3337C17.2367 17.3337 17.8337 16.7367 17.8337 16.0003C17.8337 15.2639 17.2367 14.667 16.5003 14.667C15.7639 14.667 15.167 15.2639 15.167 16.0003Z" fill="black"/>
<path d="M15.167 8.00033C15.167 8.73671 15.7639 9.33366 16.5003 9.33366C17.2367 9.33366 17.8337 8.73671 17.8337 8.00033C17.8337 7.26395 17.2367 6.66699 16.5003 6.66699C15.7639 6.66699 15.167 7.26395 15.167 8.00033Z" fill="black"/>
<path d="M15.167 24.0003C15.167 24.7367 15.7639 25.3337 16.5003 25.3337C17.2367 25.3337 17.8337 24.7367 17.8337 24.0003C17.8337 23.2639 17.2367 22.667 16.5003 22.667C15.7639 22.667 15.167 23.2639 15.167 24.0003Z" stroke="black" stroke-width="1.86732" stroke-linecap="round" stroke-linejoin="round"/>
<path d="M15.167 16.0003C15.167 16.7367 15.7639 17.3337 16.5003 17.3337C17.2367 17.3337 17.8337 16.7367 17.8337 16.0003C17.8337 15.2639 17.2367 14.667 16.5003 14.667C15.7639 14.667 15.167 15.2639 15.167 16.0003Z" stroke="black" stroke-width="1.86732" stroke-linecap="round" stroke-linejoin="round"/>
<path d="M15.167 8.00033C15.167 8.73671 15.7639 9.33366 16.5003 9.33366C17.2367 9.33366 17.8337 8.73671 17.8337 8.00033C17.8337 7.26395 17.2367 6.66699 16.5003 6.66699C15.7639 6.66699 15.167 7.26395 15.167 8.00033Z" stroke="black" stroke-width="1.86732" stroke-linecap="round" stroke-linejoin="round"/>
</svg>
