<svg width="41" height="46" viewBox="0 0 41 46" fill="none" xmlns="http://www.w3.org/2000/svg">
<g clip-path="url(#clip0_966_5450)">
<path d="M7.81659 22.8083C13.5866 26.8486 19.2401 30.8071 25.0188 34.8534C25.6421 33.8253 26.3612 32.8903 26.8073 31.8488C27.7653 29.6166 26.9877 27.0869 25.0232 25.6917C22.1547 23.6572 19.274 21.6401 16.3811 19.6405C14.0224 18.0084 10.8324 18.5932 9.13902 20.9289C8.69484 21.5357 8.27532 22.1532 7.81659 22.8083Z" fill="black"/>
<path d="M17.9977 18.8583C20.4378 20.5669 22.7701 22.1999 25.1886 23.8934C27.133 20.3536 29.0451 16.8692 30.9895 13.3294C29.3051 12.15 27.6639 11.0008 25.945 9.79718C23.3216 12.79 20.6982 15.7828 17.9977 18.8583Z" fill="black"/>
<path d="M24.7052 1.52892C23.5317 3.70134 24.1221 6.5166 26.0942 7.95609C28.2576 9.53602 30.4516 11.0723 32.6719 12.5618C34.7034 13.9257 37.5465 13.5146 39.1865 11.6688C34.3753 8.29994 29.5683 4.93409 24.7052 1.52892Z" fill="black"/>
<path d="M9.09578 39.4299C11.5747 36.6159 14.0536 33.8018 16.584 30.9326C15.8282 30.4034 15.1328 29.9165 14.3425 29.3631C12.5215 32.6899 10.7188 35.9906 8.91924 39.2868C8.97233 39.3305 9.03406 39.3802 9.09578 39.4299Z" fill="black"/>
</g>
<defs>
<clipPath id="clip0_966_5450">
<rect width="21" height="40" fill="white" transform="matrix(-0.819152 -0.573576 -0.573576 0.819152 40.5732 12.6395)"/>
</clipPath>
</defs>
</svg>
