<svg width="42" height="46" viewBox="0 0 42 46" fill="none" xmlns="http://www.w3.org/2000/svg">
<g clip-path="url(#clip0_966_5437)">
<path d="M8.31659 22.7138C14.0866 26.7541 19.7401 30.7127 25.5188 34.7589C26.1421 33.7309 26.8612 32.7959 27.3073 31.7543C28.2653 29.5221 27.4877 26.9924 25.5232 25.5973C22.6547 23.5627 19.774 21.5456 16.8811 19.546C14.5224 17.914 11.3324 18.4987 9.63902 20.8344C9.19484 21.4412 8.77532 22.0587 8.31659 22.7138Z" fill="black"/>
<path d="M18.4977 18.764C20.9378 20.4727 23.2701 22.1057 25.6886 23.7992C27.633 20.2594 29.5451 16.775 31.4895 13.2351C29.8051 12.0557 28.1639 10.9065 26.445 9.70294C23.8216 12.6958 21.1982 15.6886 18.4977 18.764Z" fill="black"/>
<path d="M25.2052 1.43456C24.0317 3.60698 24.6221 6.42224 26.5942 7.86172C28.7576 9.44166 30.9516 10.9779 33.1719 12.4675C35.2034 13.8314 38.0465 13.4203 39.6865 11.5745C34.8753 8.20558 30.0683 4.83973 25.2052 1.43456Z" fill="black"/>
<path d="M9.59578 39.3355C12.0747 36.5214 14.5536 33.7073 17.084 30.8381C16.3282 30.3089 15.6328 29.822 14.8425 29.2686C13.0215 32.5954 11.2188 35.8961 9.41924 39.1923C9.47233 39.236 9.53406 39.2857 9.59578 39.3355Z" fill="black"/>
</g>
<defs>
<clipPath id="clip0_966_5437">
<rect width="21" height="40" fill="white" transform="matrix(-0.819152 -0.573576 -0.573576 0.819152 41.0732 12.5452)"/>
</clipPath>
</defs>
</svg>
