<svg width="20" height="20" viewBox="0 0 20 20" fill="none" xmlns="http://www.w3.org/2000/svg">
<path d="M14.3472 16.1102C13.2791 14.9173 11.7272 14.1667 10 14.1667C8.27279 14.1667 6.72077 14.9173 5.65267 16.1102M10 17.5C5.85786 17.5 2.5 14.1421 2.5 10C2.5 5.85786 5.85786 2.5 10 2.5C14.1421 2.5 17.5 5.85786 17.5 10C17.5 14.1421 14.1421 17.5 10 17.5ZM10 11.6667C8.61929 11.6667 7.5 10.5474 7.5 9.16667C7.5 7.78595 8.61929 6.66667 10 6.66667C11.3807 6.66667 12.5 7.78595 12.5 9.16667C12.5 10.5474 11.3807 11.6667 10 11.6667Z" stroke="#FFB703" stroke-width="2" stroke-linecap="round" stroke-linejoin="round"/>
</svg>
