<svg width="21" height="20" viewBox="0 0 21 20" fill="none" xmlns="http://www.w3.org/2000/svg">
<path d="M14.8472 16.1102C13.7791 14.9173 12.2272 14.1667 10.5 14.1667C8.77279 14.1667 7.22077 14.9173 6.15267 16.1102M10.5 17.5C6.35786 17.5 3 14.1421 3 10C3 5.85786 6.35786 2.5 10.5 2.5C14.6421 2.5 18 5.85786 18 10C18 14.1421 14.6421 17.5 10.5 17.5ZM10.5 11.6667C9.11929 11.6667 8 10.5474 8 9.16667C8 7.78595 9.11929 6.66667 10.5 6.66667C11.8807 6.66667 13 7.78595 13 9.16667C13 10.5474 11.8807 11.6667 10.5 11.6667Z" stroke="#FFB703" stroke-width="2" stroke-linecap="round" stroke-linejoin="round"/>
</svg>
