<svg width="25" height="25" viewBox="0 0 25 25" fill="none" xmlns="http://www.w3.org/2000/svg">
<path d="M12.5 25C19.4036 25 25 19.4036 25 12.5C25 5.59644 19.4036 0 12.5 0C5.59644 0 0 5.59644 0 12.5C0 19.4036 5.59644 25 12.5 25Z" fill="#333333"/>
<path d="M16.7871 10.0886C13.1767 10.0886 13.172 13.6855 13.172 13.704C13.172 13.704 12.9246 17.3052 16.7871 17.3052C16.7871 17.3052 20.0082 17.4884 20.0082 14.7989H18.3542C18.3542 14.7989 18.409 15.8114 16.8421 15.8114C16.8421 15.8114 15.1881 15.9215 15.1881 14.1757H20.0633C20.0633 14.1757 20.5994 10.0886 16.7871 10.0886ZM15.1696 12.9156C15.1696 12.9156 15.3713 11.4677 16.8238 11.4677C18.2809 11.4677 18.2579 12.9156 18.2579 12.9156H15.1696ZM11.0371 11.9902C11.0371 11.9902 12.4712 11.8848 12.4712 10.1987C12.4712 8.51728 11.2983 7.69238 9.80911 7.69238H4.91077V17.108H9.80867C9.80867 17.108 12.8008 17.1999 12.8008 14.327C12.8008 14.327 12.9293 11.9902 11.0371 11.9902ZM7.06904 9.36468H9.80889C9.80889 9.36468 10.4734 9.36468 10.4734 10.3451C10.4734 11.3255 10.0839 11.4677 9.63932 11.4677H7.06904V9.36468ZM9.67163 15.4358H7.06904V12.9156H9.80889C9.80889 12.9156 10.8034 12.9065 10.7987 14.2122C10.7987 15.3121 10.0611 15.4266 9.67163 15.4358ZM14.7618 8.24677V9.40612H18.6474V8.24677H14.7618Z" fill="white"/>
</svg>
