<svg width="25" height="25" viewBox="0 0 25 25" fill="none" xmlns="http://www.w3.org/2000/svg">
<path d="M7.86475 22.5C17.2964 22.5 22.4565 14.8046 22.4565 8.13322C22.4565 7.91688 22.4517 7.69574 22.4419 7.4794C23.4457 6.76466 24.312 5.87935 25 4.86507C24.0651 5.2746 23.0725 5.54206 22.0562 5.65831C23.1263 5.02672 23.9276 4.03451 24.3115 2.86563C23.3047 3.45308 22.2037 3.86748 21.0557 4.09106C20.2821 3.28181 19.2594 2.74599 18.1455 2.56644C17.0316 2.38689 15.8887 2.57362 14.8935 3.09775C13.8982 3.62188 13.106 4.45422 12.6394 5.46609C12.1728 6.47796 12.0577 7.61299 12.312 8.6957C10.2734 8.59498 8.2791 8.07358 6.45831 7.1653C4.63753 6.25702 3.03093 4.98213 1.74268 3.4233C1.08792 4.53477 0.887559 5.85001 1.18232 7.1017C1.47709 8.35339 2.24486 9.44762 3.32959 10.162C2.51524 10.1365 1.71872 9.92066 1.00586 9.53221V9.59471C1.00513 10.7611 1.41469 11.8918 2.16491 12.7945C2.91513 13.6972 3.95971 14.3163 5.12109 14.5464C4.36672 14.7497 3.57498 14.7793 2.80713 14.633C3.13485 15.6361 3.77247 16.5135 4.63101 17.1426C5.48955 17.7718 6.52617 18.1213 7.59619 18.1425C5.77961 19.5474 3.5356 20.3095 1.22559 20.3058C0.815924 20.3052 0.406666 20.2805 0 20.2318C2.34673 21.7141 5.07659 22.5014 7.86475 22.5Z" fill="#333333"/>
</svg>
