<svg width="31" height="30" viewBox="0 0 31 30" fill="none" xmlns="http://www.w3.org/2000/svg">
<g clip-path="url(#clip0_966_5957)">
<path d="M9.9377 27C21.2557 27 27.4479 17.7655 27.4479 9.75987C27.4479 9.50026 27.442 9.23488 27.4303 8.97528C28.6348 8.11759 29.6744 7.05522 30.5 5.83809C29.3782 6.32952 28.1871 6.65047 26.9674 6.78997C28.2516 6.03206 29.2132 4.84141 29.6738 3.43875C28.4657 4.1437 27.1445 4.64098 25.7668 4.90927C24.8385 3.93817 23.6112 3.29519 22.2746 3.07973C20.938 2.86427 19.5665 3.08834 18.3722 3.7173C17.1779 4.34626 16.2273 5.34507 15.6673 6.55931C15.1074 7.77355 14.9693 9.13559 15.2744 10.4348C12.8281 10.314 10.4349 9.68829 8.24998 8.59835C6.06503 7.50842 4.13712 5.97856 2.59121 4.10796C1.8055 5.44173 1.56507 7.02001 1.91879 8.52204C2.27251 10.0241 3.19383 11.3371 4.49551 12.1944C3.51829 12.1638 2.56247 11.9048 1.70703 11.4386V11.5136C1.70616 12.9133 2.19762 14.2701 3.09789 15.3534C3.99815 16.4367 5.25165 17.1795 6.64531 17.4557C5.74007 17.6996 4.78998 17.7351 3.86855 17.5596C4.26182 18.7633 5.02697 19.8161 6.05721 20.5711C7.08746 21.3261 8.3314 21.7456 9.61543 21.771C7.43553 23.4569 4.74272 24.3713 1.9707 24.367C1.47911 24.3663 0.987999 24.3366 0.5 24.2782C3.31607 26.057 6.59191 27.0017 9.9377 27Z" fill="#5A5A5A"/>
</g>
<defs>
<clipPath id="clip0_966_5957">
<rect width="30" height="30" fill="white" transform="translate(0.5)"/>
</clipPath>
</defs>
</svg>
