<svg width="31" height="30" viewBox="0 0 31 30" fill="none" xmlns="http://www.w3.org/2000/svg">
<g clip-path="url(#clip0_966_5959)">
<path d="M30.5 15.0917C30.5 6.75677 23.7843 0 15.5 0C7.21572 0 0.5 6.75677 0.5 15.0917C0.5 22.6242 5.98525 28.8678 13.1562 30V19.4541H9.34766V15.0917H13.1562V11.7668C13.1562 7.98444 15.3957 5.89518 18.822 5.89518C20.4626 5.89518 22.1797 6.18994 22.1797 6.18994V9.90391H20.2883C18.425 9.90391 17.8438 11.0673 17.8438 12.262V15.0917H22.0039L21.3389 19.4541H17.8438V30C25.0147 28.8678 30.5 22.6242 30.5 15.0917Z" fill="#5A5A5A"/>
</g>
<defs>
<clipPath id="clip0_966_5959">
<rect width="30" height="30" fill="white" transform="translate(0.5)"/>
</clipPath>
</defs>
</svg>
