<svg width="31" height="30" viewBox="0 0 31 30" fill="none" xmlns="http://www.w3.org/2000/svg">
<g clip-path="url(#clip0_966_5955)">
<path d="M28.2854 0H2.71458C2.12724 0 1.56395 0.233322 1.14864 0.648637C0.733322 1.06395 0.5 1.62724 0.5 2.21458V27.7854C0.5 28.3728 0.733322 28.9361 1.14864 29.3514C1.56395 29.7667 2.12724 30 2.71458 30H28.2854C28.8728 30 29.4361 29.7667 29.8514 29.3514C30.2667 28.9361 30.5 28.3728 30.5 27.7854V2.21458C30.5 1.62724 30.2667 1.06395 29.8514 0.648637C29.4361 0.233322 28.8728 0 28.2854 0ZM9.44167 25.5562H4.93125V11.2292H9.44167V25.5562ZM7.18333 9.24375C6.67171 9.24087 6.17239 9.08649 5.74842 8.80011C5.32444 8.51372 4.9948 8.10816 4.8011 7.63461C4.60739 7.16106 4.55831 6.64074 4.66004 6.13932C4.76177 5.6379 5.00975 5.17785 5.37269 4.81723C5.73564 4.45661 6.19727 4.21158 6.69933 4.11308C7.2014 4.01457 7.72139 4.06699 8.19369 4.26373C8.66599 4.46047 9.06942 4.79271 9.35308 5.21852C9.63674 5.64432 9.7879 6.14461 9.7875 6.65625C9.79233 6.99879 9.72814 7.3388 9.59877 7.65601C9.46939 7.97321 9.27748 8.26113 9.03446 8.50258C8.79145 8.74404 8.50231 8.9341 8.18428 9.06144C7.86625 9.18877 7.52584 9.25078 7.18333 9.24375ZM26.0667 25.5688H21.5583V17.7417C21.5583 15.4333 20.5771 14.7208 19.3104 14.7208C17.9729 14.7208 16.6604 15.7292 16.6604 17.8V25.5688H12.15V11.2396H16.4875V13.225H16.5458C16.9813 12.3438 18.5063 10.8375 20.8333 10.8375C23.35 10.8375 26.0688 12.3313 26.0688 16.7063L26.0667 25.5688Z" fill="#5A5A5A"/>
</g>
<defs>
<clipPath id="clip0_966_5955">
<rect width="30" height="30" fill="white" transform="translate(0.5)"/>
</clipPath>
</defs>
</svg>
