<svg width="26" height="25" viewBox="0 0 26 25" fill="none" xmlns="http://www.w3.org/2000/svg">
<path d="M13 25C19.9036 25 25.5 19.4036 25.5 12.5C25.5 5.59644 19.9036 0 13 0C6.09644 0 0.5 5.59644 0.5 12.5C0.5 19.4036 6.09644 25 13 25Z" fill="#333333"/>
<path d="M17.2874 10.0886C13.677 10.0886 13.6723 13.6855 13.6723 13.704C13.6723 13.704 13.425 17.3052 17.2874 17.3052C17.2874 17.3052 20.5086 17.4884 20.5086 14.7989H18.8546C18.8546 14.7989 18.9094 15.8114 17.3425 15.8114C17.3425 15.8114 15.6885 15.9215 15.6885 14.1757H20.5636C20.5636 14.1757 21.0998 10.0886 17.2874 10.0886ZM15.67 12.9156C15.67 12.9156 15.8716 11.4677 17.3242 11.4677C18.7813 11.4677 18.7583 12.9156 18.7583 12.9156H15.67ZM11.5375 11.9902C11.5375 11.9902 12.9716 11.8848 12.9716 10.1987C12.9716 8.51728 11.7986 7.69238 10.3095 7.69238H5.41113V17.108H10.309C10.309 17.108 13.3011 17.1999 13.3011 14.327C13.3011 14.327 13.4297 11.9902 11.5375 11.9902ZM7.56941 9.36468H10.3093C10.3093 9.36468 10.9737 9.36468 10.9737 10.3451C10.9737 11.3255 10.5842 11.4677 10.1397 11.4677H7.56941V9.36468ZM10.172 15.4358H7.56941V12.9156H10.3093C10.3093 12.9156 11.3037 12.9065 11.299 14.2122C11.299 15.3121 10.5615 15.4266 10.172 15.4358ZM15.2622 8.24677V9.40612H19.1478V8.24677H15.2622Z" fill="white"/>
</svg>
