<svg width="26" height="25" viewBox="0 0 26 25" fill="none" xmlns="http://www.w3.org/2000/svg">
<g clip-path="url(#clip0_900_6749)">
<path d="M8.36475 22.5C17.7964 22.5 22.9565 14.8046 22.9565 8.13322C22.9565 7.91688 22.9517 7.69574 22.9419 7.4794C23.9457 6.76466 24.812 5.87935 25.5 4.86507C24.5651 5.2746 23.5725 5.54206 22.5562 5.65831C23.6263 5.02672 24.4276 4.03451 24.8115 2.86563C23.8047 3.45308 22.7037 3.86748 21.5557 4.09106C20.7821 3.28181 19.7594 2.74599 18.6455 2.56644C17.5316 2.38689 16.3887 2.57362 15.3935 3.09775C14.3982 3.62188 13.606 4.45422 13.1394 5.46609C12.6728 6.47796 12.5577 7.61299 12.812 8.6957C10.7734 8.59498 8.7791 8.07358 6.95831 7.1653C5.13753 6.25702 3.53093 4.98213 2.24268 3.4233C1.58792 4.53477 1.38756 5.85001 1.68232 7.1017C1.97709 8.35339 2.74486 9.44762 3.82959 10.162C3.01524 10.1365 2.21872 9.92066 1.50586 9.53221V9.59471C1.50513 10.7611 1.91469 11.8918 2.66491 12.7945C3.41513 13.6972 4.45971 14.3163 5.62109 14.5464C4.86672 14.7497 4.07498 14.7793 3.30713 14.633C3.63485 15.6361 4.27247 16.5135 5.13101 17.1426C5.98955 17.7718 7.02617 18.1213 8.09619 18.1425C6.27961 19.5474 4.0356 20.3095 1.72559 20.3058C1.31592 20.3052 0.906666 20.2805 0.5 20.2318C2.84673 21.7141 5.57659 22.5014 8.36475 22.5Z" fill="#333333"/>
</g>
<defs>
<clipPath id="clip0_900_6749">
<rect width="25" height="25" fill="white" transform="translate(0.5)"/>
</clipPath>
</defs>
</svg>
