<svg width="16" height="15" viewBox="0 0 16 15" fill="none" xmlns="http://www.w3.org/2000/svg">
<path d="M7.25182 1.16144C7.52133 0.334794 8.69078 0.334792 8.96028 1.16144L10.1266 4.73893C10.2472 5.10869 10.5919 5.35892 10.9808 5.35892L14.7487 5.35892C15.6198 5.35892 15.9812 6.47423 15.2756 6.98513L12.2326 9.18856C11.9166 9.41736 11.7844 9.8239 11.9053 10.1948L13.0689 13.7638C13.3386 14.591 12.3925 15.2803 11.6877 14.77L8.633 12.5581C8.31859 12.3305 7.89352 12.3305 7.57911 12.5581L4.52438 14.77C3.81964 15.2803 2.87351 14.591 3.14321 13.7638L4.30678 10.1948C4.42769 9.8239 4.29546 9.41735 3.97949 9.18856L0.936461 6.98513C0.230894 6.47423 0.592294 5.35892 1.46341 5.35892L5.23126 5.35892C5.62018 5.35892 5.96494 5.10869 6.08549 4.73893L7.25182 1.16144Z" fill="#FFB703"/>
</svg>
