<svg width="16" height="16" viewBox="0 0 16 16" fill="none" xmlns="http://www.w3.org/2000/svg">
<path d="M7.04502 1.3343C7.31444 0.505119 8.48751 0.505117 8.75693 1.3343L9.9216 4.9188C10.0421 5.28962 10.3876 5.54068 10.7776 5.54068H14.5465C15.4184 5.54068 15.7809 6.65634 15.0755 7.1688L12.0264 9.38414C11.7109 9.61332 11.5789 10.0196 11.6994 10.3904L12.8641 13.9749C13.1335 14.8041 12.1845 15.4936 11.4791 14.9811L8.42998 12.7658C8.11454 12.5366 7.68741 12.5366 7.37197 12.7658L4.32281 14.9811C3.61747 15.4936 2.66844 14.8041 2.93785 13.9749L4.10253 10.3904C4.22301 10.0196 4.09102 9.61332 3.77558 9.38414L0.726428 7.1688C0.0210855 6.65634 0.383581 5.54068 1.25543 5.54068H5.0244C5.4143 5.54068 5.75986 5.28962 5.88035 4.9188L7.04502 1.3343Z" fill="#858585"/>
</svg>
