<svg width="16" height="16" viewBox="0 0 16 16" fill="none" xmlns="http://www.w3.org/2000/svg">
<path d="M7.24424 1.3343C7.51366 0.505119 8.68673 0.505117 8.95615 1.3343L10.1208 4.9188C10.2413 5.28962 10.5869 5.54068 10.9768 5.54068H14.7457C15.6176 5.54068 15.9801 6.65634 15.2747 7.1688L12.2256 9.38414C11.9101 9.61332 11.7782 10.0196 11.8986 10.3904L13.0633 13.9749C13.3327 14.8041 12.3837 15.4936 11.6784 14.9811L8.6292 12.7658C8.31376 12.5366 7.88663 12.5366 7.57119 12.7658L4.52203 14.9811C3.81669 15.4936 2.86766 14.8041 3.13707 13.9749L4.30175 10.3904C4.42223 10.0196 4.29024 9.61332 3.9748 9.38414L0.925647 7.1688C0.220304 6.65634 0.5828 5.54068 1.45465 5.54068H5.22362C5.61352 5.54068 5.95908 5.28962 6.07957 4.9188L7.24424 1.3343Z" fill="#FFB703"/>
</svg>
