<svg width="17" height="16" viewBox="0 0 17 16" fill="none" xmlns="http://www.w3.org/2000/svg">
<path d="M7.64463 1.3343C7.91405 0.505119 9.08712 0.505117 9.35654 1.3343L10.5212 4.9188C10.6417 5.28962 10.9873 5.54068 11.3772 5.54068H15.1461C16.018 5.54068 16.3805 6.65634 15.6751 7.1688L12.626 9.38414C12.3105 9.61332 12.1785 10.0196 12.299 10.3904L13.4637 13.9749C13.7331 14.8041 12.7841 15.4936 12.0788 14.9811L9.02959 12.7658C8.71415 12.5366 8.28702 12.5366 7.97158 12.7658L4.92242 14.9811C4.21708 15.4936 3.26805 14.8041 3.53746 13.9749L4.70214 10.3904C4.82262 10.0196 4.69063 9.61332 4.37519 9.38414L1.32604 7.1688C0.620695 6.65634 0.983191 5.54068 1.85504 5.54068H5.62401C6.01391 5.54068 6.35947 5.28962 6.47996 4.9188L7.64463 1.3343Z" fill="#FFB703"/>
</svg>
