<svg width="16" height="15" viewBox="0 0 16 15" fill="none" xmlns="http://www.w3.org/2000/svg">
<path d="M7.04284 1.16144C7.31234 0.334794 8.4818 0.334792 8.7513 1.16144L9.91763 4.73893C10.0382 5.10869 10.3829 5.35892 10.7719 5.35892L14.5397 5.35892C15.4108 5.35892 15.7722 6.47423 15.0667 6.98513L12.0236 9.18856C11.7077 9.41736 11.5754 9.8239 11.6963 10.1948L12.8599 13.7638C13.1296 14.591 12.1835 15.2803 11.4787 14.77L8.42402 12.5581C8.1096 12.3305 7.68454 12.3305 7.37012 12.5581L4.3154 14.77C3.61065 15.2803 2.66453 14.591 2.93423 13.7638L4.09779 10.1948C4.21871 9.8239 4.08648 9.41735 3.77051 9.18856L0.727477 6.98513C0.0219092 6.47423 0.383309 5.35892 1.25442 5.35892L5.02228 5.35892C5.4112 5.35892 5.75596 5.10869 5.87651 4.73893L7.04284 1.16144Z" fill="#FFB703"/>
</svg>
