<svg width="17" height="15" viewBox="0 0 17 15" fill="none" xmlns="http://www.w3.org/2000/svg">
<path d="M7.63952 1.16144C7.90902 0.334794 9.07848 0.334792 9.34798 1.16144L10.5143 4.73893C10.6349 5.10869 10.9796 5.35892 11.3685 5.35892L15.1364 5.35892C16.0075 5.35892 16.3689 6.47423 15.6633 6.98513L12.6203 9.18856C12.3043 9.41736 12.1721 9.8239 12.293 10.1948L13.4566 13.7638C13.7263 14.591 12.7802 15.2803 12.0754 14.77L9.02069 12.5581C8.70628 12.3305 8.28122 12.3305 7.9668 12.5581L4.91208 14.77C4.20733 15.2803 3.26121 14.591 3.53091 13.7638L4.69447 10.1948C4.81539 9.8239 4.68316 9.41735 4.36719 9.18856L1.32416 6.98513C0.618589 6.47423 0.979989 5.35892 1.8511 5.35892L5.61896 5.35892C6.00787 5.35892 6.35264 5.10869 6.47319 4.73893L7.63952 1.16144Z" fill="#858585"/>
</svg>
