<svg width="16" height="15" viewBox="0 0 16 15" fill="none" xmlns="http://www.w3.org/2000/svg">
<path d="M6.8485 1.16144C7.11801 0.334794 8.28746 0.334792 8.55696 1.16144L9.7233 4.73893C9.84384 5.10869 10.1886 5.35892 10.5775 5.35892L14.3454 5.35892C15.2165 5.35892 15.5779 6.47423 14.8723 6.98513L11.8293 9.18856C11.5133 9.41736 11.3811 9.8239 11.502 10.1948L12.6656 13.7638C12.9353 14.591 11.9891 15.2803 11.2844 14.77L8.22968 12.5581C7.91527 12.3305 7.4902 12.3305 7.17579 12.5581L4.12106 14.77C3.41632 15.2803 2.47019 14.591 2.73989 13.7638L3.90346 10.1948C4.02437 9.8239 3.89214 9.41735 3.57617 9.18856L0.533141 6.98513C-0.172427 6.47423 0.188973 5.35892 1.06009 5.35892L4.82794 5.35892C5.21686 5.35892 5.56162 5.10869 5.68217 4.73893L6.8485 1.16144Z" fill="#FFB703"/>
</svg>
