<svg width="16" height="16" viewBox="0 0 16 16" fill="none" xmlns="http://www.w3.org/2000/svg">
<path d="M7.44444 1.3343C7.71386 0.505119 8.88692 0.505117 9.15634 1.3343L10.321 4.9188C10.4415 5.28962 10.7871 5.54068 11.177 5.54068H14.9459C15.8178 5.54068 16.1803 6.65634 15.4749 7.1688L12.4258 9.38414C12.1103 9.61332 11.9784 10.0196 12.0988 10.3904L13.2635 13.9749C13.5329 14.8041 12.5839 15.4936 11.8786 14.9811L8.8294 12.7658C8.51396 12.5366 8.08682 12.5366 7.77138 12.7658L4.72223 14.9811C4.01688 15.4936 3.06785 14.8041 3.33727 13.9749L4.50194 10.3904C4.62243 10.0196 4.49044 9.61332 4.175 9.38414L1.12584 7.1688C0.4205 6.65634 0.782995 5.54068 1.65485 5.54068H5.42381C5.81372 5.54068 6.15928 5.28962 6.27976 4.9188L7.44444 1.3343Z" fill="#FFB703"/>
</svg>
