<svg width="16" height="15" viewBox="0 0 16 15" fill="none" xmlns="http://www.w3.org/2000/svg">
<path d="M7.44616 1.16144C7.71566 0.334794 8.88512 0.334792 9.15462 1.16144L10.321 4.73893C10.4415 5.10869 10.7863 5.35892 11.1752 5.35892L14.943 5.35892C15.8141 5.35892 16.1755 6.47423 15.47 6.98513L12.427 9.18856C12.111 9.41736 11.9788 9.8239 12.0997 10.1948L13.2632 13.7638C13.5329 14.591 12.5868 15.2803 11.8821 14.77L8.82734 12.5581C8.51292 12.3305 8.08786 12.3305 7.77344 12.5581L4.71872 14.77C4.01397 15.2803 3.06785 14.591 3.33755 13.7638L4.50111 10.1948C4.62203 9.8239 4.4898 9.41735 4.17383 9.18856L1.1308 6.98513C0.42523 6.47423 0.78663 5.35892 1.65774 5.35892L5.4256 5.35892C5.81452 5.35892 6.15928 5.10869 6.27983 4.73893L7.44616 1.16144Z" fill="#FFB703"/>
</svg>
