<svg width="16" height="16" viewBox="0 0 16 16" fill="none" xmlns="http://www.w3.org/2000/svg">
<path d="M6.84483 1.3343C7.11425 0.505119 8.28731 0.505117 8.55673 1.3343L9.72141 4.9188C9.84189 5.28962 10.1875 5.54068 10.5774 5.54068H14.3463C15.2182 5.54068 15.5807 6.65634 14.8753 7.1688L11.8262 9.38414C11.5107 9.61332 11.3787 10.0196 11.4992 10.3904L12.6639 13.9749C12.9333 14.8041 11.9843 15.4936 11.2789 14.9811L8.22979 12.7658C7.91435 12.5366 7.48721 12.5366 7.17177 12.7658L4.12262 14.9811C3.41727 15.4936 2.46824 14.8041 2.73766 13.9749L3.90233 10.3904C4.02282 10.0196 3.89083 9.61332 3.57539 9.38414L0.526232 7.1688C-0.17911 6.65634 0.183386 5.54068 1.05524 5.54068H4.8242C5.21411 5.54068 5.55967 5.28962 5.68015 4.9188L6.84483 1.3343Z" fill="#FFB703"/>
</svg>
