<svg width="28" height="26" viewBox="0 0 28 26" fill="none" xmlns="http://www.w3.org/2000/svg">
<path d="M10.8647 23.6582C20.2964 23.6582 25.4565 15.9628 25.4565 9.29142C25.4565 9.07509 25.4517 8.85394 25.4419 8.6376C26.4457 7.92286 27.312 7.03755 28 6.02328C27.0651 6.4328 26.0725 6.70026 25.0562 6.81652C26.1263 6.18492 26.9276 5.19272 27.3115 4.02383C26.3047 4.61129 25.2037 5.02569 24.0557 5.24927C23.2821 4.44001 22.2594 3.90419 21.1455 3.72465C20.0316 3.5451 18.8887 3.73182 17.8935 4.25595C16.8982 4.78008 16.106 5.61243 15.6394 6.62429C15.1728 7.63616 15.0577 8.77119 15.312 9.8539C13.2734 9.75318 11.2791 9.23178 9.45831 8.3235C7.63753 7.41522 6.03093 6.14034 4.74268 4.5815C4.08792 5.69298 3.88756 7.00821 4.18232 8.2599C4.47709 9.5116 5.24486 10.6058 6.32959 11.3202C5.51524 11.2947 4.71872 11.0789 4.00586 10.6904V10.7529C4.00513 11.9193 4.41469 13.05 5.16491 13.9527C5.91513 14.8554 6.95971 15.4745 8.12109 15.7046C7.36672 15.9079 6.57498 15.9375 5.80713 15.7912C6.13485 16.7943 6.77247 17.6717 7.63101 18.3008C8.48955 18.93 9.52617 19.2795 10.5962 19.3007C8.77961 20.7056 6.5356 21.4677 4.22559 21.4641C3.81592 21.4634 3.40667 21.4387 3 21.39C5.34673 22.8723 8.07659 23.6596 10.8647 23.6582Z" fill="#5B5B5B"/>
</svg>
