<svg width="29" height="26" viewBox="0 0 29 26" fill="none" xmlns="http://www.w3.org/2000/svg">
<g clip-path="url(#clip0_990_17173)">
<path d="M11.3647 23.75C20.7964 23.75 25.9565 16.0546 25.9565 9.38322C25.9565 9.16688 25.9517 8.94574 25.9419 8.7294C26.9457 8.01466 27.812 7.12935 28.5 6.11507C27.5651 6.5246 26.5725 6.79206 25.5562 6.90831C26.6263 6.27672 27.4276 5.28451 27.8115 4.11563C26.8047 4.70308 25.7037 5.11748 24.5557 5.34106C23.7821 4.53181 22.7594 3.99599 21.6455 3.81644C20.5316 3.63689 19.3887 3.82362 18.3935 4.34775C17.3982 4.87188 16.606 5.70422 16.1394 6.71609C15.6728 7.72796 15.5577 8.86299 15.812 9.9457C13.7734 9.84498 11.7791 9.32358 9.95831 8.4153C8.13753 7.50702 6.53093 6.23213 5.24268 4.6733C4.58792 5.78477 4.38756 7.10001 4.68232 8.3517C4.97709 9.60339 5.74486 10.6976 6.82959 11.412C6.01524 11.3865 5.21872 11.1707 4.50586 10.7822V10.8447C4.50513 12.0111 4.91469 13.1418 5.66491 14.0445C6.41513 14.9472 7.45971 15.5663 8.62109 15.7964C7.86672 15.9997 7.07498 16.0293 6.30713 15.883C6.63485 16.8861 7.27247 17.7635 8.13101 18.3926C8.98955 19.0218 10.0262 19.3713 11.0962 19.3925C9.27961 20.7974 7.0356 21.5595 4.72559 21.5558C4.31592 21.5552 3.90667 21.5305 3.5 21.4818C5.84673 22.9641 8.57659 23.7514 11.3647 23.75Z" fill="#5B5B5B"/>
</g>
<defs>
<clipPath id="clip0_990_17173">
<rect width="28" height="25" fill="white" transform="translate(0.5 0.75)"/>
</clipPath>
</defs>
</svg>
