<svg width="29" height="26" viewBox="0 0 29 26" fill="none" xmlns="http://www.w3.org/2000/svg">
<g clip-path="url(#clip0_900_7303)">
<path d="M11.3647 23.5C20.7964 23.5 25.9565 15.8046 25.9565 9.13322C25.9565 8.91688 25.9517 8.69574 25.9419 8.4794C26.9457 7.76466 27.812 6.87935 28.5 5.86507C27.5651 6.2746 26.5725 6.54206 25.5562 6.65831C26.6263 6.02672 27.4276 5.03451 27.8115 3.86563C26.8047 4.45308 25.7037 4.86748 24.5557 5.09106C23.7821 4.28181 22.7594 3.74599 21.6455 3.56644C20.5316 3.38689 19.3887 3.57362 18.3935 4.09775C17.3982 4.62188 16.606 5.45422 16.1394 6.46609C15.6728 7.47796 15.5577 8.61299 15.812 9.6957C13.7734 9.59498 11.7791 9.07358 9.95831 8.1653C8.13753 7.25702 6.53093 5.98213 5.24268 4.4233C4.58792 5.53477 4.38756 6.85001 4.68232 8.1017C4.97709 9.35339 5.74486 10.4476 6.82959 11.162C6.01524 11.1365 5.21872 10.9207 4.50586 10.5322V10.5947C4.50513 11.7611 4.91469 12.8918 5.66491 13.7945C6.41513 14.6972 7.45971 15.3163 8.62109 15.5464C7.86672 15.7497 7.07498 15.7793 6.30713 15.633C6.63485 16.6361 7.27247 17.5135 8.13101 18.1426C8.98955 18.7718 10.0262 19.1213 11.0962 19.1425C9.27961 20.5474 7.0356 21.3095 4.72559 21.3058C4.31592 21.3052 3.90667 21.2805 3.5 21.2318C5.84673 22.7141 8.57659 23.5014 11.3647 23.5Z" fill="#5B5B5B"/>
</g>
<defs>
<clipPath id="clip0_900_7303">
<rect width="28" height="25" fill="white" transform="translate(0.5 0.5)"/>
</clipPath>
</defs>
</svg>
