<svg width="29" height="25" viewBox="0 0 29 25" fill="none" xmlns="http://www.w3.org/2000/svg">
<g clip-path="url(#clip0_17_313)">
<path d="M11.3647 23C20.7964 23 25.9565 15.3046 25.9565 8.63322C25.9565 8.41688 25.9517 8.19574 25.9419 7.9794C26.9457 7.26466 27.812 6.37935 28.5 5.36507C27.5651 5.7746 26.5725 6.04206 25.5562 6.15831C26.6263 5.52672 27.4276 4.53451 27.8115 3.36563C26.8047 3.95308 25.7037 4.36748 24.5557 4.59106C23.7821 3.78181 22.7594 3.24599 21.6455 3.06644C20.5316 2.88689 19.3887 3.07362 18.3935 3.59775C17.3982 4.12188 16.606 4.95422 16.1394 5.96609C15.6728 6.97796 15.5577 8.11299 15.812 9.1957C13.7734 9.09498 11.7791 8.57358 9.95831 7.6653C8.13753 6.75702 6.53093 5.48213 5.24268 3.9233C4.58792 5.03477 4.38756 6.35001 4.68232 7.6017C4.97709 8.85339 5.74486 9.94762 6.82959 10.662C6.01524 10.6365 5.21872 10.4207 4.50586 10.0322V10.0947C4.50513 11.2611 4.91469 12.3918 5.66491 13.2945C6.41513 14.1972 7.45971 14.8163 8.62109 15.0464C7.86672 15.2497 7.07498 15.2793 6.30713 15.133C6.63485 16.1361 7.27247 17.0135 8.13101 17.6426C8.98955 18.2718 10.0262 18.6213 11.0962 18.6425C9.27961 20.0474 7.0356 20.8095 4.72559 20.8058C4.31592 20.8052 3.90667 20.7805 3.5 20.7318C5.84673 22.2141 8.57659 23.0014 11.3647 23Z" fill="#5B5B5B"/>
</g>
<defs>
<clipPath id="clip0_17_313">
<rect width="28" height="25" fill="white" transform="translate(0.5)"/>
</clipPath>
</defs>
</svg>
