<svg width="28" height="25" viewBox="0 0 28 25" fill="none" xmlns="http://www.w3.org/2000/svg">
<path d="M10.8647 23C20.2964 23 25.4565 15.3046 25.4565 8.63322C25.4565 8.41688 25.4517 8.19574 25.4419 7.9794C26.4457 7.26466 27.312 6.37935 28 5.36507C27.0651 5.7746 26.0725 6.04206 25.0562 6.15831C26.1263 5.52672 26.9276 4.53451 27.3115 3.36563C26.3047 3.95308 25.2037 4.36748 24.0557 4.59106C23.2821 3.78181 22.2594 3.24599 21.1455 3.06644C20.0316 2.88689 18.8887 3.07362 17.8935 3.59775C16.8982 4.12188 16.106 4.95422 15.6394 5.96609C15.1728 6.97796 15.0577 8.11299 15.312 9.1957C13.2734 9.09498 11.2791 8.57358 9.45831 7.6653C7.63753 6.75702 6.03093 5.48213 4.74268 3.9233C4.08792 5.03477 3.88756 6.35001 4.18232 7.6017C4.47709 8.85339 5.24486 9.94762 6.32959 10.662C5.51524 10.6365 4.71872 10.4207 4.00586 10.0322V10.0947C4.00513 11.2611 4.41469 12.3918 5.16491 13.2945C5.91513 14.1972 6.95971 14.8163 8.12109 15.0464C7.36672 15.2497 6.57498 15.2793 5.80713 15.133C6.13485 16.1361 6.77247 17.0135 7.63101 17.6426C8.48955 18.2718 9.52617 18.6213 10.5962 18.6425C8.77961 20.0474 6.5356 20.8095 4.22559 20.8058C3.81592 20.8052 3.40667 20.7805 3 20.7318C5.34673 22.2141 8.07659 23.0014 10.8647 23Z" fill="#5B5B5B"/>
</svg>
