<svg width="29" height="25" viewBox="0 0 29 25" fill="none" xmlns="http://www.w3.org/2000/svg">
<g clip-path="url(#clip0_990_13486)">
<path d="M11.5957 23C21.0273 23 26.1875 15.3046 26.1875 8.63322C26.1875 8.41688 26.1826 8.19574 26.1728 7.9794C27.1767 7.26466 28.0429 6.37935 28.731 5.36507C27.7961 5.7746 26.8035 6.04206 25.7871 6.15831C26.8573 5.52672 27.6586 4.53451 28.0425 3.36563C27.0357 3.95308 25.9347 4.36748 24.7866 4.59106C24.0131 3.78181 22.9903 3.24599 21.8765 3.06644C20.7626 2.88689 19.6197 3.07362 18.6244 3.59775C17.6292 4.12188 16.837 4.95422 16.3704 5.96609C15.9038 6.97796 15.7887 8.11299 16.043 9.1957C14.0044 9.09498 12.0101 8.57358 10.1893 7.6653C8.36848 6.75702 6.76189 5.48213 5.47363 3.9233C4.81887 5.03477 4.61852 6.35001 4.91328 7.6017C5.20805 8.85339 5.97581 9.94762 7.06055 10.662C6.24619 10.6365 5.44968 10.4207 4.73682 10.0322V10.0947C4.73609 11.2611 5.14564 12.3918 5.89586 13.2945C6.64608 14.1972 7.69067 14.8163 8.85205 15.0464C8.09768 15.2497 7.30594 15.2793 6.53809 15.133C6.86581 16.1361 7.50343 17.0135 8.36197 17.6426C9.22051 18.2718 10.2571 18.6213 11.3271 18.6425C9.51057 20.0474 7.26656 20.8095 4.95654 20.8058C4.54688 20.8052 4.13762 20.7805 3.73096 20.7318C6.07768 22.2141 8.80755 23.0014 11.5957 23Z" fill="#5B5B5B"/>
</g>
<defs>
<clipPath id="clip0_990_13486">
<rect width="28" height="25" fill="white" transform="translate(0.730957)"/>
</clipPath>
</defs>
</svg>
